<svg width="533" height="275" viewBox="0 0 533 275" fill="none" xmlns="http://www.w3.org/2000/svg">
<path d="M470.475 113.227H99.644C98.0694 113.227 96.5593 113.852 95.4459 114.965C94.3325 116.079 93.707 117.589 93.707 119.164C93.707 120.738 94.3325 122.248 95.4459 123.362C96.5593 124.475 98.0694 125.1 99.644 125.1H110.148V267.131C110.148 268.705 110.773 270.215 111.887 271.329C113 272.442 114.51 273.068 116.085 273.068C117.659 273.068 119.17 272.442 120.283 271.329C121.396 270.215 122.022 268.705 122.022 267.131L122.112 125.1H419.742L447.184 267.131C447.184 268.705 447.81 270.215 448.923 271.329C450.037 272.442 451.547 273.068 453.121 273.068C454.696 273.068 456.206 272.442 457.319 271.329C458.433 270.215 459.058 268.705 459.058 267.131L460.786 125.1H470.475C472.05 125.1 473.56 124.475 474.674 123.362C475.787 122.248 476.412 120.738 476.412 119.164C476.412 117.589 475.787 116.079 474.674 114.965C473.56 113.852 472.05 113.227 470.475 113.227Z" fill="#CCCCCC"/>
<path d="M163.92 86.7733V111.915H100.932C99.2808 111.972 97.6349 111.704 96.0878 111.125C94.5406 110.546 93.1226 109.669 91.9147 108.542C90.7068 107.415 89.7327 106.062 89.0479 104.559C88.3631 103.055 87.9811 101.432 87.9236 99.7813C87.8662 98.1304 88.1345 96.4845 88.7131 94.9374C89.2918 93.3902 90.1696 91.9722 91.2963 90.7643C92.4229 89.5564 93.7765 88.5823 95.2797 87.8975C96.7829 87.2127 98.4062 86.8307 100.057 86.7732C100.348 86.7631 100.64 86.7631 100.932 86.7732L163.92 86.7733Z" fill="#F2F2F2"/>
<path d="M165.47 111.724C165.47 111.98 165.368 112.226 165.187 112.407C165.006 112.588 164.76 112.69 164.503 112.69H99.8126C96.3007 112.688 92.9335 111.291 90.4511 108.807C87.9687 106.323 86.5742 102.955 86.5742 99.4429C86.5742 95.931 87.9687 92.5628 90.4511 90.0787C92.9335 87.5946 96.3007 86.1978 99.8126 86.1953H164.503C164.63 86.195 164.756 86.2198 164.874 86.2682C164.992 86.3167 165.099 86.3878 165.189 86.4777C165.279 86.5675 165.35 86.6742 165.399 86.7917C165.448 86.9092 165.473 87.0351 165.473 87.1623C165.473 87.2895 165.448 87.4155 165.399 87.5329C165.35 87.6504 165.279 87.7571 165.189 87.8469C165.099 87.9368 164.992 88.0079 164.874 88.0564C164.756 88.1048 164.63 88.1296 164.503 88.1293H99.8126C96.815 88.1338 93.9417 89.3278 91.8237 91.449C89.7056 93.5702 88.516 96.4453 88.516 99.4429C88.516 102.44 89.7056 105.316 91.8237 107.437C93.9417 109.558 96.815 110.752 99.8126 110.757H164.503C164.76 110.757 165.006 110.859 165.187 111.04C165.368 111.221 165.47 111.467 165.47 111.724Z" fill="white"/>
<path d="M163.922 92.5665H96.2335C96.1823 92.5667 96.1332 92.5467 96.0967 92.5108C96.0603 92.4749 96.0395 92.426 96.0391 92.3748C96.0386 92.3237 96.0584 92.2744 96.0942 92.2378C96.13 92.2013 96.1788 92.1804 96.2299 92.1797H163.922C163.973 92.1802 164.021 92.2008 164.057 92.237C164.093 92.2732 164.113 92.3221 164.113 92.3731C164.113 92.424 164.093 92.4729 164.057 92.5091C164.021 92.5454 163.973 92.5659 163.922 92.5665Z" fill="#CCCCCC"/>
<path d="M163.922 97.2227H96.2335C96.1823 97.223 96.1332 97.203 96.0967 97.1671C96.0603 97.1312 96.0395 97.0823 96.0391 97.0311C96.0386 96.9799 96.0584 96.9307 96.0942 96.8941C96.13 96.8575 96.1788 96.8366 96.2299 96.8359H163.922C163.973 96.8364 164.021 96.857 164.057 96.8933C164.093 96.9295 164.113 96.9784 164.113 97.0293C164.113 97.0803 164.093 97.1292 164.057 97.1654C164.021 97.2016 163.973 97.2222 163.922 97.2227Z" fill="#CCCCCC"/>
<path d="M163.922 101.856H96.2335C96.1823 101.856 96.1332 101.836 96.0967 101.8C96.0603 101.764 96.0395 101.715 96.0391 101.664C96.0386 101.613 96.0584 101.563 96.0942 101.527C96.13 101.49 96.1788 101.469 96.2299 101.469H163.922C163.973 101.469 164.021 101.49 164.057 101.526C164.093 101.562 164.113 101.611 164.113 101.662C164.113 101.713 164.093 101.762 164.057 101.798C164.021 101.834 163.973 101.855 163.922 101.856Z" fill="#CCCCCC"/>
<path d="M163.922 106.496H96.2335C96.1823 106.496 96.1332 106.476 96.0967 106.441C96.0603 106.405 96.0395 106.356 96.0391 106.305C96.0386 106.253 96.0584 106.204 96.0942 106.168C96.13 106.131 96.1788 106.11 96.2299 106.109H163.922C163.973 106.11 164.021 106.13 164.057 106.167C164.093 106.203 164.113 106.252 164.113 106.303C164.113 106.354 164.093 106.403 164.057 106.439C164.021 106.475 163.973 106.496 163.922 106.496Z" fill="#CCCCCC"/>
<path d="M152.049 60.281V85.4224H89.0606C85.7266 85.5384 82.4831 84.3253 80.0436 82.0498C77.6042 79.7744 76.1685 76.623 76.0525 73.2891C75.9365 69.9551 77.1497 66.7116 79.4252 64.2722C81.7006 61.8327 84.852 60.397 88.1859 60.281C88.4774 60.2709 88.7689 60.2709 89.0606 60.281H152.049Z" fill="#F2F2F2"/>
<path d="M153.595 85.2391C153.595 85.4955 153.493 85.7414 153.311 85.9227C153.13 86.1041 152.884 86.206 152.628 86.2061H87.937C84.4236 86.2061 81.054 84.8104 78.5696 82.326C76.0852 79.8416 74.6895 76.472 74.6895 72.9585C74.6895 69.445 76.0852 66.0755 78.5696 63.5911C81.054 61.1067 84.4236 59.7109 87.937 59.7109H152.628C152.755 59.7109 152.88 59.7359 152.998 59.7845C153.115 59.8331 153.222 59.9044 153.311 59.9941C153.401 60.0839 153.473 60.1905 153.521 60.3079C153.57 60.4252 153.595 60.5509 153.595 60.6779C153.595 60.8049 153.57 60.9306 153.521 61.0479C153.473 61.1653 153.401 61.2719 153.311 61.3617C153.222 61.4515 153.115 61.5227 152.998 61.5713C152.88 61.6199 152.755 61.6449 152.628 61.6449H87.937C84.9365 61.6449 82.0588 62.8369 79.9371 64.9586C77.8154 67.0803 76.6234 69.958 76.6234 72.9585C76.6234 75.9591 77.8154 78.8367 79.9371 80.9585C82.0588 83.0802 84.9365 84.2721 87.937 84.2721H152.628C152.884 84.2722 153.13 84.3742 153.311 84.5555C153.493 84.7368 153.595 84.9827 153.595 85.2391Z" fill="#3F3D56"/>
<path d="M152.049 66.0821H84.3605C84.3093 66.0824 84.2601 66.0624 84.2237 66.0264C84.1872 65.9905 84.1665 65.9416 84.166 65.8905C84.1656 65.8393 84.1854 65.7901 84.2212 65.7535C84.2569 65.7169 84.3057 65.696 84.3569 65.6953H152.049C152.1 65.6958 152.148 65.7164 152.184 65.7526C152.22 65.7888 152.24 65.8377 152.24 65.8887C152.24 65.9396 152.22 65.9886 152.184 66.0248C152.148 66.061 152.1 66.0816 152.049 66.0821Z" fill="#CCCCCC"/>
<path d="M152.049 70.7305H84.3605C84.3093 70.7308 84.2601 70.7108 84.2237 70.6749C84.1872 70.639 84.1665 70.5901 84.166 70.5389C84.1656 70.4878 84.1854 70.4385 84.2212 70.4019C84.2569 70.3654 84.3057 70.3444 84.3569 70.3438H152.049C152.1 70.3443 152.148 70.3649 152.184 70.4011C152.22 70.4373 152.24 70.4862 152.24 70.5371C152.24 70.5881 152.22 70.637 152.184 70.6732C152.148 70.7094 152.1 70.73 152.049 70.7305Z" fill="#CCCCCC"/>
<path d="M152.049 75.3711H84.3605C84.3093 75.3714 84.2601 75.3514 84.2237 75.3155C84.1872 75.2796 84.1665 75.2307 84.166 75.1795C84.1656 75.1284 84.1854 75.0791 84.2212 75.0425C84.2569 75.006 84.3057 74.985 84.3569 74.9844H152.049C152.1 74.9849 152.148 75.0055 152.184 75.0417C152.22 75.0779 152.24 75.1268 152.24 75.1778C152.24 75.2287 152.22 75.2776 152.184 75.3138C152.148 75.35 152.1 75.3706 152.049 75.3711Z" fill="#CCCCCC"/>
<path d="M152.049 80.0118H84.3605C84.3093 80.012 84.2601 79.992 84.2237 79.9561C84.1872 79.9202 84.1665 79.8713 84.166 79.8202C84.1656 79.769 84.1854 79.7197 84.2212 79.6832C84.2569 79.6466 84.3057 79.6257 84.3569 79.625H152.049C152.1 79.6255 152.148 79.6461 152.184 79.6823C152.22 79.7185 152.24 79.7674 152.24 79.8184C152.24 79.8694 152.22 79.9182 152.184 79.9545C152.148 79.9907 152.1 80.0113 152.049 80.0118Z" fill="#CCCCCC"/>
<path d="M225.325 202.192V180.271C225.325 179.302 224.94 178.372 224.255 177.687C223.57 177.002 222.64 176.617 221.671 176.617H138.554C137.585 176.617 136.656 177.002 135.971 177.687C135.285 178.372 134.9 179.302 134.9 180.271V202.192H225.325Z" fill="#CCCCCC"/>
<path d="M225.325 210.406H134.9V238.721H225.325V210.406Z" fill="#CCCCCC"/>
<path d="M134.9 246.945V268.866C134.9 269.835 135.285 270.765 135.971 271.45C136.656 272.135 137.585 272.52 138.554 272.52H221.671C222.64 272.52 223.57 272.135 224.255 271.45C224.94 270.765 225.325 269.835 225.325 268.866V246.945H134.9Z" fill="#CCCCCC"/>
<path d="M179.654 193.066C181.168 193.066 182.394 191.839 182.394 190.326C182.394 188.813 181.168 187.586 179.654 187.586C178.141 187.586 176.914 188.813 176.914 190.326C176.914 191.839 178.141 193.066 179.654 193.066Z" fill="white"/>
<path d="M179.654 229.59C181.168 229.59 182.394 228.363 182.394 226.85C182.394 225.336 181.168 224.109 179.654 224.109C178.141 224.109 176.914 225.336 176.914 226.85C176.914 228.363 178.141 229.59 179.654 229.59Z" fill="white"/>
<path d="M179.801 265.355C181.314 265.355 182.541 264.128 182.541 262.615C182.541 261.102 181.314 259.875 179.801 259.875C178.287 259.875 177.061 261.102 177.061 262.615C177.061 264.128 178.287 265.355 179.801 265.355Z" fill="white"/>
<path d="M215.072 151.625V176.766H152.083C148.751 176.88 145.51 175.666 143.072 173.39C140.634 171.115 139.2 167.965 139.084 164.633C138.968 161.3 140.18 158.058 142.453 155.619C144.727 153.18 147.875 151.743 151.208 151.625C151.5 151.615 151.791 151.615 152.083 151.625H215.072Z" fill="#F2F2F2"/>
<path d="M216.619 176.575C216.619 176.831 216.517 177.077 216.336 177.259C216.155 177.44 215.909 177.542 215.653 177.542H150.962C147.449 177.543 144.08 176.149 141.595 173.666C139.11 171.183 137.713 167.815 137.711 164.302C137.709 160.79 139.102 157.42 141.584 154.934C144.066 152.449 147.433 151.05 150.946 151.047H215.653C215.78 151.047 215.906 151.071 216.023 151.12C216.141 151.168 216.248 151.239 216.338 151.329C216.428 151.419 216.499 151.526 216.548 151.643C216.597 151.761 216.622 151.887 216.622 152.014C216.622 152.141 216.597 152.267 216.548 152.384C216.499 152.502 216.428 152.609 216.338 152.698C216.248 152.788 216.141 152.859 216.023 152.908C215.906 152.956 215.78 152.981 215.653 152.981H150.962C147.964 152.985 145.09 154.178 142.971 156.3C140.853 158.421 139.663 161.296 139.663 164.294C139.663 167.292 140.853 170.168 142.971 172.289C145.09 174.41 147.964 175.604 150.962 175.608H215.653C215.909 175.608 216.155 175.71 216.336 175.891C216.517 176.073 216.619 176.319 216.619 176.575Z" fill="#3F3D56"/>
<path d="M215.07 157.426H147.382C147.331 157.426 147.282 157.406 147.245 157.37C147.209 157.334 147.188 157.285 147.188 157.234C147.187 157.183 147.207 157.134 147.243 157.097C147.278 157.061 147.327 157.04 147.378 157.039H215.07C215.121 157.04 215.17 157.06 215.206 157.096C215.242 157.133 215.262 157.182 215.262 157.232C215.262 157.283 215.242 157.332 215.206 157.369C215.17 157.405 215.121 157.425 215.07 157.426Z" fill="#CCCCCC"/>
<path d="M215.07 162.059H147.382C147.331 162.059 147.282 162.039 147.245 162.003C147.209 161.967 147.188 161.918 147.188 161.867C147.187 161.816 147.207 161.767 147.243 161.73C147.278 161.693 147.327 161.673 147.378 161.672H215.07C215.121 161.672 215.17 161.693 215.206 161.729C215.242 161.765 215.262 161.814 215.262 161.865C215.262 161.916 215.242 161.965 215.206 162.001C215.17 162.038 215.121 162.058 215.07 162.059Z" fill="#CCCCCC"/>
<path d="M215.07 166.707H147.382C147.331 166.707 147.282 166.687 147.245 166.651C147.209 166.616 147.188 166.567 147.188 166.515C147.187 166.464 147.207 166.415 147.243 166.378C147.278 166.342 147.327 166.321 147.378 166.32H215.07C215.121 166.321 215.17 166.341 215.206 166.378C215.242 166.414 215.262 166.463 215.262 166.514C215.262 166.565 215.242 166.614 215.206 166.65C215.17 166.686 215.121 166.707 215.07 166.707Z" fill="#CCCCCC"/>
<path d="M215.07 171.348H147.382C147.331 171.348 147.282 171.328 147.245 171.292C147.209 171.256 147.188 171.207 147.188 171.156C147.187 171.105 147.207 171.056 147.243 171.019C147.278 170.983 147.327 170.962 147.378 170.961H215.07C215.121 170.961 215.17 170.982 215.206 171.018C215.242 171.054 215.262 171.103 215.262 171.154C215.262 171.205 215.242 171.254 215.206 171.29C215.17 171.327 215.121 171.347 215.07 171.348Z" fill="#CCCCCC"/>
<path d="M141.095 51.8931H112.397C112.124 51.8929 111.856 51.9554 111.611 52.0758L104.368 55.7019C104.13 55.8032 103.926 55.9724 103.784 56.1884C103.641 56.4044 103.564 56.6577 103.564 56.9167C103.564 57.1757 103.641 57.429 103.784 57.645C103.926 57.861 104.13 58.0302 104.368 58.1315L111.611 61.7576C111.856 61.878 112.124 61.9405 112.397 61.9403H141.095C141.49 61.9631 141.879 61.8293 142.177 61.5677C142.474 61.3062 142.657 60.9379 142.684 60.5428V53.2906C142.656 52.8954 142.474 52.5272 142.176 52.2657C141.879 52.0041 141.49 51.8703 141.095 51.8931Z" fill="#3F3D56"/>
<path d="M142.684 53.2906V60.5428C142.656 60.938 142.474 61.3062 142.176 61.5678C141.879 61.8293 141.49 61.9632 141.094 61.9403H135.377V51.8931H141.094C141.49 51.8703 141.879 52.0041 142.176 52.2657C142.474 52.5272 142.656 52.8955 142.684 53.2906Z" fill="white"/>
<path d="M35.2305 194.004C38.9258 195.303 42.8934 195.628 46.751 194.949C50.6085 194.269 54.2261 192.608 57.2551 190.124C64.9694 183.65 67.388 172.983 69.356 163.105C71.2963 153.367 73.2365 143.629 75.1768 133.891L62.9903 142.282C54.2264 148.316 45.2652 154.544 39.1971 163.285C33.1291 172.025 30.4804 183.957 35.3558 193.415" fill="#E6E6E6"/>
<path d="M36.2729 229.376C35.0394 220.391 33.7712 211.291 34.6363 202.211C35.4047 194.146 37.8651 186.269 42.8742 179.81C45.533 176.389 48.7683 173.457 52.4346 171.147C53.3906 170.544 54.2705 172.059 53.3187 172.66C46.975 176.669 42.0683 182.589 39.3062 189.567C36.2555 197.326 35.7656 205.785 36.2913 214.027C36.6093 219.012 37.283 223.964 37.962 228.91C38.0155 229.134 37.9821 229.369 37.8686 229.569C37.755 229.769 37.5698 229.919 37.3503 229.987C37.1264 230.048 36.8876 230.017 36.686 229.903C36.4843 229.788 36.3358 229.599 36.2729 229.376Z" fill="#F2F2F2"/>
<path d="M48.1504 213.475C49.7352 215.883 51.9137 217.843 54.476 219.166C57.0382 220.488 59.8978 221.129 62.7794 221.025C70.1848 220.674 76.3586 215.505 81.9161 210.598L98.3543 196.084L87.4749 195.564C79.6512 195.189 71.6256 194.84 64.1737 197.253C56.7218 199.665 49.8493 205.472 48.4867 213.185" fill="#E6E6E6"/>
<path d="M32.7872 234.54C38.7239 224.035 45.61 212.36 57.9143 208.629C61.3355 207.595 64.9228 207.224 68.4831 207.538C69.6052 207.634 69.325 209.364 68.205 209.267C62.2371 208.772 56.2808 210.348 51.3387 213.73C46.5831 216.967 42.8803 221.467 39.7463 226.239C37.8266 229.163 36.1071 232.21 34.3873 235.253C33.8376 236.226 32.2311 235.524 32.7872 234.54Z" fill="#F2F2F2"/>
<path d="M23.274 245.604C23.4741 243.286 24.3062 241.068 25.6799 239.19C27.0536 237.313 28.9161 235.848 31.0646 234.956V228.883H41.2503V235.147C43.293 236.083 45.0511 237.544 46.3451 239.381C47.6392 241.218 48.423 243.365 48.6166 245.604L51.0117 273.445H20.8789L23.274 245.604Z" fill="#F2F2F2"/>
<path d="M303.48 112.653L300.45 111.377L298.371 96.1875H270.691L268.438 111.315L265.727 112.671C265.597 112.736 265.493 112.842 265.432 112.974C265.37 113.105 265.355 113.253 265.388 113.394C265.422 113.536 265.502 113.661 265.615 113.751C265.729 113.841 265.87 113.89 266.015 113.89H303.23C303.379 113.89 303.523 113.839 303.638 113.745C303.753 113.651 303.832 113.52 303.861 113.374C303.891 113.228 303.869 113.077 303.799 112.945C303.73 112.814 303.617 112.711 303.48 112.653Z" fill="#E6E6E6"/>
<path d="M352.67 98.2119H216.696C215.982 98.2103 215.299 97.9258 214.795 97.4207C214.291 96.9157 214.008 96.2314 214.008 95.518V76.3438H355.358V95.518C355.358 96.2314 355.075 96.9157 354.571 97.4207C354.068 97.9258 353.384 98.2103 352.67 98.2119Z" fill="#CCCCCC"/>
<path d="M355.501 85.4071H213.885V3.36463C213.886 2.50364 214.228 1.6782 214.837 1.0694C215.446 0.460602 216.271 0.118151 217.132 0.117188H352.254C353.115 0.118151 353.94 0.460603 354.549 1.0694C355.158 1.6782 355.5 2.50364 355.501 3.36463L355.501 85.4071Z" fill="#3F3D56"/>
<path d="M347.042 79.4511H222.341C221.678 79.4503 221.041 79.1863 220.572 78.717C220.103 78.2476 219.839 77.6113 219.838 76.9475V8.57402C219.839 7.91024 220.103 7.27385 220.572 6.80447C221.041 6.3351 221.678 6.07107 222.341 6.07031H347.042C347.706 6.07107 348.342 6.3351 348.811 6.80447C349.281 7.27385 349.545 7.91024 349.545 8.57402V76.9475C349.545 77.6113 349.281 78.2476 348.811 78.717C348.342 79.1863 347.706 79.4503 347.042 79.4511Z" fill="#D8E0FF"/>
<path d="M314.199 103.584C315.005 102.84 315.963 102.282 317.007 101.949C318.051 101.615 319.156 101.515 320.243 101.655C321.33 101.795 322.373 102.171 323.299 102.758C324.224 103.345 325.01 104.127 325.601 105.05L342.468 102.051L346.791 111.857L322.911 115.757C321.295 116.647 319.408 116.912 317.608 116.504C315.809 116.095 314.222 115.041 313.148 113.54C312.074 112.039 311.588 110.197 311.782 108.362C311.976 106.527 312.836 104.827 314.199 103.584Z" fill="#FFB6B6"/>
<path d="M329.814 116.103L347.399 115.883L349.625 115.853L385.401 115.403C385.401 115.403 395.116 106.134 403.576 96.5914L402.39 88.0151C401.233 79.5984 397.058 71.8885 390.641 66.3203C378.525 74.4163 371.499 90.4413 371.499 90.4413L349.316 95.747L347.097 96.2776L333.314 99.5713L329.814 116.103Z" fill="white"/>
<path d="M419.832 168.812H387.008C387.008 170.219 351.128 171.36 351.128 171.36C350.336 171.956 349.615 172.64 348.977 173.399C347.062 175.683 346.015 178.571 346.022 181.552V183.59C346.023 186.968 347.365 190.208 349.754 192.597C352.143 194.986 355.383 196.328 358.761 196.329H419.832C423.209 196.326 426.448 194.983 428.836 192.595C431.225 190.206 432.568 186.968 432.571 183.59V181.552C432.566 178.175 431.223 174.937 428.835 172.549C426.446 170.161 423.209 168.817 419.832 168.812Z" fill="#E4E4E4"/>
<path d="M395.964 195.828H382.715V272.301H395.964V195.828Z" fill="#E4E4E4"/>
<path d="M345.006 271.838C345.006 273.27 365.082 272.392 389.848 272.392C414.614 272.392 434.691 273.27 434.691 271.838C434.691 270.407 414.614 259.055 389.848 259.055C365.082 259.055 345.006 270.407 345.006 271.838Z" fill="#E4E4E4"/>
<path d="M336.106 263.096L326.245 263.095L321.555 225.062L336.107 225.063L336.106 263.096Z" fill="#FFB6B6"/>
<path d="M338.622 272.653L306.828 272.652V272.25C306.828 268.968 308.132 265.82 310.453 263.5C312.774 261.179 315.921 259.875 319.203 259.875H319.204L338.623 259.876L338.622 272.653Z" fill="#2F2E41"/>
<path d="M306.963 263.096L297.103 263.095L292.412 225.062L306.965 225.063L306.963 263.096Z" fill="#FFB6B6"/>
<path d="M309.476 272.653L277.682 272.652V272.25C277.682 268.968 278.986 265.82 281.307 263.5C283.627 261.179 286.775 259.875 290.057 259.875H290.057L309.476 259.876L309.476 272.653Z" fill="#2F2E41"/>
<path d="M395.289 44.1326C404.758 44.1326 412.433 36.4568 412.433 26.9882C412.433 17.5196 404.758 9.84375 395.289 9.84375C385.82 9.84375 378.145 17.5196 378.145 26.9882C378.145 36.4568 385.82 44.1326 395.289 44.1326Z" fill="#FFB6B6"/>
<path d="M423.038 144.455C423.038 144.455 428.791 174.873 406.904 178.746C385.016 182.62 353.422 185.342 353.422 185.342L339.233 251.539L320.172 249.837C320.172 249.837 322.707 170.151 328.941 163.917C335.176 157.683 374.579 139.016 374.579 139.016L423.038 144.455Z" fill="#2F2E41"/>
<path d="M380.29 131.711L370.718 141.314C370.718 141.314 301.599 152.447 298.933 168.411C294.907 192.513 290.152 244.925 290.152 244.925L310.933 243.366L319.083 183.788L352.332 176.225L390.161 155.609L380.29 131.711Z" fill="#2F2E41"/>
<path d="M411.786 16.7579C410.093 13.5648 407.943 7.20093 404.527 6.02067C402.63 5.39166 400.669 4.97399 398.681 4.77523L392.875 7.00837L396.035 4.55069C395.419 4.51403 394.805 4.48407 394.19 4.46079L390.272 5.9675L392.277 4.40866C388.625 4.37117 384.855 4.75092 382.025 6.97426C379.612 8.86965 377.222 16.0498 376.835 19.0933C376.422 22.0048 376.567 24.9684 377.262 27.8259L378.254 28.7693C378.601 27.9735 378.862 27.1429 379.032 26.2917C379.388 24.7011 380.071 23.2021 381.038 21.8902C382.005 20.5783 383.235 19.4822 384.649 18.6718L384.703 18.6413C386.367 17.7049 388.386 17.748 390.294 17.8167L399.356 18.1428C401.537 18.2213 403.884 18.3592 405.584 19.7269C406.665 20.7358 407.514 21.9664 408.074 23.3342C408.919 25.039 410.57 31.469 410.57 31.469C410.57 31.469 411.503 30.2552 411.951 31.1586C412.669 28.8016 413.105 26.368 413.251 23.9085C413.394 21.438 412.889 18.9731 411.786 16.7579Z" fill="#2F2E41"/>
<path d="M471.75 34.5197C470.656 34.5917 469.591 34.9026 468.631 35.4305C467.671 35.9585 466.838 36.6906 466.191 37.5753C465.544 38.46 465.099 39.4758 464.887 40.5511C464.675 41.6265 464.701 42.7352 464.964 43.7991L451.178 53.9689L455.314 63.8543L474.582 49.2192C476.34 48.659 477.832 47.4733 478.774 45.8868C479.717 44.3003 480.044 42.4232 479.695 40.6113C479.346 38.7994 478.344 37.1785 476.88 36.0558C475.415 34.9331 473.59 34.3865 471.75 34.5197Z" fill="#FFB6B6"/>
<path d="M469.531 55.2816L434.969 93.6664C434.969 93.6664 418.441 88.3753 405.658 82.6389L399.916 65.0015C398.582 60.9099 398.013 56.6077 398.237 52.3101C415.957 47.5948 436.568 65.1398 436.568 65.1398L462.439 44.875L469.531 55.2816Z" fill="white"/>
<path d="M388.885 147.291C382.719 145.161 376.343 142.958 369.465 142.131L369.17 142.096L369.251 141.81C376.371 116.813 374.594 100.823 371.105 76.8031C370.363 71.6221 371.316 66.3401 373.823 61.7454C376.329 57.1507 380.254 53.4898 385.012 51.309L385.055 51.2899L404.697 50.0418L404.742 50.0391L419.027 54.2405C421.082 54.8494 422.881 56.1153 424.148 57.8442C425.414 59.573 426.079 61.6696 426.041 63.8125C425.886 71.7118 426.214 80.5312 426.562 89.8681C427.341 110.815 428.147 132.475 423.573 146.529L423.549 146.602L423.488 146.65C419.283 150.075 414.015 151.926 408.592 151.883C402.18 151.883 395.636 149.623 388.885 147.291Z" fill="white"/>
<path d="M531.629 274.303H1.36615C1.16234 274.303 0.966868 274.207 0.822747 274.036C0.678626 273.864 0.597656 273.632 0.597656 273.39C0.597656 273.148 0.678626 272.915 0.822747 272.744C0.966868 272.573 1.16234 272.477 1.36615 272.477H531.629C531.832 272.477 532.028 272.573 532.172 272.744C532.316 272.915 532.397 273.148 532.397 273.39C532.397 273.632 532.316 273.864 532.172 274.036C532.028 274.207 531.832 274.303 531.629 274.303Z" fill="white"/>
<path d="M303.551 34.6016V47.4008C303.551 48.4755 303.339 49.5396 302.928 50.5325C302.517 51.5254 301.914 52.4276 301.154 53.1875C300.394 53.9474 299.492 54.5502 298.499 54.9615C297.506 55.3727 296.442 55.5844 295.367 55.5844H274.09V57.2211C274.094 58.5222 274.612 59.7689 275.532 60.6889C276.452 61.6089 277.699 62.1274 279 62.1313H297.871C298.127 62.1346 298.379 62.1962 298.608 62.3114L304.451 65.2247C304.68 65.3399 304.932 65.4015 305.188 65.4048C305.494 65.4045 305.794 65.3196 306.055 65.1593C306.291 65.0118 306.485 64.8067 306.62 64.5633C306.755 64.3199 306.825 64.0462 306.824 63.768V39.2171C306.822 38.2041 306.505 37.2167 305.919 36.3904C305.333 35.5641 304.506 34.9392 303.551 34.6016Z" fill="#7C95F7"/>
<path d="M300.278 47.4025V27.7617C300.278 26.4595 299.76 25.2106 298.839 24.2897C297.919 23.3689 296.67 22.8516 295.367 22.8516H265.906C264.604 22.8516 263.355 23.3689 262.434 24.2897C261.513 25.2106 260.996 26.4595 260.996 27.7617V57.2229C260.996 57.5313 261.083 57.8334 261.247 58.0945C261.411 58.3556 261.646 58.5651 261.924 58.6987C262.202 58.8323 262.512 58.8846 262.818 58.8497C263.125 58.8147 263.415 58.6939 263.656 58.5011L270.942 52.6711C271.232 52.4396 271.591 52.3132 271.962 52.3127H295.367C296.67 52.3127 297.919 51.7953 298.839 50.8745C299.76 49.9537 300.278 48.7047 300.278 47.4025ZM282.143 44.751C282.069 44.9541 281.952 45.1386 281.799 45.2913C281.646 45.444 281.462 45.5613 281.259 45.6348C281.063 45.7211 280.851 45.7657 280.637 45.7657C280.423 45.7657 280.211 45.7211 280.015 45.6348C279.812 45.5613 279.627 45.444 279.475 45.2913C279.322 45.1386 279.205 44.9541 279.131 44.751C279.047 44.5542 279.003 44.3429 279 44.129C279.006 43.6957 279.176 43.2808 279.475 42.9669C279.634 42.8225 279.817 42.7063 280.015 42.6232C280.21 42.5342 280.422 42.4881 280.637 42.4881C280.851 42.4881 281.064 42.5342 281.259 42.6232C281.457 42.7063 281.64 42.8225 281.799 42.9669C282.1 43.279 282.27 43.6951 282.274 44.129C282.271 44.3429 282.226 44.5542 282.143 44.751ZM282.455 39.0224C282.366 39.0758 282.293 39.1525 282.245 39.2442C282.196 39.336 282.173 39.4392 282.179 39.5429C282.179 39.977 282.006 40.3933 281.699 40.7003C281.392 41.0072 280.976 41.1796 280.542 41.1796C280.108 41.1796 279.692 41.0072 279.385 40.7003C279.078 40.3933 278.905 39.977 278.905 39.5429C278.894 38.7919 279.106 38.0544 279.514 37.4237C279.921 36.793 280.507 36.2974 281.197 35.9994C281.541 35.8566 281.83 35.6068 282.021 35.2868C282.212 34.9669 282.295 34.5939 282.257 34.2232C282.219 33.8525 282.063 33.5038 281.812 33.2288C281.56 32.9538 281.227 32.7671 280.861 32.6965C280.453 32.6221 280.032 32.6946 279.673 32.901C279.313 33.1074 279.038 33.4345 278.897 33.8242C278.749 34.2295 278.446 34.5598 278.055 34.7432C277.665 34.9267 277.217 34.9483 276.811 34.8035C276.404 34.6587 276.071 34.3591 275.884 33.97C275.698 33.5809 275.672 33.1338 275.813 32.7259C276.092 31.9391 276.562 31.2343 277.183 30.6757C277.803 30.1171 278.553 29.7224 279.364 29.5275C280.176 29.3326 281.023 29.3436 281.829 29.5597C282.636 29.7757 283.375 30.1898 283.98 30.7644C284.586 31.339 285.038 32.0558 285.295 32.8496C285.553 33.6435 285.608 34.4892 285.456 35.3098C285.304 36.1304 284.949 36.8999 284.423 37.5483C283.898 38.1967 283.218 38.7034 282.447 39.0224H282.455Z" fill="#2851EF"/>
</svg>
