<svg width="641" height="590" viewBox="0 0 641 590" fill="none" xmlns="http://www.w3.org/2000/svg">
<path opacity="0.85" d="M624.015 503.849C624.015 503.849 638.657 506.511 640.431 488.172C642.206 469.834 625.494 448.241 617.508 446.023C617.508 446.023 604.197 400.915 574.766 401.063C574.766 401.063 562.491 401.507 561.16 412.155C561.16 412.155 546.962 401.063 539.124 414.817C539.124 414.817 531.877 404.169 521.82 407.126C511.764 410.232 513.095 436.557 528.328 447.058C543.709 457.706 624.015 503.849 624.015 503.849Z" fill="url(#paint0_linear_36_6527)"/>
<path opacity="0.85" d="M405.586 308.763C405.586 308.763 420.228 311.425 422.003 293.087C423.777 274.748 407.065 253.155 399.079 250.937C399.079 250.937 385.769 205.829 356.338 205.977C356.338 205.977 344.062 206.421 342.731 217.069C342.731 217.069 328.534 205.977 320.695 219.731C320.695 219.731 313.448 209.083 303.392 212.041C293.335 215.146 294.666 241.472 309.899 251.972C325.132 262.472 405.586 308.763 405.586 308.763Z" fill="url(#paint1_linear_36_6527)"/>
<path opacity="0.85" d="M141.126 543.04C141.126 543.04 160.092 546.454 162.368 522.81C164.644 499.166 143.149 471.224 132.655 468.442C132.655 468.442 115.459 410.154 77.4017 410.407C77.4017 410.407 61.597 410.913 59.9533 424.821C59.9533 424.821 41.6199 410.407 31.5049 428.235C31.5049 428.235 22.1485 414.453 9.25186 418.373C-3.64476 422.292 -2.00106 456.43 17.7232 469.959C37.321 483.235 141.126 543.04 141.126 543.04Z" fill="url(#paint2_linear_36_6527)"/>
<path opacity="0.44" d="M451.285 519.808C451.285 519.808 459.42 521.287 460.307 511.082C461.342 501.026 452.025 489.046 447.588 487.863C447.588 487.863 440.193 463.017 423.925 463.165C423.925 463.165 417.122 463.461 416.53 469.228C416.53 469.228 408.692 463.165 404.403 470.707C404.403 470.707 400.41 464.792 394.938 466.566C389.466 468.193 390.057 482.835 398.487 488.603C407.065 494.222 451.285 519.808 451.285 519.808Z" fill="url(#paint3_linear_36_6527)"/>
<path opacity="0.85" d="M66.0211 313.793C66.0211 313.793 57.8869 315.271 56.9996 305.067C55.9643 295.01 65.2817 283.031 69.7185 281.847C69.7185 281.847 77.1132 257.001 93.3815 257.149C93.3815 257.149 100.185 257.445 100.776 263.213C100.776 263.213 108.615 257.149 112.904 264.692C112.904 264.692 116.897 258.776 122.369 260.551C127.841 262.177 127.249 276.819 118.819 282.587C110.389 288.355 66.0211 313.793 66.0211 313.793Z" fill="url(#paint4_linear_36_6527)"/>
<path opacity="0.85" d="M71.2325 242.581C71.2325 242.581 43.2806 247.609 40.0269 212.706C36.7732 177.803 68.4225 136.836 83.8035 132.695C83.8035 132.695 109.241 46.769 165.145 47.2126C165.145 47.2126 188.365 48.1 190.879 68.3615C190.879 68.3615 217.796 47.2127 232.733 73.3899C232.733 73.3899 246.487 53.1284 265.565 58.8963C284.644 64.6642 282.129 114.948 253.142 134.766C224.155 154.584 71.2325 242.581 71.2325 242.581Z" fill="url(#paint5_linear_36_6527)"/>
<path opacity="0.85" d="M381.571 218.035C381.571 218.035 361.309 221.584 358.795 196.295C356.429 171.005 379.5 141.13 390.592 138.024C390.592 138.024 409.079 75.613 449.75 75.9088C449.75 75.9088 466.61 76.5004 468.532 91.2898C468.532 91.2898 488.202 75.9088 498.999 94.8392C498.999 94.8392 508.908 80.0498 522.81 84.3387C536.712 88.6277 534.937 125.01 513.788 139.503C492.787 153.997 381.571 218.035 381.571 218.035Z" fill="url(#paint6_linear_36_6527)"/>
<g opacity="0.55">
<path d="M329.271 189.711C329.271 182.612 340.659 176.992 354.561 176.992C368.463 176.992 379.851 182.76 379.851 189.711" stroke="#F7F6F5" stroke-width="0.740062" stroke-miterlimit="10"/>
<path opacity="0.47" d="M379.853 161.316H329.421V254.638H379.853V161.316Z" fill="url(#paint7_linear_36_6527)"/>
<path d="M379.851 189.711C379.851 196.81 368.463 202.43 354.561 202.43C340.659 202.43 329.271 196.662 329.271 189.711" stroke="#F7F6F5" stroke-width="0.740062" stroke-miterlimit="10"/>
<path opacity="0.43" d="M329.271 196.219C329.271 189.12 340.659 183.5 354.561 183.5C368.463 183.5 379.851 189.268 379.851 196.219" stroke="#F7F6F5" stroke-width="0.740062" stroke-miterlimit="10"/>
<path opacity="0.43" d="M379.851 196.219C379.851 203.318 368.463 208.938 354.561 208.938C340.659 208.938 329.271 203.17 329.271 196.219" stroke="#F7F6F5" stroke-width="0.740062" stroke-miterlimit="10"/>
<path d="M354.562 178.322C368.611 178.322 380 171.767 380 163.681C380 155.594 368.611 149.039 354.562 149.039C340.513 149.039 329.124 155.594 329.124 163.681C329.124 171.767 340.513 178.322 354.562 178.322Z" fill="#CEDBE4"/>
<path d="M354.562 175.217C368.611 175.217 380 168.661 380 160.575C380 152.489 368.611 145.934 354.562 145.934C340.513 145.934 329.124 152.489 329.124 160.575C329.124 168.661 340.513 175.217 354.562 175.217Z" fill="#EFF4FC"/>
</g>
<path opacity="0.47" d="M526.859 209.969H390.501V361.856H526.859V209.969Z" fill="url(#paint8_linear_36_6527)"/>
<mask id="mask0_36_6527" style="mask-type:luminance" maskUnits="userSpaceOnUse" x="390" y="209" width="137" height="153">
<path d="M526.859 209.969H390.501V361.856H526.859V209.969Z" fill="white"/>
</mask>
<g mask="url(#mask0_36_6527)">
<path opacity="0.36" d="M595.334 209.969H458.976V372.948H595.334V209.969Z" fill="url(#paint9_linear_36_6527)"/>
</g>
<path d="M459.272 248.866L390.205 210.266V216.329L459.419 254.93L526.859 216.329V210.266L459.272 248.866Z" fill="#CEDBE4"/>
<path d="M526.859 210.267L458.68 170.336L390.205 210.267L459.419 248.868L526.859 210.267Z" fill="#EFF4FC"/>
<path opacity="0.47" d="M335.631 239.695H161.116V434.028H335.631V239.695Z" fill="url(#paint10_linear_36_6527)"/>
<mask id="mask1_36_6527" style="mask-type:luminance" maskUnits="userSpaceOnUse" x="161" y="239" width="175" height="196">
<path d="M335.631 239.695H161.116V434.028H335.631V239.695Z" fill="white"/>
</mask>
<g mask="url(#mask1_36_6527)">
<path opacity="0.36" d="M423.332 239.695H248.817V448.078H423.332V239.695Z" fill="url(#paint11_linear_36_6527)"/>
</g>
<path d="M249.113 289.389L160.82 239.992V247.831L249.261 297.227L335.631 247.831V240.14L249.113 289.389Z" fill="#CEDBE4"/>
<path d="M335.631 240.141L248.374 189.117L160.82 239.993L249.261 289.389L335.631 240.141Z" fill="#EFF4FC"/>
<path opacity="0.47" d="M496.244 385.672H359.886V537.559H496.244V385.672Z" fill="url(#paint12_linear_36_6527)"/>
<mask id="mask2_36_6527" style="mask-type:luminance" maskUnits="userSpaceOnUse" x="359" y="385" width="138" height="153">
<path d="M496.244 385.672H359.886V537.559H496.244V385.672Z" fill="white"/>
</mask>
<g mask="url(#mask2_36_6527)">
<path opacity="0.36" d="M564.719 385.672H428.36V548.651H564.719V385.672Z" fill="url(#paint13_linear_36_6527)"/>
</g>
<path d="M428.657 424.569L359.442 385.969L359.59 392.032L428.657 430.781L496.244 392.032V385.969L428.657 424.569Z" fill="#CEDBE4"/>
<path d="M496.244 385.967L428.065 346.035L359.442 385.967L428.657 424.567L496.244 385.967Z" fill="#EFF4FC"/>
<path opacity="0.47" d="M626.094 348.695H559.246V423.234H626.094V348.695Z" fill="url(#paint14_linear_36_6527)"/>
<mask id="mask3_36_6527" style="mask-type:luminance" maskUnits="userSpaceOnUse" x="559" y="348" width="68" height="76">
<path d="M626.094 348.695H559.246V423.234H626.094V348.695Z" fill="white"/>
</mask>
<g mask="url(#mask3_36_6527)">
<path opacity="0.36" d="M659.666 348.695H592.818V428.558H659.666V348.695Z" fill="url(#paint15_linear_36_6527)"/>
</g>
<path d="M592.967 367.774L559.1 348.844V351.95L593.115 370.88L626.244 351.95V348.844L592.967 367.774Z" fill="#CEDBE4"/>
<path d="M626.244 348.842L592.672 329.32L559.1 348.842L593.115 367.773L626.244 348.842Z" fill="#EFF4FC"/>
<g opacity="0.41">
<path opacity="0.47" d="M567.086 480.766H500.238V555.304H567.086V480.766Z" fill="url(#paint16_linear_36_6527)"/>
<mask id="mask4_36_6527" style="mask-type:luminance" maskUnits="userSpaceOnUse" x="500" y="480" width="68" height="76">
<path d="M567.085 480.766H500.237V555.304H567.085V480.766Z" fill="white"/>
</mask>
<g mask="url(#mask4_36_6527)">
<path opacity="0.36" d="M600.805 480.766H533.957V560.628H600.805V480.766Z" fill="url(#paint17_linear_36_6527)"/>
</g>
<path d="M533.959 499.845L500.091 480.914V483.872L534.106 502.802L567.235 483.872V480.914L533.959 499.845Z" fill="#CEDBE4"/>
<path d="M567.235 480.913L533.811 461.391L500.091 480.913L534.106 499.843L567.235 480.913Z" fill="#EFF4FC"/>
</g>
<g opacity="0.41">
<path opacity="0.47" d="M354.562 363.781H287.714V438.32H354.562V363.781Z" fill="url(#paint18_linear_36_6527)"/>
<mask id="mask5_36_6527" style="mask-type:luminance" maskUnits="userSpaceOnUse" x="287" y="363" width="68" height="76">
<path d="M354.562 363.781H287.714V438.32H354.562V363.781Z" fill="white"/>
</mask>
<g mask="url(#mask5_36_6527)">
<path opacity="0.36" d="M388.282 363.781H321.434V443.644H388.282V363.781Z" fill="url(#paint19_linear_36_6527)"/>
</g>
<path d="M321.434 382.86L287.566 363.93V366.888L321.582 385.818L354.71 366.888V363.93L321.434 382.86Z" fill="#CEDBE4"/>
<path d="M354.71 363.928L321.286 344.406L287.566 363.928L321.582 382.859L354.71 363.928Z" fill="#EFF4FC"/>
</g>
<path opacity="0.47" d="M226.782 376.5H112.164V589.024H226.782V376.5Z" fill="url(#paint20_linear_36_6527)"/>
<path d="M169.103 415.395C201.04 415.395 226.93 400.431 226.93 381.971C226.93 363.511 201.04 348.547 169.103 348.547C137.166 348.547 111.276 363.511 111.276 381.971C111.276 400.431 137.166 415.395 169.103 415.395Z" fill="#CEDBE4"/>
<path d="M169.103 408.149C201.04 408.149 226.93 393.184 226.93 374.725C226.93 356.265 201.04 341.301 169.103 341.301C137.166 341.301 111.276 356.265 111.276 374.725C111.276 393.184 137.166 408.149 169.103 408.149Z" fill="#EFF4FC"/>
<g filter="url(#filter0_d_36_6527)">
<path d="M216.567 149.023C156.208 185.466 86.3568 309.846 161.766 395.827C213.514 454.828 344.587 493.77 431.251 395.827C521.977 410.024 594.229 403.9 594.229 334.903C594.229 293.134 549.235 212.043 447.269 204.672" stroke="white" stroke-width="2" stroke-dasharray="4 4"/>
</g>
<path d="M247.782 486.531C247.782 479.432 259.17 473.812 273.072 473.812C286.974 473.812 298.362 479.58 298.362 486.531" stroke="#F7F6F5" stroke-width="0.740062" stroke-miterlimit="10"/>
<path opacity="0.47" d="M298.511 458.137H248.079V551.458H298.511V458.137Z" fill="url(#paint21_linear_36_6527)"/>
<path d="M273.074 475.142C287.122 475.142 298.511 468.587 298.511 460.501C298.511 452.415 287.122 445.859 273.074 445.859C259.025 445.859 247.636 452.415 247.636 460.501C247.636 468.587 259.025 475.142 273.074 475.142Z" fill="#CEDBE4"/>
<path d="M273.074 472.037C287.122 472.037 298.511 465.482 298.511 457.395C298.511 449.309 287.122 442.754 273.074 442.754C259.025 442.754 247.636 449.309 247.636 457.395C247.636 465.482 259.025 472.037 273.074 472.037Z" fill="#E1E9F0"/>
<path d="M520.025 307.971L469.445 336.296V314.041L520.025 285.716V307.971ZM520.025 258.403L469.445 286.728V308.983L520.025 280.658V258.403ZM520.025 230.078L469.445 258.403V280.658L520.025 252.333V230.078Z" fill="url(#paint22_linear_36_6527)"/>
<path d="M353.238 474.256L322.601 491.483V477.969L353.238 460.742V474.256ZM353.238 477.454L322.601 494.578V508.091L353.238 490.864V477.454ZM353.238 444.237L322.601 461.464V474.978L353.238 457.751V444.237ZM353.238 427.113L322.601 444.34V457.854L353.238 440.627V427.113Z" fill="url(#paint23_linear_36_6527)"/>
<path d="M353.238 422.882L322.601 440.109V426.596L353.238 409.369V422.882ZM353.238 392.761L322.601 409.988V423.398L353.238 406.171V392.761ZM353.238 375.637L322.601 392.864V406.377L353.238 389.15V375.637Z" fill="url(#paint24_linear_36_6527)"/>
<g filter="url(#filter1_i_36_6527)">
<path d="M151.154 156.594L150.955 161.286C150.817 163.525 150.374 165.589 149.626 167.48C148.878 169.37 147.708 171.29 146.115 173.238C144.553 175.168 142.406 177.321 139.674 179.695L137.584 175.552L137.637 174.699C139.279 172.93 140.441 171.393 141.123 170.088C141.836 168.766 142.24 167.323 142.337 165.76L142.544 162.402L143.245 145.901L139.266 148.263L138.796 147.855L139.599 140.666L153.093 133.177L151.154 156.594ZM178.356 144.227L178.823 144.688L177.783 152.781L156.492 164.596L157.583 154.21L158.617 130.112L180.283 118.089L180.75 118.55L179.663 126.669L172.259 130.469L167.45 133.138L167.058 138.04L171.68 135.475L176.546 132.62L177.014 133.081L175.974 141.174L170.567 144.019L166.365 146.351L166.193 148.403L166.103 151.336L170.585 148.848L178.356 144.227ZM204.984 105.102L203.991 113.168L197.847 116.269L197.287 116.58L196.124 131.793L195.807 142.778L186.469 147.961L187.56 137.575L188.322 121.555L187.715 121.892L181.485 125.658L180.971 125.222L181.964 117.156L204.516 104.641L204.984 105.102ZM219.114 95.922C222.071 94.281 224.959 93.279 227.777 92.9161L225.747 102.433L224.401 103.798C223.15 103.6 221.903 103.588 220.66 103.764C219.416 103.939 218.406 104.242 217.627 104.674C216.912 105.072 216.326 105.551 215.87 106.113C215.446 106.657 215.217 107.196 215.184 107.729C215.143 108.404 215.418 108.817 216.01 108.969C216.635 109.068 217.671 109.094 219.117 109.047C220.805 108.968 222.186 109.008 223.258 109.168C224.333 109.292 225.248 109.796 226.006 110.68C226.765 111.529 227.085 112.93 226.964 114.884C226.831 117.052 226.18 119.317 225.012 121.681C223.877 123.992 222.313 126.199 220.32 128.3C218.327 130.402 216.054 132.161 213.501 133.577C210.326 135.339 207.037 136.512 203.634 137.097L205.559 127.071L206.533 125.914C207.888 126.363 209.352 126.511 210.925 126.359C212.531 126.154 213.878 125.749 214.968 125.145C215.839 124.661 216.472 124.156 216.865 123.629C217.292 123.049 217.52 122.51 217.551 122.013C217.597 121.266 217.293 120.835 216.639 120.717C216.018 120.547 214.983 120.503 213.535 120.586C211.876 120.684 210.509 120.67 209.434 120.546C208.393 120.369 207.508 119.847 206.78 118.982C206.054 118.081 205.751 116.653 205.871 114.699C206.009 112.46 206.662 110.159 207.83 107.795C209 105.395 210.566 103.154 212.528 101.069C214.491 98.9852 216.686 97.2694 219.114 95.922ZM252.042 103.335L252.509 103.796L251.469 111.889L230.178 123.705L231.269 113.319L232.303 89.2203L253.968 77.1974L254.436 77.6585L253.349 85.777L245.945 89.5772L241.136 92.246L240.743 97.1481L245.366 94.5828L250.232 91.7281L250.699 92.1893L249.66 100.282L244.253 103.128L240.051 105.46L239.879 107.511L239.789 110.444L244.271 107.956L252.042 103.335ZM276.168 85.0566C278.163 87.7925 280.177 90.2441 282.208 92.4115L281.996 93.6618C278.753 96.5253 275.584 98.9187 272.489 100.842L271.654 100.482L271.176 99.4601C270.962 99.0298 270.537 98.1158 269.902 96.7182C269.269 95.2851 268.721 93.9246 268.26 92.6365L265.131 94.3726L264.824 104.478L255.439 109.686L256.53 99.3002L257.564 75.2018L271.902 67.1936C275.295 65.3107 277.853 64.7835 279.576 65.612C281.301 66.405 282.057 68.5248 281.844 71.9715C281.719 73.9968 281.151 76.1483 280.139 78.4259C279.158 80.6862 277.834 82.8964 276.168 85.0566ZM271.927 78.5048C272.014 77.0835 271.752 76.2167 271.14 75.9043C270.561 75.5391 269.558 75.7183 268.13 76.4419L266.44 77.5346L265.704 86.5392L269.1 84.8608C270 83.9152 270.676 82.9393 271.129 81.933C271.582 80.9267 271.848 79.784 271.927 78.5048ZM300.932 84.4398L289.633 90.7104L283.494 60.8124L292.972 55.5523L293.461 60.7889L295.777 78.0864L296.338 77.7755L301.78 56.7903L303.058 49.9554L312.21 44.8767L300.932 84.4398ZM334.163 57.7623L334.631 58.2235L333.591 66.316L312.299 78.1317L313.39 67.7458L314.425 43.6474L336.09 31.6244L336.558 32.0856L335.471 40.204L328.067 44.0042L323.257 46.6731L322.865 51.5751L327.488 49.0098L332.353 46.1551L332.821 46.6163L331.781 54.7089L326.375 57.5547L322.172 59.8868L322.001 61.938L321.91 64.8709L326.393 62.3834L334.163 57.7623ZM358.289 39.4836C360.285 42.2195 362.298 44.6711 364.329 46.8385L364.117 48.0888C360.874 50.9523 357.705 53.3458 354.61 55.2691L353.776 54.9086L353.298 53.8871C353.084 53.4568 352.659 52.5428 352.024 51.1453C351.39 49.7122 350.843 48.3516 350.381 47.0636L347.253 48.7996L346.946 58.9049L337.56 64.1132L338.652 53.7273L339.686 29.6288L354.024 21.6207C357.417 19.7377 359.975 19.2105 361.697 20.039C363.422 20.832 364.178 22.9518 363.966 26.3985C363.841 28.4239 363.272 30.5753 362.26 32.8529C361.279 35.1132 359.955 37.3235 358.289 39.4836ZM354.048 32.9318C354.136 31.5105 353.873 30.6437 353.261 30.3313C352.683 29.9662 351.68 30.1454 350.252 30.8689L348.561 31.9616L347.826 40.9662L351.221 39.2878C352.121 38.3422 352.798 37.3663 353.251 36.36C353.703 35.3537 353.969 34.211 354.048 32.9318Z" fill="#254CEC"/>
</g>
<g filter="url(#filter2_d_36_6527)">
<path d="M309.58 165.065C305.885 162.954 300.606 163.13 294.976 166.473L302.014 170.52C307.645 167.177 312.923 167.001 316.619 169.112L309.58 165.065Z" fill="white"/>
<path d="M294.976 166.469L217.729 211.163L224.768 215.21L302.014 170.516L294.976 166.469Z" fill="white"/>
<path d="M224.768 215.215L217.729 211.168C206.468 217.679 197.142 233.515 197.318 246.536C197.318 253.047 199.605 257.621 203.301 259.733L210.339 263.78C206.644 261.669 204.356 257.094 204.356 250.583C204.18 237.562 213.33 221.726 224.768 215.215Z" fill="white"/>
<path d="M302.013 170.519L224.767 215.213C213.506 221.723 204.18 237.56 204.356 250.581C204.356 263.602 213.682 268.88 224.943 262.37L302.189 217.676C313.451 211.166 322.601 195.329 322.601 182.308C322.601 169.287 313.451 164.009 302.013 170.519Z" fill="#365AF0"/>
<path d="M217.729 235.799L220.369 234.215V238.086C220.897 237.03 221.777 235.975 223.008 235.271C224.944 234.215 226.176 234.743 226.176 237.03V241.957L223.536 243.541V238.966C223.536 237.734 222.832 237.558 221.953 238.086C220.897 238.614 220.369 239.67 220.369 240.902V245.477L217.729 247.06V235.799Z" fill="white"/>
<path d="M228.287 234.569L227.231 235.096V232.985L228.287 232.457V230.346L230.927 228.762V230.873L232.686 229.818V231.929L230.927 232.985V236.328C230.927 236.856 231.103 236.856 231.806 236.504L232.686 235.976V238.264L231.278 238.968C229.519 240.023 228.287 240.023 228.287 237.736V234.569Z" fill="white"/>
<path d="M234.621 231.053L233.565 231.581V229.469L234.621 228.941V226.83L237.261 225.246V227.358L239.02 226.302V228.414L237.261 229.469V232.813C237.261 233.34 237.437 233.34 238.14 232.989L239.02 232.461V234.748L237.613 235.628C235.853 236.684 234.621 236.684 234.621 234.396V231.053Z" fill="white"/>
<path d="M245.531 222.252C247.642 221.02 249.226 221.724 249.226 224.364C249.226 227.003 247.642 229.642 245.531 230.874C244.299 231.578 243.419 231.578 242.891 231.05V236.329L240.252 237.913V225.243L242.891 223.66V224.892C243.419 224.188 244.299 222.956 245.531 222.252ZM244.827 225.068C243.771 225.595 242.891 226.827 242.891 228.235C242.891 229.642 243.771 229.818 244.827 229.291C245.883 228.763 246.762 227.355 246.762 226.123C246.586 224.716 245.707 224.54 244.827 225.068Z" fill="white"/>
<path d="M251.866 221.191C250.986 221.719 250.282 221.543 250.282 220.663C250.282 219.783 250.986 218.903 251.866 218.376C252.746 217.848 253.45 218.2 253.45 218.903C253.45 219.607 252.746 220.663 251.866 221.191ZM251.866 227.349C250.986 227.877 250.282 227.701 250.282 226.822C250.282 225.942 250.986 225.062 251.866 224.534C252.746 224.006 253.45 224.182 253.45 225.062C253.45 225.942 252.746 226.822 251.866 227.349Z" fill="white"/>
<path d="M258.376 209.056L260.84 207.649L256.793 227.356L254.329 228.764L258.376 209.056Z" fill="white"/>
<path d="M265.238 205.009L267.702 203.602L263.655 223.309L261.191 224.717L265.238 205.009Z" fill="white"/>
<path d="M267.878 209.582L270.517 207.998L271.749 213.453L273.157 206.591L275.972 205.007L277.38 210.286L278.611 203.599L281.075 202.192L278.787 212.045L275.972 213.629L274.564 208.878L273.157 215.213L270.341 216.796L267.878 209.582Z" fill="white"/>
<path d="M281.251 201.844L283.89 200.26L285.122 205.715L286.53 198.852L289.345 197.269L290.753 202.547L291.984 195.861L294.448 194.453L292.16 204.307L289.345 205.891L287.937 201.14L286.53 207.474L283.714 209.058L281.251 201.844Z" fill="white"/>
<path d="M294.447 194.273L297.087 192.69L298.318 198.144L299.726 191.282L302.541 189.698L303.949 194.977L305.181 188.291L307.644 186.883L305.357 196.737L302.541 198.32L300.958 193.394L299.55 199.728L296.735 201.312L294.447 194.273Z" fill="white"/>
<path d="M309.756 194.097C308.877 194.625 308.173 194.449 308.173 193.569C308.173 192.689 308.877 191.809 309.756 191.282C310.636 190.754 311.34 190.93 311.34 191.809C311.164 192.513 310.636 193.569 309.756 194.097Z" fill="white"/>
</g>
<g filter="url(#filter3_d_36_6527)">
<path d="M534.69 132.04C530.994 129.929 525.716 130.105 520.085 133.448L527.123 137.495C532.754 134.152 538.033 133.976 541.728 136.087L534.69 132.04Z" fill="white"/>
<path d="M520.085 133.624L409.935 197.145L416.973 201.192L527.124 137.671L520.085 133.624Z" fill="white"/>
<path d="M416.973 201.198L409.934 197.151C398.673 203.662 389.347 219.498 389.523 232.519C389.523 239.029 391.81 243.604 395.506 245.716L402.544 249.763C398.849 247.651 396.561 243.077 396.561 236.566C396.385 223.721 405.535 207.885 416.973 201.198Z" fill="white"/>
<path d="M527.123 137.67L416.972 201.367C405.711 207.877 396.385 223.714 396.561 236.735C396.561 249.756 405.887 255.034 417.148 248.524L527.299 184.827C538.56 178.316 547.71 162.48 547.71 149.459C547.71 136.262 538.384 130.983 527.123 137.67Z" fill="#2ABEC6"/>
<path d="M419.613 220.715C420.668 220.012 421.724 220.012 422.252 220.539V216.668L424.891 215.085V226.346L422.252 227.93V226.698C421.724 227.754 420.844 228.81 419.613 229.513C417.501 230.745 415.917 230.041 415.917 227.226C415.741 224.411 417.501 221.771 419.613 220.715ZM420.316 222.475C419.261 223.003 418.381 224.235 418.381 225.642C418.381 227.05 419.261 227.226 420.316 226.698C421.372 226.17 422.252 224.938 422.252 223.531C422.252 222.123 421.372 221.947 420.316 222.475Z" fill="white"/>
<path d="M430.522 223.005C428.059 224.413 426.123 223.885 426.123 221.246C426.123 218.606 428.059 215.791 430.522 214.383C432.985 212.976 434.921 213.504 434.921 216.143C435.097 218.782 433.161 221.598 430.522 223.005ZM430.522 220.718C431.402 220.19 432.282 218.958 432.282 217.551C432.282 216.143 431.402 215.967 430.522 216.495C429.642 217.023 428.762 218.254 428.762 219.662C428.762 221.07 429.642 221.422 430.522 220.718Z" fill="white"/>
<path d="M448.118 208.223C448.118 207.167 447.414 206.815 446.535 207.519C445.479 208.047 444.951 209.103 444.951 210.159V214.734L442.312 216.317V211.566C442.312 210.511 441.608 210.159 440.728 210.862C439.672 211.39 439.144 212.446 439.144 213.502V218.077L436.505 219.66V211.214L439.144 209.631V210.686C439.672 209.631 440.552 208.751 441.608 208.047C442.839 207.343 443.895 207.343 444.423 208.047C444.951 206.815 446.007 205.584 447.238 204.88C449.35 203.648 450.758 204.176 450.758 206.463V211.39L448.118 212.974V208.223Z" fill="white"/>
<path d="M455.861 199.775C457.092 199.071 457.972 199.071 458.5 199.599V198.368L461.139 196.784V205.23L458.5 206.814V205.582C457.972 206.638 457.092 207.693 455.861 208.397C453.749 209.629 452.165 208.925 452.165 206.11C451.99 203.646 453.749 201.007 455.861 199.775ZM456.564 201.535C455.509 202.063 454.629 203.294 454.629 204.702C454.629 206.11 455.509 206.286 456.564 205.758C457.62 205.23 458.5 203.998 458.5 202.591C458.5 201.183 457.62 201.007 456.564 201.535Z" fill="white"/>
<path d="M462.723 193.622C462.723 192.742 463.426 191.863 464.306 191.335C465.186 190.807 465.89 190.983 465.89 191.863C465.89 192.566 465.186 193.622 464.306 194.15C463.251 194.678 462.723 194.326 462.723 193.622ZM462.899 195.734L465.538 194.15V202.596L462.899 204.18V195.734Z" fill="white"/>
<path d="M473.28 193.618C473.28 192.386 472.576 192.21 471.697 192.738C470.641 193.266 470.113 194.321 470.113 195.553V200.128L467.474 201.712V193.266L470.113 191.682V192.738C470.641 191.682 471.521 190.626 472.752 190.098C474.688 189.043 476.096 189.571 476.096 191.858V196.785L473.456 198.369V193.618H473.28Z" fill="white"/>
<path d="M477.503 189.397L484.189 185.526V187.638L477.503 191.509V189.397Z" fill="white"/>
<path d="M492.46 182.536C492.46 181.304 491.756 181.128 490.876 181.656C489.821 182.184 489.293 183.239 489.293 184.471V189.046L486.653 190.63V182.184L489.293 180.6V181.656C489.821 180.6 490.7 179.544 491.932 179.016C493.868 177.961 495.275 178.489 495.275 180.776V185.703L492.636 187.286V182.536H492.46Z" fill="white"/>
<path d="M500.026 174.088C501.258 173.384 502.138 173.384 502.666 173.912V172.68L505.305 171.096V179.542L502.666 181.126V179.894C502.138 180.95 501.258 182.006 500.026 182.71C497.915 183.941 496.331 183.238 496.331 180.422C496.331 177.959 497.915 175.319 500.026 174.088ZM500.906 176.023C499.85 176.551 498.97 177.783 498.97 179.191C498.97 180.598 499.85 180.774 500.906 180.246C501.962 179.718 502.842 178.487 502.842 177.079C502.666 175.671 501.786 175.495 500.906 176.023Z" fill="white"/>
<path d="M519.029 167.227C519.029 166.171 518.326 165.819 517.446 166.523C516.39 167.051 515.862 168.107 515.862 169.162V173.737L513.223 175.321V170.746C513.223 169.69 512.519 169.338 511.639 170.042C510.583 170.57 510.055 171.626 510.055 172.681V177.256L507.416 178.84V170.394L510.055 168.81V169.866C510.583 168.81 511.463 167.931 512.519 167.227C513.751 166.523 514.806 166.523 515.334 167.227C515.862 165.995 516.918 164.763 518.15 164.059C520.261 162.828 521.669 163.356 521.669 165.643V170.57L519.029 172.154V167.227Z" fill="white"/>
<path d="M527.123 167.224C524.66 168.632 522.9 168.104 522.9 165.289C522.9 162.473 524.66 159.834 527.123 158.426C529.587 157.019 531.346 157.547 531.346 160.186C531.346 160.362 531.346 160.714 531.346 160.89L525.364 164.233C525.54 165.289 526.068 165.465 526.947 164.937C527.651 164.585 528.179 163.881 528.355 163.353L531.171 161.77C530.819 163.881 529.235 165.993 527.123 167.224ZM525.54 163.001L528.883 161.066C528.883 160.186 528.179 160.01 527.299 160.538C526.244 161.066 525.54 161.945 525.54 163.001Z" fill="white"/>
</g>
<g filter="url(#filter4_d_36_6527)">
<path d="M193.859 328.069C190.163 325.957 184.885 326.133 179.254 329.476L186.292 333.523C191.923 330.18 197.202 330.004 200.897 332.116L193.859 328.069Z" fill="white"/>
<path d="M179.254 329.473L150.749 346.013L157.787 350.06L186.293 333.696L179.254 329.473Z" fill="white"/>
<path d="M157.787 350.066L150.749 346.019C139.487 352.53 130.161 368.366 130.337 381.387C130.337 387.898 132.625 392.473 136.32 394.584L143.358 398.631C139.663 396.52 137.376 391.945 137.376 385.434C137.2 372.413 146.35 356.577 157.787 350.066Z" fill="white"/>
<path d="M186.292 333.698L157.787 350.062C146.525 356.573 137.2 372.409 137.375 385.43C137.375 398.451 146.701 403.73 157.963 397.219L186.468 380.855C197.73 374.345 206.879 358.508 206.879 345.487C206.703 332.29 197.554 327.012 186.292 333.698Z" fill="#0885F6"/>
</g>
<path d="M154.444 379.624C153.564 380.152 152.86 379.976 152.86 379.096C152.86 378.216 153.564 377.337 154.444 376.809C155.324 376.281 156.028 376.457 156.028 377.337C156.028 378.216 155.324 379.096 154.444 379.624Z" fill="white"/>
<path d="M161.307 366.956C163.419 365.724 165.002 366.076 165.354 367.836L162.539 369.419C162.363 368.891 161.835 368.891 161.131 369.243C160.251 369.771 159.547 370.827 159.547 372.235C159.547 373.642 160.251 373.994 161.131 373.466C161.835 373.114 162.187 372.41 162.539 371.707L165.354 370.123C164.826 372.411 163.419 374.522 161.307 375.754C158.844 377.161 157.084 376.458 157.084 373.818C157.084 371.179 158.844 368.363 161.307 366.956Z" fill="white"/>
<path d="M170.632 370.292C168.169 371.699 166.233 371.172 166.233 368.532C166.233 365.893 168.169 363.077 170.632 361.67C173.096 360.262 175.031 360.79 175.031 363.429C175.031 366.069 173.096 368.884 170.632 370.292ZM170.632 368.004C171.512 367.476 172.392 366.245 172.392 364.837C172.392 363.429 171.512 363.253 170.632 363.781C169.753 364.309 168.873 365.541 168.873 366.949C168.873 368.356 169.753 368.708 170.632 368.004Z" fill="white"/>
<path d="M188.229 355.517C188.229 354.461 187.525 354.109 186.645 354.813C185.589 355.341 185.061 356.397 185.061 357.453V362.028L182.422 363.611V359.036C182.422 357.98 181.718 357.629 180.838 358.332C179.782 358.86 179.255 359.916 179.255 360.972V365.547L176.615 367.13V358.684L179.255 357.101V358.156C179.783 357.101 180.662 356.221 181.718 355.517C182.95 354.813 184.006 354.813 184.533 355.517C185.061 354.285 186.117 353.054 187.349 352.35C189.46 351.118 190.868 351.646 190.868 353.933V358.86L188.229 360.444V355.517Z" fill="white"/>
<g filter="url(#filter5_d_36_6527)">
<g opacity="0.6" filter="url(#filter6_f_36_6527)">
<path d="M432.394 381.209L414.166 416.147L463.153 391.842L501.888 361.082L432.394 381.209Z" fill="#0B0D38"/>
</g>
<path d="M505.976 363.486L377.949 437.358V328.875L505.976 255.004V363.486Z" fill="white"/>
<path d="M372.06 324.887L377.981 328.87L377.934 437.359L372.06 433.269V324.887Z" fill="#CEDBE4"/>
<path d="M506.007 255.054L377.985 328.876L372.065 324.895L499.937 251.105L506.007 255.054Z" fill="#B5CCDC"/>
</g>
<path d="M452.854 363.025L438.906 371.032C433.396 374.217 428.833 381.966 428.919 388.337C428.919 394.708 433.482 397.291 438.993 394.106L452.94 386.099C458.45 382.913 462.928 375.164 462.928 368.793C462.928 362.422 458.45 359.839 452.854 363.025Z" fill="#D6D1DB"/>
<path d="M466.2 351.834C464.392 350.801 461.809 350.887 459.054 352.523L462.498 354.503C465.253 352.867 467.836 352.781 469.644 353.814L466.2 351.834Z" fill="white"/>
<path d="M459.139 352.52L445.191 360.613L448.635 362.593L462.497 354.5L459.139 352.52Z" fill="white"/>
<path d="M448.635 362.598L445.192 360.617C439.681 363.803 435.118 371.552 435.204 377.923C435.204 381.109 436.324 383.347 438.132 384.38L441.576 386.36C439.767 385.327 438.648 383.089 438.648 379.903C438.562 373.532 443.039 365.783 448.635 362.598Z" fill="white"/>
<path d="M462.497 354.501L448.549 362.508C443.039 365.694 438.476 373.442 438.562 379.814C438.562 386.185 443.125 388.768 448.635 385.582L462.583 377.575C468.093 374.39 472.57 366.641 472.57 360.27C472.57 353.898 468.093 351.315 462.497 354.501Z" fill="#A45FDB"/>
<path d="M461.808 368.278C463.702 365.265 463.702 362.165 461.808 361.304C459.914 360.529 456.728 362.337 454.834 365.351C453.198 368.02 452.94 370.689 454.232 371.894L449.755 378.954C449.324 379.557 449.324 380.16 449.755 380.332C450.185 380.504 450.788 380.16 451.132 379.557L455.609 372.497C457.503 372.583 460.172 370.947 461.808 368.278ZM456.04 370.431C454.748 369.914 454.748 367.848 456.04 365.867C457.331 363.887 459.311 362.682 460.603 363.198C461.894 363.715 461.894 365.781 460.603 367.762C459.311 369.742 457.331 370.947 456.04 370.431Z" fill="white"/>
<path d="M416.607 361.905C416.091 361.905 415.66 361.819 415.23 361.56C414.369 361.044 413.938 360.097 413.938 358.805C413.938 356.05 416.177 352.434 419.018 350.798L473.001 319.631C474.465 318.77 475.928 318.598 476.962 319.201C477.823 319.717 478.253 320.664 478.253 321.956C478.253 324.711 476.015 328.327 473.173 329.963L419.19 361.13C418.243 361.646 417.382 361.905 416.607 361.905ZM475.498 319.373C474.809 319.373 473.948 319.631 473.173 320.148L419.19 351.229C416.521 352.778 414.369 356.222 414.369 358.805C414.369 359.925 414.799 360.785 415.488 361.13C416.349 361.646 417.641 361.474 419.018 360.699L473.001 329.532C475.67 327.982 477.823 324.539 477.823 321.956C477.823 320.836 477.392 319.975 476.703 319.631C476.359 319.459 475.928 319.373 475.498 319.373Z" fill="#D6D1DB"/>
<path d="M472.57 325.738C473.087 325.48 473.517 324.791 473.517 324.275V322.811C473.517 322.294 473.087 322.122 472.57 322.38C472.054 322.639 471.623 323.327 471.623 323.844V325.308C471.623 325.91 472.054 326.083 472.57 325.738Z" fill="#D6D1DB"/>
<path d="M474.12 323.671C473.948 323.757 473.862 323.929 473.862 324.015C473.862 324.79 473.259 325.737 472.484 326.082C471.709 326.512 471.106 326.254 471.106 325.479C471.106 325.307 471.02 325.307 470.848 325.393C470.676 325.479 470.59 325.651 470.59 325.737C470.59 326.684 471.279 327.029 472.14 326.598V327.718C472.14 327.89 472.226 327.89 472.398 327.804C472.57 327.718 472.656 327.545 472.656 327.459V326.34C473.517 325.737 474.206 324.532 474.206 323.671C474.378 323.671 474.292 323.585 474.12 323.671Z" fill="#D6D1DB"/>
<path d="M426.509 338.574L425.045 333.15L422.72 334.528L421.171 341.674L419.879 336.077L417.641 337.455L419.879 344.773L422.376 343.309L423.84 336.766L425.217 341.674L427.8 340.21L430.039 330.223L427.8 331.6L426.509 338.574Z" fill="#211C3A"/>
<path d="M434.171 329.535C432.105 330.74 430.728 332.893 430.728 335.131C430.728 337.284 432.191 337.8 434.171 336.681C435.893 335.648 437.099 333.926 437.443 332.376L435.205 333.668C435.032 334.098 434.688 334.615 434.085 334.959C433.397 335.389 432.88 335.217 432.794 334.356L437.615 331.601C437.615 331.343 437.615 331.171 437.615 330.999C437.615 328.932 436.152 328.416 434.171 329.535ZM432.794 333.237C432.88 332.376 433.483 331.687 434.171 331.257C434.86 330.826 435.463 330.912 435.463 331.687L432.794 333.237Z" fill="#211C3A"/>
<path d="M442.953 324.451C442.006 325.053 441.231 325.914 440.801 326.775V323.59L438.648 324.795V333.922L440.801 332.716V331.769C441.145 332.113 441.92 332.2 442.953 331.597C444.675 330.65 445.967 328.497 445.967 326.259C445.967 324.106 444.675 323.504 442.953 324.451ZM442.351 330.133C441.576 330.564 440.801 330.392 440.801 329.272C440.801 328.153 441.49 327.12 442.351 326.689C443.125 326.259 443.9 326.431 443.9 327.464C443.814 328.583 443.125 329.617 442.351 330.133Z" fill="#211C3A"/>
<path d="M448.894 323.16C448.894 322.815 449.152 322.471 449.669 322.212C450.271 321.868 450.616 321.954 450.702 322.385L452.682 321.265C452.51 319.974 451.563 319.543 449.755 320.577C447.947 321.61 446.913 323.16 446.913 324.365C446.913 326.862 450.702 323.934 450.702 325.054C450.702 325.398 450.443 325.742 449.841 326.087C449.238 326.431 448.808 326.345 448.808 325.915L446.741 327.12C446.827 328.411 448.033 328.67 449.927 327.637C451.649 326.603 452.682 325.14 452.682 323.934C452.682 321.265 448.894 324.193 448.894 323.16Z" fill="#211C3A"/>
<path d="M455.093 314.641C454.318 315.071 453.802 315.846 453.802 316.535C453.802 317.138 454.318 317.396 455.093 316.966C455.868 316.535 456.299 315.76 456.299 315.071C456.299 314.383 455.782 314.21 455.093 314.641Z" fill="#211C3A"/>
<path d="M453.974 325.054L456.126 323.849V316.961L453.974 318.166V325.054Z" fill="#211C3A"/>
<path d="M460.087 319.203V316.448L461.464 315.673V313.951L460.087 314.726V313.004L457.934 314.209V315.931L457.073 316.448V318.17L457.934 317.653V320.408C457.934 322.216 458.967 322.216 460.345 321.355L461.378 320.753V318.945L460.603 319.375C460.259 319.719 460.087 319.633 460.087 319.203Z" fill="#211C3A"/>
<path d="M469.127 312.831C469.127 310.764 467.749 310.248 465.683 311.367C463.617 312.572 462.239 314.725 462.239 316.963C462.239 319.116 463.703 319.632 465.683 318.513C467.405 317.48 468.61 315.758 468.955 314.208L466.716 315.5C466.544 315.93 466.2 316.447 465.597 316.791C464.908 317.222 464.392 317.049 464.306 316.188L469.127 313.433C469.127 313.175 469.127 313.003 469.127 312.831ZM464.306 314.983C464.392 314.122 464.994 313.433 465.683 313.003C466.372 312.572 466.975 312.658 466.975 313.433L464.306 314.983Z" fill="#211C3A"/>
<defs>
<filter id="filter0_d_36_6527" x="112.903" y="145.167" width="497.325" height="338.386" filterUnits="userSpaceOnUse" color-interpolation-filters="sRGB">
<feFlood flood-opacity="0" result="BackgroundImageFix"/>
<feColorMatrix in="SourceAlpha" type="matrix" values="0 0 0 0 0 0 0 0 0 0 0 0 0 0 0 0 0 0 127 0" result="hardAlpha"/>
<feOffset dy="12"/>
<feGaussianBlur stdDeviation="7.5"/>
<feComposite in2="hardAlpha" operator="out"/>
<feColorMatrix type="matrix" values="0 0 0 0 0.0165625 0 0 0 0 0.110527 0 0 0 0 0.220833 0 0 0 0.25 0"/>
<feBlend mode="normal" in2="BackgroundImageFix" result="effect1_dropShadow_36_6527"/>
<feBlend mode="normal" in="SourceGraphic" in2="effect1_dropShadow_36_6527" result="shape"/>
</filter>
<filter id="filter1_i_36_6527" x="136.732" y="13.8997" width="229.927" height="167.427" filterUnits="userSpaceOnUse" color-interpolation-filters="sRGB">
<feFlood flood-opacity="0" result="BackgroundImageFix"/>
<feBlend mode="normal" in="SourceGraphic" in2="BackgroundImageFix" result="shape"/>
<feColorMatrix in="SourceAlpha" type="matrix" values="0 0 0 0 0 0 0 0 0 0 0 0 0 0 0 0 0 0 127 0" result="hardAlpha"/>
<feOffset dx="1" dy="-1.36"/>
<feGaussianBlur stdDeviation="0.16"/>
<feComposite in2="hardAlpha" operator="arithmetic" k2="-1" k3="1"/>
<feColorMatrix type="matrix" values="0 0 0 0 0 0 0 0 0 0 0 0 0 0 0 0 0 0 0.25 0"/>
<feBlend mode="normal" in2="shape" result="effect1_innerShadow_36_6527"/>
</filter>
<filter id="filter2_d_36_6527" x="181.315" y="157.68" width="145.285" height="121.478" filterUnits="userSpaceOnUse" color-interpolation-filters="sRGB">
<feFlood flood-opacity="0" result="BackgroundImageFix"/>
<feColorMatrix in="SourceAlpha" type="matrix" values="0 0 0 0 0 0 0 0 0 0 0 0 0 0 0 0 0 0 127 0" result="hardAlpha"/>
<feOffset dx="-6" dy="4"/>
<feGaussianBlur stdDeviation="5"/>
<feComposite in2="hardAlpha" operator="out"/>
<feColorMatrix type="matrix" values="0 0 0 0 0 0 0 0 0 0 0 0 0 0 0 0 0 0 0.25 0"/>
<feBlend mode="normal" in2="BackgroundImageFix" result="effect1_dropShadow_36_6527"/>
<feBlend mode="normal" in="SourceGraphic" in2="effect1_dropShadow_36_6527" result="shape"/>
</filter>
<filter id="filter3_d_36_6527" x="373.521" y="124.655" width="178.189" height="140.657" filterUnits="userSpaceOnUse" color-interpolation-filters="sRGB">
<feFlood flood-opacity="0" result="BackgroundImageFix"/>
<feColorMatrix in="SourceAlpha" type="matrix" values="0 0 0 0 0 0 0 0 0 0 0 0 0 0 0 0 0 0 127 0" result="hardAlpha"/>
<feOffset dx="-6" dy="4"/>
<feGaussianBlur stdDeviation="5"/>
<feComposite in2="hardAlpha" operator="out"/>
<feColorMatrix type="matrix" values="0 0 0 0 0 0 0 0 0 0 0 0 0 0 0 0 0 0 0.25 0"/>
<feBlend mode="normal" in2="BackgroundImageFix" result="effect1_dropShadow_36_6527"/>
<feBlend mode="normal" in="SourceGraphic" in2="effect1_dropShadow_36_6527" result="shape"/>
</filter>
<filter id="filter4_d_36_6527" x="114.335" y="320.684" width="96.5449" height="93.3242" filterUnits="userSpaceOnUse" color-interpolation-filters="sRGB">
<feFlood flood-opacity="0" result="BackgroundImageFix"/>
<feColorMatrix in="SourceAlpha" type="matrix" values="0 0 0 0 0 0 0 0 0 0 0 0 0 0 0 0 0 0 127 0" result="hardAlpha"/>
<feOffset dx="-6" dy="4"/>
<feGaussianBlur stdDeviation="5"/>
<feComposite in2="hardAlpha" operator="out"/>
<feColorMatrix type="matrix" values="0 0 0 0 0 0 0 0 0 0 0 0 0 0 0 0 0 0 0.25 0"/>
<feBlend mode="normal" in2="BackgroundImageFix" result="effect1_dropShadow_36_6527"/>
<feBlend mode="normal" in="SourceGraphic" in2="effect1_dropShadow_36_6527" result="shape"/>
</filter>
<filter id="filter5_d_36_6527" x="359.06" y="242.105" width="147.947" height="200.253" filterUnits="userSpaceOnUse" color-interpolation-filters="sRGB">
<feFlood flood-opacity="0" result="BackgroundImageFix"/>
<feColorMatrix in="SourceAlpha" type="matrix" values="0 0 0 0 0 0 0 0 0 0 0 0 0 0 0 0 0 0 127 0" result="hardAlpha"/>
<feOffset dx="-6" dy="-2"/>
<feGaussianBlur stdDeviation="3.5"/>
<feComposite in2="hardAlpha" operator="out"/>
<feColorMatrix type="matrix" values="0 0 0 0 0 0 0 0 0 0 0 0 0 0 0 0 0 0 0.25 0"/>
<feBlend mode="normal" in2="BackgroundImageFix" result="effect1_dropShadow_36_6527"/>
<feBlend mode="normal" in="SourceGraphic" in2="effect1_dropShadow_36_6527" result="shape"/>
</filter>
<filter id="filter6_f_36_6527" x="406.166" y="353.082" width="103.722" height="71.0652" filterUnits="userSpaceOnUse" color-interpolation-filters="sRGB">
<feFlood flood-opacity="0" result="BackgroundImageFix"/>
<feBlend mode="normal" in="SourceGraphic" in2="BackgroundImageFix" result="shape"/>
<feGaussianBlur stdDeviation="4" result="effect1_foregroundBlur_36_6527"/>
</filter>
<linearGradient id="paint0_linear_36_6527" x1="577.99" y1="465.638" x2="577.99" y2="399.695" gradientUnits="userSpaceOnUse">
<stop stop-color="white" stop-opacity="0"/>
<stop offset="1" stop-color="white"/>
</linearGradient>
<linearGradient id="paint1_linear_36_6527" x1="359.493" y1="270.498" x2="359.493" y2="204.555" gradientUnits="userSpaceOnUse">
<stop stop-color="white" stop-opacity="0"/>
<stop offset="1" stop-color="white"/>
</linearGradient>
<linearGradient id="paint2_linear_36_6527" x1="81.6883" y1="493.575" x2="81.6883" y2="408.404" gradientUnits="userSpaceOnUse">
<stop stop-color="white" stop-opacity="0"/>
<stop offset="1" stop-color="white"/>
</linearGradient>
<linearGradient id="paint3_linear_36_6527" x1="425.963" y1="498.691" x2="425.963" y2="462.341" gradientUnits="userSpaceOnUse">
<stop stop-color="white" stop-opacity="0"/>
<stop offset="1" stop-color="white"/>
</linearGradient>
<linearGradient id="paint4_linear_36_6527" x1="91.4627" y1="292.729" x2="91.4627" y2="256.378" gradientUnits="userSpaceOnUse">
<stop stop-color="white" stop-opacity="0"/>
<stop offset="1" stop-color="white"/>
</linearGradient>
<linearGradient id="paint5_linear_36_6527" x1="158.815" y1="169.82" x2="158.815" y2="44.3999" gradientUnits="userSpaceOnUse">
<stop stop-color="white" stop-opacity="0"/>
<stop offset="1" stop-color="white"/>
</linearGradient>
<linearGradient id="paint6_linear_36_6527" x1="445.326" y1="165.064" x2="445.326" y2="73.8416" gradientUnits="userSpaceOnUse">
<stop stop-color="white" stop-opacity="0"/>
<stop offset="1" stop-color="white"/>
</linearGradient>
<linearGradient id="paint7_linear_36_6527" x1="354.645" y1="227.147" x2="354.645" y2="160.912" gradientUnits="userSpaceOnUse">
<stop offset="0.00465745" stop-color="#5B9CF2" stop-opacity="0"/>
<stop offset="0.6862" stop-color="#375F9A" stop-opacity="0.6847"/>
<stop offset="1" stop-color="#284776"/>
</linearGradient>
<linearGradient id="paint8_linear_36_6527" x1="458.7" y1="317.099" x2="458.7" y2="209.301" gradientUnits="userSpaceOnUse">
<stop offset="0.00465745" stop-color="#5B9CF2" stop-opacity="0"/>
<stop offset="0.6862" stop-color="#375F9A" stop-opacity="0.6847"/>
<stop offset="1" stop-color="#284776"/>
</linearGradient>
<linearGradient id="paint9_linear_36_6527" x1="527.232" y1="324.851" x2="527.232" y2="209.255" gradientUnits="userSpaceOnUse">
<stop offset="0.00465745" stop-color="#5B9CF2" stop-opacity="0"/>
<stop offset="0.6862" stop-color="#375F9A" stop-opacity="0.6847"/>
<stop offset="1" stop-color="#284776"/>
</linearGradient>
<linearGradient id="paint10_linear_36_6527" x1="248.397" y1="376.717" x2="248.397" y2="238.873" gradientUnits="userSpaceOnUse">
<stop offset="0.00465745" stop-color="#5B9CF2" stop-opacity="0"/>
<stop offset="0.6862" stop-color="#375F9A" stop-opacity="0.6847"/>
<stop offset="1" stop-color="#284776"/>
</linearGradient>
<linearGradient id="paint11_linear_36_6527" x1="336.032" y1="386.63" x2="336.032" y2="238.813" gradientUnits="userSpaceOnUse">
<stop offset="0.00465745" stop-color="#5B9CF2" stop-opacity="0"/>
<stop offset="0.6862" stop-color="#375F9A" stop-opacity="0.6847"/>
<stop offset="1" stop-color="#284776"/>
</linearGradient>
<linearGradient id="paint12_linear_36_6527" x1="428.031" y1="492.82" x2="428.031" y2="385.022" gradientUnits="userSpaceOnUse">
<stop offset="0.00465745" stop-color="#5B9CF2" stop-opacity="0"/>
<stop offset="0.6862" stop-color="#375F9A" stop-opacity="0.6847"/>
<stop offset="1" stop-color="#284776"/>
</linearGradient>
<linearGradient id="paint13_linear_36_6527" x1="496.563" y1="500.572" x2="496.563" y2="384.975" gradientUnits="userSpaceOnUse">
<stop offset="0.00465745" stop-color="#5B9CF2" stop-opacity="0"/>
<stop offset="0.6862" stop-color="#375F9A" stop-opacity="0.6847"/>
<stop offset="1" stop-color="#284776"/>
</linearGradient>
<linearGradient id="paint14_linear_36_6527" x1="592.722" y1="401.306" x2="592.722" y2="348.447" gradientUnits="userSpaceOnUse">
<stop offset="0.00465745" stop-color="#5B9CF2" stop-opacity="0"/>
<stop offset="0.6862" stop-color="#375F9A" stop-opacity="0.6847"/>
<stop offset="1" stop-color="#284776"/>
</linearGradient>
<linearGradient id="paint15_linear_36_6527" x1="626.327" y1="405.107" x2="626.327" y2="348.425" gradientUnits="userSpaceOnUse">
<stop offset="0.00465745" stop-color="#5B9CF2" stop-opacity="0"/>
<stop offset="0.6862" stop-color="#375F9A" stop-opacity="0.6847"/>
<stop offset="1" stop-color="#284776"/>
</linearGradient>
<linearGradient id="paint16_linear_36_6527" x1="533.743" y1="533.311" x2="533.743" y2="480.452" gradientUnits="userSpaceOnUse">
<stop offset="0.00465745" stop-color="#5B9CF2" stop-opacity="0"/>
<stop offset="0.6862" stop-color="#375F9A" stop-opacity="0.6847"/>
<stop offset="1" stop-color="#284776"/>
</linearGradient>
<linearGradient id="paint17_linear_36_6527" x1="567.347" y1="537.112" x2="567.347" y2="480.429" gradientUnits="userSpaceOnUse">
<stop offset="0.00465745" stop-color="#5B9CF2" stop-opacity="0"/>
<stop offset="0.6862" stop-color="#375F9A" stop-opacity="0.6847"/>
<stop offset="1" stop-color="#284776"/>
</linearGradient>
<linearGradient id="paint18_linear_36_6527" x1="321.226" y1="416.286" x2="321.226" y2="363.427" gradientUnits="userSpaceOnUse">
<stop offset="0.00465745" stop-color="#5B9CF2" stop-opacity="0"/>
<stop offset="0.6862" stop-color="#375F9A" stop-opacity="0.6847"/>
<stop offset="1" stop-color="#284776"/>
</linearGradient>
<linearGradient id="paint19_linear_36_6527" x1="354.831" y1="420.087" x2="354.831" y2="363.405" gradientUnits="userSpaceOnUse">
<stop offset="0.00465745" stop-color="#5B9CF2" stop-opacity="0"/>
<stop offset="0.6862" stop-color="#375F9A" stop-opacity="0.6847"/>
<stop offset="1" stop-color="#284776"/>
</linearGradient>
<linearGradient id="paint20_linear_36_6527" x1="169.426" y1="526.381" x2="169.426" y2="375.594" gradientUnits="userSpaceOnUse">
<stop offset="0.00465745" stop-color="#5B9CF2" stop-opacity="0"/>
<stop offset="0.6862" stop-color="#375F9A" stop-opacity="0.6847"/>
<stop offset="1" stop-color="#284776"/>
</linearGradient>
<linearGradient id="paint21_linear_36_6527" x1="273.195" y1="523.918" x2="273.195" y2="457.683" gradientUnits="userSpaceOnUse">
<stop offset="0.00465745" stop-color="#5B9CF2" stop-opacity="0"/>
<stop offset="0.6862" stop-color="#375F9A" stop-opacity="0.6847"/>
<stop offset="1" stop-color="#284776"/>
</linearGradient>
<linearGradient id="paint22_linear_36_6527" x1="494.745" y1="230.076" x2="494.745" y2="336.391" gradientUnits="userSpaceOnUse">
<stop stop-color="white" stop-opacity="0"/>
<stop offset="1" stop-color="white"/>
</linearGradient>
<linearGradient id="paint23_linear_36_6527" x1="337.907" y1="508.083" x2="337.907" y2="427.115" gradientUnits="userSpaceOnUse">
<stop stop-color="white" stop-opacity="0"/>
<stop offset="1" stop-color="white"/>
</linearGradient>
<linearGradient id="paint24_linear_36_6527" x1="337.907" y1="375.673" x2="337.907" y2="440.037" gradientUnits="userSpaceOnUse">
<stop stop-color="white" stop-opacity="0"/>
<stop offset="1" stop-color="white"/>
</linearGradient>
</defs>
</svg>
