<svg width="641" height="570" viewBox="0 0 641 570" fill="none" xmlns="http://www.w3.org/2000/svg">
<path opacity="0.85" d="M623.596 483.849C623.596 483.849 638.237 486.511 640.012 468.172C641.787 449.834 625.075 428.241 617.088 426.023C617.088 426.023 603.778 380.915 574.347 381.063C574.347 381.063 562.072 381.507 560.741 392.155C560.741 392.155 546.543 381.063 538.704 394.817C538.704 394.817 531.458 384.169 521.401 387.126C511.344 390.232 512.675 416.557 527.908 427.058C543.289 437.706 623.596 483.849 623.596 483.849Z" fill="url(#paint0_linear_270_7600)"/>
<path opacity="0.85" d="M405.167 288.763C405.167 288.763 419.808 291.425 421.583 273.087C423.358 254.748 406.646 233.155 398.66 230.937C398.66 230.937 385.349 185.829 355.918 185.977C355.918 185.977 343.643 186.421 342.312 197.069C342.312 197.069 328.114 185.977 320.276 199.731C320.276 199.731 313.029 189.083 302.972 192.041C292.915 195.146 294.246 221.472 309.479 231.972C324.713 242.472 405.167 288.763 405.167 288.763Z" fill="url(#paint1_linear_270_7600)"/>
<path opacity="0.85" d="M140.707 523.04C140.707 523.04 159.672 526.454 161.948 502.81C164.224 479.166 142.73 451.224 132.235 448.442C132.235 448.442 115.04 390.154 76.9823 390.407C76.9823 390.407 61.1776 390.913 59.5339 404.821C59.5339 404.821 41.2004 390.407 31.0854 408.235C31.0854 408.235 21.7291 394.453 8.83243 398.373C-4.0642 402.292 -2.4205 436.43 17.3038 449.959C36.9016 463.235 140.707 523.04 140.707 523.04Z" fill="url(#paint2_linear_270_7600)"/>
<path opacity="0.44" d="M450.866 499.808C450.866 499.808 459 501.287 459.887 491.082C460.923 481.026 451.605 469.046 447.169 467.863C447.169 467.863 439.774 443.017 423.506 443.165C423.506 443.165 416.702 443.461 416.111 449.228C416.111 449.228 408.272 443.165 403.984 450.707C403.984 450.707 399.99 444.792 394.518 446.566C389.046 448.193 389.638 462.835 398.068 468.603C406.646 474.222 450.866 499.808 450.866 499.808Z" fill="url(#paint3_linear_270_7600)"/>
<path opacity="0.85" d="M65.6017 293.793C65.6017 293.793 57.4675 295.271 56.5802 285.067C55.5449 275.01 64.8622 263.031 69.299 261.847C69.299 261.847 76.6937 237.001 92.9621 237.149C92.9621 237.149 99.7652 237.445 100.357 243.213C100.357 243.213 108.195 237.149 112.484 244.692C112.484 244.692 116.477 238.776 121.949 240.551C127.421 242.177 126.83 256.819 118.4 262.587C109.97 268.355 65.6017 293.793 65.6017 293.793Z" fill="url(#paint4_linear_270_7600)"/>
<path opacity="0.85" d="M70.8131 222.581C70.8131 222.581 42.8611 227.609 39.6075 192.706C36.3538 157.803 68.0031 116.836 83.3841 112.695C83.3841 112.695 108.822 26.769 164.726 27.2126C164.726 27.2126 187.945 28.1 190.459 48.3615C190.459 48.3615 217.376 27.2127 232.313 53.3899C232.313 53.3899 246.068 33.1284 265.146 38.8963C284.224 44.6642 281.71 94.9482 252.723 114.766C223.736 134.584 70.8131 222.581 70.8131 222.581Z" fill="url(#paint5_linear_270_7600)"/>
<path opacity="0.85" d="M381.151 198.037C381.151 198.037 360.89 201.587 358.376 176.297C356.009 151.007 379.081 121.132 390.173 118.027C390.173 118.027 408.66 55.6154 449.331 55.9112C449.331 55.9112 466.191 56.5028 468.113 71.2922C468.113 71.2922 487.783 55.9112 498.579 74.8416C498.579 74.8416 508.488 60.0523 522.39 64.3412C536.292 68.6301 534.518 105.012 513.369 119.506C492.368 133.999 381.151 198.037 381.151 198.037Z" fill="url(#paint6_linear_270_7600)"/>
<g opacity="0.55">
<path d="M328.852 169.711C328.852 162.612 340.24 156.992 354.142 156.992C368.044 156.992 379.432 162.76 379.432 169.711" stroke="#F7F6F5" stroke-width="0.740062" stroke-miterlimit="10"/>
<path opacity="0.47" d="M379.433 141.316H329.001V234.638H379.433V141.316Z" fill="url(#paint7_linear_270_7600)"/>
<path d="M379.432 169.711C379.432 176.81 368.044 182.43 354.142 182.43C340.24 182.43 328.852 176.662 328.852 169.711" stroke="#F7F6F5" stroke-width="0.740062" stroke-miterlimit="10"/>
<path opacity="0.43" d="M328.852 176.219C328.852 169.12 340.24 163.5 354.142 163.5C368.044 163.5 379.432 169.268 379.432 176.219" stroke="#F7F6F5" stroke-width="0.740062" stroke-miterlimit="10"/>
<path opacity="0.43" d="M379.432 176.219C379.432 183.318 368.044 188.938 354.142 188.938C340.24 188.938 328.852 183.17 328.852 176.219" stroke="#F7F6F5" stroke-width="0.740062" stroke-miterlimit="10"/>
<path d="M354.142 158.322C368.191 158.322 379.58 151.767 379.58 143.681C379.58 135.594 368.191 129.039 354.142 129.039C340.093 129.039 328.705 135.594 328.705 143.681C328.705 151.767 340.093 158.322 354.142 158.322Z" fill="#CEDBE4"/>
<path d="M354.142 155.217C368.191 155.217 379.58 148.661 379.58 140.575C379.58 132.489 368.191 125.934 354.142 125.934C340.093 125.934 328.705 132.489 328.705 140.575C328.705 148.661 340.093 155.217 354.142 155.217Z" fill="#EFF4FC"/>
</g>
<path opacity="0.47" d="M526.44 189.969H390.082V341.856H526.44V189.969Z" fill="url(#paint8_linear_270_7600)"/>
<mask id="mask0_270_7600" style="mask-type:luminance" maskUnits="userSpaceOnUse" x="390" y="189" width="137" height="153">
<path d="M526.44 189.969H390.082V341.856H526.44V189.969Z" fill="white"/>
</mask>
<g mask="url(#mask0_270_7600)">
<path opacity="0.36" d="M594.914 189.969H458.556V352.948H594.914V189.969Z" fill="url(#paint9_linear_270_7600)"/>
</g>
<path d="M458.852 228.866L389.786 190.266V196.329L459 234.93L526.44 196.329V190.266L458.852 228.866Z" fill="#CEDBE4"/>
<path d="M526.44 190.267L458.261 150.336L389.786 190.267L459 228.868L526.44 190.267Z" fill="#EFF4FC"/>
<path opacity="0.47" d="M335.212 219.695H160.697V414.028H335.212V219.695Z" fill="url(#paint10_linear_270_7600)"/>
<mask id="mask1_270_7600" style="mask-type:luminance" maskUnits="userSpaceOnUse" x="160" y="219" width="176" height="196">
<path d="M335.212 219.695H160.697V414.028H335.212V219.695Z" fill="white"/>
</mask>
<g mask="url(#mask1_270_7600)">
<path opacity="0.36" d="M422.913 219.695H248.398V428.078H422.913V219.695Z" fill="url(#paint11_linear_270_7600)"/>
</g>
<path d="M248.694 269.389L160.401 219.992V227.831L248.842 277.227L335.212 227.831V220.14L248.694 269.389Z" fill="#CEDBE4"/>
<path d="M335.212 220.141L247.954 169.117L160.401 219.993L248.842 269.389L335.212 220.141Z" fill="#EFF4FC"/>
<path opacity="0.47" d="M495.825 365.672H359.466V517.559H495.825V365.672Z" fill="url(#paint12_linear_270_7600)"/>
<mask id="mask2_270_7600" style="mask-type:luminance" maskUnits="userSpaceOnUse" x="359" y="365" width="137" height="153">
<path d="M495.825 365.672H359.466V517.559H495.825V365.672Z" fill="white"/>
</mask>
<g mask="url(#mask2_270_7600)">
<path opacity="0.36" d="M564.299 365.672H427.941V528.651H564.299V365.672Z" fill="url(#paint13_linear_270_7600)"/>
</g>
<path d="M428.238 404.569L359.023 365.969L359.171 372.032L428.238 410.781L495.825 372.032V365.969L428.238 404.569Z" fill="#CEDBE4"/>
<path d="M495.825 365.967L427.646 326.035L359.023 365.967L428.237 404.567L495.825 365.967Z" fill="#EFF4FC"/>
<path opacity="0.47" d="M625.675 328.695H558.827V403.234H625.675V328.695Z" fill="url(#paint14_linear_270_7600)"/>
<mask id="mask3_270_7600" style="mask-type:luminance" maskUnits="userSpaceOnUse" x="558" y="328" width="68" height="76">
<path d="M625.675 328.695H558.827V403.234H625.675V328.695Z" fill="white"/>
</mask>
<g mask="url(#mask3_270_7600)">
<path opacity="0.36" d="M659.247 328.695H592.399V408.558H659.247V328.695Z" fill="url(#paint15_linear_270_7600)"/>
</g>
<path d="M592.548 347.774L558.68 328.844V331.95L592.696 350.88L625.824 331.95V328.844L592.548 347.774Z" fill="#CEDBE4"/>
<path d="M625.824 328.842L592.252 309.32L558.68 328.842L592.696 347.773L625.824 328.842Z" fill="#EFF4FC"/>
<g opacity="0.41">
<path opacity="0.47" d="M566.667 460.766H499.819V535.304H566.667V460.766Z" fill="url(#paint16_linear_270_7600)"/>
<mask id="mask4_270_7600" style="mask-type:luminance" maskUnits="userSpaceOnUse" x="499" y="460" width="68" height="76">
<path d="M566.666 460.766H499.818V535.304H566.666V460.766Z" fill="white"/>
</mask>
<g mask="url(#mask4_270_7600)">
<path opacity="0.36" d="M600.386 460.766H533.538V540.628H600.386V460.766Z" fill="url(#paint17_linear_270_7600)"/>
</g>
<path d="M533.539 479.845L499.671 460.914V463.872L533.687 482.802L566.815 463.872V460.914L533.539 479.845Z" fill="#CEDBE4"/>
<path d="M566.815 460.913L533.391 441.391L499.672 460.913L533.687 479.843L566.815 460.913Z" fill="#EFF4FC"/>
</g>
<g opacity="0.41">
<path opacity="0.47" d="M354.143 343.781H287.294V418.32H354.143V343.781Z" fill="url(#paint18_linear_270_7600)"/>
<mask id="mask5_270_7600" style="mask-type:luminance" maskUnits="userSpaceOnUse" x="287" y="343" width="68" height="76">
<path d="M354.143 343.781H287.294V418.32H354.143V343.781Z" fill="white"/>
</mask>
<g mask="url(#mask5_270_7600)">
<path opacity="0.36" d="M387.862 343.781H321.014V423.644H387.862V343.781Z" fill="url(#paint19_linear_270_7600)"/>
</g>
<path d="M321.015 362.86L287.147 343.93V346.888L321.163 365.818L354.291 346.888V343.93L321.015 362.86Z" fill="#CEDBE4"/>
<path d="M354.291 343.928L320.867 324.406L287.147 343.928L321.163 362.859L354.291 343.928Z" fill="#EFF4FC"/>
</g>
<path opacity="0.47" d="M226.363 356.5H111.745V569.024H226.363V356.5Z" fill="url(#paint20_linear_270_7600)"/>
<path d="M168.684 395.395C200.62 395.395 226.51 380.431 226.51 361.971C226.51 343.511 200.62 328.547 168.684 328.547C136.747 328.547 110.857 343.511 110.857 361.971C110.857 380.431 136.747 395.395 168.684 395.395Z" fill="#CEDBE4"/>
<path d="M168.684 388.149C200.62 388.149 226.51 373.184 226.51 354.725C226.51 336.265 200.62 321.301 168.684 321.301C136.747 321.301 110.857 336.265 110.857 354.725C110.857 373.184 136.747 388.149 168.684 388.149Z" fill="#EFF4FC"/>
<g filter="url(#filter0_d_270_7600)">
<path d="M216.147 129.023C155.788 165.466 85.9374 289.846 161.347 375.827C213.094 434.828 344.168 473.77 430.832 375.827C521.558 390.024 593.809 383.9 593.809 314.903C593.809 273.134 548.815 192.043 446.849 184.672" stroke="white" stroke-width="2" stroke-dasharray="4 4"/>
</g>
<path d="M247.363 466.531C247.363 459.432 258.751 453.812 272.653 453.812C286.555 453.812 297.943 459.58 297.943 466.531" stroke="#F7F6F5" stroke-width="0.740062" stroke-miterlimit="10"/>
<path opacity="0.47" d="M298.092 438.137H247.66V531.458H298.092V438.137Z" fill="url(#paint21_linear_270_7600)"/>
<path d="M272.654 455.142C286.703 455.142 298.092 448.587 298.092 440.501C298.092 432.415 286.703 425.859 272.654 425.859C258.605 425.859 247.216 432.415 247.216 440.501C247.216 448.587 258.605 455.142 272.654 455.142Z" fill="#CEDBE4"/>
<path d="M272.654 452.037C286.703 452.037 298.092 445.482 298.092 437.395C298.092 429.309 286.703 422.754 272.654 422.754C258.605 422.754 247.216 429.309 247.216 437.395C247.216 445.482 258.605 452.037 272.654 452.037Z" fill="#E1E9F0"/>
<path d="M519.606 287.971L469.026 316.296V294.041L519.606 265.716V287.971ZM519.606 238.403L469.026 266.728V288.983L519.606 260.658V238.403ZM519.606 210.078L469.026 238.403V260.658L519.606 232.333V210.078Z" fill="url(#paint22_linear_270_7600)"/>
<path d="M352.818 454.256L322.181 471.483V457.969L352.818 440.742V454.256ZM352.818 457.454L322.181 474.578V488.091L352.818 470.864V457.454ZM352.818 424.237L322.181 441.464V454.978L352.818 437.751V424.237ZM352.818 407.113L322.181 424.34V437.854L352.818 420.627V407.113Z" fill="url(#paint23_linear_270_7600)"/>
<path d="M352.819 402.882L322.181 420.109V406.596L352.819 389.369V402.882ZM352.819 372.761L322.181 389.988V403.398L352.819 386.171V372.761ZM352.819 355.637L322.181 372.864V386.377L352.819 369.15V355.637Z" fill="url(#paint24_linear_270_7600)"/>
<g filter="url(#filter1_i_270_7600)">
<path d="M56.8537 178.797L56.5374 189.783L47.1522 194.991L48.2434 184.605L49.2778 160.507L58.803 155.221L56.8537 178.797ZM72.0453 156.314C74.3176 155.053 76.5937 154.219 78.8736 153.812L77.2628 161.655L76.2126 162.598C75.2002 162.439 74.1624 162.449 73.0992 162.627C72.0382 162.77 71.1964 163.014 70.5739 163.359C69.7645 163.808 69.3401 164.353 69.3007 164.992C69.2723 165.454 69.4816 165.715 69.9288 165.776C70.376 165.837 71.1157 165.787 72.1478 165.626C73.4512 165.451 74.5223 165.389 75.3611 165.438C76.1998 165.488 76.9142 165.846 77.5044 166.514C78.0968 167.146 78.3448 168.244 78.2484 169.807C78.1521 171.371 77.7198 173.017 76.9518 174.748C76.186 176.442 75.0297 178.131 73.483 179.813C71.9384 181.459 70.03 182.913 67.7577 184.174C65.2052 185.59 62.6189 186.58 59.9988 187.141L61.5425 178.924L62.329 177.869C63.4172 178.261 64.612 178.387 65.9132 178.248C67.2457 178.092 68.3632 177.764 69.2659 177.263C70.1375 176.779 70.5941 176.2 70.6357 175.525C70.6642 175.063 70.4548 174.801 70.0076 174.741C69.5604 174.68 68.8208 174.73 67.7887 174.891C66.4852 175.065 65.3986 175.136 64.5287 175.104C63.69 175.055 62.9744 174.714 62.3821 174.082C61.7919 173.415 61.5461 172.281 61.6446 170.682C61.7476 169.012 62.2297 167.286 63.0912 165.504C63.9526 163.722 65.1389 162.034 66.6501 160.441C68.1924 158.83 69.9908 157.454 72.0453 156.314ZM92.0488 145.162C94.9126 143.572 97.0811 143.021 98.5543 143.508C100.03 143.959 100.691 145.428 100.537 147.915C100.494 148.626 100.315 150.543 100.002 153.668C99.7114 156.438 99.5561 157.983 99.5363 158.302C99.5123 158.693 99.5414 158.952 99.6239 159.077C99.7374 159.186 99.9032 159.18 100.121 159.059C100.339 158.938 100.607 158.738 100.925 158.458L101.452 158.681L100.33 164.451C99.1212 166.014 97.6408 167.35 95.8889 168.46C94.9906 168.89 94.2032 168.983 93.5266 168.741C92.8812 168.482 92.4079 167.869 92.1066 166.904L91.7798 167.085C90.2985 169.657 88.6632 171.8 86.8741 173.514C84.5105 174.791 82.6577 175.099 81.3156 174.437C80.0068 173.722 79.4313 172.085 79.589 169.527C79.8321 165.582 81.761 162.333 85.3758 159.778L92.0685 155.086L92.1079 154.446C92.1648 153.522 92.0342 152.96 91.7158 152.759C91.4286 152.541 90.8804 152.656 90.0711 153.106C88.3279 154.073 86.0185 156.178 83.143 159.421L82.609 159.306L82.0325 153.294C83.517 151.647 85.1295 150.117 86.87 148.705C88.6416 147.276 90.3679 146.094 92.0488 145.162ZM89.1015 161.519C88.6613 161.832 88.3224 162.209 88.0848 162.65C87.8805 163.038 87.7598 163.534 87.7226 164.138C87.6349 165.559 88.167 165.95 89.3187 165.311C90.0658 164.896 90.8149 164.206 91.5658 163.24L91.7892 159.616L89.1015 161.519ZM123.177 142.712L111.591 149.245C111.794 150.333 112.266 150.963 113.007 151.136C113.751 151.272 114.807 150.961 116.177 150.2C117.702 149.354 119.955 147.675 122.936 145.163L123.556 145.333L121.722 153.146C119.217 155.256 116.906 156.899 114.789 158.074C110.929 160.216 107.982 160.719 105.948 159.583C103.945 158.43 103.07 155.792 103.324 151.671C103.576 147.584 104.801 143.799 107 140.313C109.199 136.828 112.089 134.092 115.668 132.106C118.75 130.395 121.074 129.998 122.642 130.913C124.24 131.81 124.937 133.911 124.733 137.216C124.668 138.282 124.503 139.488 124.24 140.836L123.177 142.712ZM117.095 140.425C117.211 138.542 116.568 137.989 115.168 138.766C113.456 139.717 112.335 141.557 111.806 144.287L116.955 141.223L117.095 140.425ZM135.53 135.136L135.214 146.122L126.109 151.174L127.153 140.814L128.466 114.4L137.567 108.68L135.53 135.136ZM140.331 133.502L140.895 119.239L149.996 113.519L148.708 127.823L148.392 138.809L139.287 143.862L140.331 133.502ZM146.441 102.417C147.811 101.657 148.842 101.514 149.534 101.987C150.257 102.444 150.57 103.472 150.471 105.071C150.366 106.776 149.863 108.36 148.961 109.821C148.059 111.282 146.877 112.419 145.414 113.231C143.982 114.025 142.919 114.204 142.224 113.765C141.532 113.292 141.236 112.238 141.337 110.603C141.442 108.897 141.945 107.314 142.847 105.853C143.78 104.374 144.978 103.229 146.441 102.417ZM175.415 90.3018C179.866 87.8315 183.189 87.3258 185.384 88.7844C187.612 90.1903 188.566 93.4871 188.247 98.6749C187.868 104.822 186.191 110.317 183.217 115.159C180.243 120 176.172 123.855 171.005 126.723C167.768 128.519 163.98 130.467 159.642 132.565L160.733 122.18L161.767 98.0811L175.415 90.3018ZM173.269 117.797C174.732 116.985 175.878 115.714 176.706 113.985C177.567 112.203 178.092 109.784 178.28 106.728C178.44 104.134 178.41 102.177 178.191 100.858C177.972 99.5381 177.54 98.7485 176.894 98.489C176.251 98.1939 175.322 98.3832 174.108 99.0569C172.926 99.7133 171.754 100.432 170.593 101.213L169.343 116.372L169.233 119.625C171.083 118.872 172.429 118.263 173.269 117.797ZM201.026 84.6851C204.513 82.7504 207.077 82.3567 208.72 83.504C210.363 84.6513 211.056 87.3036 210.8 91.4609C210.52 96.0091 209.342 99.9913 207.268 103.407C205.227 106.771 202.338 109.489 198.603 111.562C195.117 113.497 192.551 113.908 190.906 112.796C189.263 111.649 188.569 109.014 188.823 104.893C189.105 100.309 190.268 96.3176 192.312 92.9187C194.386 89.5026 197.291 86.758 201.026 84.6851ZM199.942 92.03C199.32 92.3755 198.844 92.7768 198.515 93.2338C198.189 93.6552 197.941 94.2558 197.773 95.0356C197.636 95.7981 197.522 96.9077 197.432 98.3646C197.299 100.532 197.261 102.114 197.32 103.111C197.412 104.055 197.632 104.637 197.979 104.856C198.329 105.039 198.893 104.915 199.671 104.483C200.293 104.138 200.752 103.763 201.048 103.359C201.377 102.902 201.61 102.292 201.747 101.53C201.917 100.714 202.047 99.5783 202.137 98.1215C202.269 95.9895 202.288 94.4515 202.196 93.5075C202.137 92.5106 201.933 91.9204 201.584 91.7368C201.237 91.5177 200.689 91.6154 199.942 92.03ZM237.867 89.1547L239.205 74.7714C239.338 72.6039 238.674 71.9261 237.211 72.738C236.526 73.118 235.78 73.755 234.973 74.6487L234.495 80.2163L234.179 91.2017L225.167 96.2027L226.504 81.8193C226.638 79.6519 225.958 78.9827 224.464 79.8119C223.748 80.2092 222.985 80.8725 222.176 81.8018L221.841 87.2383L221.525 98.2238L212.513 103.225L213.558 92.8647L214.121 78.6021L222.709 73.1674L222.479 76.8983L222.805 76.7169C224.571 73.9182 226.473 71.5929 228.512 69.7412C230.224 68.7911 231.619 68.3426 232.698 68.3959C233.808 68.4319 234.542 68.9685 234.899 70.0058L235.132 69.8763C236.863 67.1658 238.905 64.7629 241.258 62.6673C243.562 61.389 245.283 61.0171 246.423 61.5515C247.563 62.0859 248.047 63.4987 247.875 65.7901L247.242 73.1424L246.879 84.1538L237.867 89.1547ZM262.311 50.6756C265.175 49.0863 267.343 48.535 268.816 49.0215C270.292 49.4725 270.953 50.9416 270.799 53.4289C270.756 54.1395 270.577 56.0573 270.264 59.1822C269.973 61.9518 269.818 63.4965 269.798 63.8163C269.774 64.2071 269.803 64.4655 269.886 64.5913C269.999 64.6999 270.165 64.6937 270.383 64.5728C270.601 64.4518 270.869 64.2517 271.187 63.9724L271.714 64.1944L270.592 69.9648C269.383 71.5278 267.903 72.8641 266.151 73.9735C265.253 74.4034 264.465 74.4972 263.789 74.255C263.143 73.9954 262.67 73.383 262.369 72.4177L262.042 72.5991C260.56 75.1713 258.925 77.3142 257.136 79.0278C254.772 80.3051 252.92 80.6127 251.578 79.9504C250.269 79.2354 249.693 77.5987 249.851 75.0404C250.094 71.0963 252.023 67.8467 255.638 65.2916L262.33 60.5995L262.37 59.9599C262.427 59.0361 262.296 58.4737 261.978 58.2729C261.691 58.0548 261.142 58.1703 260.333 58.6194C258.59 59.5868 256.281 61.6919 253.405 64.9349L252.871 64.8195L252.295 58.8079C253.779 57.1604 255.391 55.6307 257.132 54.2187C258.904 52.7894 260.63 51.6084 262.311 50.6756ZM259.363 67.0332C258.923 67.3461 258.584 67.723 258.347 68.1637C258.143 68.5516 258.022 69.0476 257.985 69.6516C257.897 71.0729 258.429 71.464 259.581 70.8248C260.328 70.4102 261.077 69.72 261.828 68.7542L262.051 65.1299L259.363 67.0332ZM275.209 58.6515L275.773 44.3889L284.874 38.6692L283.586 52.9733L283.27 63.9588L274.165 69.0115L275.209 58.6515ZM281.319 27.567C282.689 26.8069 283.72 26.6637 284.412 27.1374C285.135 27.5939 285.448 28.6216 285.349 30.2206C285.244 31.9261 284.741 33.5096 283.839 34.9709C282.937 36.4322 281.755 37.5688 280.292 38.3807C278.86 39.1753 277.797 39.3536 277.102 38.9154C276.41 38.4416 276.114 37.3875 276.215 35.753C276.32 34.0475 276.823 32.464 277.725 31.0027C278.658 29.5241 279.856 28.3789 281.319 27.567ZM299.947 54.7037L301.281 40.3737C301.415 38.2062 300.75 37.5284 299.287 38.3403C298.571 38.7376 297.825 39.3923 297.047 40.3043L296.715 45.6875L296.399 56.6729L287.294 61.7257L288.338 51.3657L288.902 37.1031L297.582 31.6166L297.352 35.3475L297.679 35.1661C299.412 32.4202 301.314 30.0949 303.385 28.1903C305.72 26.8948 307.457 26.5142 308.596 27.0486C309.767 27.5657 310.251 28.9786 310.049 31.2872L309.415 38.6395L309.052 49.6509L299.947 54.7037Z" fill="#254CEC"/>
</g>
<g filter="url(#filter2_d_270_7600)">
<path d="M309.16 145.065C305.465 142.953 300.186 143.129 294.555 146.472L301.594 150.52C307.224 147.176 312.503 147 316.198 149.112L309.16 145.065Z" fill="white"/>
<path d="M294.556 146.469L217.309 191.162L224.348 195.209L301.594 150.516L294.556 146.469Z" fill="white"/>
<path d="M224.348 195.215L217.309 191.168C206.048 197.678 196.722 213.515 196.898 226.536C196.898 233.046 199.185 237.621 202.881 239.733L209.919 243.78C206.224 241.668 203.936 237.093 203.936 230.583C203.76 217.562 212.91 201.726 224.348 195.215Z" fill="white"/>
<path d="M301.594 150.519L224.348 195.213C213.086 201.723 203.761 217.559 203.936 230.58C203.936 243.601 213.262 248.88 224.524 242.37L301.77 197.676C313.031 191.165 322.181 175.329 322.181 162.308C322.181 149.287 313.031 144.008 301.594 150.519Z" fill="#365AF0"/>
<path d="M217.309 215.798L219.949 214.215V218.086C220.477 217.03 221.356 215.974 222.588 215.271C224.524 214.215 225.755 214.743 225.755 217.03V221.957L223.116 223.541V218.966C223.116 217.734 222.412 217.558 221.532 218.086C220.477 218.614 219.949 219.67 219.949 220.901V225.476L217.309 227.06V215.798Z" fill="white"/>
<path d="M227.867 214.568L226.811 215.096V212.985L227.867 212.457V210.345L230.506 208.762V210.873L232.266 209.817V211.929L230.506 212.985V216.328C230.506 216.856 230.682 216.856 231.386 216.504L232.266 215.976V218.264L230.858 218.967C229.099 220.023 227.867 220.023 227.867 217.736V214.568Z" fill="white"/>
<path d="M234.201 211.053L233.146 211.581V209.469L234.201 208.941V206.83L236.841 205.246V207.358L238.6 206.302V208.413L236.841 209.469V212.812C236.841 213.34 237.017 213.34 237.721 212.988L238.6 212.46V214.748L237.193 215.628C235.433 216.683 234.201 216.683 234.201 214.396V211.053Z" fill="white"/>
<path d="M245.111 202.252C247.222 201.02 248.806 201.724 248.806 204.363C248.806 207.003 247.222 209.642 245.111 210.874C243.879 211.578 242.999 211.578 242.471 211.05V216.329L239.832 217.912V205.243L242.471 203.66V204.891C242.999 204.187 243.879 202.956 245.111 202.252ZM244.407 205.067C243.351 205.595 242.471 206.827 242.471 208.235C242.471 209.642 243.351 209.818 244.407 209.29C245.463 208.762 246.343 207.355 246.343 206.123C246.167 204.715 245.287 204.539 244.407 205.067Z" fill="white"/>
<path d="M251.445 201.191C250.566 201.718 249.862 201.543 249.862 200.663C249.862 199.783 250.566 198.903 251.445 198.375C252.325 197.847 253.029 198.199 253.029 198.903C253.029 199.607 252.325 200.663 251.445 201.191ZM251.445 207.349C250.566 207.877 249.862 207.701 249.862 206.821C249.862 205.942 250.566 205.062 251.445 204.534C252.325 204.006 253.029 204.182 253.029 205.062C253.029 205.942 252.325 206.821 251.445 207.349Z" fill="white"/>
<path d="M257.956 189.056L260.419 187.648L256.372 207.356L253.909 208.764L257.956 189.056Z" fill="white"/>
<path d="M264.818 185.009L267.282 183.602L263.235 203.309L260.771 204.717L264.818 185.009Z" fill="white"/>
<path d="M267.458 189.582L270.097 187.998L271.329 193.453L272.736 186.59L275.552 185.007L276.959 190.286L278.191 183.599L280.655 182.191L278.367 192.045L275.552 193.629L274.144 188.878L272.736 195.212L269.921 196.796L267.458 189.582Z" fill="white"/>
<path d="M280.831 181.843L283.47 180.26L284.702 185.715L286.109 178.852L288.925 177.268L290.332 182.547L291.564 175.861L294.027 174.453L291.74 184.307L288.925 185.89L287.517 181.14L286.109 187.474L283.294 189.058L280.831 181.843Z" fill="white"/>
<path d="M294.027 174.273L296.667 172.689L297.899 178.144L299.306 171.282L302.122 169.698L303.529 174.977L304.761 168.29L307.224 166.883L304.937 176.737L302.122 178.32L300.538 173.393L299.13 179.728L296.315 181.311L294.027 174.273Z" fill="white"/>
<path d="M309.336 174.097C308.456 174.625 307.753 174.449 307.753 173.569C307.753 172.689 308.456 171.809 309.336 171.281C310.216 170.753 310.92 170.929 310.92 171.809C310.744 172.513 310.216 173.569 309.336 174.097Z" fill="white"/>
</g>
<g filter="url(#filter3_d_270_7600)">
<path d="M534.27 112.041C530.574 109.93 525.296 110.106 519.665 113.449L526.703 117.496C532.334 114.153 537.613 113.977 541.308 116.088L534.27 112.041Z" fill="white"/>
<path d="M519.665 113.625L409.514 177.146L416.553 181.193L526.703 117.672L519.665 113.625Z" fill="white"/>
<path d="M416.553 181.199L409.514 177.152C398.253 183.663 388.927 199.499 389.103 212.52C389.103 219.031 391.39 223.606 395.086 225.717L402.124 229.764C398.429 227.653 396.141 223.078 396.141 216.567C395.965 203.722 405.115 187.886 416.553 181.199Z" fill="white"/>
<path d="M526.703 117.671L416.553 181.368C405.291 187.879 395.966 203.715 396.141 216.736C396.141 229.757 405.467 235.036 416.729 228.525L526.879 164.828C538.141 158.318 547.291 142.481 547.291 129.46C547.291 116.263 537.965 110.985 526.703 117.671Z" fill="#2ABEC6"/>
<path d="M419.192 200.717C420.248 200.013 421.304 200.013 421.832 200.541V196.67L424.471 195.086V206.347L421.832 207.931V206.699C421.304 207.755 420.424 208.811 419.192 209.515C417.081 210.746 415.497 210.042 415.497 207.227C415.321 204.412 417.081 201.772 419.192 200.717ZM419.896 202.476C418.84 203.004 417.961 204.236 417.961 205.643C417.961 207.051 418.84 207.227 419.896 206.699C420.952 206.171 421.832 204.94 421.832 203.532C421.832 202.124 420.952 201.948 419.896 202.476Z" fill="white"/>
<path d="M430.102 203.007C427.638 204.414 425.703 203.886 425.703 201.247C425.703 198.608 427.638 195.792 430.102 194.385C432.565 192.977 434.501 193.505 434.501 196.144C434.677 198.784 432.741 201.599 430.102 203.007ZM430.102 200.719C430.981 200.191 431.861 198.959 431.861 197.552C431.861 196.144 430.981 195.968 430.102 196.496C429.222 197.024 428.342 198.256 428.342 199.663C428.342 201.071 429.222 201.423 430.102 200.719Z" fill="white"/>
<path d="M447.698 188.224C447.698 187.169 446.994 186.817 446.114 187.52C445.058 188.048 444.53 189.104 444.53 190.16V194.735L441.891 196.318V191.567C441.891 190.512 441.187 190.16 440.307 190.864C439.252 191.392 438.724 192.447 438.724 193.503V198.078L436.084 199.662V191.216L438.724 189.632V190.688C439.252 189.632 440.131 188.752 441.187 188.048C442.419 187.344 443.475 187.344 444.003 188.048C444.53 186.817 445.586 185.585 446.818 184.881C448.929 183.649 450.337 184.177 450.337 186.465V191.392L447.698 192.975V188.224Z" fill="white"/>
<path d="M455.44 179.776C456.672 179.073 457.551 179.073 458.079 179.6V178.369L460.719 176.785V185.231L458.079 186.815V185.583C457.551 186.639 456.672 187.695 455.44 188.398C453.328 189.63 451.745 188.926 451.745 186.111C451.569 183.648 453.328 181.008 455.44 179.776ZM456.144 181.536C455.088 182.064 454.208 183.296 454.208 184.703C454.208 186.111 455.088 186.287 456.144 185.759C457.2 185.231 458.079 183.999 458.079 182.592C458.079 181.184 457.2 181.008 456.144 181.536Z" fill="white"/>
<path d="M462.302 173.623C462.302 172.744 463.006 171.864 463.886 171.336C464.766 170.808 465.47 170.984 465.47 171.864C465.47 172.568 464.766 173.623 463.886 174.151C462.83 174.679 462.302 174.327 462.302 173.623ZM462.478 175.735L465.118 174.151V182.597L462.478 184.181V175.735Z" fill="white"/>
<path d="M472.86 173.619C472.86 172.387 472.156 172.211 471.276 172.739C470.22 173.267 469.693 174.323 469.693 175.554V180.129L467.053 181.713V173.267L469.693 171.683V172.739C470.22 171.683 471.1 170.628 472.332 170.1C474.268 169.044 475.675 169.572 475.675 171.859V176.786L473.036 178.37V173.619H472.86Z" fill="white"/>
<path d="M477.083 169.398L483.769 165.527V167.639L477.083 171.51V169.398Z" fill="white"/>
<path d="M492.039 162.537C492.039 161.305 491.336 161.129 490.456 161.657C489.4 162.185 488.872 163.241 488.872 164.472V169.047L486.233 170.631V162.185L488.872 160.601V161.657C489.4 160.601 490.28 159.546 491.512 159.018C493.447 157.962 494.855 158.49 494.855 160.777V165.704L492.215 167.288V162.537H492.039Z" fill="white"/>
<path d="M499.606 154.089C500.837 153.385 501.717 153.385 502.245 153.913V152.681L504.884 151.098V159.544L502.245 161.127V159.896C501.717 160.951 500.837 162.007 499.606 162.711C497.494 163.943 495.911 163.239 495.911 160.424C495.911 157.96 497.494 155.321 499.606 154.089ZM500.485 156.025C499.43 156.552 498.55 157.784 498.55 159.192C498.55 160.599 499.43 160.775 500.485 160.248C501.541 159.72 502.421 158.488 502.421 157.08C502.245 155.673 501.365 155.497 500.485 156.025Z" fill="white"/>
<path d="M518.609 147.228C518.609 146.172 517.906 145.82 517.026 146.524C515.97 147.052 515.442 148.108 515.442 149.164V153.738L512.803 155.322V150.747C512.803 149.691 512.099 149.339 511.219 150.043C510.163 150.571 509.636 151.627 509.636 152.683V157.258L506.996 158.841V150.395L509.636 148.812V149.867C510.163 148.812 511.043 147.932 512.099 147.228C513.331 146.524 514.386 146.524 514.914 147.228C515.442 145.996 516.498 144.765 517.73 144.061C519.841 142.829 521.249 143.357 521.249 145.644V150.571L518.609 152.155V147.228Z" fill="white"/>
<path d="M526.703 147.226C524.24 148.633 522.48 148.105 522.48 145.29C522.48 142.475 524.24 139.835 526.703 138.428C529.167 137.02 530.926 137.548 530.926 140.187C530.926 140.363 530.926 140.715 530.926 140.891L524.944 144.234C525.12 145.29 525.648 145.466 526.527 144.938C527.231 144.586 527.759 143.882 527.935 143.354L530.75 141.771C530.399 143.882 528.815 145.994 526.703 147.226ZM525.12 143.002L528.463 141.067C528.463 140.187 527.759 140.011 526.879 140.539C525.824 141.067 525.12 141.947 525.12 143.002Z" fill="white"/>
</g>
<g filter="url(#filter4_d_270_7600)">
<path d="M193.439 308.069C189.744 305.957 184.465 306.133 178.835 309.476L185.873 313.523C191.504 310.18 196.782 310.004 200.478 312.116L193.439 308.069Z" fill="white"/>
<path d="M178.835 309.473L150.329 326.013L157.368 330.06L185.873 313.696L178.835 309.473Z" fill="white"/>
<path d="M157.368 330.067L150.329 326.02C139.068 332.53 129.742 348.366 129.918 361.387C129.918 367.898 132.205 372.473 135.901 374.584L142.939 378.631C139.244 376.52 136.956 371.945 136.956 365.434C136.78 352.413 145.93 336.577 157.368 330.067Z" fill="white"/>
<path d="M185.873 313.698L157.367 330.063C146.106 336.573 136.78 352.409 136.956 365.43C136.956 378.451 146.282 383.73 157.543 377.22L186.049 360.855C197.31 354.345 206.46 338.509 206.46 325.488C206.284 312.291 197.134 307.012 185.873 313.698Z" fill="#0885F6"/>
</g>
<path d="M154.024 359.624C153.145 360.152 152.441 359.976 152.441 359.096C152.441 358.216 153.145 357.337 154.024 356.809C154.904 356.281 155.608 356.457 155.608 357.337C155.608 358.216 154.904 359.096 154.024 359.624Z" fill="white"/>
<path d="M160.887 346.956C162.999 345.724 164.582 346.076 164.934 347.836L162.119 349.419C161.943 348.891 161.415 348.891 160.711 349.243C159.831 349.771 159.127 350.827 159.127 352.235C159.127 353.642 159.831 353.994 160.711 353.466C161.415 353.114 161.767 352.41 162.119 351.707L164.934 350.123C164.406 352.411 162.999 354.522 160.887 355.754C158.424 357.161 156.664 356.458 156.664 353.818C156.664 351.179 158.424 348.363 160.887 346.956Z" fill="white"/>
<path d="M170.213 350.292C167.749 351.699 165.814 351.172 165.814 348.532C165.814 345.893 167.749 343.077 170.213 341.67C172.676 340.262 174.612 340.79 174.612 343.429C174.612 346.069 172.676 348.884 170.213 350.292ZM170.213 348.004C171.093 347.476 171.972 346.245 171.972 344.837C171.972 343.429 171.093 343.253 170.213 343.781C169.333 344.309 168.453 345.541 168.453 346.949C168.453 348.356 169.333 348.708 170.213 348.004Z" fill="white"/>
<path d="M187.809 335.517C187.809 334.461 187.105 334.109 186.225 334.813C185.169 335.341 184.641 336.397 184.641 337.453V342.028L182.002 343.611V339.036C182.002 337.98 181.298 337.629 180.418 338.332C179.363 338.86 178.835 339.916 178.835 340.972V345.547L176.195 347.13V338.684L178.835 337.101V338.156C179.363 337.101 180.242 336.221 181.298 335.517C182.53 334.813 183.586 334.813 184.114 335.517C184.641 334.285 185.697 333.054 186.929 332.35C189.04 331.118 190.448 331.646 190.448 333.933V338.86L187.809 340.444V335.517Z" fill="white"/>
<g filter="url(#filter5_d_270_7600)">
<g opacity="0.6" filter="url(#filter6_f_270_7600)">
<path d="M431.974 361.209L413.746 396.147L462.733 371.842L501.468 341.082L431.974 361.209Z" fill="#0B0D38"/>
</g>
<path d="M505.556 343.486L377.53 417.358V308.875L505.556 235.004V343.486Z" fill="white"/>
<path d="M371.64 304.887L377.561 308.87L377.515 417.359L371.64 413.269V304.887Z" fill="#CEDBE4"/>
<path d="M505.588 235.054L377.566 308.876L371.646 304.895L499.518 231.105L505.588 235.054Z" fill="#B5CCDC"/>
</g>
<path d="M452.434 343.025L438.487 351.032C432.976 354.217 428.413 361.966 428.499 368.337C428.499 374.708 433.063 377.291 438.573 374.106L452.52 366.099C458.031 362.913 462.508 355.164 462.508 348.793C462.508 342.422 458.031 339.839 452.434 343.025Z" fill="#D6D1DB"/>
<path d="M465.78 331.834C463.972 330.801 461.389 330.887 458.634 332.523L462.077 334.503C464.833 332.867 467.416 332.781 469.224 333.814L465.78 331.834Z" fill="white"/>
<path d="M458.72 332.52L444.772 340.613L448.216 342.593L462.077 334.5L458.72 332.52Z" fill="white"/>
<path d="M448.216 342.597L444.772 340.617C439.262 343.803 434.699 351.552 434.785 357.923C434.785 361.108 435.904 363.347 437.712 364.38L441.156 366.36C439.348 365.327 438.229 363.089 438.229 359.903C438.142 353.532 442.619 345.783 448.216 342.597Z" fill="white"/>
<path d="M462.078 334.501L448.13 342.508C442.62 345.694 438.056 353.442 438.143 359.814C438.143 366.185 442.706 368.768 448.216 365.582L462.164 357.575C467.674 354.39 472.151 346.641 472.151 340.27C472.151 333.898 467.674 331.315 462.078 334.501Z" fill="#A45FDB"/>
<path d="M461.388 348.278C463.283 345.265 463.283 342.165 461.388 341.304C459.494 340.529 456.309 342.337 454.415 345.351C452.779 348.02 452.52 350.689 453.812 351.894L449.335 358.954C448.904 359.557 448.904 360.16 449.335 360.332C449.765 360.504 450.368 360.16 450.712 359.557L455.189 352.497C457.084 352.583 459.753 350.947 461.388 348.278ZM455.62 350.431C454.328 349.914 454.328 347.848 455.62 345.867C456.911 343.887 458.892 342.682 460.183 343.198C461.475 343.715 461.475 345.781 460.183 347.762C458.892 349.742 456.911 350.947 455.62 350.431Z" fill="white"/>
<path d="M416.188 341.905C415.671 341.905 415.24 341.819 414.81 341.56C413.949 341.044 413.519 340.097 413.519 338.805C413.519 336.05 415.757 332.434 418.598 330.798L472.581 299.631C474.045 298.77 475.509 298.598 476.542 299.201C477.403 299.717 477.833 300.664 477.833 301.956C477.833 304.711 475.595 308.327 472.753 309.963L418.77 341.13C417.823 341.646 416.962 341.905 416.188 341.905ZM475.078 299.373C474.389 299.373 473.528 299.631 472.753 300.148L418.77 331.229C416.101 332.778 413.949 336.222 413.949 338.805C413.949 339.925 414.38 340.785 415.068 341.13C415.929 341.646 417.221 341.474 418.598 340.699L472.581 309.532C475.25 307.982 477.403 304.539 477.403 301.956C477.403 300.836 476.972 299.975 476.283 299.631C475.939 299.459 475.509 299.373 475.078 299.373Z" fill="#D6D1DB"/>
<path d="M472.151 305.738C472.667 305.48 473.098 304.791 473.098 304.275V302.811C473.098 302.294 472.667 302.122 472.151 302.38C471.634 302.639 471.204 303.327 471.204 303.844V305.308C471.204 305.91 471.634 306.083 472.151 305.738Z" fill="#D6D1DB"/>
<path d="M473.7 303.671C473.528 303.757 473.442 303.929 473.442 304.015C473.442 304.79 472.84 305.737 472.065 306.082C471.29 306.512 470.687 306.254 470.687 305.479C470.687 305.307 470.601 305.307 470.429 305.393C470.257 305.479 470.171 305.651 470.171 305.737C470.171 306.684 470.859 307.029 471.72 306.598V307.718C471.72 307.89 471.806 307.89 471.979 307.804C472.151 307.718 472.237 307.545 472.237 307.459V306.34C473.098 305.737 473.787 304.532 473.787 303.671C473.959 303.671 473.873 303.585 473.7 303.671Z" fill="#D6D1DB"/>
<path d="M426.089 318.574L424.625 313.15L422.301 314.528L420.751 321.674L419.459 316.077L417.221 317.455L419.459 324.773L421.956 323.309L423.42 316.766L424.797 321.674L427.38 320.21L429.619 310.223L427.38 311.6L426.089 318.574Z" fill="#211C3A"/>
<path d="M433.751 309.535C431.685 310.74 430.308 312.893 430.308 315.131C430.308 317.284 431.771 317.8 433.751 316.681C435.473 315.648 436.679 313.926 437.023 312.376L434.785 313.668C434.612 314.098 434.268 314.615 433.665 314.959C432.977 315.389 432.46 315.217 432.374 314.356L437.195 311.601C437.195 311.343 437.195 311.171 437.195 310.999C437.195 308.932 435.732 308.416 433.751 309.535ZM432.374 313.237C432.46 312.376 433.063 311.687 433.751 311.257C434.44 310.826 435.043 310.912 435.043 311.687L432.374 313.237Z" fill="#211C3A"/>
<path d="M442.533 304.451C441.586 305.053 440.811 305.914 440.381 306.775V303.59L438.229 304.795V313.922L440.381 312.716V311.769C440.725 312.113 441.5 312.2 442.533 311.597C444.255 310.65 445.547 308.497 445.547 306.259C445.547 304.106 444.255 303.504 442.533 304.451ZM441.931 310.133C441.156 310.564 440.381 310.392 440.381 309.272C440.381 308.153 441.07 307.12 441.931 306.689C442.706 306.259 443.48 306.431 443.48 307.464C443.394 308.583 442.706 309.617 441.931 310.133Z" fill="#211C3A"/>
<path d="M448.474 303.16C448.474 302.815 448.732 302.471 449.249 302.213C449.852 301.868 450.196 301.954 450.282 302.385L452.262 301.266C452.09 299.974 451.143 299.544 449.335 300.577C447.527 301.61 446.494 303.16 446.494 304.365C446.494 306.862 450.282 303.935 450.282 305.054C450.282 305.398 450.024 305.743 449.421 306.087C448.819 306.431 448.388 306.345 448.388 305.915L446.322 307.12C446.408 308.412 447.613 308.67 449.507 307.637C451.229 306.604 452.262 305.14 452.262 303.935C452.262 301.266 448.474 304.193 448.474 303.16Z" fill="#211C3A"/>
<path d="M454.673 294.641C453.898 295.071 453.382 295.846 453.382 296.535C453.382 297.138 453.898 297.396 454.673 296.966C455.448 296.535 455.878 295.76 455.878 295.071C455.878 294.383 455.362 294.21 454.673 294.641Z" fill="#211C3A"/>
<path d="M453.554 305.054L455.706 303.849V296.961L453.554 298.166V305.054Z" fill="#211C3A"/>
<path d="M459.667 299.203V296.448L461.044 295.673V293.951L459.667 294.726V293.004L457.514 294.209V295.931L456.653 296.448V298.17L457.514 297.653V300.408C457.514 302.216 458.548 302.216 459.925 301.355L460.958 300.753V298.945L460.183 299.375C459.839 299.719 459.667 299.633 459.667 299.203Z" fill="#211C3A"/>
<path d="M468.707 292.831C468.707 290.764 467.329 290.248 465.263 291.367C463.197 292.572 461.819 294.725 461.819 296.963C461.819 299.116 463.283 299.632 465.263 298.513C466.985 297.48 468.19 295.758 468.535 294.208L466.296 295.5C466.124 295.93 465.78 296.447 465.177 296.791C464.488 297.222 463.972 297.049 463.885 296.188L468.707 293.433C468.707 293.175 468.707 293.003 468.707 292.831ZM463.885 294.983C463.972 294.122 464.574 293.433 465.263 293.003C465.952 292.572 466.554 292.658 466.554 293.433L463.885 294.983Z" fill="#211C3A"/>
<defs>
<filter id="filter0_d_270_7600" x="112.484" y="125.168" width="497.325" height="338.387" filterUnits="userSpaceOnUse" color-interpolation-filters="sRGB">
<feFlood flood-opacity="0" result="BackgroundImageFix"/>
<feColorMatrix in="SourceAlpha" type="matrix" values="0 0 0 0 0 0 0 0 0 0 0 0 0 0 0 0 0 0 127 0" result="hardAlpha"/>
<feOffset dy="12"/>
<feGaussianBlur stdDeviation="7.5"/>
<feComposite in2="hardAlpha" operator="out"/>
<feColorMatrix type="matrix" values="0 0 0 0 0.0165625 0 0 0 0 0.110527 0 0 0 0 0.220833 0 0 0 0.25 0"/>
<feBlend mode="normal" in2="BackgroundImageFix" result="effect1_dropShadow_270_7600"/>
<feBlend mode="normal" in="SourceGraphic" in2="effect1_dropShadow_270_7600" result="shape"/>
</filter>
<filter id="filter1_i_270_7600" x="47.1128" y="10.5277" width="264.651" height="185.101" filterUnits="userSpaceOnUse" color-interpolation-filters="sRGB">
<feFlood flood-opacity="0" result="BackgroundImageFix"/>
<feBlend mode="normal" in="SourceGraphic" in2="BackgroundImageFix" result="shape"/>
<feColorMatrix in="SourceAlpha" type="matrix" values="0 0 0 0 0 0 0 0 0 0 0 0 0 0 0 0 0 0 127 0" result="hardAlpha"/>
<feOffset dx="1" dy="-1.36"/>
<feGaussianBlur stdDeviation="0.16"/>
<feComposite in2="hardAlpha" operator="arithmetic" k2="-1" k3="1"/>
<feColorMatrix type="matrix" values="0 0 0 0 0 0 0 0 0 0 0 0 0 0 0 0 0 0 0.25 0"/>
<feBlend mode="normal" in2="shape" result="effect1_innerShadow_270_7600"/>
</filter>
<filter id="filter2_d_270_7600" x="180.896" y="137.68" width="145.286" height="121.477" filterUnits="userSpaceOnUse" color-interpolation-filters="sRGB">
<feFlood flood-opacity="0" result="BackgroundImageFix"/>
<feColorMatrix in="SourceAlpha" type="matrix" values="0 0 0 0 0 0 0 0 0 0 0 0 0 0 0 0 0 0 127 0" result="hardAlpha"/>
<feOffset dx="-6" dy="4"/>
<feGaussianBlur stdDeviation="5"/>
<feComposite in2="hardAlpha" operator="out"/>
<feColorMatrix type="matrix" values="0 0 0 0 0 0 0 0 0 0 0 0 0 0 0 0 0 0 0.25 0"/>
<feBlend mode="normal" in2="BackgroundImageFix" result="effect1_dropShadow_270_7600"/>
<feBlend mode="normal" in="SourceGraphic" in2="effect1_dropShadow_270_7600" result="shape"/>
</filter>
<filter id="filter3_d_270_7600" x="373.101" y="104.656" width="178.19" height="140.656" filterUnits="userSpaceOnUse" color-interpolation-filters="sRGB">
<feFlood flood-opacity="0" result="BackgroundImageFix"/>
<feColorMatrix in="SourceAlpha" type="matrix" values="0 0 0 0 0 0 0 0 0 0 0 0 0 0 0 0 0 0 127 0" result="hardAlpha"/>
<feOffset dx="-6" dy="4"/>
<feGaussianBlur stdDeviation="5"/>
<feComposite in2="hardAlpha" operator="out"/>
<feColorMatrix type="matrix" values="0 0 0 0 0 0 0 0 0 0 0 0 0 0 0 0 0 0 0.25 0"/>
<feBlend mode="normal" in2="BackgroundImageFix" result="effect1_dropShadow_270_7600"/>
<feBlend mode="normal" in="SourceGraphic" in2="effect1_dropShadow_270_7600" result="shape"/>
</filter>
<filter id="filter4_d_270_7600" x="113.915" y="300.684" width="96.5447" height="93.3242" filterUnits="userSpaceOnUse" color-interpolation-filters="sRGB">
<feFlood flood-opacity="0" result="BackgroundImageFix"/>
<feColorMatrix in="SourceAlpha" type="matrix" values="0 0 0 0 0 0 0 0 0 0 0 0 0 0 0 0 0 0 127 0" result="hardAlpha"/>
<feOffset dx="-6" dy="4"/>
<feGaussianBlur stdDeviation="5"/>
<feComposite in2="hardAlpha" operator="out"/>
<feColorMatrix type="matrix" values="0 0 0 0 0 0 0 0 0 0 0 0 0 0 0 0 0 0 0.25 0"/>
<feBlend mode="normal" in2="BackgroundImageFix" result="effect1_dropShadow_270_7600"/>
<feBlend mode="normal" in="SourceGraphic" in2="effect1_dropShadow_270_7600" result="shape"/>
</filter>
<filter id="filter5_d_270_7600" x="358.64" y="222.105" width="147.948" height="200.254" filterUnits="userSpaceOnUse" color-interpolation-filters="sRGB">
<feFlood flood-opacity="0" result="BackgroundImageFix"/>
<feColorMatrix in="SourceAlpha" type="matrix" values="0 0 0 0 0 0 0 0 0 0 0 0 0 0 0 0 0 0 127 0" result="hardAlpha"/>
<feOffset dx="-6" dy="-2"/>
<feGaussianBlur stdDeviation="3.5"/>
<feComposite in2="hardAlpha" operator="out"/>
<feColorMatrix type="matrix" values="0 0 0 0 0 0 0 0 0 0 0 0 0 0 0 0 0 0 0.25 0"/>
<feBlend mode="normal" in2="BackgroundImageFix" result="effect1_dropShadow_270_7600"/>
<feBlend mode="normal" in="SourceGraphic" in2="effect1_dropShadow_270_7600" result="shape"/>
</filter>
<filter id="filter6_f_270_7600" x="405.746" y="333.082" width="103.722" height="71.0664" filterUnits="userSpaceOnUse" color-interpolation-filters="sRGB">
<feFlood flood-opacity="0" result="BackgroundImageFix"/>
<feBlend mode="normal" in="SourceGraphic" in2="BackgroundImageFix" result="shape"/>
<feGaussianBlur stdDeviation="4" result="effect1_foregroundBlur_270_7600"/>
</filter>
<linearGradient id="paint0_linear_270_7600" x1="577.571" y1="445.638" x2="577.571" y2="379.695" gradientUnits="userSpaceOnUse">
<stop stop-color="white" stop-opacity="0"/>
<stop offset="1" stop-color="white"/>
</linearGradient>
<linearGradient id="paint1_linear_270_7600" x1="359.074" y1="250.498" x2="359.074" y2="184.555" gradientUnits="userSpaceOnUse">
<stop stop-color="white" stop-opacity="0"/>
<stop offset="1" stop-color="white"/>
</linearGradient>
<linearGradient id="paint2_linear_270_7600" x1="81.2689" y1="473.575" x2="81.2689" y2="388.404" gradientUnits="userSpaceOnUse">
<stop stop-color="white" stop-opacity="0"/>
<stop offset="1" stop-color="white"/>
</linearGradient>
<linearGradient id="paint3_linear_270_7600" x1="425.543" y1="478.691" x2="425.543" y2="442.341" gradientUnits="userSpaceOnUse">
<stop stop-color="white" stop-opacity="0"/>
<stop offset="1" stop-color="white"/>
</linearGradient>
<linearGradient id="paint4_linear_270_7600" x1="91.0433" y1="272.729" x2="91.0433" y2="236.378" gradientUnits="userSpaceOnUse">
<stop stop-color="white" stop-opacity="0"/>
<stop offset="1" stop-color="white"/>
</linearGradient>
<linearGradient id="paint5_linear_270_7600" x1="158.395" y1="149.82" x2="158.395" y2="24.3999" gradientUnits="userSpaceOnUse">
<stop stop-color="white" stop-opacity="0"/>
<stop offset="1" stop-color="white"/>
</linearGradient>
<linearGradient id="paint6_linear_270_7600" x1="444.907" y1="145.066" x2="444.907" y2="53.8441" gradientUnits="userSpaceOnUse">
<stop stop-color="white" stop-opacity="0"/>
<stop offset="1" stop-color="white"/>
</linearGradient>
<linearGradient id="paint7_linear_270_7600" x1="354.225" y1="207.147" x2="354.225" y2="140.912" gradientUnits="userSpaceOnUse">
<stop offset="0.00465745" stop-color="#5B9CF2" stop-opacity="0"/>
<stop offset="0.6862" stop-color="#375F9A" stop-opacity="0.6847"/>
<stop offset="1" stop-color="#284776"/>
</linearGradient>
<linearGradient id="paint8_linear_270_7600" x1="458.281" y1="297.099" x2="458.281" y2="189.301" gradientUnits="userSpaceOnUse">
<stop offset="0.00465745" stop-color="#5B9CF2" stop-opacity="0"/>
<stop offset="0.6862" stop-color="#375F9A" stop-opacity="0.6847"/>
<stop offset="1" stop-color="#284776"/>
</linearGradient>
<linearGradient id="paint9_linear_270_7600" x1="526.813" y1="304.851" x2="526.813" y2="189.255" gradientUnits="userSpaceOnUse">
<stop offset="0.00465745" stop-color="#5B9CF2" stop-opacity="0"/>
<stop offset="0.6862" stop-color="#375F9A" stop-opacity="0.6847"/>
<stop offset="1" stop-color="#284776"/>
</linearGradient>
<linearGradient id="paint10_linear_270_7600" x1="247.978" y1="356.717" x2="247.978" y2="218.873" gradientUnits="userSpaceOnUse">
<stop offset="0.00465745" stop-color="#5B9CF2" stop-opacity="0"/>
<stop offset="0.6862" stop-color="#375F9A" stop-opacity="0.6847"/>
<stop offset="1" stop-color="#284776"/>
</linearGradient>
<linearGradient id="paint11_linear_270_7600" x1="335.613" y1="366.63" x2="335.613" y2="218.813" gradientUnits="userSpaceOnUse">
<stop offset="0.00465745" stop-color="#5B9CF2" stop-opacity="0"/>
<stop offset="0.6862" stop-color="#375F9A" stop-opacity="0.6847"/>
<stop offset="1" stop-color="#284776"/>
</linearGradient>
<linearGradient id="paint12_linear_270_7600" x1="427.612" y1="472.82" x2="427.612" y2="365.022" gradientUnits="userSpaceOnUse">
<stop offset="0.00465745" stop-color="#5B9CF2" stop-opacity="0"/>
<stop offset="0.6862" stop-color="#375F9A" stop-opacity="0.6847"/>
<stop offset="1" stop-color="#284776"/>
</linearGradient>
<linearGradient id="paint13_linear_270_7600" x1="496.144" y1="480.572" x2="496.144" y2="364.975" gradientUnits="userSpaceOnUse">
<stop offset="0.00465745" stop-color="#5B9CF2" stop-opacity="0"/>
<stop offset="0.6862" stop-color="#375F9A" stop-opacity="0.6847"/>
<stop offset="1" stop-color="#284776"/>
</linearGradient>
<linearGradient id="paint14_linear_270_7600" x1="592.302" y1="381.306" x2="592.302" y2="328.447" gradientUnits="userSpaceOnUse">
<stop offset="0.00465745" stop-color="#5B9CF2" stop-opacity="0"/>
<stop offset="0.6862" stop-color="#375F9A" stop-opacity="0.6847"/>
<stop offset="1" stop-color="#284776"/>
</linearGradient>
<linearGradient id="paint15_linear_270_7600" x1="625.907" y1="385.107" x2="625.907" y2="328.425" gradientUnits="userSpaceOnUse">
<stop offset="0.00465745" stop-color="#5B9CF2" stop-opacity="0"/>
<stop offset="0.6862" stop-color="#375F9A" stop-opacity="0.6847"/>
<stop offset="1" stop-color="#284776"/>
</linearGradient>
<linearGradient id="paint16_linear_270_7600" x1="533.324" y1="513.311" x2="533.324" y2="460.452" gradientUnits="userSpaceOnUse">
<stop offset="0.00465745" stop-color="#5B9CF2" stop-opacity="0"/>
<stop offset="0.6862" stop-color="#375F9A" stop-opacity="0.6847"/>
<stop offset="1" stop-color="#284776"/>
</linearGradient>
<linearGradient id="paint17_linear_270_7600" x1="566.928" y1="517.112" x2="566.928" y2="460.429" gradientUnits="userSpaceOnUse">
<stop offset="0.00465745" stop-color="#5B9CF2" stop-opacity="0"/>
<stop offset="0.6862" stop-color="#375F9A" stop-opacity="0.6847"/>
<stop offset="1" stop-color="#284776"/>
</linearGradient>
<linearGradient id="paint18_linear_270_7600" x1="320.807" y1="396.286" x2="320.807" y2="343.427" gradientUnits="userSpaceOnUse">
<stop offset="0.00465745" stop-color="#5B9CF2" stop-opacity="0"/>
<stop offset="0.6862" stop-color="#375F9A" stop-opacity="0.6847"/>
<stop offset="1" stop-color="#284776"/>
</linearGradient>
<linearGradient id="paint19_linear_270_7600" x1="354.411" y1="400.087" x2="354.411" y2="343.405" gradientUnits="userSpaceOnUse">
<stop offset="0.00465745" stop-color="#5B9CF2" stop-opacity="0"/>
<stop offset="0.6862" stop-color="#375F9A" stop-opacity="0.6847"/>
<stop offset="1" stop-color="#284776"/>
</linearGradient>
<linearGradient id="paint20_linear_270_7600" x1="169.006" y1="506.381" x2="169.006" y2="355.594" gradientUnits="userSpaceOnUse">
<stop offset="0.00465745" stop-color="#5B9CF2" stop-opacity="0"/>
<stop offset="0.6862" stop-color="#375F9A" stop-opacity="0.6847"/>
<stop offset="1" stop-color="#284776"/>
</linearGradient>
<linearGradient id="paint21_linear_270_7600" x1="272.776" y1="503.918" x2="272.776" y2="437.683" gradientUnits="userSpaceOnUse">
<stop offset="0.00465745" stop-color="#5B9CF2" stop-opacity="0"/>
<stop offset="0.6862" stop-color="#375F9A" stop-opacity="0.6847"/>
<stop offset="1" stop-color="#284776"/>
</linearGradient>
<linearGradient id="paint22_linear_270_7600" x1="494.326" y1="210.076" x2="494.326" y2="316.391" gradientUnits="userSpaceOnUse">
<stop stop-color="white" stop-opacity="0"/>
<stop offset="1" stop-color="white"/>
</linearGradient>
<linearGradient id="paint23_linear_270_7600" x1="337.487" y1="488.083" x2="337.487" y2="407.115" gradientUnits="userSpaceOnUse">
<stop stop-color="white" stop-opacity="0"/>
<stop offset="1" stop-color="white"/>
</linearGradient>
<linearGradient id="paint24_linear_270_7600" x1="337.488" y1="355.673" x2="337.488" y2="420.037" gradientUnits="userSpaceOnUse">
<stop stop-color="white" stop-opacity="0"/>
<stop offset="1" stop-color="white"/>
</linearGradient>
</defs>
</svg>
