<svg width="294" height="258" viewBox="0 0 294 258" fill="none" xmlns="http://www.w3.org/2000/svg">
<path opacity="0.1" d="M154.207 227.917C231.012 227.917 293.274 223.082 293.274 217.118C293.274 211.155 231.012 206.32 154.207 206.32C77.4029 206.32 15.1406 211.155 15.1406 217.118C15.1406 223.082 77.4029 227.917 154.207 227.917Z" fill="#2851EF"/>
<g opacity="0.1">
<path d="M30.1511 168.153C30.5699 166.88 32.2682 166.294 33.9435 166.844C34.1845 166.923 34.4178 167.024 34.6405 167.145C34.7485 167.116 34.8597 167.089 34.9677 167.07C34.8758 166.704 34.8404 166.327 34.863 165.951C34.2879 165.562 33.8216 165.032 33.5084 164.413C33.1951 163.793 33.0453 163.104 33.0731 162.41C32.493 162.028 32.0253 161.499 31.7184 160.876C31.3987 160.258 31.2485 159.567 31.2832 158.873C30.7035 158.489 30.236 157.959 29.9286 157.335C29.1236 155.738 29.4508 153.942 30.6779 153.32C31.9049 152.698 33.5476 153.5 34.3558 155.097C34.675 155.715 34.8241 156.408 34.7877 157.103C35.3644 157.489 35.8319 158.018 36.1453 158.637C36.4588 159.257 36.6076 159.946 36.5776 160.64C37.154 161.027 37.6213 161.557 37.9347 162.176C38.2481 162.796 38.3971 163.486 38.3675 164.18C38.9441 164.567 39.4116 165.095 39.7251 165.715C40.0385 166.334 40.1874 167.024 40.1573 167.718C40.7383 168.101 41.2069 168.632 41.5153 169.256C41.6624 169.557 41.7723 169.876 41.8425 170.204C42.0441 169.908 42.2902 169.644 42.5722 169.422C42.6058 169.17 42.6628 168.921 42.7423 168.68C43.2953 167.004 44.7711 165.983 46.0439 166.389C47.3168 166.795 47.8993 168.506 47.3528 170.182C47.1269 170.901 46.6932 171.537 46.1061 172.011C46.0721 172.262 46.0152 172.509 45.936 172.75C45.6674 173.638 45.0691 174.39 44.2639 174.851C44.327 175.065 44.373 175.284 44.4013 175.505C44.7391 175.83 45.0191 176.209 45.2292 176.628C45.4433 177.045 45.5828 177.497 45.6415 177.963C45.9806 178.287 46.2617 178.666 46.4726 179.085C46.6862 179.503 46.8257 179.955 46.8849 180.42C47.2248 180.745 47.506 181.125 47.716 181.546C48.5242 183.143 48.1905 184.942 46.97 185.557C45.7494 186.173 44.1003 185.381 43.2921 183.781C43.0789 183.363 42.9395 182.911 42.8798 182.446C42.198 181.792 41.7594 180.925 41.6363 179.988C40.9546 179.334 40.516 178.467 40.3929 177.531C40.0541 177.207 39.773 176.827 39.5618 176.408C39.3502 175.99 39.2108 175.538 39.1495 175.073C38.8117 174.749 38.5317 174.37 38.3216 173.951C38.1076 173.533 37.968 173.082 37.9094 172.616C37.6987 172.42 37.511 172.2 37.3498 171.962C36.6766 172.099 35.9789 172.056 35.3276 171.837C35.0857 171.757 34.8514 171.655 34.6274 171.533C33.8996 171.726 33.1309 171.699 32.4187 171.454C30.7597 170.901 29.7355 169.426 30.1511 168.153Z" fill="#3F3D56"/>
<g opacity="0.1">
<path d="M33.1016 163.133C33.275 163.304 33.4659 163.456 33.6709 163.588C33.6432 164.058 33.7054 164.528 33.8542 164.975C33.7227 164.797 33.6066 164.607 33.5073 164.409C33.3027 164.009 33.1656 163.578 33.1016 163.133Z" fill="black"/>
<path d="M31.3125 159.602C31.4869 159.771 31.6776 159.922 31.8819 160.053C31.8544 160.524 31.9165 160.996 32.0651 161.444C31.6687 160.9 31.4105 160.268 31.3125 159.602Z" fill="black"/>
<path d="M35.3816 158.281C35.3972 158.039 35.3884 157.795 35.3555 157.555C35.6754 157.871 35.9417 158.236 36.1441 158.638C36.2428 158.836 36.326 159.042 36.3927 159.253C36.1201 158.868 35.777 158.538 35.3816 158.281Z" fill="black"/>
<path d="M46.7337 179.703C46.5907 179.502 46.4285 179.316 46.2494 179.147C46.2196 178.925 46.1714 178.706 46.1055 178.492C46.2475 178.684 46.3733 178.888 46.4818 179.101C46.581 179.295 46.6653 179.496 46.7337 179.703Z" fill="black"/>
<path d="M45.4811 177.242C45.338 177.041 45.1758 176.855 44.9968 176.686C44.9701 176.464 44.9241 176.245 44.8594 176.031C45.1289 176.396 45.3368 176.803 45.4745 177.235L45.4811 177.242Z" fill="black"/>
<path d="M34.8959 166.679C35.0677 166.849 35.2575 166.999 35.462 167.127C35.4375 167.503 35.4729 167.881 35.5667 168.246C35.4564 168.266 35.3472 168.291 35.2395 168.322C35.0153 168.201 34.781 168.1 34.5392 168.021C32.8639 167.471 31.1656 168.057 30.7501 169.329C30.6459 169.646 30.6267 169.985 30.6944 170.311C30.4252 170.028 30.2338 169.68 30.1386 169.301C30.0434 168.922 30.0478 168.525 30.1513 168.148C30.5701 166.875 32.2684 166.29 33.9437 166.839C34.1847 166.918 34.418 167.019 34.6407 167.14C34.7487 167.111 34.8599 167.085 34.9679 167.065C34.9364 166.938 34.9124 166.809 34.8959 166.679Z" fill="black"/>
<path d="M47.3516 180.938C47.4943 181.13 47.6202 181.335 47.7279 181.549C47.8278 181.748 47.912 181.953 47.9798 182.165C47.8368 181.963 47.6746 181.776 47.4955 181.605C47.4664 181.379 47.4182 181.156 47.3516 180.938Z" fill="black"/>
<path d="M37.1707 161.828C37.1863 161.586 37.1776 161.342 37.1445 161.102C37.4652 161.417 37.7316 161.783 37.9331 162.185C38.0319 162.382 38.1151 162.586 38.1818 162.797C37.909 162.413 37.566 162.084 37.1707 161.828Z" fill="black"/>
<path d="M39.7595 176.256C39.7901 176.5 39.8438 176.741 39.9199 176.976C39.6472 176.602 39.4392 176.185 39.3047 175.742C39.4406 175.927 39.5929 176.099 39.7595 176.256Z" fill="black"/>
<path d="M42.2406 181.173C42.2736 181.417 42.3284 181.658 42.4042 181.892C42.2727 181.714 42.1567 181.525 42.0574 181.326C41.9498 181.116 41.86 180.897 41.7891 180.672C41.9261 180.85 42.0771 181.018 42.2406 181.173Z" fill="black"/>
<path d="M41.0017 178.712C41.0323 178.956 41.086 179.197 41.162 179.431C41.0317 179.252 40.9157 179.063 40.8152 178.865C40.7072 178.655 40.6174 178.436 40.5469 178.211C40.6834 178.391 40.8356 178.558 41.0017 178.712Z" fill="black"/>
<path d="M38.5166 173.794C38.5469 174.04 38.6006 174.282 38.6769 174.517C38.5529 174.338 38.4434 174.148 38.3497 173.951C38.24 173.742 38.1491 173.523 38.0781 173.297C38.2089 173.476 38.3556 173.642 38.5166 173.794Z" fill="black"/>
<path d="M46.654 167.578C45.3812 167.159 43.9054 168.18 43.3557 169.869C43.2762 170.11 43.2192 170.359 43.1856 170.611C42.9026 170.832 42.6553 171.094 42.4526 171.39C42.3766 171.061 42.2613 170.743 42.109 170.441C42.0534 170.33 41.9912 170.222 41.9258 170.114C42.1115 169.856 42.3317 169.625 42.5802 169.427C42.6138 169.175 42.6708 168.926 42.7504 168.684C43.3034 167.009 44.7791 165.988 46.052 166.394C46.417 166.534 46.7396 166.766 46.9884 167.067C47.2372 167.369 47.4038 167.73 47.4721 168.115C47.2497 167.869 46.9681 167.684 46.654 167.578Z" fill="black"/>
<path d="M40.7488 168.898C40.7644 168.656 40.7556 168.413 40.7227 168.172C41.0433 168.487 41.3097 168.853 41.5112 169.255C41.61 169.453 41.6932 169.659 41.7599 169.87C41.4881 169.485 41.1449 169.155 40.7488 168.898Z" fill="black"/>
<path d="M38.9598 165.359C38.9753 165.117 38.9665 164.873 38.9336 164.633C39.2527 164.949 39.519 165.315 39.7222 165.716C39.821 165.914 39.9041 166.12 39.9709 166.331C39.6982 165.946 39.3551 165.616 38.9598 165.359Z" fill="black"/>
<path d="M43.4867 183.626C43.5181 183.871 43.5729 184.114 43.6503 184.349C43.5195 184.169 43.4035 183.978 43.3035 183.779C43.1959 183.569 43.1061 183.35 43.0352 183.125C43.1722 183.304 43.3232 183.471 43.4867 183.626Z" fill="black"/>
</g>
<path d="M27.7059 151.791C27.1257 151.409 26.6581 150.879 26.3512 150.256C25.543 148.656 25.8767 146.859 27.0973 146.241C28.3178 145.623 29.9669 146.418 30.7752 148.018C31.0948 148.635 31.244 149.326 31.2071 150.02C31.7835 150.408 32.2508 150.937 32.5642 151.557C32.8776 152.177 33.0266 152.867 32.997 153.561C33.5775 153.943 34.0461 154.473 34.3549 155.095C34.4531 155.292 34.5362 155.495 34.6036 155.704C34.1701 155.086 33.5461 154.626 32.8268 154.395C32.7467 154.651 32.6164 154.888 32.4436 155.093C32.2708 155.297 32.059 155.465 31.8204 155.587C31.5819 155.709 31.3214 155.782 31.0543 155.802C30.7872 155.822 30.5188 155.789 30.2647 155.704C30.0221 156.42 30.0221 157.197 30.2647 157.913C30.1418 157.735 30.0324 157.548 29.9375 157.353C29.6177 156.736 29.4675 156.045 29.5023 155.351C28.9265 154.962 28.4597 154.433 28.1464 153.814C27.8331 153.194 27.6837 152.504 27.7124 151.81L27.7059 151.791Z" fill="#3F3D56"/>
<path d="M8.03349 129.107C7.53713 128.875 7.05719 128.609 6.59701 128.312L11.9241 124.418L5.66117 127.641C4.39489 126.634 3.34738 125.38 2.58276 123.954C1.81815 122.528 1.35249 120.961 1.21431 119.35L11.8619 119.461L1.19141 117.674C1.28328 116.046 1.70939 114.455 2.44319 112.999C3.17699 111.543 4.20275 110.254 5.45656 109.212C6.71037 108.169 8.16538 107.397 9.73092 106.941C11.2965 106.486 12.939 106.358 14.5562 106.565C16.1734 106.772 17.7306 107.31 19.1308 108.145C20.531 108.981 21.7442 110.095 22.6947 111.42C23.6453 112.745 24.313 114.251 24.656 115.845C24.9991 117.439 25.0102 119.086 24.6888 120.685C25.4617 121.042 26.1944 121.481 26.8746 121.993L21.3119 129.729L27.9904 122.962C29.3996 124.346 30.4416 126.06 31.0221 127.948C31.6026 129.837 31.7032 131.84 31.3149 133.777C33.3352 134.718 35.0498 136.208 36.2628 138.078C37.4758 139.947 38.1382 142.121 38.1742 144.349C38.2102 146.577 37.6183 148.771 36.4663 150.679C35.3143 152.587 33.6487 154.132 31.6598 155.138C29.671 156.143 27.4393 156.569 25.2199 156.366C23.0004 156.163 20.8829 155.34 19.1095 153.99C17.336 152.64 15.9782 150.819 15.1913 148.734C14.4043 146.648 14.2201 144.384 14.6596 142.199C12.2483 141.075 10.2844 139.174 9.08281 136.801C7.88125 134.427 7.51171 131.719 8.03349 129.11V129.107Z" fill="#2851EF"/>
<path opacity="0.1" d="M30.2672 126.086C31.474 128.461 31.8429 131.174 31.3143 133.785C33.3345 134.726 35.0492 136.217 36.2622 138.086C37.4752 139.956 38.1376 142.129 38.1736 144.357C38.2095 146.586 37.6177 148.779 36.4657 150.687C35.3137 152.595 33.648 154.14 31.6592 155.146C29.6704 156.152 27.4386 156.577 25.2192 156.375C22.9998 156.172 20.8823 155.348 19.1088 153.998C17.3354 152.649 15.9775 150.827 15.1906 148.742C14.4037 146.657 14.2195 144.392 14.659 142.207C12.3259 141.124 29.6684 124.898 30.2672 126.086Z" fill="black"/>
<path d="M16.8887 108.902C17.8628 108.902 18.6524 108.113 18.6524 107.139C18.6524 106.165 17.8628 105.375 16.8887 105.375C15.9146 105.375 15.125 106.165 15.125 107.139C15.125 108.113 15.9146 108.902 16.8887 108.902Z" fill="#2851EF"/>
<path d="M6.59572 110.035C7.56978 110.035 8.35942 109.246 8.35942 108.271C8.35942 107.297 7.56978 106.508 6.59572 106.508C5.62166 106.508 4.83203 107.297 4.83203 108.271C4.83203 109.246 5.62166 110.035 6.59572 110.035Z" fill="#2851EF"/>
<path d="M2.63088 125.871C3.60494 125.871 4.39457 125.082 4.39457 124.107C4.39457 123.133 3.60494 122.344 2.63088 122.344C1.65682 122.344 0.867188 123.133 0.867188 124.107C0.867188 125.082 1.65682 125.871 2.63088 125.871Z" fill="#2851EF"/>
<path d="M7.98635 133.777C8.96041 133.777 9.75004 132.988 9.75004 132.014C9.75004 131.04 8.96041 130.25 7.98635 130.25C7.01229 130.25 6.22266 131.04 6.22266 132.014C6.22266 132.988 7.01229 133.777 7.98635 133.777Z" fill="#2851EF"/>
<path d="M15.3028 150.199C16.2768 150.199 17.0664 149.41 17.0664 148.436C17.0664 147.462 16.2768 146.672 15.3028 146.672C14.3287 146.672 13.5391 147.462 13.5391 148.436C13.5391 149.41 14.3287 150.199 15.3028 150.199Z" fill="#2851EF"/>
<path opacity="0.1" d="M15.3028 150.199C16.2768 150.199 17.0664 149.41 17.0664 148.436C17.0664 147.462 16.2768 146.672 15.3028 146.672C14.3287 146.672 13.5391 147.462 13.5391 148.436C13.5391 149.41 14.3287 150.199 15.3028 150.199Z" fill="black"/>
<path d="M31.5762 131.598C32.5503 131.598 33.3399 130.808 33.3399 129.834C33.3399 128.86 32.5503 128.07 31.5762 128.07C30.6021 128.07 29.8125 128.86 29.8125 129.834C29.8125 130.808 30.6021 131.598 31.5762 131.598Z" fill="#2851EF"/>
<path opacity="0.1" d="M31.5762 131.598C32.5503 131.598 33.3399 130.808 33.3399 129.834C33.3399 128.86 32.5503 128.07 31.5762 128.07C30.6021 128.07 29.8125 128.86 29.8125 129.834C29.8125 130.808 30.6021 131.598 31.5762 131.598Z" fill="black"/>
<path opacity="0.1" d="M33.456 158.823C34.6274 158.231 34.9808 156.556 34.297 155.008C34.3329 155.073 34.3689 155.135 34.4017 155.201C35.2099 156.801 34.8761 158.597 33.6523 159.216C32.4286 159.834 30.7859 159.039 29.9777 157.439C29.945 157.374 29.9123 157.308 29.8828 157.239C30.7238 158.709 32.2846 159.415 33.456 158.823Z" fill="black"/>
<path opacity="0.1" d="M35.1949 162.261C36.3664 161.668 36.723 159.99 36.0391 158.445C36.0751 158.507 36.1111 158.573 36.1439 158.638C36.9521 160.238 36.6183 162.035 35.3945 162.653C34.1707 163.272 32.5281 162.477 31.7199 160.877C31.6839 160.811 31.6544 160.742 31.625 160.677C32.4659 162.153 34.03 162.853 35.1949 162.261Z" fill="black"/>
<path opacity="0.1" d="M36.9371 165.698C38.1085 165.106 38.4652 163.431 37.7781 161.883C37.8173 161.948 37.85 162.01 37.886 162.079C38.6943 163.676 38.3572 165.476 37.1367 166.091C35.9162 166.706 34.2703 165.914 33.4621 164.314C33.4261 164.249 33.3966 164.183 33.3672 164.114C34.2049 165.584 35.7657 166.29 36.9371 165.698Z" fill="black"/>
<path opacity="0.1" d="M38.6754 169.143C39.8468 168.551 40.2035 166.876 39.5163 165.328C39.5523 165.39 39.5883 165.456 39.621 165.521C40.4325 167.121 40.0955 168.918 38.875 169.536C37.6545 170.155 36.0053 169.359 35.1971 167.759C35.1644 167.694 35.1349 167.625 35.1055 167.56C35.9431 169.026 37.504 169.736 38.6754 169.143Z" fill="black"/>
<path opacity="0.1" d="M40.4169 172.586C41.5884 171.993 41.9418 170.318 41.2579 168.773C41.2939 168.836 41.3299 168.901 41.3626 168.967C42.1708 170.567 41.8371 172.363 40.6165 172.981C39.396 173.6 37.7469 172.801 36.9386 171.205C36.9059 171.136 36.8765 171.07 36.8438 171.005C37.6847 172.471 39.2455 173.178 40.4169 172.586Z" fill="black"/>
<path opacity="0.1" d="M42.1591 176.026C43.3306 175.434 43.684 173.759 43.0001 172.211C43.0361 172.276 43.0721 172.339 43.1048 172.404C43.913 174.004 43.5792 175.801 42.3587 176.419C41.1382 177.037 39.4891 176.242 38.6808 174.642C38.6481 174.577 38.6154 174.511 38.5859 174.443C39.4269 175.899 40.9877 176.619 42.1591 176.026Z" fill="black"/>
<path opacity="0.1" d="M43.8974 179.464C45.0656 178.872 45.4222 177.193 44.7384 175.648C44.7743 175.711 44.8103 175.776 44.8431 175.842C45.6513 177.442 45.3175 179.238 44.0937 179.856C42.87 180.475 41.2273 179.676 40.4191 178.08C40.3864 178.011 40.3537 177.945 40.3242 177.88C41.1652 179.346 42.726 180.056 43.8974 179.464Z" fill="black"/>
<path opacity="0.1" d="M45.6363 182.909C46.8078 182.317 47.1644 180.641 46.4773 179.094C46.5165 179.159 46.5493 179.221 46.5853 179.29C47.3935 180.887 47.0564 182.687 45.8359 183.302C44.6154 183.917 42.9695 183.125 42.1613 181.525C42.1253 181.46 42.0959 181.394 42.0664 181.325C42.9074 182.795 44.4649 183.501 45.6363 182.909Z" fill="black"/>
<path opacity="0.1" d="M46.7919 185.167C47.9634 184.575 48.3168 182.899 47.6329 181.352C47.6689 181.417 47.7049 181.479 47.7376 181.548C48.5458 183.145 48.2121 184.944 46.9915 185.56C45.771 186.175 44.1219 185.383 43.3136 183.783C43.2809 183.717 43.2482 183.652 43.2188 183.583C44.0499 185.059 45.6107 185.759 46.7919 185.167Z" fill="black"/>
<path d="M15.3332 169.854C15.1515 169.334 15.0414 168.791 15.006 168.241C14.885 168.24 14.7654 168.215 14.6547 168.166C14.5439 168.118 14.4444 168.047 14.3623 167.958C14.2803 167.869 14.2174 167.764 14.1777 167.65C14.138 167.535 14.1222 167.414 14.1315 167.293C14.1407 167.173 14.1747 167.055 14.2314 166.948C14.2881 166.842 14.3662 166.747 14.4608 166.672C14.5555 166.597 14.6647 166.542 14.7816 166.51C14.8984 166.479 15.0205 166.472 15.1402 166.49C15.3365 165.598 15.7287 164.761 16.2884 164.04C16.8482 163.318 17.5613 162.73 18.3763 162.318C18.2709 162.11 18.2527 161.868 18.3257 161.645C18.3987 161.423 18.557 161.239 18.7657 161.134C18.9744 161.028 19.2165 161.01 19.4386 161.083C19.6608 161.156 19.8448 161.314 19.9502 161.523C19.9885 161.597 20.015 161.677 20.0288 161.759C20.997 161.581 21.9937 161.637 22.936 161.921C23.8784 162.206 24.7394 162.711 25.4475 163.395C25.9883 163.306 26.5386 163.291 27.0835 163.349L27.7969 166.595L27.8132 163.464C28.6246 163.651 29.3895 164.001 30.0619 164.492C30.7344 164.983 31.3004 165.605 31.726 166.321C32.1515 167.037 32.4276 167.832 32.5378 168.657C32.648 169.482 32.5899 170.322 32.3671 171.124C32.1442 171.926 31.7612 172.675 31.2411 173.325C30.721 173.976 30.0746 174.514 29.3409 174.908C28.6072 175.302 27.8014 175.543 26.972 175.617C26.1425 175.691 25.3067 175.596 24.5149 175.338C24.4288 175.49 24.3003 175.614 24.1451 175.695C23.9834 175.777 23.8005 175.806 23.6212 175.781C23.4419 175.755 23.2748 175.675 23.1427 175.551C23.0105 175.427 22.9197 175.265 22.8824 175.088C22.8452 174.911 22.8633 174.726 22.9344 174.559C22.6539 174.364 22.3901 174.145 22.1459 173.905C20.8588 174.114 19.5387 173.909 18.3749 173.321C17.211 172.734 16.2631 171.792 15.667 170.633L18.9882 170.073L15.3332 169.854Z" fill="#2851EF"/>
<g opacity="0.1">
<path d="M20.4642 171.428C21.6913 169.792 22.4439 167.894 23.3077 166.055C23.6537 165.298 24.0426 164.562 24.4726 163.85L25.1271 163.094C25.2383 163.189 25.3463 163.284 25.4543 163.382C25.9951 163.293 26.5454 163.278 27.0904 163.336L27.8037 166.582L27.8135 163.46C28.6248 163.648 29.3898 163.998 30.0622 164.489C30.7347 164.98 31.3007 165.602 31.7262 166.318C32.1517 167.034 32.4279 167.828 32.5381 168.654C32.6483 169.479 32.5902 170.318 32.3673 171.121C32.1445 171.923 31.7614 172.672 31.2414 173.322C30.7213 173.972 30.0749 174.511 29.3412 174.904C28.6075 175.298 27.8016 175.539 26.9722 175.613C26.1428 175.687 25.307 175.593 24.5152 175.335C24.429 175.487 24.3006 175.611 24.1454 175.692C23.9837 175.773 23.8008 175.803 23.6215 175.777C23.4421 175.752 23.2751 175.671 23.1429 175.547C23.0108 175.423 22.92 175.262 22.8827 175.084C22.8455 174.907 22.8636 174.723 22.9347 174.556C22.6541 174.36 22.3904 174.141 22.1461 173.902C20.8857 174.104 19.5936 173.913 18.4453 173.355C19.2176 172.826 19.8994 172.175 20.4642 171.428Z" fill="black"/>
</g>
<path d="M42.181 164.477C42.1286 164.374 42.0972 164.261 42.0885 164.146C42.0797 164.031 42.0938 163.915 42.13 163.805C42.1662 163.695 42.2237 163.594 42.2993 163.506C42.3749 163.419 42.467 163.347 42.5704 163.296C42.6939 163.232 42.8308 163.2 42.9696 163.201C43.2192 161.876 43.8961 160.669 44.8969 159.765C44.7351 159.136 44.6743 158.486 44.7169 157.838L47.9531 157.294L44.8085 157.095C44.8655 156.799 44.9442 156.508 45.0441 156.224C44.9205 156.142 44.8202 156.03 44.7529 155.897C44.6742 155.74 44.6444 155.562 44.6674 155.387C44.6904 155.213 44.7651 155.049 44.8819 154.917C44.9986 154.785 45.1522 154.691 45.3228 154.647C45.4934 154.603 45.6732 154.611 45.8392 154.67C46.4172 153.848 47.1894 153.181 48.0872 152.73C49.1447 152.193 50.3345 151.973 51.514 152.096C52.6935 152.218 53.8126 152.678 54.7372 153.421C55.6617 154.163 56.3525 155.157 56.7267 156.282C57.1009 157.407 57.1426 158.617 56.8468 159.765C57.0006 159.831 57.1324 159.939 57.2268 160.077C57.3212 160.216 57.3743 160.378 57.3798 160.545C57.3852 160.712 57.3429 160.878 57.2578 161.022C57.1727 161.166 57.0483 161.283 56.8991 161.358C56.7873 161.415 56.6647 161.447 56.5395 161.453C56.4142 161.459 56.2892 161.438 56.1727 161.391C55.8569 161.921 55.4631 162.399 55.0046 162.811C55.3399 164.116 55.24 165.495 54.7199 166.738L50.3908 165.599L54.2618 167.638C53.6806 168.565 52.8633 169.321 51.8935 169.829C50.9238 170.336 49.8365 170.577 48.7433 170.525C47.65 170.474 46.59 170.133 45.6721 169.537C44.7541 168.941 44.0111 168.112 43.5193 167.134C43.1769 166.453 42.9618 165.716 42.8845 164.958C42.7359 164.944 42.5933 164.893 42.4701 164.809C42.347 164.725 42.2474 164.61 42.181 164.477Z" fill="#2851EF"/>
<path opacity="0.1" d="M42.181 164.473C42.1286 164.37 42.0972 164.257 42.0885 164.142C42.0797 164.027 42.0938 163.911 42.13 163.801C42.1662 163.691 42.2237 163.59 42.2993 163.502C42.3749 163.415 42.467 163.343 42.5704 163.291C42.6939 163.228 42.8308 163.196 42.9696 163.196C43.2192 161.871 43.8961 160.665 44.8969 159.761C44.8707 159.659 44.8478 159.555 44.8282 159.453C44.9455 159.537 45.055 159.631 45.1554 159.735C45.7411 160.389 46.0421 161.236 46.618 161.884C47.3396 162.629 48.3098 163.082 49.3437 163.157C50.3679 163.228 51.3969 163.145 52.3967 162.912C53.2212 162.699 54.0718 162.606 54.9228 162.634L55.1649 162.666L55.0144 162.807C55.3497 164.112 55.2498 165.491 54.7297 166.734L50.3908 165.595L54.2618 167.634C53.6806 168.561 52.8633 169.317 51.8935 169.825C50.9238 170.332 49.8365 170.572 48.7433 170.521C47.65 170.47 46.59 170.129 45.6721 169.533C44.7541 168.937 44.0111 168.107 43.5193 167.13C43.1769 166.449 42.9618 165.712 42.8845 164.954C42.7359 164.94 42.5933 164.889 42.4701 164.805C42.347 164.721 42.2474 164.606 42.181 164.473Z" fill="black"/>
</g>
<path opacity="0.1" d="M114.197 17.8497C112.903 17.6041 111.565 17.75 110.355 18.2685C109.629 18.5921 108.843 18.7593 108.048 18.7593C107.253 18.7593 106.467 18.5921 105.741 18.2685C104.883 17.8924 103.954 17.7072 103.017 17.7259C102.08 17.7445 101.159 17.9665 100.316 18.3765C99.8349 18.6307 99.2994 18.7643 98.7553 18.7659C96.5564 18.7659 94.7272 16.5507 94.3477 13.6286C94.7861 13.3073 95.1592 12.9052 95.4471 12.4441C96.7363 10.3663 98.7193 9.03125 100.974 9.03125C103.228 9.03125 105.192 10.3401 106.481 12.4048C106.866 13.0249 107.404 13.5354 108.044 13.8873C108.683 14.2391 109.403 14.4205 110.133 14.4139H110.191C111.926 14.4041 113.441 15.8079 114.197 17.8497Z" fill="#2851EF"/>
<path opacity="0.1" d="M120.876 8.69091L117.322 10.9454L119.479 7.01884C118.867 6.53157 118.111 6.26213 117.329 6.25316H117.273C117.027 6.25617 116.78 6.23756 116.537 6.19753L115.329 6.96322L115.846 6.02411C114.996 5.728 114.259 5.17307 113.739 4.43711L111.576 5.78851L112.938 3.31149C111.678 1.79648 109.976 0.867188 108.108 0.867188C105.866 0.867188 103.854 2.20223 102.578 4.28005C102.196 4.90068 101.657 5.40922 101.015 5.75404C100.373 6.09886 99.6511 6.26767 98.9229 6.24334H98.8149C96.3411 6.24334 94.332 9.04758 94.332 12.5128C94.332 15.978 96.3411 18.779 98.8149 18.779C99.359 18.7773 99.8946 18.6437 100.376 18.3896C101.218 17.9792 102.14 17.7573 103.077 17.7392C104.014 17.7212 104.943 17.9074 105.801 18.2849C106.527 18.6074 107.313 18.7741 108.108 18.7741C108.903 18.7741 109.688 18.6074 110.415 18.2849C111.266 17.9154 112.186 17.7335 113.114 17.7515C114.042 17.7696 114.955 17.9872 115.791 18.3896C116.268 18.6369 116.798 18.767 117.335 18.7692C119.812 18.7692 121.818 15.9649 121.818 12.503C121.827 11.1736 121.503 9.86313 120.876 8.69091Z" fill="#2851EF"/>
<path opacity="0.1" d="M40.2432 63.1799C38.3955 62.8303 36.4855 63.0376 34.7558 63.7755C33.7178 64.2356 32.5945 64.472 31.459 64.4692C30.3236 64.4664 29.2014 64.2244 28.1657 63.7591C26.9402 63.2218 25.6125 62.9572 24.2746 62.9838C22.9366 63.0103 21.6205 63.3274 20.4172 63.9129C19.7291 64.2754 18.9634 64.4663 18.1856 64.4692C15.0444 64.4692 12.4299 61.305 11.8867 57.1297C12.5144 56.6723 13.0478 56.0979 13.4574 55.438C15.2996 52.4702 18.1529 50.5625 21.3563 50.5625C24.5598 50.5625 27.3771 52.4473 29.2095 55.3824C29.7602 56.272 30.5319 57.0038 31.4493 57.5067C32.3668 58.0096 33.3988 58.2664 34.445 58.2521H34.5268C37.0071 58.2488 39.1732 60.2546 40.2432 63.1799Z" fill="#2851EF"/>
<path opacity="0.1" d="M49.7994 50.0807L44.721 53.3005L47.8034 47.6953C46.9298 46.998 45.8485 46.6122 44.7308 46.5991H44.649C44.2962 46.6043 43.9436 46.578 43.5954 46.5206L41.8808 47.6298L42.6203 46.2882C41.4001 45.8618 40.3463 45.06 39.6099 43.9977L36.5275 45.961L38.4679 42.3944C36.665 40.2315 34.237 38.9062 31.5669 38.9062C28.3635 38.9062 25.5102 40.8106 23.668 43.7785C23.1223 44.6691 22.3503 45.399 21.4306 45.8939C20.5108 46.3889 19.4763 46.6311 18.4325 46.5958H18.2591C14.7219 46.5958 11.8555 50.6042 11.8555 55.5517C11.8555 60.4992 14.7219 64.5076 18.2591 64.5076C19.0374 64.5055 19.8035 64.3135 20.4907 63.9481C21.6942 63.363 23.0105 63.0466 24.3484 63.0206C25.6863 62.9946 27.0138 63.2597 28.2392 63.7976C29.2749 64.2629 30.397 64.5048 31.5325 64.5076C32.6679 64.5104 33.7912 64.2741 34.8293 63.8139C36.0456 63.286 37.3612 63.0259 38.6868 63.0513C40.0125 63.0767 41.3171 63.387 42.5123 63.9612C43.193 64.3174 43.9494 64.5048 44.7177 64.5076C48.2549 64.5076 51.1214 60.4959 51.1214 55.5517C51.146 53.6461 50.6914 51.7648 49.7994 50.0807Z" fill="#2851EF"/>
<path opacity="0.1" d="M245.613 30.6083C246.907 30.3629 248.244 30.5087 249.455 31.0271C250.18 31.3508 250.966 31.518 251.76 31.518C252.554 31.518 253.34 31.3508 254.065 31.0271C254.923 30.6509 255.853 30.4658 256.79 30.4844C257.727 30.5031 258.648 30.7251 259.491 31.1351C259.972 31.3888 260.507 31.5224 261.051 31.5245C263.25 31.5245 265.083 29.3092 265.462 26.3872C265.023 26.0667 264.65 25.6645 264.363 25.2027C263.08 23.1183 261.074 21.7734 258.826 21.7734C256.578 21.7734 254.612 23.0823 253.322 25.147C252.938 25.7699 252.399 26.2829 251.758 26.6366C251.117 26.9903 250.396 27.1726 249.664 27.166H249.609C247.868 27.1627 246.35 28.5664 245.613 30.6083Z" fill="#2851EF"/>
<path opacity="0.1" d="M238.912 21.448L242.465 23.696L240.306 19.7694C240.917 19.2825 241.674 19.0132 242.455 19.0037H242.514C242.761 19.0065 243.007 18.9879 243.251 18.9481L244.455 19.7137L243.938 18.7746C244.795 18.4835 245.539 17.9307 246.065 17.1942L248.221 18.5619L246.857 16.0849C248.12 14.5699 249.801 13.6406 251.689 13.6406C253.931 13.6406 255.943 14.9757 257.219 17.0535C257.601 17.6743 258.14 18.1831 258.782 18.5279C259.424 18.8728 260.146 19.0414 260.874 19.0168H260.992C263.469 19.0168 265.475 21.821 265.475 25.2862C265.475 28.7514 263.469 31.5524 260.992 31.5524C260.448 31.55 259.913 31.4164 259.431 31.163C258.589 30.7527 257.667 30.5308 256.73 30.5127C255.793 30.4946 254.864 30.6808 254.006 31.0583C253.28 31.3808 252.495 31.5474 251.701 31.5474C250.907 31.5474 250.121 31.3808 249.396 31.0583C248.544 30.6887 247.623 30.5068 246.695 30.5249C245.766 30.5429 244.853 30.7606 244.016 31.163C243.539 31.4107 243.01 31.5408 242.472 31.5426C239.998 31.5426 237.989 28.7384 237.989 25.2764C237.972 23.9432 238.289 22.6269 238.912 21.448Z" fill="#2851EF"/>
<path opacity="0.1" d="M202.309 255.073C223.092 255.073 239.939 252.143 239.939 248.529C239.939 244.914 223.092 241.984 202.309 241.984C181.527 241.984 164.68 244.914 164.68 248.529C164.68 252.143 181.527 255.073 202.309 255.073Z" fill="#2851EF"/>
<path d="M182.611 217.445L124.305 216.695L124.478 215.2L127.295 190.531H178.501L182.268 215.2L182.556 217.072L182.611 217.445Z" fill="#D0D2D5"/>
<path opacity="0.1" d="M182.556 217.067H153.46L124.305 216.691L124.478 215.195H182.268L182.556 217.067Z" fill="black"/>
<path d="M191.96 215.57H114.59V217.439H191.96V215.57Z" fill="#D0D2D5"/>
<path d="M265.776 42.3664C265.781 41.0771 265.273 39.8388 264.365 38.9234C263.457 38.008 262.223 37.4904 260.933 37.4844H44.8663C44.2273 37.4874 43.5952 37.6162 43.006 37.8635C42.4168 38.1108 41.8821 38.4717 41.4324 38.9257C40.9827 39.3796 40.6268 39.9177 40.3851 40.5092C40.1433 41.1007 40.0205 41.734 40.0235 42.373V173.341H265.776V42.3664Z" fill="#3F3D56"/>
<path d="M40.0234 172.031V187.371C40.0234 188.656 40.5337 189.887 41.4419 190.795C42.3501 191.704 43.5818 192.214 44.8662 192.214H260.933C262.218 192.214 263.449 191.704 264.358 190.795C265.266 189.887 265.776 188.656 265.776 187.371V172.031H40.0234Z" fill="#D0D2D5"/>
<path d="M257.552 45.6953H49.3672V163.431H257.552V45.6953Z" fill="#EDF6FF"/>
<path d="M154.019 186.393C154.784 186.394 155.538 186.221 156.226 185.887C156.913 185.553 157.516 185.067 157.988 184.466C158.132 184.283 158.263 184.091 158.381 183.89L155.609 183.422L158.603 183.442C158.89 182.818 159.047 182.141 159.063 181.454C159.08 180.767 158.955 180.084 158.698 179.447L154.683 181.528L158.387 178.805C158.04 178.207 157.572 177.687 157.015 177.277C156.458 176.868 155.822 176.577 155.148 176.423C154.473 176.269 153.774 176.256 153.094 176.384C152.415 176.511 151.768 176.778 151.196 177.166C150.623 177.554 150.136 178.055 149.766 178.639C149.395 179.224 149.148 179.878 149.041 180.561C148.934 181.245 148.969 181.943 149.143 182.612C149.317 183.282 149.627 183.908 150.053 184.453C150.524 185.056 151.125 185.544 151.812 185.881C152.499 186.217 153.254 186.392 154.019 186.393Z" fill="#2851EF"/>
<path opacity="0.1" d="M159.066 192.211L182.328 215.574L178.758 192.211H159.066Z" fill="black"/>
<path opacity="0.1" d="M257.613 45.7109H49.2031V52.589H257.613V45.7109Z" fill="#444053"/>
<path opacity="0.3" d="M184.169 46.9062H121.756C121.651 46.9062 121.566 46.9912 121.566 47.096V50.9016C121.566 51.0064 121.651 51.0913 121.756 51.0913H184.169C184.274 51.0913 184.359 51.0064 184.359 50.9016V47.096C184.359 46.9912 184.274 46.9062 184.169 46.9062Z" fill="#2851EF"/>
<path d="M182.49 49.4347H182.336L182.281 49.3856C182.471 49.1568 182.575 48.8685 182.575 48.5708C182.573 48.3265 182.499 48.0882 182.362 47.886C182.225 47.6838 182.031 47.5268 181.804 47.4348C181.578 47.3428 181.329 47.3199 181.09 47.369C180.851 47.4181 180.631 47.537 180.459 47.7107C180.287 47.8843 180.171 48.105 180.124 48.3449C180.078 48.5848 180.103 48.8331 180.198 49.0585C180.292 49.2838 180.451 49.4762 180.655 49.6113C180.858 49.7464 181.097 49.8181 181.342 49.8175C181.64 49.8164 181.928 49.7111 182.156 49.5197L182.212 49.5688V49.7226L183.171 50.6813L183.455 50.3934L182.49 49.4347ZM181.342 49.4347C181.171 49.4353 181.003 49.3852 180.861 49.2907C180.718 49.1961 180.607 49.0614 180.541 48.9037C180.475 48.7459 180.458 48.5721 180.491 48.4043C180.524 48.2365 180.606 48.0823 180.726 47.9611C180.847 47.84 181.001 47.7574 181.169 47.7238C181.336 47.6902 181.51 47.7071 181.668 47.7724C181.826 47.8377 181.961 47.9484 182.056 48.0905C182.151 48.2327 182.202 48.3998 182.202 48.5708C182.203 48.6842 182.181 48.7967 182.139 48.9017C182.096 49.0066 182.032 49.1021 181.952 49.1824C181.872 49.2628 181.777 49.3264 181.672 49.3697C181.567 49.413 181.455 49.4351 181.342 49.4347Z" fill="#3F3D56"/>
<path opacity="0.8" d="M52.9512 50.4102C53.6469 50.4102 54.211 49.8462 54.211 49.1504C54.211 48.4546 53.6469 47.8906 52.9512 47.8906C52.2554 47.8906 51.6914 48.4546 51.6914 49.1504C51.6914 49.8462 52.2554 50.4102 52.9512 50.4102Z" fill="#FA5959"/>
<path opacity="0.8" d="M56.416 50.4102C57.1118 50.4102 57.6758 49.8462 57.6758 49.1504C57.6758 48.4546 57.1118 47.8906 56.416 47.8906C55.7203 47.8906 55.1562 48.4546 55.1562 49.1504C55.1562 49.8462 55.7203 50.4102 56.416 50.4102Z" fill="#FED253"/>
<path opacity="0.8" d="M59.8848 50.4102C60.5805 50.4102 61.1446 49.8462 61.1446 49.1504C61.1446 48.4546 60.5805 47.8906 59.8848 47.8906C59.189 47.8906 58.625 48.4546 58.625 49.1504C58.625 49.8462 59.189 50.4102 59.8848 50.4102Z" fill="#8CCF4D"/>
<path d="M223.699 244.71C223.509 244.408 223.269 244.142 222.989 243.921C221.559 242.57 220.895 240.587 220.541 238.643C220.188 236.699 220.086 234.717 219.52 232.815C219.213 231.841 218.827 230.892 218.369 229.978C218.041 229.278 217.629 227.907 217.03 227.416C216.913 227.315 216.771 227.246 216.618 227.217C216.335 226.616 215.932 226.079 215.433 225.64C214.498 224.792 213.356 224.118 212.731 223.022C212.559 222.642 212.347 222.281 212.099 221.945C211.677 221.481 211.01 221.291 210.62 220.8C210.113 220.165 210.227 219.256 210.293 218.447C210.358 217.639 210.293 216.671 209.593 216.245C209.174 215.987 208.634 216.013 208.199 215.784C207.544 215.457 207.286 214.632 207.299 213.896C207.312 213.16 207.541 212.443 207.6 211.707C207.783 209.364 206.239 207.034 206.834 204.763C207.06 203.903 207.577 203.157 207.96 202.355C208.093 202.088 208.203 201.81 208.287 201.524C209.308 201.929 210.381 202.187 211.474 202.293C209.671 198.248 210.129 193.55 209.288 189.204L209.396 189.057C210.246 187.937 210.728 186.581 210.777 185.176C210.777 183.56 210.021 182.048 209.681 180.464C209.39 179.119 209.403 177.712 209.027 176.39C208.766 175.569 208.419 174.777 207.993 174.028C207.585 173.271 207.156 172.526 206.707 171.793C206.288 170.406 205.868 169.018 205.447 167.631C204.858 165.684 204.253 163.704 203.107 162.022C202.688 161.407 202.561 160.157 201.916 159.784C201.393 159.513 200.799 159.409 200.215 159.486C199.305 158.976 198.507 158.24 198.392 157.232C198.381 157.012 198.403 156.791 198.458 156.577H198.569C200.009 156.447 200.738 155.177 201.488 154.064C202.698 152.265 202.237 149.83 201.488 147.782C201.302 147.135 200.965 146.542 200.506 146.051C199.456 145.069 197.793 145.285 196.439 144.811C195.984 144.654 195.558 144.415 195.094 144.304C194.194 144.094 193.252 144.389 192.427 144.804C191.602 145.22 190.833 145.756 189.97 146.084C189.106 146.411 188.039 146.669 187.826 147.556C187.767 147.855 187.792 148.164 187.898 148.449C188.097 149.018 188.447 149.523 188.909 149.909C188.542 150.667 188.343 151.496 188.326 152.339C188.31 153.182 188.477 154.018 188.815 154.79C189.153 155.562 189.654 156.251 190.285 156.811C190.915 157.37 191.659 157.786 192.466 158.03C192.715 158.429 192.947 158.835 193.16 159.251C193.539 159.984 193.86 160.848 193.729 161.633C193.493 161.884 193.274 162.152 193.075 162.435C192.136 163.743 191.602 165.278 191.112 166.809C190.452 168.765 189.924 170.762 189.531 172.788C188.733 174.486 187.758 176.109 187.178 177.892C186.141 177.894 185.109 177.755 184.109 177.48L181.347 176.855C180.385 176.636 179.384 176.4 178.632 175.765C178.232 175.438 177.921 175.003 177.516 174.679C177.11 174.355 176.295 173.975 175.85 174.244C175.769 174.293 175.693 174.351 175.624 174.417C175.219 173.596 174.833 172.781 174.361 171.986C173.684 170.873 172.676 169.856 171.4 169.643C170.62 169.518 169.823 169.703 169.178 170.16C168.432 170.69 167.964 171.796 168.524 172.542C168.664 172.708 168.816 172.864 168.979 173.007C169.357 173.443 169.696 173.913 169.99 174.411C171.045 175.891 172.622 176.916 174.404 177.277L174.289 177.604C174.057 178.285 173.563 179.106 173.687 179.813L185.971 184.018C186.759 184.338 187.595 184.522 188.445 184.564C188.776 184.561 189.106 184.517 189.426 184.433V185.062V185.088C189.459 189.404 188.772 193.69 188.644 198.003C188.621 198.792 188.644 199.639 189.142 200.254C189.698 200.928 190.686 201.062 191.547 200.909C191.754 200.874 191.957 200.828 192.155 200.771C192.446 201.857 192.656 202.963 192.784 204.079L193.595 209.923C193.7 210.522 193.742 211.129 193.723 211.736C193.628 213.107 192.905 214.334 192.381 215.601C191.858 216.867 191.547 218.382 192.234 219.566C192.45 219.933 192.748 220.244 192.941 220.623C193.186 221.211 193.298 221.846 193.268 222.482C193.318 224.245 193.366 226.009 193.412 227.776C193.269 227.753 193.123 227.782 193 227.858C192.319 228.388 192.394 230.911 192.345 231.693C192.293 233.002 192.345 234.337 192.273 235.659C192.188 237.44 191.902 239.207 191.419 240.924C191.301 241.482 191.043 242.001 190.67 242.432C190.287 242.765 189.831 243.002 189.338 243.123C187.708 243.633 186.003 243.866 184.296 243.81C183.605 243.787 182.885 243.722 182.244 243.983C181.603 244.245 181.086 244.965 181.318 245.619C181.518 246.169 182.123 246.431 182.669 246.637C183.918 247.077 185.123 247.631 186.269 248.293C186.71 248.593 187.175 248.857 187.659 249.081C188.124 249.248 188.604 249.367 189.093 249.435L194.894 250.436C196.082 250.639 197.512 250.763 198.268 249.782C198.677 249.251 198.736 248.532 198.716 247.858C198.683 246.549 198.422 245.217 198.592 243.908C198.721 243.134 198.925 242.375 199.2 241.64C199.778 239.924 200.359 238.208 200.941 236.493C201.524 234.772 202.113 233.035 202.338 231.228C202.42 230.574 202.414 229.828 201.913 229.419C201.786 229.315 201.639 229.239 201.481 229.196C201.461 227.619 201.255 226.039 201.344 224.462C201.366 224.069 201.406 223.676 201.438 223.28C201.742 223.569 202.013 223.889 202.247 224.236C202.806 225.113 203.012 226.271 203.866 226.854C204.593 227.351 205.669 227.325 206.18 228.045C206.344 228.321 206.467 228.62 206.546 228.931C206.843 229.703 207.287 230.409 207.855 231.009C208.05 231.727 208.321 232.423 208.663 233.084C209.145 234.102 209.625 235.118 210.103 236.13C210.594 237.223 211.14 238.29 211.739 239.327C212.196 239.98 212.565 240.691 212.835 241.441C213.297 243.057 212.544 244.831 211.353 246.022C210.162 247.213 208.591 247.897 207.044 248.535C206.881 248.59 206.731 248.679 206.605 248.797C206.471 248.956 206.4 249.158 206.406 249.366C206.406 250.122 207.027 250.77 207.741 251.002C208.47 251.198 209.234 251.226 209.976 251.084C214.157 250.577 218.326 249.556 222.024 247.524C222.577 247.262 223.067 246.883 223.46 246.415C223.65 246.178 223.773 245.895 223.815 245.595C223.857 245.295 223.817 244.989 223.699 244.71Z" fill="url(#paint0_linear_0_284)"/>
<path d="M206.027 171.333C206.725 172.404 207.38 173.501 207.991 174.625C208.418 175.368 208.766 176.154 209.028 176.971C209.407 178.28 209.398 179.677 209.682 181.012C210.01 182.583 210.775 184.081 210.775 185.691C210.725 187.086 210.243 188.431 209.394 189.539C208.549 190.638 207.58 191.637 206.508 192.517C204.037 186.116 202.657 179.346 202.425 172.488C202.392 171.539 202.385 170.561 202.732 169.674C202.945 169.118 203.966 167.593 204.624 168.192C204.862 168.411 204.925 169.399 205.072 169.73C205.348 170.288 205.667 170.825 206.027 171.333Z" fill="#2F2E41"/>
<path opacity="0.1" d="M206.027 171.333C206.725 172.404 207.38 173.501 207.991 174.625C208.418 175.368 208.766 176.154 209.028 176.971C209.407 178.28 209.398 179.677 209.682 181.012C210.01 182.583 210.775 184.081 210.775 185.691C210.725 187.086 210.243 188.431 209.394 189.539C208.549 190.638 207.58 191.637 206.508 192.517C204.037 186.116 202.657 179.346 202.425 172.488C202.392 171.539 202.385 170.561 202.732 169.674C202.945 169.118 203.966 167.593 204.624 168.192C204.862 168.411 204.925 169.399 205.072 169.73C205.348 170.288 205.667 170.825 206.027 171.333Z" fill="black"/>
<path d="M119.759 126.691C117.171 129.276 116.86 130.415 115.306 130.929C113.751 131.442 108.159 134.338 109.916 137.548L114.641 140.67L114.779 140.761L115.502 142.934L108.355 155.656C108.355 155.656 96.5757 150.27 95.4206 158.238C94.2655 166.206 94.9985 168.382 94.6877 172.635C94.3768 176.889 94.7891 178.12 93.7518 178.12C92.7145 178.12 92.3055 175.325 92.3055 175.325C92.3055 175.325 92.2401 175.198 92.1255 174.959C90.5844 171.755 80.1233 148.238 96.88 132.074C96.88 132.074 104.642 131.563 106.51 122.663C107.799 116.511 112.308 117.042 115.306 118.295C116.28 118.677 117.187 119.21 117.995 119.875C118.722 120.563 119.369 121.332 119.923 122.166C120.777 123.514 121.241 125.206 119.759 126.691Z" fill="#D0D2D5"/>
<path opacity="0.1" d="M114.777 140.763L115.5 142.935L108.354 155.658C108.354 155.658 96.5741 150.272 95.4191 158.239C94.264 166.207 94.997 168.383 94.6861 172.637C94.3752 176.891 94.7875 178.121 93.7503 178.121C92.713 178.121 92.304 175.327 92.304 175.327C92.304 175.327 92.2385 175.199 92.124 174.96C91.6037 170.981 88.9664 147.706 98.5276 148.943C98.5276 148.943 106.286 152.569 107.526 151.122C108.508 149.977 112.866 143.39 114.64 140.688L114.777 140.763Z" fill="black"/>
<path opacity="0.1" d="M119.922 122.149L115.197 127.519C115.197 127.519 109.71 134.861 108.571 134.55C108.23 134.476 107.882 134.436 107.534 134.429C107.154 134.4 106.79 134.264 106.484 134.037C106.179 133.809 105.944 133.5 105.807 133.144C105.67 132.789 105.636 132.402 105.71 132.028C105.784 131.654 105.963 131.309 106.225 131.033C108.096 129.07 111.545 125.343 111.771 124.515C111.997 123.687 114.192 120.058 115.292 118.281C116.266 118.663 117.174 119.197 117.982 119.862C118.713 120.548 119.364 121.316 119.922 122.149Z" fill="black"/>
<path d="M253.609 199.4C252.807 201.004 248.701 207.018 246.904 209.645L246.063 210.882C246.063 210.882 245.736 213.055 240.373 210.362C235.01 207.669 109.002 154.5 109.002 154.5L108.148 151.934L114.366 142.625L252.473 195.984C252.473 195.984 254.646 197.329 253.609 199.4Z" fill="#454B69"/>
<path opacity="0.1" d="M246.904 209.641L246.063 210.878C246.063 210.878 245.736 213.05 240.373 210.357C235.01 207.664 109.002 154.495 109.002 154.495L108.148 151.93L246.904 209.641Z" fill="black"/>
<path d="M170.9 174.914C169.621 174.705 168.201 174.806 167.206 175.637C166.605 176.146 166.225 176.869 166.146 177.653C166.061 178.559 166.587 179.636 167.497 179.704C167.716 179.707 167.935 179.693 168.152 179.662C168.726 179.659 169.3 179.708 169.866 179.806C170.981 179.911 172.104 179.747 173.142 179.328C174.18 178.909 175.102 178.247 175.831 177.398C176.613 176.416 175.583 175.99 174.66 175.794C173.397 175.526 172.163 175.117 170.9 174.914Z" fill="#FBBEBE"/>
<path d="M192.783 204.465L193.594 210.23C193.698 210.826 193.739 211.43 193.719 212.033C193.624 213.391 192.901 214.609 192.38 215.865C191.86 217.122 191.543 218.627 192.233 219.792C192.446 220.155 192.744 220.466 192.937 220.842C193.182 221.424 193.294 222.053 193.264 222.684L193.486 230.865C196.012 231.037 198.547 231.023 201.071 230.822C201.17 230.827 201.267 230.797 201.346 230.737C201.413 230.652 201.446 230.547 201.441 230.439C201.552 228.525 201.218 226.608 201.326 224.693C201.366 223.993 201.464 223.296 201.477 222.593C201.516 219.743 200.109 216.951 200.535 214.134C200.668 213.423 200.843 212.721 201.058 212.03C202.403 207.122 202.118 201.965 201.821 196.896C201.826 196.815 201.803 196.734 201.755 196.667C201.707 196.619 201.645 196.586 201.578 196.572C200.147 196.143 198.633 196.064 197.165 196.343C195.696 196.622 194.317 197.251 193.143 198.176C192.786 198.464 191.886 198.742 191.651 199.085C191.323 199.563 191.752 200.041 191.942 200.548C192.362 201.82 192.644 203.133 192.783 204.465Z" fill="#3F3D56"/>
<path opacity="0.1" d="M192.783 204.465L193.594 210.23C193.698 210.826 193.739 211.43 193.719 212.033C193.624 213.391 192.901 214.609 192.38 215.865C191.86 217.122 191.543 218.627 192.233 219.792C192.446 220.155 192.744 220.466 192.937 220.842C193.182 221.424 193.294 222.053 193.264 222.684L193.486 230.865C196.012 231.037 198.547 231.023 201.071 230.822C201.17 230.827 201.267 230.797 201.346 230.737C201.413 230.652 201.446 230.547 201.441 230.439C201.552 228.525 201.218 226.608 201.326 224.693C201.366 223.993 201.464 223.296 201.477 222.593C201.516 219.743 200.109 216.951 200.535 214.134C200.668 213.423 200.843 212.721 201.058 212.03C202.403 207.122 202.118 201.965 201.821 196.896C201.826 196.815 201.803 196.734 201.755 196.667C201.707 196.619 201.645 196.586 201.578 196.572C200.147 196.143 198.633 196.064 197.165 196.343C195.696 196.622 194.317 197.251 193.143 198.176C192.786 198.464 191.886 198.742 191.651 199.085C191.323 199.563 191.752 200.041 191.942 200.548C192.362 201.82 192.644 203.133 192.783 204.465Z" fill="black"/>
<path d="M207.958 202.726C207.575 203.521 207.061 204.26 206.832 205.114C206.237 207.369 207.778 209.695 207.595 212.005C207.536 212.735 207.31 213.445 207.294 214.175C207.277 214.905 207.545 215.716 208.193 216.053C208.629 216.276 209.175 216.253 209.584 216.508C210.274 216.93 210.353 217.889 210.284 218.694C210.216 219.499 210.101 220.399 210.612 221.027C211.001 221.514 211.668 221.704 212.087 222.166C212.336 222.497 212.548 222.854 212.719 223.232C213.344 224.325 214.486 224.993 215.422 225.85C216.357 226.707 217.149 227.964 216.73 229.152C216.423 230.022 215.559 230.559 214.728 230.968C213.211 231.717 211.611 232.283 209.96 232.653C209.783 232.706 209.596 232.716 209.414 232.682C209.23 232.615 209.065 232.502 208.936 232.355C207.971 231.409 206.973 230.418 206.528 229.145C206.449 228.837 206.325 228.541 206.161 228.268C205.651 227.551 204.574 227.578 203.848 227.084C202.997 226.504 202.791 225.356 202.235 224.489C201.679 223.622 200.864 223.105 200.271 222.342C199.27 221.073 199.025 219.378 198.308 217.928C198.004 217.313 197.615 216.737 197.372 216.096C197.128 215.327 196.977 214.531 196.924 213.727C196.463 209.905 195.288 206.057 196.028 202.274C196.191 201.443 196.443 200.638 196.548 199.781C196.728 198.298 196.443 196.78 196.662 195.301C196.668 195.115 196.715 194.933 196.8 194.768C196.886 194.604 197.008 194.46 197.156 194.349C197.333 194.27 197.525 194.23 197.719 194.234C199.659 194.131 201.604 194.174 203.537 194.365C204.519 194.46 205.618 194.66 206.207 195.461C206.708 196.149 206.682 197.068 206.842 197.902C207.042 198.93 207.562 199.489 208.108 200.294C208.655 201.099 208.36 201.895 207.958 202.726Z" fill="#3F3D56"/>
<path d="M200.406 229.313C200.923 229.313 201.496 229.28 201.895 229.607C202.392 230.016 202.399 230.765 202.32 231.403C202.091 233.197 201.506 234.921 200.92 236.639L199.179 241.747C198.904 242.476 198.7 243.23 198.571 243.998C198.4 245.307 198.662 246.616 198.695 247.925C198.695 248.579 198.652 249.305 198.243 249.832C197.504 250.784 196.061 250.673 194.873 250.487L189.078 249.505C188.589 249.44 188.109 249.323 187.645 249.155C187.161 248.932 186.696 248.67 186.254 248.373C185.107 247.718 183.902 247.17 182.655 246.737C182.112 246.534 181.503 246.275 181.307 245.729C181.074 245.074 181.591 244.355 182.233 244.093C182.874 243.831 183.591 243.897 184.284 243.916C185.99 243.97 187.693 243.74 189.323 243.236C189.814 243.115 190.27 242.88 190.652 242.548C191.04 242.112 191.304 241.58 191.418 241.007C191.911 239.302 192.206 237.545 192.295 235.772C192.363 234.463 192.317 233.154 192.37 231.845C192.402 231.07 192.327 228.573 193.008 228.04C193.528 227.64 195.668 228.743 196.372 228.903C197.694 229.207 199.05 229.344 200.406 229.313Z" fill="#2F2E41"/>
<path d="M219.498 232.95C220.064 234.825 220.153 236.808 220.519 238.735C220.885 240.662 221.533 242.629 222.963 243.971C223.242 244.192 223.481 244.457 223.673 244.756C223.794 245.036 223.835 245.344 223.792 245.646C223.748 245.948 223.623 246.232 223.428 246.467C223.033 246.933 222.543 247.309 221.991 247.57C218.297 249.586 214.138 250.603 209.947 251.107C209.206 251.246 208.444 251.218 207.715 251.025C207.002 250.783 206.37 250.142 206.383 249.389C206.376 249.183 206.446 248.981 206.58 248.823C206.707 248.707 206.857 248.619 207.021 248.565C208.566 247.93 210.133 247.239 211.328 246.068C212.522 244.897 213.271 243.123 212.81 241.533C212.537 240.788 212.166 240.083 211.707 239.435C211.109 238.407 210.563 237.348 210.071 236.265L208.631 233.244C208.209 232.361 207.784 231.451 207.712 230.476C209.52 230.557 211.327 230.268 213.019 229.625C213.809 229.303 214.545 228.862 215.202 228.317C215.758 227.852 216.265 226.985 217.015 227.59C217.617 228.074 217.996 229.439 218.35 230.129C218.809 231.037 219.193 231.98 219.498 232.95Z" fill="#2F2E41"/>
<path d="M198.398 157.958C198.542 159.214 199.759 160.042 200.921 160.54L193.568 162.886C194.043 161.976 193.66 160.864 193.189 159.941C192.805 159.21 192.367 158.509 191.88 157.843C191.808 157.742 191.726 157.614 191.778 157.497C191.825 157.42 191.898 157.362 191.984 157.336C193.496 156.662 195.054 155.965 196.706 155.72C197.184 155.651 198.087 155.461 198.444 155.945C198.8 156.43 198.329 157.379 198.398 157.958Z" fill="#FBBEBE"/>
<path opacity="0.1" d="M198.398 157.958C198.542 159.214 199.759 160.042 200.921 160.54L193.568 162.886C194.043 161.976 193.66 160.864 193.189 159.941C192.805 159.21 192.367 158.509 191.88 157.843C191.808 157.742 191.726 157.614 191.778 157.497C191.825 157.42 191.898 157.362 191.984 157.336C193.496 156.662 195.054 155.965 196.706 155.72C197.184 155.651 198.087 155.461 198.444 155.945C198.8 156.43 198.329 157.379 198.398 157.958Z" fill="black"/>
<path d="M194.125 158.976C197.309 158.976 199.89 156.395 199.89 153.211C199.89 150.027 197.309 147.445 194.125 147.445C190.941 147.445 188.359 150.027 188.359 153.211C188.359 156.395 190.941 158.976 194.125 158.976Z" fill="#FBBEBE"/>
<path d="M189.13 200.659C189.69 201.33 190.675 201.461 191.535 201.314C193.548 200.987 195.193 199.504 197.163 198.971C199.578 198.317 202.134 199.157 204.414 200.188C206.695 201.219 208.963 202.479 211.456 202.655C209.202 197.629 210.491 191.582 208.334 186.514C207.808 185.274 207.071 184.079 206.954 182.738C206.806 181.072 207.637 179.466 207.765 177.81C207.883 176.334 207.438 174.865 207.012 173.458C206.487 171.73 205.961 170.003 205.435 168.275C204.846 166.341 204.241 164.374 203.099 162.712C202.677 162.1 202.549 160.86 201.908 160.49C200.507 159.682 198.384 160.7 196.865 160.755C195.347 160.811 193.963 161.891 193.076 163.111C192.137 164.401 191.604 165.935 191.113 167.454C190.331 169.714 189.748 172.039 189.369 174.4C189.32 174.754 189.277 175.107 189.245 175.464C188.917 178.824 189.395 182.204 189.421 185.581V185.604C189.454 189.887 188.767 194.144 188.639 198.424C188.626 199.207 188.646 200.061 189.13 200.659Z" fill="#2F2E41"/>
<path opacity="0.1" d="M189.43 185.582C190.559 185.297 191.58 184.567 192.457 183.769C193.216 183.089 193.891 182.32 194.466 181.479C195.19 180.347 195.771 179.13 196.197 177.856C197.408 174.449 198.178 170.9 198.487 167.297C198.572 166.315 198.599 165.262 198.013 164.483C197.684 164.061 197.222 163.763 196.702 163.637C196.182 163.511 195.635 163.565 195.15 163.789C194.378 164.166 193.877 164.928 193.412 165.658C192.493 167.104 191.567 168.57 190.975 170.18C190.713 170.893 190.52 171.626 190.264 172.343C190.005 173.049 189.706 173.741 189.368 174.414C189.319 174.767 189.276 175.121 189.244 175.477C188.939 178.838 189.404 182.205 189.43 185.582Z" fill="black"/>
<path d="M197.996 163.857C198.582 164.635 198.556 165.699 198.474 166.667C198.166 170.271 197.396 173.819 196.184 177.227C195.762 178.512 195.18 179.738 194.453 180.878C193.877 181.719 193.202 182.488 192.444 183.169C191.331 184.183 189.976 185.09 188.468 185.103C187.619 185.063 186.783 184.88 185.994 184.563L173.707 180.381C173.583 179.681 174.077 178.863 174.309 178.189L174.964 176.248C175.15 175.712 175.366 175.133 175.854 174.841C176.341 174.55 177.114 174.949 177.519 175.273C177.925 175.597 178.233 176.023 178.632 176.353C179.388 176.981 180.386 177.217 181.348 177.433L184.106 178.051C185.106 178.325 186.139 178.463 187.175 178.46C187.944 176.111 189.407 174.043 190.235 171.713C190.49 171 190.683 170.264 190.948 169.55C191.537 167.94 192.467 166.478 193.386 165.028C193.847 164.302 194.348 163.539 195.124 163.16C195.61 162.932 196.16 162.878 196.682 163.004C197.204 163.131 197.668 163.432 197.996 163.857Z" fill="#2F2E41"/>
<path d="M195.962 154.513C195.919 154.134 195.801 153.767 195.615 153.434C195.519 153.267 195.372 153.135 195.195 153.057C195.019 152.979 194.822 152.96 194.634 153.002C194.058 153.182 193.865 154.072 193.263 154.101C192.857 154.121 192.566 153.708 192.438 153.322C192.311 152.936 192.242 152.495 191.938 152.223C191.726 152.064 191.483 151.953 191.224 151.896C189.827 151.454 188.384 150.639 187.919 149.249C187.81 148.966 187.784 148.658 187.844 148.362C188.057 147.482 189.153 147.217 189.987 146.899C190.822 146.582 191.623 146.039 192.441 145.626C193.26 145.214 194.208 144.923 195.108 145.132C195.565 145.276 196.014 145.443 196.453 145.633C197.808 146.104 199.467 145.885 200.517 146.863C200.976 147.348 201.313 147.936 201.499 148.578C202.232 150.613 202.696 153.028 201.482 154.814C200.733 155.917 200.007 157.177 198.567 157.311C196.892 157.452 196.227 155.934 195.962 154.513Z" fill="#2F2E41"/>
<g opacity="0.1">
<path d="M193.402 152.631C193.275 152.245 193.206 151.803 192.905 151.532C192.693 151.373 192.45 151.262 192.191 151.205C190.791 150.763 189.351 149.948 188.883 148.557C188.777 148.274 188.752 147.967 188.811 147.671C188.843 147.531 188.902 147.399 188.985 147.281C188.451 147.514 187.987 147.821 187.856 148.364C187.796 148.661 187.822 148.969 187.931 149.251C188.396 150.642 189.839 151.457 191.236 151.898C191.494 151.956 191.737 152.067 191.949 152.225C192.254 152.497 192.319 152.936 192.45 153.325C192.581 153.714 192.869 154.123 193.275 154.104C193.68 154.084 193.877 153.714 194.135 153.403C193.778 153.358 193.52 152.991 193.402 152.631Z" fill="black"/>
<path d="M199.529 156.61C197.847 156.764 197.182 155.232 196.911 153.822C196.875 153.444 196.764 153.077 196.584 152.742C196.487 152.575 196.34 152.444 196.163 152.366C195.987 152.288 195.79 152.269 195.602 152.31C195.304 152.455 195.053 152.682 194.879 152.965C195.029 152.979 195.174 153.028 195.302 153.107C195.43 153.187 195.539 153.295 195.618 153.423C195.804 153.756 195.922 154.123 195.965 154.503C196.23 155.913 196.895 157.447 198.583 157.29C199.25 157.217 199.866 156.897 200.311 156.394C200.064 156.509 199.8 156.582 199.529 156.61Z" fill="black"/>
</g>
<path d="M266.925 217.478C272.76 217.478 277.491 216.568 277.491 215.446C277.491 214.324 272.76 213.414 266.925 213.414C261.09 213.414 256.359 214.324 256.359 215.446C256.359 216.568 261.09 217.478 266.925 217.478Z" fill="#2851EF"/>
<path d="M266.75 216.189C267.429 216.189 267.98 215.468 267.98 214.579C267.98 213.69 267.429 212.969 266.75 212.969C266.07 212.969 265.52 213.69 265.52 214.579C265.52 215.468 266.07 216.189 266.75 216.189Z" fill="#3F3D56"/>
<path d="M266.75 214.22C267.429 214.22 267.98 213.499 267.98 212.61C267.98 211.721 267.429 211 266.75 211C266.07 211 265.52 211.721 265.52 212.61C265.52 213.499 266.07 214.22 266.75 214.22Z" fill="#3F3D56"/>
<path d="M266.75 212.251C267.429 212.251 267.98 211.53 267.98 210.641C267.98 209.752 267.429 209.031 266.75 209.031C266.07 209.031 265.52 209.752 265.52 210.641C265.52 211.53 266.07 212.251 266.75 212.251Z" fill="#3F3D56"/>
<path d="M266.75 210.282C267.429 210.282 267.98 209.562 267.98 208.672C267.98 207.783 267.429 207.062 266.75 207.062C266.07 207.062 265.52 207.783 265.52 208.672C265.52 209.562 266.07 210.282 266.75 210.282Z" fill="#3F3D56"/>
<path d="M266.75 208.314C267.429 208.314 267.98 207.593 267.98 206.704C267.98 205.815 267.429 205.094 266.75 205.094C266.07 205.094 265.52 205.815 265.52 206.704C265.52 207.593 266.07 208.314 266.75 208.314Z" fill="#3F3D56"/>
<path d="M266.75 206.353C267.429 206.353 267.98 205.632 267.98 204.743C267.98 203.854 267.429 203.133 266.75 203.133C266.07 203.133 265.52 203.854 265.52 204.743C265.52 205.632 266.07 206.353 266.75 206.353Z" fill="#3F3D56"/>
<path d="M266.75 204.376C267.429 204.376 267.98 203.655 267.98 202.766C267.98 201.877 267.429 201.156 266.75 201.156C266.07 201.156 265.52 201.877 265.52 202.766C265.52 203.655 266.07 204.376 266.75 204.376Z" fill="#3F3D56"/>
<path d="M271.354 189.309C271.522 189.095 271.675 188.87 271.812 188.635L268.579 188.105L272.077 188.128C272.411 187.398 272.593 186.607 272.612 185.805C272.631 185.002 272.487 184.204 272.188 183.459L267.496 185.893L271.822 182.713C271.416 182.014 270.87 181.406 270.22 180.927C269.569 180.448 268.826 180.108 268.038 179.929C267.251 179.749 266.434 179.733 265.64 179.883C264.846 180.032 264.091 180.343 263.422 180.797C262.754 181.25 262.185 181.837 261.753 182.519C261.321 183.202 261.033 183.966 260.909 184.765C260.785 185.563 260.826 186.379 261.03 187.161C261.235 187.942 261.598 188.674 262.097 189.309C261.834 189.642 261.608 190.001 261.423 190.382L265.621 192.565L261.145 191.063C260.832 191.99 260.755 192.981 260.922 193.945C261.088 194.91 261.492 195.817 262.097 196.586C261.414 197.455 260.99 198.499 260.872 199.598C260.754 200.696 260.948 201.806 261.431 202.8C261.914 203.794 262.667 204.632 263.604 205.218C264.541 205.804 265.624 206.115 266.729 206.115C267.834 206.115 268.916 205.804 269.853 205.218C270.79 204.632 271.543 203.794 272.026 202.8C272.509 201.806 272.703 200.696 272.585 199.598C272.467 198.499 272.043 197.455 271.36 196.586C272.178 195.548 272.622 194.265 272.622 192.943C272.622 191.621 272.178 190.338 271.36 189.299L271.354 189.309Z" fill="#2851EF"/>
<path opacity="0.1" d="M260.828 192.938C260.828 194.262 261.275 195.547 262.098 196.583C261.415 197.452 260.991 198.496 260.873 199.595C260.755 200.693 260.949 201.803 261.432 202.797C261.915 203.791 262.668 204.629 263.605 205.215C264.542 205.801 265.624 206.112 266.729 206.112C267.834 206.112 268.917 205.801 269.854 205.215C270.791 204.629 271.544 203.791 272.027 202.797C272.51 201.803 272.704 200.693 272.586 199.595C272.468 198.496 272.044 197.452 271.361 196.583C272.143 195.579 260.828 192.277 260.828 192.938Z" fill="black"/>
<path d="M49.431 257.991C57.8325 257.991 64.6433 256.682 64.6433 255.066C64.6433 253.45 57.8325 252.141 49.431 252.141C41.0295 252.141 34.2188 253.45 34.2188 255.066C34.2188 256.682 41.0295 257.991 49.431 257.991Z" fill="#2851EF"/>
<path d="M49.1765 256.14C50.1542 256.14 50.9467 255.101 50.9467 253.82C50.9467 252.539 50.1542 251.5 49.1765 251.5C48.1988 251.5 47.4062 252.539 47.4062 253.82C47.4062 255.101 48.1988 256.14 49.1765 256.14Z" fill="#3F3D56"/>
<path d="M49.1765 253.312C50.1542 253.312 50.9467 252.273 50.9467 250.992C50.9467 249.711 50.1542 248.672 49.1765 248.672C48.1988 248.672 47.4062 249.711 47.4062 250.992C47.4062 252.273 48.1988 253.312 49.1765 253.312Z" fill="#3F3D56"/>
<path d="M49.1765 250.476C50.1542 250.476 50.9467 249.437 50.9467 248.156C50.9467 246.875 50.1542 245.836 49.1765 245.836C48.1988 245.836 47.4062 246.875 47.4062 248.156C47.4062 249.437 48.1988 250.476 49.1765 250.476Z" fill="#3F3D56"/>
<path d="M49.1765 247.64C50.1542 247.64 50.9467 246.601 50.9467 245.32C50.9467 244.039 50.1542 243 49.1765 243C48.1988 243 47.4062 244.039 47.4062 245.32C47.4062 246.601 48.1988 247.64 49.1765 247.64Z" fill="#3F3D56"/>
<path d="M49.1765 244.812C50.1542 244.812 50.9467 243.773 50.9467 242.492C50.9467 241.211 50.1542 240.172 49.1765 240.172C48.1988 240.172 47.4062 241.211 47.4062 242.492C47.4062 243.773 48.1988 244.812 49.1765 244.812Z" fill="#3F3D56"/>
<path d="M49.1765 241.976C50.1542 241.976 50.9467 240.937 50.9467 239.656C50.9467 238.375 50.1542 237.336 49.1765 237.336C48.1988 237.336 47.4062 238.375 47.4062 239.656C47.4062 240.937 48.1988 241.976 49.1765 241.976Z" fill="#3F3D56"/>
<path d="M49.1765 239.14C50.1542 239.14 50.9467 238.101 50.9467 236.82C50.9467 235.539 50.1542 234.5 49.1765 234.5C48.1988 234.5 47.4062 235.539 47.4062 236.82C47.4062 238.101 48.1988 239.14 49.1765 239.14Z" fill="#3F3D56"/>
<path d="M55.8038 217.427C56.0434 217.114 56.262 216.786 56.4582 216.445L51.8052 215.679L56.8378 215.719C57.3201 214.668 57.5831 213.529 57.6107 212.373C57.6383 211.217 57.4298 210.067 56.9981 208.994L50.2509 212.509L56.468 207.928C55.8859 206.917 55.1017 206.038 54.1646 205.345C53.2275 204.651 52.1574 204.158 51.0213 203.896C49.8851 203.634 48.7073 203.61 47.5611 203.824C46.415 204.037 45.3252 204.485 44.3598 205.139C43.3944 205.792 42.5741 206.638 41.95 207.623C41.3259 208.608 40.9115 209.71 40.7326 210.863C40.5538 212.015 40.6142 213.191 40.9103 214.319C41.2064 215.447 41.7316 216.501 42.4534 217.417C42.0712 217.895 41.7421 218.412 41.4717 218.961L47.5154 222.103L41.0725 219.94C40.621 221.281 40.512 222.713 40.7554 224.107C40.9989 225.501 41.5871 226.812 42.4665 227.92C41.482 229.172 40.8695 230.675 40.6991 232.258C40.5288 233.842 40.8073 235.441 41.503 236.873C42.1986 238.305 43.2833 239.513 44.633 240.358C45.9826 241.203 47.5428 241.651 49.1351 241.651C50.7275 241.651 52.2877 241.203 53.6373 240.358C54.987 239.513 56.0717 238.305 56.7673 236.873C57.463 235.441 57.7415 233.842 57.5711 232.258C57.4007 230.675 56.7883 229.172 55.8038 227.92C56.9805 226.425 57.6203 224.578 57.6203 222.675C57.6203 220.773 56.9805 218.925 55.8038 217.43V217.427Z" fill="#2851EF"/>
<path opacity="0.1" d="M40.6484 222.683C40.6488 224.582 41.2884 226.427 42.4645 227.918C41.48 229.17 40.8675 230.673 40.6972 232.256C40.5268 233.84 40.8053 235.439 41.501 236.871C42.1966 238.303 43.2813 239.511 44.631 240.356C45.9806 241.201 47.5408 241.649 49.1331 241.649C50.7255 241.649 52.2857 241.201 53.6353 240.356C54.985 239.511 56.0697 238.303 56.7653 236.871C57.461 235.439 57.7395 233.84 57.5691 232.256C57.3987 230.673 56.7863 229.17 55.8018 227.918C56.9307 226.472 40.6484 221.718 40.6484 222.683Z" fill="black"/>
<path d="M171.228 117.759L158.428 113.211V101.979C158.428 100.116 156.919 98.6094 155.059 98.6094C153.198 98.6094 151.689 100.116 151.689 101.979V123.046L146.209 117.568C144.893 116.25 142.76 116.251 141.444 117.568C140.129 118.882 140.127 121.016 141.444 122.332L151.689 133.429H170.783L173.004 120.75C173.188 119.528 172.389 118.18 171.228 117.759Z" fill="#2449D7"/>
<path d="M177.525 104.226V99.738L172.732 98.7743C172.554 97.7938 172.294 96.8415 171.964 95.923L175.639 92.6935L173.395 88.8063L168.766 90.3678C168.128 89.615 167.427 88.9162 166.673 88.2773L168.239 83.6481L164.352 81.4033L161.117 85.0789C160.199 84.7473 159.249 84.4865 158.267 84.3106L157.307 79.5156H152.819L151.856 84.3119C150.874 84.4878 149.924 84.748 149.004 85.0775L145.775 81.4026L141.888 83.6474L143.449 88.2759C142.696 88.9142 141.996 89.6144 141.357 90.3685L136.731 88.8023L134.487 92.6895L138.159 95.9209C137.83 96.8422 137.568 97.7924 137.391 98.775L132.598 99.7347V104.222L137.391 105.185C137.568 106.166 137.829 107.118 138.159 108.038C138.16 108.039 134.488 111.271 134.488 111.271L136.062 113.998L147.2 110.04V108.258C145.806 106.539 144.952 104.369 144.952 101.979C144.952 96.394 149.477 91.8707 155.062 91.8707C160.644 91.8707 165.171 96.394 165.171 101.979C165.171 104.369 164.317 106.539 162.924 108.258V110.04L174.061 113.998L175.636 111.27L171.964 108.039C172.293 107.117 172.554 106.168 172.732 105.185L177.525 104.226Z" fill="#2449D7"/>
<defs>
<linearGradient id="paint0_linear_0_284" x1="197.81" y1="251.623" x2="193.479" y2="144.256" gradientUnits="userSpaceOnUse">
<stop stop-color="#808080" stop-opacity="0.25"/>
<stop offset="0.54" stop-color="#808080" stop-opacity="0.12"/>
<stop offset="1" stop-color="#808080" stop-opacity="0.1"/>
</linearGradient>
</defs>
</svg>
