<svg width="312" height="194" viewBox="0 0 312 194" fill="none" xmlns="http://www.w3.org/2000/svg">
<path d="M31.853 177.182C33.1456 177.636 34.5333 177.75 35.8826 177.512C37.2319 177.275 38.4973 176.693 39.5568 175.825C42.255 173.56 43.1012 169.83 43.7893 166.375L45.8253 156.156L41.5628 159.091C38.4972 161.202 35.3629 163.38 33.2405 166.438C31.1181 169.495 30.1922 173.668 31.897 176.976" fill="#E6E6E6"/>
<path d="M32.5114 190.261C31.9749 186.352 31.4229 182.393 31.8001 178.442C32.1344 174.934 33.2048 171.507 35.3841 168.697C36.5409 167.208 37.9484 165.933 39.5435 164.928C39.9593 164.665 40.3421 165.324 39.9281 165.586C37.1681 167.33 35.0333 169.906 33.8315 172.941C32.5042 176.317 32.2911 179.997 32.5197 183.583C32.6579 185.752 32.9516 187.906 33.2465 190.058C33.2698 190.155 33.2553 190.258 33.2058 190.345C33.1564 190.432 33.0758 190.497 32.9803 190.526C32.8829 190.553 32.779 190.539 32.6913 190.49C32.6035 190.44 32.539 190.357 32.5116 190.26L32.5114 190.261Z" fill="#F2F2F2"/>
<path d="M36.3711 183.991C36.9254 184.833 37.6873 185.519 38.5836 185.982C39.4798 186.445 40.4801 186.669 41.4881 186.632C44.0792 186.51 46.2384 184.702 48.1819 182.985L53.9317 177.909L50.1264 177.726C47.3899 177.595 44.5826 177.472 41.9761 178.317C39.3696 179.162 36.9658 181.192 36.4892 183.89" fill="#E6E6E6"/>
<path d="M30.9954 192.513C33.5783 187.943 36.574 182.864 41.9273 181.24C43.4157 180.791 44.9763 180.629 46.5251 180.766C47.0134 180.808 46.8914 181.56 46.4042 181.518C43.8079 181.303 41.2166 181.988 39.0665 183.46C36.9975 184.868 35.3865 186.826 34.0231 188.902C33.1879 190.174 32.4398 191.5 31.6917 192.824C31.4527 193.247 30.7536 192.941 30.9954 192.513Z" fill="#F2F2F2"/>
<path d="M290.638 182.618C289.887 183.291 288.975 183.759 287.99 183.978C287.005 184.196 285.981 184.157 285.015 183.864C282.542 183.083 280.916 180.784 279.476 178.628L275.215 172.25L278.94 173.046C281.62 173.619 284.365 174.218 286.669 175.701C288.973 177.184 290.778 179.761 290.549 182.491" fill="#E6E6E6"/>
<path d="M293.659 192.231C292.33 187.153 290.732 181.477 285.971 178.539C284.648 177.724 283.18 177.169 281.648 176.905C281.165 176.821 281.09 177.579 281.572 177.663C284.137 178.119 286.467 179.444 288.17 181.416C289.81 183.306 290.868 185.611 291.655 187.966C292.137 189.409 292.522 190.882 292.907 192.354C293.03 192.824 293.784 192.707 293.659 192.231Z" fill="#F2F2F2"/>
<path d="M241.318 117.859H154.232C153.537 117.858 152.87 117.581 152.379 117.089C151.887 116.598 151.61 115.931 151.609 115.236V85.8574C151.61 85.162 151.887 84.4953 152.379 84.0035C152.87 83.5118 153.537 83.2352 154.232 83.2344H241.318C242.013 83.2352 242.68 83.5118 243.172 84.0035C243.663 84.4953 243.94 85.162 243.941 85.8574V115.236C243.94 115.931 243.663 116.598 243.172 117.09C242.68 117.581 242.013 117.858 241.318 117.859Z" fill="#F1F1F1"/>
<path d="M188.329 91.1094H165.246V93.7324H188.329V91.1094Z" fill="#2851EF"/>
<path d="M218.757 94.257C219.627 94.257 220.331 93.5524 220.331 92.6832C220.331 91.814 219.627 91.1094 218.757 91.1094C217.888 91.1094 217.184 91.814 217.184 92.6832C217.184 93.5524 217.888 94.257 218.757 94.257Z" fill="#2851EF"/>
<path d="M224.004 94.257C224.873 94.257 225.577 93.5524 225.577 92.6832C225.577 91.814 224.873 91.1094 224.004 91.1094C223.134 91.1094 222.43 91.814 222.43 92.6832C222.43 93.5524 223.134 94.257 224.004 94.257Z" fill="#2851EF"/>
<path d="M229.25 94.257C230.119 94.257 230.823 93.5524 230.823 92.6832C230.823 91.814 230.119 91.1094 229.25 91.1094C228.38 91.1094 227.676 91.814 227.676 92.6832C227.676 93.5524 228.38 94.257 229.25 94.257Z" fill="#2851EF"/>
<path d="M241.318 155.109H154.232C153.537 155.108 152.87 154.831 152.379 154.339C151.887 153.848 151.61 153.181 151.609 152.486V123.107C151.61 122.412 151.887 121.745 152.379 121.254C152.87 120.762 153.537 120.485 154.232 120.484H241.318C242.013 120.485 242.68 120.762 243.172 121.254C243.663 121.745 243.94 122.412 243.941 123.107V152.486C243.94 153.181 243.663 153.848 243.172 154.34C242.68 154.831 242.013 155.108 241.318 155.109Z" fill="#F1F1F1"/>
<path d="M188.329 128.352H165.246V130.975H188.329V128.352Z" fill="#2851EF"/>
<path d="M218.757 131.499C219.627 131.499 220.331 130.795 220.331 129.925C220.331 129.056 219.627 128.352 218.757 128.352C217.888 128.352 217.184 129.056 217.184 129.925C217.184 130.795 217.888 131.499 218.757 131.499Z" fill="#2851EF"/>
<path d="M224.004 131.499C224.873 131.499 225.577 130.795 225.577 129.925C225.577 129.056 224.873 128.352 224.004 128.352C223.134 128.352 222.43 129.056 222.43 129.925C222.43 130.795 223.134 131.499 224.004 131.499Z" fill="#2851EF"/>
<path d="M229.25 131.499C230.119 131.499 230.823 130.795 230.823 129.925C230.823 129.056 230.119 128.352 229.25 128.352C228.38 128.352 227.676 129.056 227.676 129.925C227.676 130.795 228.38 131.499 229.25 131.499Z" fill="#2851EF"/>
<path d="M241.318 192.359H154.232C153.537 192.358 152.87 192.081 152.379 191.589C151.887 191.098 151.61 190.431 151.609 189.736V160.357C151.61 159.662 151.887 158.995 152.379 158.504C152.87 158.012 153.537 157.735 154.232 157.734H241.318C242.013 157.735 242.68 158.012 243.172 158.504C243.663 158.995 243.94 159.662 243.941 160.357V189.736C243.94 190.431 243.663 191.098 243.172 191.589C242.68 192.081 242.013 192.358 241.318 192.359Z" fill="#F1F1F1"/>
<path d="M188.329 165.602H165.246V168.225H188.329V165.602Z" fill="#2851EF"/>
<path d="M218.757 168.749C219.627 168.749 220.331 168.045 220.331 167.175C220.331 166.306 219.627 165.602 218.757 165.602C217.888 165.602 217.184 166.306 217.184 167.175C217.184 168.045 217.888 168.749 218.757 168.749Z" fill="#2851EF"/>
<path d="M224.004 168.749C224.873 168.749 225.577 168.045 225.577 167.175C225.577 166.306 224.873 165.602 224.004 165.602C223.134 165.602 222.43 166.306 222.43 167.175C222.43 168.045 223.134 168.749 224.004 168.749Z" fill="#2851EF"/>
<path d="M229.25 168.749C230.119 168.749 230.823 168.045 230.823 167.175C230.823 166.306 230.119 165.602 229.25 165.602C228.38 165.602 227.676 166.306 227.676 167.175C227.676 168.045 228.38 168.749 229.25 168.749Z" fill="#2851EF"/>
<path d="M208.485 54.5474L208.389 54.4763L208.386 54.4745C208.262 54.3823 208.121 54.3154 207.971 54.2777C207.821 54.24 207.665 54.2322 207.512 54.2548C207.359 54.2774 207.212 54.33 207.079 54.4094C206.946 54.4889 206.83 54.5937 206.738 54.7179L187.136 81.1099H184.98V80.6033C184.98 80.4783 184.93 80.3584 184.842 80.27C184.753 80.1816 184.633 80.132 184.508 80.132H183.222C183.097 80.132 182.977 80.1816 182.888 80.27C182.8 80.3584 182.75 80.4783 182.75 80.6033V81.1099H182.006V80.6033C182.006 80.4783 181.956 80.3584 181.868 80.27C181.779 80.1816 181.659 80.132 181.534 80.132H180.248C180.123 80.132 180.003 80.1816 179.914 80.27C179.826 80.3584 179.776 80.4783 179.776 80.6033V81.1099H179.034V80.6033C179.034 80.4783 178.984 80.3584 178.896 80.27C178.808 80.1816 178.688 80.132 178.563 80.132H177.276C177.151 80.132 177.031 80.1816 176.943 80.27C176.854 80.3584 176.805 80.4783 176.805 80.6033V81.1099H176.06V80.6033C176.06 80.4783 176.01 80.3584 175.922 80.27C175.834 80.1816 175.714 80.132 175.589 80.132H174.302C174.177 80.132 174.057 80.1816 173.969 80.27C173.88 80.3584 173.831 80.4783 173.831 80.6033V81.1099H173.089V80.6033C173.089 80.4783 173.039 80.3584 172.95 80.27C172.862 80.1816 172.742 80.132 172.617 80.132H171.331C171.269 80.132 171.207 80.1441 171.15 80.1678C171.093 80.1915 171.041 80.2262 170.997 80.27C170.954 80.3138 170.919 80.3657 170.895 80.4229C170.871 80.4801 170.859 80.5414 170.859 80.6033V81.1099H170.115V80.6033C170.115 80.4783 170.065 80.3584 169.977 80.27C169.888 80.1816 169.768 80.132 169.643 80.132H168.357C168.232 80.132 168.112 80.1816 168.023 80.27C167.935 80.3584 167.885 80.4783 167.885 80.6033V81.1099H167.141V80.6033C167.141 80.4783 167.091 80.3584 167.003 80.27C166.914 80.1816 166.794 80.132 166.669 80.132H165.383C165.258 80.132 165.138 80.1816 165.049 80.27C164.961 80.3584 164.911 80.4783 164.911 80.6033V81.1099H164.169V80.6033C164.169 80.4783 164.119 80.3584 164.031 80.27C163.943 80.1816 163.823 80.132 163.698 80.132H162.411C162.286 80.132 162.166 80.1816 162.078 80.27C161.989 80.3584 161.94 80.4783 161.94 80.6033V81.1099H161.195V80.6033C161.195 80.4783 161.145 80.3584 161.057 80.27C160.969 80.1816 160.849 80.132 160.724 80.132H159.437C159.312 80.132 159.192 80.1816 159.104 80.27C159.015 80.3584 158.966 80.4783 158.966 80.6033V81.1099H158.224V80.6033C158.224 80.4783 158.174 80.3584 158.085 80.27C157.997 80.1816 157.877 80.132 157.752 80.132H156.466C156.341 80.132 156.221 80.1816 156.132 80.27C156.044 80.3584 155.994 80.4783 155.994 80.6033V81.1099H155.061C154.906 81.1099 154.753 81.1404 154.61 81.1996C154.467 81.2588 154.337 81.3456 154.228 81.455C154.118 81.5644 154.032 81.6943 153.972 81.8373C153.913 81.9802 153.883 82.1335 153.883 82.2882V83.4123C153.883 83.567 153.913 83.7202 153.972 83.8632C154.032 84.0061 154.118 84.136 154.228 84.2454C154.337 84.3548 154.467 84.4416 154.61 84.5008C154.753 84.5601 154.906 84.5905 155.061 84.5905H186.941C187.344 84.5905 187.736 84.4513 188.049 84.1964C188.362 83.9415 188.578 83.5865 188.66 83.1911L188.672 83.2002L208.727 56.1982L208.728 56.1959C208.915 55.945 208.994 55.6304 208.948 55.3212C208.902 55.0121 208.736 54.7338 208.485 54.5474Z" fill="#3F3D56"/>
<path d="M84.6055 182.352L88.5653 184.378L98.2657 170.069L92.4217 167.078L84.6055 182.352Z" fill="#FFB7B7"/>
<path d="M84.2587 180.539L92.0571 184.53L92.0574 184.53C93.3753 185.205 94.3714 186.375 94.8264 187.784C95.2814 189.193 95.1581 190.725 94.4836 192.043L94.401 192.205L81.6328 185.67L84.2587 180.539Z" fill="#2F2E41"/>
<path d="M130.34 187.892H134.789L136.905 170.734H130.34L130.34 187.892Z" fill="#FFB7B7"/>
<path d="M129.207 186.438L137.967 186.438H137.968C139.448 186.438 140.868 187.026 141.915 188.073C142.962 189.12 143.55 190.54 143.55 192.02V192.202L129.207 192.202L129.207 186.438Z" fill="#2F2E41"/>
<path d="M109.531 47.9469C109.531 47.9469 106.552 45.6647 106.552 51.2392L106.082 69.6604L111.334 87.0626L114.391 81.4187L113.137 69.1901L109.531 47.9469Z" fill="#2F2E41"/>
<path d="M141.398 98.3316C141.398 98.3316 144.852 115.153 140.477 128.959L138.059 182.037L129.193 181.347L126.085 141.969L123.091 122.396L116.874 140.242L96.3789 178.008L86.9375 170.639C86.9375 170.639 97.4001 142.091 105.129 136.097L109.006 91.9453L141.398 98.3316Z" fill="#2F2E41"/>
<path d="M139.757 20.1947C142.435 15.296 140.634 9.15385 135.736 6.47594C130.837 3.79804 124.695 5.59842 122.017 10.4972C119.339 15.396 121.139 21.5381 126.038 24.216C130.937 26.8939 137.079 25.0935 139.757 20.1947Z" fill="#FFB7B7"/>
<path d="M130.174 17.4911C131.386 17.6488 132.3 16.4089 132.724 15.2628C133.148 14.1167 133.471 12.7824 134.525 12.1633C135.964 11.3175 137.806 12.3348 139.452 12.0557C141.311 11.7406 142.519 9.77054 142.614 7.88752C142.709 6.00451 141.959 4.19344 141.224 2.45732L140.967 4.61493C141.002 3.88366 140.848 3.15582 140.52 2.50102C140.193 1.84621 139.703 1.28636 139.097 0.875L139.428 4.04095C139.358 3.60416 139.202 3.18558 138.969 2.80922C138.737 2.43286 138.432 2.10613 138.073 1.8478C137.714 1.58946 137.307 1.4046 136.876 1.30382C136.446 1.20304 135.999 1.18832 135.563 1.26052L135.615 3.14692C133.468 2.89162 131.302 2.63596 129.149 2.83046C126.995 3.02496 124.827 3.70627 123.195 5.12442C120.753 7.24575 119.862 10.7388 120.161 13.9591C120.461 17.1794 121.79 20.2047 123.175 23.1271C123.524 23.8624 124.006 24.6921 124.814 24.7858C125.541 24.8699 126.205 24.2628 126.431 23.5674C126.605 22.8539 126.598 22.1082 126.411 21.398C126.207 20.3125 125.95 19.203 126.142 18.1154C126.334 17.0277 127.116 15.9529 128.213 15.8196C129.309 15.6863 130.431 16.9395 129.904 17.9101L130.174 17.4911Z" fill="#2F2E41"/>
<path d="M142.021 102.824L108.277 100.647L110.817 90.125L141.658 97.019L142.021 102.824Z" fill="#CBCBCB"/>
<path d="M121.212 29.1337L123.329 26.1953C123.329 26.1953 125.694 26.9993 132.03 30.1528L132.478 32.9058L143.475 100.545L123.486 99.6831L118.042 99.5673L116.261 95.5742L114.064 99.4827L108.749 99.3696L103.34 96.2341L108.67 79.9293L110.395 65.0356L107.73 51.0041C107.73 51.0041 104.376 38.1192 117.293 31.1718L121.212 29.1337Z" fill="#2F2E41"/>
<path d="M166.265 80.3316C165.776 80.456 165.265 80.4715 164.769 80.3771C164.272 80.2827 163.803 80.0807 163.393 79.7852C162.984 79.4898 162.644 79.1081 162.398 78.6671C162.151 78.2261 162.005 77.7365 161.968 77.2327L150.109 74.0563L154.88 69.8203L165.41 73.4862C166.261 73.481 167.083 73.7879 167.722 74.3487C168.362 74.9096 168.773 75.6854 168.878 76.5292C168.984 77.373 168.776 78.2261 168.294 78.9269C167.812 79.6277 167.091 80.1275 166.265 80.3316Z" fill="#FFB7B7"/>
<path d="M160.954 78.5393C160.705 78.675 160.429 78.7568 160.146 78.7793C159.863 78.8017 159.579 78.7644 159.311 78.6696L139.802 71.2653C135.043 69.5782 131.058 66.2198 128.59 61.8148L120.455 47.3022C119.883 46.6645 119.443 45.9205 119.16 45.1126C118.877 44.3047 118.755 43.4488 118.803 42.594C118.851 41.7392 119.067 40.9022 119.438 40.1309C119.81 39.3596 120.33 38.6692 120.969 38.0991C121.607 37.5289 122.352 37.0904 123.161 36.8085C123.969 36.5266 124.825 36.4068 125.68 36.4561C126.534 36.5054 127.371 36.7228 128.142 37.0957C128.912 37.4687 129.602 37.99 130.171 38.6297L144.252 60.9481L161.973 71.3376C162.32 71.5655 162.589 71.8946 162.743 72.2803C162.898 72.666 162.93 73.0898 162.835 73.4943L161.954 77.2286C161.859 77.629 161.645 77.9911 161.339 78.2665C161.222 78.3723 161.093 78.4638 160.954 78.5393Z" fill="#2F2E41"/>
<path d="M311.44 192.948H0.755245C0.667866 192.948 0.584065 192.913 0.522279 192.851C0.460492 192.79 0.425781 192.706 0.425781 192.619C0.425781 192.531 0.460492 192.447 0.522279 192.386C0.584065 192.324 0.667866 192.289 0.755245 192.289H311.44C311.527 192.289 311.611 192.324 311.673 192.386C311.735 192.447 311.769 192.531 311.769 192.619C311.769 192.706 311.735 192.79 311.673 192.851C311.611 192.913 311.527 192.948 311.44 192.948Z" fill="#CBCBCB"/>
</svg>
