<svg width="319" height="232" viewBox="0 0 319 232" fill="none" xmlns="http://www.w3.org/2000/svg">
<path d="M208.864 51.6172H196.294V158.784C196.294 160.466 195.963 162.131 195.32 163.684C194.676 165.238 193.733 166.649 192.544 167.838C191.355 169.027 189.944 169.97 188.39 170.614C186.837 171.257 185.172 171.588 183.49 171.588H87.3867V171.711C87.3867 173.392 87.7179 175.057 88.3613 176.611C89.0048 178.164 89.9479 179.576 91.1369 180.765C92.3258 181.953 93.7373 182.897 95.2907 183.54C96.8442 184.183 98.5091 184.515 100.191 184.515H208.864C210.546 184.515 212.211 184.183 213.764 183.54C215.318 182.897 216.729 181.953 217.918 180.765C219.107 179.576 220.05 178.164 220.694 176.611C221.337 175.057 221.668 173.392 221.668 171.711V64.421C221.668 61.0252 220.319 57.7685 217.918 55.3673C215.517 52.9662 212.26 51.6172 208.864 51.6172Z" fill="#D9E5FD"/>
<path d="M268.452 221.924C268.674 221.934 268.895 221.876 269.083 221.757C269.271 221.637 269.418 221.463 269.504 221.258C269.59 221.052 269.611 220.825 269.563 220.608C269.516 220.39 269.403 220.192 269.239 220.041L269.165 219.745C269.174 219.721 269.184 219.697 269.194 219.674C269.418 219.144 269.794 218.693 270.274 218.376C270.754 218.059 271.317 217.892 271.892 217.894C272.467 217.896 273.028 218.068 273.506 218.388C273.984 218.708 274.356 219.163 274.576 219.694C275.456 221.814 276.577 223.937 276.853 226.179C276.974 227.17 276.923 228.174 276.701 229.147C278.769 224.638 279.842 219.736 279.849 214.775C279.85 213.53 279.781 212.286 279.642 211.049C279.528 210.035 279.369 209.028 279.166 208.028C278.058 202.603 275.679 197.518 272.224 193.191C270.552 192.279 269.2 190.876 268.349 189.171C268.041 188.559 267.824 187.905 267.703 187.23C267.892 187.254 268.414 184.382 268.272 184.205C268.535 183.806 269.005 183.608 269.293 183.219C270.72 181.283 272.687 181.621 273.714 184.252C275.908 185.359 275.929 187.195 274.583 188.961C273.727 190.085 273.609 191.605 272.858 192.808C272.935 192.907 273.016 193.003 273.093 193.102C274.506 194.919 275.738 196.87 276.77 198.927C276.519 196.623 276.819 194.291 277.645 192.125C278.481 190.105 280.05 188.405 281.432 186.66C281.797 186.191 282.293 185.841 282.858 185.654C283.422 185.467 284.029 185.451 284.602 185.609C285.175 185.767 285.688 186.092 286.077 186.541C286.466 186.991 286.713 187.546 286.786 188.136C286.789 188.161 286.792 188.187 286.794 188.213C286.589 188.329 286.388 188.451 286.192 188.581C285.945 188.746 285.754 188.982 285.643 189.258C285.532 189.533 285.507 189.836 285.572 190.126C285.636 190.416 285.786 190.679 286.003 190.882C286.22 191.085 286.492 191.218 286.786 191.263L286.816 191.268C286.743 192.008 286.614 192.74 286.429 193.46C288.202 200.314 284.376 202.81 278.912 202.922C278.792 202.984 278.674 203.046 278.554 203.105C279.591 206.045 280.242 209.107 280.489 212.215C280.63 214.048 280.621 215.89 280.465 217.722L280.474 217.657C280.87 215.62 281.956 213.781 283.551 212.453C285.918 210.508 289.264 209.791 291.818 208.228C292.089 208.054 292.405 207.961 292.728 207.96C293.05 207.959 293.366 208.051 293.639 208.224C293.911 208.397 294.128 208.644 294.265 208.936C294.401 209.228 294.451 209.554 294.409 209.874L294.398 209.942C294.017 210.097 293.647 210.276 293.288 210.477C293.083 210.593 292.882 210.715 292.685 210.845C292.439 211.01 292.247 211.246 292.137 211.522C292.026 211.797 292.001 212.1 292.065 212.389C292.13 212.679 292.28 212.943 292.497 213.146C292.713 213.349 292.986 213.482 293.28 213.527L293.31 213.532C293.331 213.535 293.35 213.538 293.371 213.541C292.721 215.095 291.808 216.525 290.672 217.768C289.564 223.751 284.804 224.319 279.713 222.577H279.71C279.152 225.004 278.342 227.367 277.295 229.627H268.668C268.637 229.531 268.609 229.432 268.581 229.336C269.38 229.386 270.182 229.339 270.968 229.194C270.328 228.408 269.688 227.617 269.048 226.831C269.034 226.817 269.021 226.801 269.008 226.785C268.683 226.383 268.356 225.984 268.031 225.582L268.031 225.582C268.013 224.35 268.155 223.12 268.452 221.924Z" fill="#F2F2F2"/>
<path d="M173.43 37.0385C173.745 37.5157 174.16 37.9188 174.646 38.2199C175.132 38.521 175.678 38.713 176.245 38.7824C176.813 38.8519 177.389 38.7973 177.933 38.6223C178.477 38.4473 178.977 38.1562 179.398 37.769L197.334 45.8613L200.792 41.4504L179.419 31.9948C178.714 31.335 177.792 30.9565 176.828 30.9311C175.863 30.9056 174.922 31.2349 174.184 31.8566C173.446 32.4783 172.961 33.3492 172.822 34.3043C172.683 35.2593 172.899 36.2322 173.43 37.0385Z" fill="#A0616A"/>
<path d="M250.406 42.0918L252.184 52.1726C252.267 52.6429 252.251 53.1253 252.137 53.589C252.022 54.0526 251.812 54.4872 251.52 54.8648C251.227 55.2424 250.859 55.5547 250.439 55.7817C250.019 56.0086 249.556 56.1452 249.08 56.1826L218.852 58.5597L183.32 42.6576L187.564 34.6016L218.409 44.3692L250.406 42.0918Z" fill="#2851EF"/>
<path d="M179.661 34.8672H70.9874C63.9161 34.8672 58.1836 40.5997 58.1836 47.671V154.961C58.1836 162.032 63.9161 167.765 70.9874 167.765H179.661C186.733 167.765 192.465 162.032 192.465 154.961V47.671C192.465 40.5997 186.733 34.8672 179.661 34.8672Z" fill="#DDE1F1"/>
<path d="M70.9871 37.5C69.6515 37.5 68.3289 37.7631 67.095 38.2742C65.861 38.7853 64.7398 39.5345 63.7953 40.4789C62.8509 41.4234 62.1017 42.5446 61.5906 43.7785C61.0795 45.0125 60.8164 46.3351 60.8164 47.6707V154.961C60.8164 157.658 61.888 160.245 63.7953 162.152C65.7027 164.06 68.2897 165.131 70.9871 165.131H140.345C146.844 165.131 153.279 163.851 159.283 161.364C165.287 158.878 170.742 155.232 175.337 150.637C179.932 146.042 183.578 140.587 186.065 134.583C188.551 128.579 189.831 122.144 189.831 115.645V47.6707C189.831 46.3351 189.568 45.0125 189.057 43.7785C188.546 42.5446 187.797 41.4234 186.852 40.4789C185.908 39.5345 184.787 38.7853 183.553 38.2742C182.319 37.7631 180.996 37.5 179.661 37.5H70.9871Z" fill="white"/>
<path d="M155.704 70.0566H94.708C94.1483 70.0566 93.6115 69.8343 93.2158 69.4385C92.82 69.0428 92.5977 68.506 92.5977 67.9463C92.5977 67.3866 92.82 66.8498 93.2158 66.454C93.6115 66.0583 94.1483 65.8359 94.708 65.8359H155.704C156.264 65.8359 156.801 66.0583 157.197 66.454C157.592 66.8498 157.815 67.3866 157.815 67.9463C157.815 68.506 157.592 69.0428 157.197 69.4385C156.801 69.8343 156.264 70.0566 155.704 70.0566Z" fill="#C8D8E8"/>
<path d="M155.704 115.057H94.708C94.1483 115.057 93.6115 114.834 93.2158 114.439C92.82 114.043 92.5977 113.506 92.5977 112.946C92.5977 112.387 92.82 111.85 93.2158 111.454C93.6115 111.058 94.1483 110.836 94.708 110.836H155.704C156.264 110.836 156.801 111.058 157.197 111.454C157.592 111.85 157.815 112.387 157.815 112.946C157.815 113.506 157.592 114.043 157.197 114.439C156.801 114.834 156.264 115.057 155.704 115.057Z" fill="#C8D8E8"/>
<path d="M180.473 92.5723H69.9385C69.3788 92.5723 68.842 92.35 68.4462 91.9542C68.0505 91.5584 67.8281 91.0216 67.8281 90.4619C67.8281 89.9022 68.0505 89.3654 68.4462 88.9697C68.842 88.5739 69.3788 88.3516 69.9385 88.3516H180.473C181.033 88.3516 181.57 88.5739 181.966 88.9697C182.361 89.3654 182.584 89.9022 182.584 90.4619C182.584 91.0216 182.361 91.5584 181.966 91.9542C181.57 92.35 181.033 92.5723 180.473 92.5723Z" fill="#C8D8E8"/>
<path d="M246.586 86.5232L235.574 109.982L277.933 105.692L269.091 83.1719L246.586 86.5232Z" fill="#A0616A"/>
<path d="M256.435 221.355L252.418 221.321L250.641 205.469L256.568 205.519L256.435 221.355Z" fill="#A0616A"/>
<path d="M243.57 227.742C243.567 228.218 243.752 228.676 244.086 229.015C244.42 229.355 244.874 229.548 245.351 229.553L253.336 229.62L254.733 226.786L255.247 229.634L258.26 229.661L257.499 219.504L256.451 219.434L252.175 219.139L250.796 219.047L250.772 221.921L244.357 226.271C244.117 226.435 243.92 226.654 243.783 226.91C243.646 227.166 243.573 227.451 243.57 227.742Z" fill="#2F2E41"/>
<path d="M211.989 221.371L208.16 220.159L211.118 204.484L216.77 206.273L211.989 221.371Z" fill="#A0616A"/>
<path d="M197.818 223.696C197.674 224.15 197.717 224.642 197.936 225.065C198.156 225.487 198.533 225.806 198.987 225.95L206.6 228.36L208.769 226.062L208.423 228.935L211.295 229.847L213.552 219.914L212.57 219.539L208.57 218.001L207.279 217.508L206.411 220.248L199.002 222.522C198.724 222.607 198.471 222.759 198.265 222.963C198.059 223.168 197.905 223.419 197.818 223.696Z" fill="#2F2E41"/>
<path d="M276.005 99.0938L237.491 106.151C237.491 106.151 231.313 110.772 232.966 112.427C234.618 114.082 234.874 113.825 233.789 114.911C232.703 115.997 230.356 117.448 230.332 118.398C230.309 119.348 213.074 161.957 213.074 161.957C213.074 161.957 214.989 161 213.553 162.436C212.117 163.872 212.117 165.059 212.117 165.059L205.414 210.311L216.299 210.952L226.958 169.696L250.733 131.155C250.733 131.155 253.092 165.524 253.19 167.81C253.289 170.096 254.726 167.223 253.289 170.096C251.853 172.968 250.896 171.053 251.853 172.968C252.811 174.883 248.404 213.87 248.404 213.87H258.339L279.649 133.061C279.649 133.061 287.23 109.959 276.005 99.0938Z" fill="#2F2E41"/>
<path d="M264.662 34.4546L249.234 32.8516L245.237 38.0409L240.58 40.521C238.61 41.5705 236.983 43.1654 235.895 45.1149C234.807 47.0645 234.304 49.2862 234.445 51.5143L239.887 83.169C239.887 83.169 235.29 93.5192 238.451 96.0954C241.611 98.6715 236.007 105.051 242.759 101.84C249.512 98.6293 278.666 102.319 278.666 102.319L272.442 84.6053L277.092 67.199L277.603 52.604C277.699 49.8767 276.89 47.1944 275.301 44.9752C273.713 42.7559 271.435 41.1245 268.823 40.3351L268.173 40.1386L264.662 34.4546Z" fill="#2851EF"/>
<path d="M285.9 22.6248C286.001 26.9733 284.376 31.1839 282.041 34.8823C281.348 32.7232 280.101 30.7582 278.8 28.885C279.456 32.9373 278.757 37.0927 276.813 40.7081C276.745 40.7571 276.674 40.8026 276.601 40.8445C274.698 41.9892 272.285 42.4528 270.226 41.6261C274.48 37.0412 275.021 29.4447 271.455 24.302C270.445 22.8428 269.14 21.5522 268.514 19.8916C267.527 17.2419 268.476 14.3245 269.075 11.562C269.635 8.99087 269.733 5.93123 268.008 4.04693C268.192 3.78361 268.443 3.574 268.735 3.43958C269.027 3.30517 269.349 3.25079 269.669 3.28201C270.733 3.43224 271.507 4.35665 272 5.30873C272.493 6.26078 272.818 7.31599 273.505 8.13833C274.778 9.67752 276.945 10.0414 278.771 10.8526C283.193 12.8225 285.794 17.786 285.9 22.6248Z" fill="#2F2E41"/>
<path d="M0.972662 229.656C0.972127 229.731 1.00704 229.805 1.07548 229.874C1.14392 229.943 1.24455 230.006 1.37147 230.059C1.49839 230.112 1.64911 230.154 1.81504 230.182C1.98096 230.211 2.15882 230.226 2.33831 230.225H292.998C293.361 230.225 293.708 230.165 293.964 230.058C294.22 229.952 294.364 229.807 294.364 229.656C294.364 229.505 294.22 229.36 293.964 229.253C293.708 229.146 293.361 229.086 292.998 229.086H2.33831C2.15882 229.086 1.98096 229.1 1.81504 229.129C1.64911 229.157 1.49839 229.199 1.37147 229.252C1.24455 229.305 1.14399 229.368 1.07555 229.437C1.00711 229.507 0.972134 229.581 0.972662 229.656Z" fill="#D9E5FD"/>
<path d="M286.852 123.414C289.231 123.414 291.161 121.485 291.161 119.106C291.161 116.726 289.231 114.797 286.852 114.797C284.472 114.797 282.543 116.726 282.543 119.106C282.543 121.485 284.472 123.414 286.852 123.414Z" fill="#2851EF"/>
<path d="M248.674 20.1392C248.926 19.2547 247.184 24.6617 248.025 24.7593C251.853 25.1985 257.109 27.4849 259.775 28.5516C259.895 28.5377 260.015 28.5237 260.132 28.5063C260.418 28.4749 260.697 28.4296 260.972 28.3773C267.181 27.2026 269.569 17.6651 269.569 17.578C269.569 17.1493 268.54 5.37315 266.919 5.19888C266.493 5.15268 266.065 5.12941 265.637 5.12916H261.614C260.782 4.94979 259.938 4.8275 259.089 4.76315H259.082C250.984 4.14615 244.598 9.0821 245.195 15.0883C245.199 15.0952 245.206 15.1022 245.209 15.1092C245.382 15.3671 245.534 15.6111 245.668 15.8447C245.799 16.0643 245.908 16.2734 246.004 16.4721C246.742 18.0059 244.845 19.9359 246.103 20.2961C247.776 20.7752 241.702 36.5228 248.325 36.5228C245.103 37.4387 247.976 22.5793 248.674 20.1392Z" fill="#2F2E41"/>
<path d="M255.903 29.3763C261.163 29.3763 265.427 25.1123 265.427 19.8522C265.427 14.5922 261.163 10.3281 255.903 10.3281C250.643 10.3281 246.379 14.5922 246.379 19.8522C246.379 25.1123 250.643 29.3763 255.903 29.3763Z" fill="#A0616A"/>
<path d="M245.195 15.6093C245.354 15.693 245.51 15.7696 245.669 15.8464C245.835 15.9265 246.001 16.0067 246.167 16.0799C249.356 17.5265 251.952 17.6869 253.527 15.6093C253.569 14.5161 253.814 13.4404 254.251 12.4372C254.174 13.5583 254.469 14.6735 255.091 15.6093H258.263C261.53 17.7775 263.207 18.0041 260.94 25.1222C260.308 27.1057 257.794 38.6473 258.783 40.3589C259.069 40.3275 262.112 27.6858 262.388 27.6335C268.597 26.4588 272.542 16.2298 272.036 15.6511C272.039 14.0056 271.661 12.3818 270.931 10.9069C270.008 9.03822 268.569 7.47296 266.785 6.3962C265.721 5.88044 264.612 5.46386 263.472 5.15175C263.444 5.14477 263.419 5.13779 263.391 5.13083C263.041 5.0367 262.684 4.94956 262.328 4.87636C261.591 4.72076 260.846 4.60786 260.096 4.53823C260.043 4.53474 259.99 4.53125 259.94 4.53125C259.641 4.53195 259.347 4.61258 259.089 4.76482C259.086 4.76482 259.086 4.76829 259.082 4.76829C258.898 4.87597 258.737 5.01936 258.609 5.19007C258.383 5.4773 258.261 5.83228 258.263 6.19749H254.731C254.6 6.19749 254.47 6.20097 254.339 6.20793C251.982 6.28849 249.74 7.24574 248.051 8.89237C246.363 10.539 245.349 12.7565 245.209 15.1108C245.199 15.2782 245.195 15.442 245.195 15.6093Z" fill="#2F2E41"/>
<path d="M266.017 12.5647C269.482 12.5647 272.291 9.7555 272.291 6.29017C272.291 2.82483 269.482 0.015625 266.017 0.015625C262.551 0.015625 259.742 2.82483 259.742 6.29017C259.742 9.7555 262.551 12.5647 266.017 12.5647Z" fill="#2F2E41"/>
<path d="M286.901 120.877C287.207 120.394 287.405 119.85 287.481 119.283C287.556 118.717 287.507 118.14 287.338 117.594C287.169 117.048 286.883 116.545 286.5 116.12C286.118 115.695 285.647 115.359 285.122 115.134L285.153 95.4561L279.712 94.1094L279.846 117.481C279.533 118.394 279.566 119.39 279.938 120.28C280.31 121.171 280.996 121.894 281.865 122.312C282.735 122.731 283.728 122.816 284.656 122.551C285.584 122.287 286.383 121.691 286.901 120.877Z" fill="#A0616A"/>
<path d="M259.961 48.5962L268.427 42.8423C268.822 42.5739 269.269 42.391 269.739 42.3054C270.209 42.2199 270.691 42.2335 271.156 42.3454C271.62 42.4573 272.056 42.6651 272.435 42.9554C272.814 43.2457 273.128 43.6121 273.358 44.031L287.913 70.6299L287.969 109.558L278.881 108.988L275.151 76.8495L259.961 48.5962Z" fill="#2851EF"/>
<path d="M161.583 134.719H93.0104C91.5189 134.719 90.0885 135.501 89.0339 136.892C87.9792 138.284 87.3867 140.171 87.3867 142.139C87.3867 144.108 87.9792 145.995 89.0339 147.387C90.0885 148.778 91.5189 149.56 93.0104 149.56H161.583C163.075 149.56 164.505 148.778 165.56 147.387C166.615 145.995 167.207 144.108 167.207 142.139C167.207 140.171 166.615 138.284 165.56 136.892C164.505 135.501 163.075 134.719 161.583 134.719Z" fill="#C8D8E8"/>
<path d="M100.225 198.314H60.2939C59.7342 198.314 59.1975 198.092 58.8017 197.696C58.4059 197.301 58.1836 196.764 58.1836 196.204C58.1836 195.644 58.4059 195.108 58.8017 194.712C59.1975 194.316 59.7342 194.094 60.2939 194.094H100.225C100.785 194.094 101.322 194.316 101.717 194.712C102.113 195.108 102.335 195.644 102.335 196.204C102.335 196.764 102.113 197.301 101.717 197.696C101.322 198.092 100.785 198.314 100.225 198.314Z" fill="#2851EF"/>
<path d="M318.137 184.251C317.7 183.513 315.807 184.303 315.459 183.633C315.112 182.966 316.871 181.95 317.876 179.628C318.057 179.209 319.199 176.57 318.353 175.756C316.751 174.213 309.42 180.582 306.854 178.498C306.291 178.04 305.898 177.127 304.194 175.644C303.516 175.055 303.106 174.788 302.709 174.887C302.146 175.028 302.101 175.781 301.498 177.263C300.592 179.485 300.057 179.35 299.529 181.123C299.138 182.439 299.227 183.204 298.767 183.353C298.115 183.564 297.514 182.168 296.688 182.293C295.845 182.421 295.335 184.046 295.174 185.262C294.872 187.546 295.71 189.052 296.175 190.636C296.68 192.358 296.98 194.976 295.814 198.683L284.27 231.208C286.818 224.534 294.197 206.239 297.298 199.44C298.193 197.477 299.182 195.486 301.211 194.701C303.165 193.944 305.848 194.396 309.269 193.572C309.669 193.476 310.778 193.193 310.917 192.541C311.033 192.002 310.38 191.701 310.481 191.196C310.615 190.519 311.897 190.511 313.473 189.729C314.585 189.178 315.277 188.523 315.872 187.96C316.052 187.79 318.72 185.233 318.137 184.251Z" fill="#D9E5FD"/>
<path d="M272.718 201.379C272.23 201.38 272.072 202.537 271.643 202.515C271.215 202.493 271.224 201.336 270.374 200.173C270.221 199.963 269.255 198.642 268.611 198.821C267.392 199.162 268.402 204.599 266.639 205.256C266.252 205.401 265.69 205.33 264.471 205.739C263.986 205.902 263.737 206.026 263.671 206.249C263.578 206.566 263.935 206.805 264.487 207.529C265.317 208.614 265.096 208.839 265.814 209.609C266.347 210.181 266.748 210.358 266.688 210.627C266.604 211.008 265.746 210.899 265.569 211.341C265.388 211.792 266.038 212.511 266.589 212.941C267.623 213.748 268.604 213.771 269.516 214C270.506 214.249 271.878 214.857 273.36 216.499L285.993 231.55C283.453 228.373 276.603 219.473 274.16 215.989C273.455 214.983 272.763 213.924 272.963 212.701C273.156 211.524 274.152 210.337 274.734 208.42C274.802 208.196 274.984 207.571 274.704 207.314C274.473 207.102 274.137 207.335 273.918 207.141C273.624 206.879 273.99 206.247 274.061 205.248C274.112 204.544 273.99 204.015 273.885 203.56C273.853 203.423 273.368 201.376 272.718 201.379Z" fill="#D9E5FD"/>
<path d="M282.458 203.564L282.164 200.938L282.298 200.739C282.921 199.818 283.238 198.919 283.241 198.065C283.242 197.93 283.236 197.794 283.229 197.656C283.204 197.108 283.172 196.427 283.527 195.633C283.726 195.191 284.286 194.166 285.126 194.293C285.353 194.324 285.524 194.428 285.654 194.55C285.673 194.52 285.693 194.489 285.714 194.456C285.975 194.057 286.183 193.886 286.383 193.721C286.536 193.594 286.695 193.463 286.943 193.154C287.052 193.018 287.137 192.899 287.209 192.799C287.426 192.496 287.71 192.134 288.211 192.141C288.746 192.166 289.027 192.609 289.212 192.902C289.544 193.424 289.694 193.801 289.794 194.051C289.83 194.142 289.871 194.245 289.892 194.276C290.065 194.53 291.467 194.293 291.995 194.207C293.181 194.009 294.208 193.837 294.631 194.586C294.934 195.121 294.709 195.828 293.941 196.745C293.702 197.031 293.448 197.248 293.222 197.417C293.409 197.529 293.577 197.7 293.645 197.969C293.804 198.606 293.257 199.244 292.019 199.868C291.711 200.024 291.297 200.232 290.717 200.332C290.444 200.379 290.198 200.39 289.987 200.396C289.983 200.518 289.954 200.65 289.88 200.786C289.663 201.185 289.21 201.375 288.528 201.33C287.777 201.29 287.159 201.147 286.613 201.022C286.137 200.913 285.727 200.82 285.405 200.841C284.808 200.89 284.347 201.368 283.807 201.988L282.458 203.564Z" fill="#D9E5FD"/>
<path d="M283.827 187.925L281.361 188.875L281.134 188.796C280.086 188.428 279.136 188.349 278.309 188.562C278.178 188.596 278.048 188.636 277.916 188.677C277.393 188.841 276.742 189.044 275.884 188.902C275.406 188.822 274.273 188.541 274.182 187.695C274.155 187.468 274.212 187.276 274.297 187.12C274.263 187.109 274.228 187.098 274.191 187.086C273.738 186.934 273.52 186.777 273.31 186.625C273.148 186.509 272.982 186.389 272.62 186.227C272.461 186.156 272.324 186.104 272.209 186.06C271.86 185.927 271.439 185.744 271.318 185.257C271.207 184.733 271.564 184.35 271.8 184.096C272.221 183.643 272.547 183.402 272.764 183.242C272.843 183.184 272.932 183.118 272.957 183.09C273.159 182.859 272.574 181.563 272.356 181.074C271.864 179.976 271.438 179.027 272.055 178.428C272.495 177.999 273.237 178.037 274.318 178.547C274.655 178.706 274.929 178.896 275.151 179.072C275.211 178.862 275.335 178.657 275.577 178.523C276.153 178.207 276.909 178.575 277.826 179.614C278.055 179.872 278.361 180.22 278.605 180.756C278.72 181.008 278.793 181.243 278.853 181.445C278.972 181.419 279.107 181.413 279.257 181.45C279.698 181.559 279.997 181.949 280.126 182.621C280.278 183.357 280.297 183.991 280.314 184.55C280.329 185.039 280.343 185.459 280.446 185.765C280.644 186.331 281.223 186.655 281.96 187.02L283.827 187.925Z" fill="#D9E5FD"/>
<path d="M282.458 180.189L282.164 177.563L282.298 177.364C282.921 176.443 283.238 175.544 283.241 174.69C283.242 174.555 283.236 174.419 283.229 174.281C283.204 173.733 283.172 173.052 283.527 172.258C283.726 171.816 284.286 170.791 285.126 170.918C285.353 170.949 285.524 171.053 285.654 171.175C285.673 171.145 285.693 171.114 285.714 171.081C285.975 170.682 286.183 170.511 286.383 170.346C286.536 170.219 286.695 170.088 286.943 169.779C287.052 169.643 287.137 169.524 287.209 169.424C287.426 169.121 287.71 168.759 288.211 168.766C288.746 168.791 289.027 169.234 289.212 169.527C289.544 170.049 289.694 170.426 289.794 170.676C289.83 170.767 289.871 170.87 289.892 170.901C290.065 171.155 291.467 170.918 291.995 170.832C293.181 170.634 294.208 170.462 294.631 171.211C294.934 171.746 294.709 172.453 293.941 173.37C293.702 173.656 293.448 173.873 293.222 174.042C293.409 174.154 293.577 174.325 293.645 174.594C293.804 175.231 293.257 175.869 292.019 176.493C291.711 176.649 291.297 176.857 290.717 176.957C290.444 177.004 290.198 177.015 289.987 177.021C289.983 177.143 289.954 177.275 289.88 177.411C289.663 177.81 289.21 178 288.528 177.955C287.777 177.915 287.159 177.772 286.613 177.647C286.137 177.538 285.727 177.445 285.405 177.466C284.808 177.515 284.347 177.993 283.807 178.613L282.458 180.189Z" fill="#D9E5FD"/>
<path d="M285.146 231.171L284.596 230.826L283.954 230.899C283.944 230.84 283.909 230.703 283.856 230.488C283.569 229.314 282.693 225.74 281.963 220.112C281.453 216.184 281.165 212.145 281.105 208.106C281.045 204.06 281.237 200.998 281.39 198.536C281.506 196.68 281.647 194.912 281.785 193.19C282.153 188.589 282.5 184.243 282.242 179.431C282.185 178.357 282.065 176.122 280.759 173.743C280.001 172.363 278.957 171.138 277.656 170.103L278.465 169.086C279.901 170.23 281.056 171.587 281.898 173.119C283.346 175.756 283.476 178.193 283.539 179.363C283.802 184.259 283.451 188.647 283.079 193.292C282.943 195.008 282.802 196.768 282.686 198.617C282.534 201.056 282.345 204.092 282.404 208.085C282.462 212.076 282.747 216.066 283.25 219.945C283.972 225.502 284.835 229.022 285.118 230.179C285.269 230.797 285.301 230.926 285.146 231.171Z" fill="#D9E5FD"/>
<path d="M275.276 172.165C275.223 172.165 275.169 172.164 275.114 172.16C274.008 172.1 272.984 171.438 272.07 170.193C271.641 169.607 271.422 168.939 270.984 167.606C270.917 167.401 270.587 166.358 270.386 164.924C270.255 163.987 270.272 163.595 270.457 163.249C270.664 162.863 270.997 162.594 271.372 162.413C271.356 162.289 271.369 162.161 271.423 162.03C271.644 161.489 272.233 161.56 272.551 161.594C272.712 161.614 272.913 161.641 273.13 161.629C273.471 161.613 273.654 161.511 273.932 161.359C274.198 161.213 274.528 161.032 275.018 160.932C275.985 160.73 276.794 161.004 277.061 161.094C278.466 161.562 279.158 162.654 279.96 163.918C280.119 164.172 280.668 165.095 281.03 166.361C281.291 167.274 281.254 167.68 281.176 167.981C281.016 168.602 280.639 168.957 279.681 169.74C278.68 170.561 278.178 170.972 277.747 171.222C276.743 171.801 276.113 172.165 275.276 172.165Z" fill="#D9E5FD"/>
<path d="M25.9722 201.379C25.4839 201.38 25.3255 202.537 24.8965 202.515C24.469 202.493 24.4775 201.336 23.6278 200.173C23.4745 199.963 22.5088 198.642 21.8653 198.821C20.6455 199.162 21.6562 204.599 19.8929 205.256C19.5059 205.401 18.9443 205.33 17.7249 205.739C17.2398 205.902 16.9908 206.026 16.925 206.249C16.8316 206.566 17.1885 206.805 17.7414 207.529C18.5706 208.614 18.3503 208.839 19.068 209.609C19.6009 210.181 20.0022 210.358 19.9424 210.627C19.8577 211.008 18.9996 210.899 18.8225 211.341C18.6418 211.792 19.2923 212.511 19.843 212.941C20.8764 213.748 21.8578 213.771 22.7695 214C23.7602 214.249 25.1317 214.857 26.6144 216.499L39.2473 231.55C36.7069 228.373 29.8565 219.473 27.4143 215.989C26.7093 214.983 26.0174 213.924 26.2173 212.701C26.4098 211.524 27.4057 210.337 27.9883 208.42C28.0563 208.196 28.2378 207.571 27.958 207.314C27.7267 207.102 27.3908 207.335 27.1719 207.141C26.8782 206.879 27.2442 206.247 27.3154 205.248C27.3656 204.544 27.2437 204.015 27.1389 203.56C27.1073 203.423 26.6223 201.376 25.9722 201.379Z" fill="#D9E5FD"/>
<path d="M35.7122 203.564L35.418 200.938L35.5524 200.739C36.1744 199.818 36.4915 198.919 36.4953 198.065C36.4959 197.93 36.4896 197.794 36.4832 197.656C36.4579 197.108 36.4262 196.427 36.7812 195.633C36.9803 195.191 37.5396 194.166 38.3804 194.293C38.6067 194.324 38.7779 194.428 38.9079 194.55C38.9269 194.52 38.9466 194.489 38.9675 194.456C39.2294 194.057 39.4367 193.886 39.6365 193.721C39.7899 193.594 39.9484 193.463 40.197 193.154C40.306 193.018 40.391 192.899 40.4627 192.799C40.6802 192.496 40.9642 192.134 41.4651 192.141C42.0003 192.166 42.2806 192.609 42.4663 192.902C42.798 193.424 42.9482 193.801 43.0478 194.051C43.0839 194.142 43.1251 194.245 43.1461 194.276C43.3185 194.53 44.7205 194.293 45.2487 194.207C46.435 194.009 47.4616 193.837 47.8845 194.586C48.1876 195.121 47.9625 195.828 47.1953 196.745C46.9562 197.031 46.702 197.248 46.4762 197.417C46.6633 197.529 46.8307 197.7 46.8985 197.969C47.0583 198.606 46.5111 199.244 45.2728 199.868C44.9652 200.024 44.5512 200.232 43.971 200.332C43.6977 200.379 43.4517 200.39 43.2412 200.396C43.2367 200.518 43.2082 200.65 43.134 200.786C42.9165 201.185 42.4638 201.375 41.7816 201.33C41.0308 201.29 40.4126 201.147 39.8673 201.022C39.3911 200.913 38.9808 200.82 38.6587 200.841C38.0614 200.89 37.6011 201.368 37.0609 201.988L35.7122 203.564Z" fill="#D9E5FD"/>
<path d="M37.0808 187.925L34.615 188.875L34.3883 188.796C33.34 188.428 32.3899 188.349 31.5633 188.562C31.4319 188.596 31.3023 188.636 31.1702 188.677C30.6467 188.841 29.996 189.044 29.138 188.902C28.6594 188.822 27.5264 188.541 27.4358 187.695C27.4091 187.468 27.4662 187.276 27.551 187.12C27.5168 187.109 27.4823 187.098 27.4451 187.086C26.9923 186.934 26.7741 186.777 26.564 186.625C26.4024 186.509 26.2358 186.389 25.8735 186.227C25.7146 186.156 25.5777 186.104 25.4626 186.06C25.1143 185.927 24.6926 185.744 24.5717 185.257C24.4605 184.733 24.8175 184.35 25.0538 184.096C25.475 183.643 25.8012 183.402 26.0176 183.242C26.0968 183.184 26.1857 183.118 26.2111 183.09C26.4126 182.859 25.8277 181.563 25.6103 181.074C25.118 179.976 24.692 179.027 25.3085 178.428C25.7493 177.999 26.4908 178.037 27.5723 178.547C27.909 178.706 28.1832 178.896 28.4049 179.072C28.4654 178.862 28.5885 178.657 28.8314 178.523C29.4066 178.207 30.1624 178.575 31.0801 179.614C31.3089 179.872 31.6152 180.22 31.8592 180.756C31.9739 181.008 32.0474 181.243 32.1069 181.445C32.2258 181.419 32.3606 181.413 32.5107 181.45C32.9522 181.559 33.2511 181.949 33.38 182.621C33.5324 183.357 33.5506 183.991 33.5675 184.55C33.5828 185.039 33.5972 185.459 33.6998 185.765C33.8979 186.331 34.4772 186.655 35.214 187.02L37.0808 187.925Z" fill="#D9E5FD"/>
<path d="M35.7122 180.189L35.418 177.563L35.5524 177.364C36.1744 176.443 36.4915 175.544 36.4953 174.69C36.4959 174.555 36.4896 174.419 36.4832 174.281C36.4579 173.733 36.4262 173.052 36.7812 172.258C36.9803 171.816 37.5396 170.791 38.3804 170.918C38.6067 170.949 38.7779 171.053 38.9079 171.175C38.9269 171.145 38.9466 171.114 38.9675 171.081C39.2294 170.682 39.4367 170.511 39.6365 170.346C39.7899 170.219 39.9484 170.088 40.197 169.779C40.306 169.643 40.391 169.524 40.4627 169.424C40.6802 169.121 40.9642 168.759 41.4651 168.766C42.0003 168.791 42.2806 169.234 42.4663 169.527C42.798 170.049 42.9482 170.426 43.0478 170.676C43.0839 170.767 43.1251 170.87 43.1461 170.901C43.3185 171.155 44.7205 170.918 45.2487 170.832C46.435 170.634 47.4616 170.462 47.8845 171.211C48.1876 171.746 47.9625 172.453 47.1953 173.37C46.9562 173.656 46.702 173.873 46.4762 174.042C46.6633 174.154 46.8307 174.325 46.8985 174.594C47.0583 175.231 46.5111 175.869 45.2728 176.493C44.9652 176.649 44.5512 176.857 43.971 176.957C43.6977 177.004 43.4517 177.015 43.2412 177.021C43.2367 177.143 43.2082 177.275 43.134 177.411C42.9165 177.81 42.4638 178 41.7816 177.955C41.0308 177.915 40.4126 177.772 39.8673 177.647C39.3911 177.538 38.9808 177.445 38.6587 177.466C38.0614 177.515 37.6011 177.993 37.0609 178.613L35.7122 180.189Z" fill="#D9E5FD"/>
<path d="M38.3999 231.171L37.8495 230.826L37.2078 230.899C37.1976 230.84 37.1628 230.703 37.1102 230.488C36.8229 229.314 35.9473 225.74 35.2168 220.112C34.707 216.184 34.4185 212.145 34.3589 208.106C34.2993 204.06 34.4908 200.998 34.6442 198.536C34.7603 196.68 34.901 194.912 35.0392 193.19C35.407 188.589 35.7538 184.243 35.4958 179.431C35.4387 178.357 35.3189 176.122 34.0127 173.743C33.255 172.363 32.2113 171.138 30.9102 170.103L31.7192 169.086C33.1554 170.23 34.31 171.587 35.1515 173.119C36.5997 175.756 36.7303 178.193 36.7931 179.363C37.0556 184.259 36.705 188.647 36.3334 193.292C36.1964 195.008 36.0557 196.768 35.9403 198.617C35.7881 201.056 35.5985 204.092 35.6575 208.085C35.7158 212.076 36.0011 216.066 36.504 219.945C37.2255 225.502 38.0885 229.022 38.3719 230.179C38.5229 230.797 38.5546 230.926 38.3999 231.171Z" fill="#D9E5FD"/>
<path d="M28.5297 172.165C28.4764 172.165 28.4225 172.164 28.368 172.16C27.2622 172.1 26.2381 171.438 25.3238 170.193C24.8952 169.607 24.6758 168.939 24.2383 167.606C24.1704 167.401 23.8407 166.358 23.6403 164.924C23.5091 163.987 23.5256 163.595 23.7114 163.249C23.9174 162.863 24.251 162.594 24.6263 162.413C24.6099 162.289 24.6232 162.161 24.6771 162.03C24.8983 161.489 25.4868 161.56 25.8051 161.594C25.9661 161.614 26.1671 161.641 26.384 161.629C26.7251 161.613 26.9084 161.511 27.1861 161.359C27.4518 161.213 27.7821 161.032 28.2723 160.932C29.2386 160.73 30.0483 161.004 30.3152 161.094C31.7197 161.562 32.4121 162.654 33.2136 163.918C33.3734 164.172 33.9218 165.095 34.2839 166.361C34.5451 167.274 34.5084 167.68 34.4297 167.981C34.2699 168.602 33.8927 168.957 32.9346 169.74C31.934 170.561 31.4318 170.972 31.0007 171.222C29.9969 171.801 29.3667 172.165 28.5297 172.165Z" fill="#D9E5FD"/>
</svg>
