<svg width="365" height="168" viewBox="0 0 365 168" fill="none" xmlns="http://www.w3.org/2000/svg">
<path d="M2.37881 137.234C4.88725 138.116 7.5805 138.337 10.1991 137.875C12.8177 137.414 15.2734 136.286 17.3295 134.601C22.566 130.205 24.2081 122.966 25.5437 116.261L29.4949 96.4297L21.2226 102.126C15.2733 106.222 9.19037 110.45 5.07149 116.383C0.952614 122.316 -0.844322 130.416 2.46409 136.836" fill="#E6E6E6"/>
<path d="M3.65676 162.617C2.61558 155.032 1.54433 147.348 2.27641 139.681C2.92519 132.872 5.00262 126.223 9.23193 120.768C11.4768 117.879 14.2085 115.404 17.304 113.454C18.1111 112.944 18.854 114.223 18.0504 114.73C12.6941 118.115 8.55114 123.114 6.21882 129.005C3.64297 135.557 3.22936 142.698 3.67305 149.658C3.94123 153.866 4.51113 158.047 5.08347 162.224C5.12866 162.412 5.10044 162.611 5.00454 162.78C4.90863 162.949 4.75218 163.075 4.56683 163.133C4.37774 163.184 4.1762 163.158 4.00592 163.062C3.83565 162.965 3.71037 162.805 3.65728 162.616L3.65676 162.617Z" fill="#F2F2F2"/>
<path d="M11.1445 150.448C12.2202 152.084 13.699 153.414 15.4383 154.312C17.1777 155.21 19.119 155.645 21.0752 155.575C26.1037 155.336 30.294 151.828 34.0659 148.497L45.2246 138.645L37.8396 138.291C32.5287 138.037 27.0808 137.798 22.0222 139.438C16.9637 141.077 12.2986 145.017 11.3738 150.253" fill="#E6E6E6"/>
<path d="M0.714458 166.991C5.72712 158.122 11.5409 148.265 21.93 145.114C24.8185 144.241 27.8472 143.928 30.8531 144.193C31.8006 144.274 31.5639 145.735 30.6184 145.653C25.5797 145.235 20.5507 146.565 16.3781 149.421C12.3627 152.154 9.2362 155.954 6.59035 159.983C4.96942 162.451 3.51758 165.024 2.06573 167.594C1.60182 168.415 0.245143 167.822 0.714458 166.991Z" fill="#F2F2F2"/>
<path d="M358.467 132.286C357.009 133.592 355.239 134.501 353.328 134.924C351.417 135.348 349.429 135.272 347.555 134.704C342.755 133.189 339.6 128.726 336.805 124.541L328.535 112.164L335.765 113.71C340.965 114.821 346.293 115.983 350.764 118.861C355.236 121.739 358.739 126.74 358.295 132.039" fill="#E6E6E6"/>
<path d="M364.329 150.944C361.749 141.088 358.648 130.073 349.409 124.371C346.839 122.789 343.991 121.713 341.018 121.2C340.081 121.037 339.936 122.509 340.871 122.672C345.85 123.556 350.371 126.127 353.676 129.954C356.859 133.623 358.911 138.095 360.439 142.667C361.375 145.468 362.121 148.326 362.868 151.181C363.107 152.094 364.57 151.867 364.329 150.944Z" fill="#F2F2F2"/>
<path opacity="0.16" d="M115.845 109.835C110.486 109.97 105.128 110.073 99.7715 110.098C90.2257 110.143 77.7134 107.902 70.5884 116.435C67.0008 120.732 68.1813 129.3 73.8722 130.819C75.4825 131.249 77.2164 131.202 78.727 131.934C80.2377 132.666 81.4348 134.658 80.5963 136.18C80.1676 136.958 79.3426 137.375 78.5516 137.702C73.549 139.769 68.0044 140.031 63.0276 142.167C51.2024 147.242 53.2442 157.443 63.9943 160.735C73.6617 163.696 84.4127 163.286 94.3796 163.487C152.712 164.66 211.202 166.053 269.211 162.098C281.722 161.245 294.16 160.168 306.616 159.164C312.317 158.705 319.452 157.507 319.475 154.824C319.49 152.956 315.727 151.563 312.017 150.834C305.521 149.557 297.04 148.446 298.268 144.268C298.715 142.744 300.83 141.346 303.767 140.631C306.036 140.08 308.645 139.934 311.105 139.602C313.565 139.27 316.086 138.66 317.12 137.573C319.905 134.645 312.892 132.903 307.956 132.636C302.043 132.316 297.222 130.259 299.261 127.154C300.681 124.992 305.301 123.53 306.706 121.365C307.272 120.495 307.271 119.558 306.895 118.666C303.142 109.753 283.538 110.517 276.232 109.85C262.715 108.615 249.138 108.38 235.579 108.269C204.821 108.018 174.062 108.437 143.31 109.087C134.159 109.281 125.002 109.605 115.845 109.835Z" fill="#272525"/>
<path d="M277.973 37.7566C278.281 37.1561 287.318 24.7266 287.318 24.7266L290.012 26.8684L284.485 42.2132L279.709 41.9106L277.973 37.7566Z" fill="#D1D0E2"/>
<path d="M295.281 35.8105L287.671 30.9455C287.525 30.8519 287.48 30.6286 287.57 30.4466L294.455 16.5668C294.546 16.3838 294.751 16.2851 294.914 16.3463L303.386 19.5296C303.591 19.6063 303.674 19.8356 303.571 20.0416L295.799 35.6524C295.697 35.8575 295.465 35.9278 295.281 35.8105Z" fill="#3B455A"/>
<path d="M295.87 34.2104L288.457 29.6702L294.654 17.1797L302.777 20.3349L295.87 34.2104Z" fill="#69739C"/>
<path d="M291.993 32.9463L291.113 32.3931L291.231 32.1562L292.112 32.7064L291.993 32.9463Z" fill="white"/>
<path d="M279.701 69.3483C270.363 53.0289 251.336 45.4167 234.098 50.4962C234.065 50.5056 234.034 50.5078 234.001 50.5138C228.705 52.6117 224.301 56.6361 222.441 62.944C222.032 64.33 219.974 63.7556 220.386 62.3599C222.379 55.5991 226.939 51.1733 232.488 48.7579C226.239 28.4275 207.594 14.1464 187.248 15.9225C167.226 17.6705 151.078 33.9863 147.37 54.7732C149.057 55.184 150.716 55.7593 152.324 56.5218C158.72 59.5555 163.708 64.8368 167.279 71.1814C167.986 72.4362 166.156 73.5895 165.452 72.3387C164.277 70.2511 162.915 68.2804 161.372 66.4824C155.648 59.8085 147.511 55.8723 138.971 56.3495C130.342 56.8318 121.079 61.8143 115.321 68.5733C108.724 76.3191 105.215 86.7489 106.187 97.2187C107.142 107.495 112.249 117.041 120.094 123.158C127.371 128.83 135.803 131.366 144.743 131.653C150.606 131.842 156.474 131.881 162.339 131.917C179.103 132.018 195.868 131.948 212.632 131.854C219.997 131.813 227.362 131.763 234.727 131.707C240.777 131.66 247.148 132.121 253.098 130.85C272.556 126.691 287.155 107.56 285.041 86.1503C284.454 80.2128 282.619 74.4484 279.701 69.3483Z" fill="#2851EF"/>
<path opacity="0.1" d="M283.77 86.386C283.735 86.0221 283.694 85.6592 283.648 85.2969C283.157 95.7382 278.267 105.353 268.664 110.268C258.798 115.319 248.168 119.424 237.409 120.782C209.161 124.346 179.094 125.191 150.615 125.814C141.525 126.02 133.003 125.575 121.956 125.013C121.866 125.008 121.798 125.11 121.719 125.164C127.362 128.76 133.637 130.827 140.278 131.686C141.335 131.787 142.4 131.855 143.472 131.889C149.335 132.078 155.202 132.117 161.067 132.153C177.521 132.252 193.976 132.186 210.43 132.095C212.494 132.077 214.559 132.061 216.623 132.043C224.249 131.975 231.875 131.899 239.501 131.818C241.729 131.794 244 131.828 246.278 131.828C248.153 131.7 250.009 131.474 251.827 131.086C271.285 126.927 285.884 107.795 283.77 86.386Z" fill="black"/>
<path d="M299.421 68.0391L304.757 81.698L312.44 125.023L307.744 125.663L295.579 85.9665L284.055 72.5208L299.421 68.0391Z" fill="#292949"/>
<path d="M288.321 70.5938C288.961 71.0206 292.589 88.5212 292.589 88.5212L294.297 126.51L289.388 127.151L281.705 90.2289L273.809 82.1187L288.321 70.5938Z" fill="#292949"/>
<path d="M272.304 19.4488C269.145 17.0007 263.975 17.1237 260.357 18.0883C253.955 19.7957 255.662 41.7777 253.528 53.3027C251.946 61.8461 251.34 72.681 259.397 78.237C267.187 83.6091 266.333 90.4384 274.016 86.3835C281.699 82.3286 301.121 83.6091 301.761 70.3767C302.008 65.256 285.886 53.9119 283.833 47.7539C281.948 42.0973 279.98 36.4641 277.883 30.882C276.585 27.4254 275.466 21.8996 272.304 19.4488Z" fill="#D1D0E2"/>
<path d="M262.285 24.2812L277.652 43.4892L295.793 32.818L298.354 36.8732L277.652 52.8797L261.645 41.1417L257.59 29.6167L262.285 24.2812Z" fill="#D1D0E2"/>
<path d="M269.914 6.46584C272.338 7.31136 274.125 9.73099 274.22 12.2957C275.657 11.1312 276.479 9.24779 276.356 7.40285C276.233 5.55791 275.169 3.79991 273.591 2.83594C272.004 3.54332 270.717 4.89961 270.095 6.52188L269.914 6.46584Z" fill="#3B455A"/>
<path d="M270.394 19.4065C272.396 18.8985 273.939 17.1832 274.661 15.248C275.383 13.3128 275.386 11.1803 275.142 9.12909C274.33 2.30341 265.831 2.8884 263.041 8.17875C260.609 12.7893 264.572 20.884 270.394 19.4065Z" fill="#EAC5B0"/>
<path d="M259.449 63.8821C260.788 63.2208 260.99 61.4501 261.57 60.0741C262.149 58.6981 264.233 57.6218 264.971 58.9196C267.16 58.4785 268.68 56.3382 269.098 54.1452C269.516 51.9521 269.057 49.6979 268.6 47.5128C267.586 42.6708 266.709 37.7764 265.555 32.9662C264.465 28.419 264.601 23.6739 264.697 19.0767C264.745 16.7728 265.721 14.5665 267.058 12.6888C268.394 10.8112 270.082 9.21766 271.747 7.62416C272.439 6.96132 273.157 6.25091 273.418 5.32874C273.707 4.30872 273.368 3.18782 272.741 2.33321C271.776 1.01782 270.572 0.313776 268.988 0.166544C263.43 -0.349373 259.018 2.65615 257.064 7.98467C255.412 12.4898 255.703 17.433 255.673 22.231C255.628 29.446 253.583 37.6491 248.963 43.2806C247.08 45.5754 245.038 47.8672 244.141 50.6967C243.245 53.5266 243.866 57.0968 246.403 58.6366C247.395 59.2383 248.604 59.4949 249.448 60.2898C250.336 61.125 250.316 62.4525 249.41 63.2175C250.481 65.4178 251.939 63.9688 253.504 63.6698C255.412 63.3066 257.737 64.7283 259.449 63.8821Z" fill="#292949"/>
<path d="M294.301 126.516L298.356 130.144V132.064L289.605 130.144V127.156L294.301 126.516Z" fill="#292949"/>
<path d="M312.439 125.016L317.347 126.51V128.857H307.957V125.656L312.439 125.016Z" fill="#292949"/>
<path d="M165.135 75.8793C169.199 67.5828 177.729 61.8559 187.574 61.8559C198.994 61.8559 208.644 69.5622 211.606 80.0469H205.712L214.57 95.3905L223.429 80.0469H218.208C215.101 65.9956 202.547 55.4531 187.574 55.4531C175.189 55.4531 164.458 62.6678 159.36 73.1149C159.345 73.1473 159.328 73.1788 159.312 73.2112L165.085 75.9807C165.101 75.9468 165.118 75.9132 165.135 75.8793Z" fill="white"/>
<path d="M210.106 97.5794C206.081 105.979 197.494 111.794 187.574 111.794C176.247 111.794 166.66 104.213 163.615 93.8592H169.436L160.577 78.5156L151.719 93.8592H157C160.202 107.782 172.693 118.197 187.574 118.197C200.033 118.197 210.818 110.896 215.878 100.349C215.883 100.338 215.888 100.327 215.893 100.317C214.095 99.4486 212.163 98.5161 210.127 97.534C210.12 97.5491 210.113 97.5646 210.106 97.5794Z" fill="white"/>
<path d="M125.164 66.044C127.935 60.9739 126.072 54.617 121.002 51.8454C115.932 49.0739 109.575 50.9372 106.803 56.0073C104.032 61.0774 105.895 67.4343 110.965 70.2058C116.035 72.9774 122.392 71.1141 125.164 66.044Z" fill="#FFB7B7"/>
<path d="M117.704 63.2519C116.45 63.4151 115.504 62.1319 115.065 60.9457C114.626 59.7595 114.292 58.3785 113.202 57.7378C111.712 56.8624 109.806 57.9153 108.102 57.6264C106.178 57.3003 104.928 55.2613 104.829 53.3125C104.731 51.3636 105.507 49.4892 106.268 47.6923L106.534 49.9254C106.498 49.1686 106.657 48.4153 106.996 47.7376C107.335 47.0599 107.842 46.4804 108.469 46.0547L108.126 49.3314C108.199 48.8793 108.361 48.4461 108.601 48.0566C108.842 47.667 109.157 47.3289 109.529 47.0615C109.901 46.7941 110.322 46.6028 110.768 46.4985C111.213 46.3942 111.676 46.379 112.127 46.4537L112.073 48.4061C114.295 48.1418 116.537 47.8772 118.766 48.0785C120.994 48.2798 123.238 48.985 124.928 50.4527C127.454 52.6482 128.377 56.2634 128.067 59.5964C127.758 62.9293 126.382 66.0604 124.948 69.085C124.587 69.846 124.088 70.7047 123.251 70.8017C122.5 70.8888 121.812 70.2604 121.578 69.5407C121.398 68.8022 121.405 68.0305 121.599 67.2954C121.81 66.172 122.076 65.0237 121.878 63.898C121.679 62.7723 120.869 61.6599 119.734 61.5219C118.599 61.3839 117.438 62.681 117.984 63.6856L117.704 63.2519Z" fill="#2F2E41"/>
<path d="M103.072 76.7321L96.4558 98.7145L82.7969 109.172L85.7848 112.8L103.072 103.836L110.542 84.4151C110.542 84.4151 110.329 75.0247 109.902 75.238C109.475 75.4512 103.072 76.7321 103.072 76.7321Z" fill="#D1D0E2"/>
<path d="M45.2393 128.153L40.3306 123.031L37.7695 124.738L41.3979 132.422H45.1475L45.2393 128.153Z" fill="#292949"/>
<path d="M99.8756 112.364L75.2479 102.102L57.1914 126.663L65.3013 127.517L78.5337 114.071L94.3268 125.596L99.8756 112.364Z" fill="#292949"/>
<path d="M89.8458 120.258C89.2057 120.898 79.1748 121.112 79.1748 121.112L45.0273 127.301V133.703L76.8273 131.569L119.725 136.478L132.103 131.996L134.344 122.072L89.8458 120.258Z" fill="#292949"/>
<path d="M131.754 96.9771C131.648 93.9434 131.649 90.904 131.58 87.8699C131.554 86.7381 130.946 78.6249 129.328 78.6249C129.239 78.6249 129.328 78.8076 129.546 78.3884C126.362 73.3058 126.539 72.6717 114.213 72.5475C108.551 72.4903 107.703 76.1278 103.698 80.7177C103.303 81.1703 103.642 83.5042 103.621 84.1374C103.584 85.2519 103.534 86.3664 103.455 87.4794C103.027 93.4875 102.185 100.301 99.9937 105.929C98.3939 110.039 95.5077 113.281 92.0117 115.884C90.9384 116.683 88.4548 117.744 87.8426 118.881C87.034 120.383 90.0616 121.476 91.1538 121.836C94.1856 122.835 97.3729 123.337 100.54 123.887C100.545 123.889 121.646 133.902 130.608 133.688C131.389 133.67 132.123 133.622 132.816 133.55C137.632 131.11 136.593 124.129 135.818 119.818C134.823 114.28 132.855 109.024 132.206 103.416C131.958 101.275 131.829 99.1274 131.754 96.9771Z" fill="#D1D0E2"/>
<path d="M119.939 70.2188L113.928 71.2854L103.943 77.0723L97.9609 112.368L112.9 117.704L114.933 82.5438L124.338 78.5355L127.84 73.5254L119.939 70.2188Z" fill="#303650"/>
<path d="M112.452 116.394C112.452 116.394 92.2642 123.195 92.3902 122.583L66.2266 113.929L86.6279 108.07L112.452 116.394Z" fill="#24336D"/>
<path d="M123.562 77.1562L120.361 81.4245L116.519 103.62L97.0977 112.371L98.404 116.319L124.629 110.877L129.965 83.9856L130.178 79.5038L128.898 77.1562H123.562Z" fill="#D1D0E2"/>
<path d="M97.2218 112.726L92.4553 112.133L88.3516 116.632L89.6321 118.339C89.6321 118.339 93.687 116.205 93.9006 116.205C94.1142 116.205 98.4085 115.864 98.4085 115.864L97.2218 112.726Z" fill="#FFB7B7"/>
<path d="M88.1178 92.2813L61.1562 88.7344L65.7047 114.281L92.3863 122.587L88.1178 92.2813Z" fill="#2449D7"/>
<path d="M296.211 33.4935L296.213 31.1142L296.64 28.3398H297.707L298.02 31.1639L300.382 26.4219L301.336 28.7664C301.336 28.7664 301.122 33.675 300.909 33.8886C300.695 34.1019 297.707 35.8626 297.707 35.8626L296.211 33.4935Z" fill="#EAC5B0"/>
<path d="M287.512 24.8677L288.529 21.299L290.877 20.4453L294.291 21.0857L293.651 21.9394H291.517L291.09 24.7138L289.469 26.4243L287.512 24.8677Z" fill="#EAC5B0"/>
</svg>
