<svg width="302" height="221" viewBox="0 0 302 221" fill="none" xmlns="http://www.w3.org/2000/svg">
<path d="M301.348 5.64844H138.941V99.3057H301.348V5.64844Z" fill="#E6E6E6"/>
<path d="M296.701 13.6875H143.582V91.8287H296.701V13.6875Z" fill="white"/>
<path d="M301.278 0.242188H138.871V8.62721H301.278V0.242188Z" fill="#2851EF"/>
<path d="M145.101 6.72546C145.959 6.72546 146.655 6.02965 146.655 5.17132C146.655 4.313 145.959 3.61719 145.101 3.61719C144.243 3.61719 143.547 4.313 143.547 5.17132C143.547 6.02965 144.243 6.72546 145.101 6.72546Z" fill="white"/>
<path d="M151.003 6.72546C151.862 6.72546 152.557 6.02965 152.557 5.17132C152.557 4.313 151.862 3.61719 151.003 3.61719C150.145 3.61719 149.449 4.313 149.449 5.17132C149.449 6.02965 150.145 6.72546 151.003 6.72546Z" fill="white"/>
<path d="M156.898 6.72546C157.756 6.72546 158.452 6.02965 158.452 5.17132C158.452 4.313 157.756 3.61719 156.898 3.61719C156.04 3.61719 155.344 4.313 155.344 5.17132C155.344 6.02965 156.04 6.72546 156.898 6.72546Z" fill="white"/>
<path d="M269.376 26.3359H238.438V79.1892H269.376V26.3359Z" fill="#F2F2F2"/>
<path d="M233.314 26.3281H170.91V40.8766H233.314V26.3281Z" fill="#2851EF"/>
<path d="M233.314 44.9297H170.91V60.5831H233.314V44.9297Z" fill="#F2F2F2"/>
<path d="M233.314 64.6406H170.91V79.1891H233.314V64.6406Z" fill="#F2F2F2"/>
<path d="M94.817 117.057C94.823 115.986 94.6025 114.925 94.17 113.945C93.7375 112.964 93.1028 112.087 92.3074 111.369C91.512 110.651 90.5739 110.109 89.5546 109.779C88.5353 109.449 87.4577 109.338 86.3924 109.453C86.0554 109.491 85.7214 109.553 85.3929 109.637L59.6531 87.5742L61.1913 79.2834L48.5045 75.1719L44.6794 88.4584C44.2269 90.053 44.3007 91.751 44.8896 93.3004C45.4786 94.8498 46.5514 96.168 47.9489 97.0593L79.6133 117.087C79.6135 117.336 79.6265 117.585 79.6522 117.832C79.7679 118.898 80.1073 119.926 80.6483 120.851C81.1893 121.776 81.9196 122.577 82.7914 123.2C83.6632 123.823 84.6568 124.255 85.7072 124.467C86.7575 124.679 87.8408 124.667 88.8862 124.431C89.19 124.364 89.4894 124.278 89.7823 124.173C91.2478 123.643 92.5159 122.677 93.416 121.405C94.3161 120.133 94.805 118.615 94.817 117.057Z" fill="#9F616A"/>
<path d="M30.8282 142.648H64.0152C64.0152 143.602 98.2185 144.377 98.2185 144.377C98.7554 144.781 99.2447 145.245 99.677 145.759C100.976 147.309 101.686 149.267 101.682 151.289V152.672C101.681 154.963 100.77 157.16 99.1502 158.781C97.5299 160.401 95.3326 161.311 93.0412 161.312H30.8282C28.5371 161.31 26.3405 160.399 24.7205 158.779C23.1005 157.159 22.1895 154.963 22.1875 152.672V151.289C22.1907 148.998 23.1021 146.803 24.7218 145.183C26.3416 143.563 28.5375 142.652 30.8282 142.648Z" fill="#3F3D56"/>
<path d="M66.9277 160.969H57.9414V219.034H66.9277V160.969Z" fill="#3F3D56"/>
<path d="M92.5024 219.755C92.5024 220.843 78.885 220.176 62.0871 220.176C45.2892 220.176 31.6719 220.843 31.6719 219.755C31.6719 218.668 45.2892 210.047 62.0871 210.047C78.885 210.047 92.5024 218.668 92.5024 219.755Z" fill="#3F3D56"/>
<path d="M84.3923 211.91L92.8664 211.91L96.8982 189.93L84.3906 189.931L84.3923 211.91Z" fill="#9F616A"/>
<path d="M82.2271 220.131L109.553 220.13V219.784C109.553 218.388 109.278 217.005 108.743 215.714C108.209 214.424 107.425 213.251 106.438 212.264C105.45 211.276 104.278 210.493 102.987 209.958C101.697 209.424 100.314 209.148 98.9172 209.148H98.9161L82.2266 209.149L82.2271 220.131Z" fill="#2F2E41"/>
<path d="M97.063 198.286L113.958 160.4C115.368 157.207 115.524 153.6 114.395 150.297C113.265 146.994 110.933 144.237 107.862 142.577L71.2161 122.926L54.4938 121.504L39.0687 120.102L38.9575 120.29C38.8152 120.53 35.4986 126.259 37.7405 132.54C39.441 137.305 43.8642 141.026 50.8874 143.602C67.28 149.612 86.2168 154.749 93.5975 156.679C93.9237 156.762 94.2286 156.914 94.492 157.123C94.7555 157.333 94.9715 157.596 95.126 157.895C95.281 158.191 95.373 158.515 95.3963 158.848C95.4197 159.181 95.3739 159.516 95.2617 159.83L79.5657 195.094C79.4018 195.541 79.3428 196.02 79.3932 196.494C79.4437 196.968 79.6022 197.423 79.8566 197.826C80.111 198.229 80.4546 198.568 80.8607 198.817C81.2668 199.066 81.7247 199.218 82.199 199.262L93.9272 200.116C94.0268 200.125 94.1259 200.13 94.2245 200.13C94.8252 200.13 95.4129 199.956 95.9167 199.628C96.4204 199.301 96.8186 198.835 97.063 198.286Z" fill="#CBCBCB"/>
<path d="M78.8646 211.91L87.3386 211.91L91.3709 189.93L78.8633 189.931L78.8646 211.91Z" fill="#9F616A"/>
<path d="M76.6997 220.131L104.025 220.13V219.784C104.025 218.388 103.75 217.005 103.216 215.714C102.681 214.424 101.898 213.251 100.91 212.264C99.9228 211.276 98.7503 210.493 97.46 209.958C96.1696 209.424 94.7866 209.148 93.3899 209.148H93.3888L76.6992 209.149L76.6997 220.131Z" fill="#2F2E41"/>
<path d="M90.845 200.364L107.74 162.478C109.15 159.284 109.306 155.677 108.177 152.374C107.047 149.071 104.715 146.315 101.644 144.654L64.9981 125.003L48.2758 123.581L36.1941 122.533L36.1957 122.367C36.0535 122.608 32.7369 128.336 34.9788 134.617C36.6793 139.382 37.6462 143.104 44.6694 145.679C61.062 151.69 79.9988 156.827 87.3796 158.756C87.7057 158.839 88.0106 158.991 88.274 159.201C88.5375 159.41 88.7535 159.673 88.908 159.972C89.063 160.268 89.155 160.593 89.1783 160.926C89.2017 161.259 89.1559 161.593 89.0437 161.907L73.3477 197.171C73.1838 197.619 73.1248 198.098 73.1752 198.571C73.2257 199.045 73.3842 199.501 73.6386 199.903C73.8931 200.306 74.2366 200.645 74.6427 200.894C75.0488 201.143 75.5067 201.295 75.981 201.339L87.7092 202.193C87.8088 202.203 87.9079 202.207 88.0065 202.207C88.6072 202.207 89.1949 202.033 89.6987 201.706C90.2024 201.379 90.6005 200.912 90.845 200.364Z" fill="#CBCBCB"/>
<path d="M59.0066 123.215C59.8166 122.642 71.4492 128.745 73.523 123.906C63.8454 99.7121 70.5143 89.2647 64.5863 75.3906C63.5422 72.9976 61.9692 70.8725 59.9857 69.1748C58.0022 67.4771 55.6597 66.2511 53.1343 65.5888L37.7542 64.8125L37.6745 64.851C34.2039 66.5509 31.3735 69.324 29.603 72.7591C27.8325 76.1943 27.2161 80.1086 27.8454 83.9216C27.9001 99.0208 36.9343 110.537 33.7754 121.489C33.6429 121.947 33.6043 122.426 33.6617 122.9C33.7192 123.373 33.8716 123.829 34.1099 124.242C34.3409 124.641 34.6511 124.989 35.0215 125.263C35.392 125.538 35.8147 125.734 36.2636 125.838L56.5717 123.129C57.0461 123.242 57.5391 123.253 58.0179 123.16C58.4966 123.067 58.9501 122.874 59.3482 122.592L59.0066 123.215Z" fill="#2F2E41"/>
<path d="M42.8881 59.0731C52.2648 59.0731 59.8661 51.4718 59.8661 42.0951C59.8661 32.7185 52.2648 25.1172 42.8881 25.1172C33.5114 25.1172 25.9102 32.7185 25.9102 42.0951C25.9102 51.4718 33.5114 59.0731 42.8881 59.0731Z" fill="#9F616A"/>
<path d="M37.4783 57.6702C38.3803 58.0649 40.2276 50.877 39.4001 49.4394C38.1695 47.3014 38.2423 47.3167 37.4253 45.9022C36.6084 44.4877 36.4256 42.5516 37.4835 41.307C38.5414 40.0624 40.9895 40.2275 41.4724 41.788C41.1618 38.824 44.0935 36.4415 46.9975 35.7719C49.9015 35.1024 52.9648 35.5181 55.8848 34.9222C59.2736 34.2308 62.7995 31.3901 61.4475 27.6636C61.2154 27.0431 60.868 26.4722 60.4237 25.981C58.8615 24.2245 56.6762 23.4745 54.5397 22.7493C50.0948 21.2407 45.5284 19.7131 40.8375 19.8797C33.13 20.1533 25.8444 25.4814 23.2476 32.7434C22.9244 33.6495 22.6739 34.58 22.4987 35.526C20.8886 44.1834 25.9161 52.723 34.0815 56.0197L37.4783 57.6702Z" fill="#2F2E41"/>
<path d="M126.513 84.9762L128.46 96.5367C128.482 96.6656 128.467 96.7979 128.419 96.9193L113.144 135.085C113.084 135.236 112.973 135.362 112.831 135.442C112.689 135.521 112.524 135.55 112.364 135.522C112.203 135.495 112.057 135.413 111.95 135.291C111.842 135.169 111.78 135.013 111.773 134.851L111.126 119.514C111.121 119.412 111.139 119.31 111.177 119.216L125.152 84.8265C125.21 84.6831 125.314 84.5625 125.447 84.4832C125.58 84.4039 125.735 84.3701 125.889 84.3871C126.043 84.404 126.187 84.4707 126.3 84.577C126.412 84.6834 126.487 84.8235 126.513 84.9762Z" fill="#3F3D56"/>
<path d="M125.429 85.8594L127.28 95.7911L113.725 130.618L111.965 119.415L125.429 85.8594Z" fill="#2851EF"/>
<path d="M66.1278 134.911C66.4613 136.213 110.248 137.622 110.702 137.228C111.109 136.724 111.462 136.177 111.755 135.599C112.214 134.779 112.639 133.957 112.639 133.957L111.919 120.109L68.7863 115.5C68.7863 115.5 66.8781 127.056 66.279 132.365C66.1437 133.206 66.093 134.059 66.1278 134.911Z" fill="#3F3D56"/>
<path opacity="0.1" d="M106.277 121.57L106.281 133.5L87.2031 132.144L88.0473 120.273L106.277 121.57Z" fill="black"/>
<path opacity="0.1" d="M81.4154 123.635L81.5308 123.621L80.63 128.693L70.0312 127.939L70.3931 122.852L81.4154 123.635Z" fill="black"/>
<path opacity="0.1" d="M66.1278 134.913C66.4613 136.215 110.248 137.624 110.702 137.23C111.109 136.726 111.462 136.179 111.755 135.601L66.279 132.367C66.1437 133.209 66.093 134.061 66.1278 134.913Z" fill="black"/>
<path d="M48.5446 114.233L85.4803 121.126C85.5727 121.358 85.677 121.584 85.7926 121.805C86.2945 122.749 86.9894 123.577 87.8322 124.235C88.675 124.893 89.6469 125.366 90.6846 125.624C91.7264 125.886 92.8123 125.923 93.8694 125.731C94.9264 125.54 95.9304 125.125 96.8141 124.514C98.4149 123.415 99.5346 121.745 99.9438 119.847C100.353 117.949 100.021 115.966 99.0151 114.305C98.0094 112.645 96.4065 111.431 94.5349 110.914C92.6634 110.397 90.6649 110.616 88.9493 111.525C88.6504 111.685 88.3631 111.866 88.0893 112.066L56.0079 101.107L54.3659 92.8359L41.0586 93.7164L42.4375 107.581C42.6048 109.199 43.2893 110.72 44.3894 111.919C45.4895 113.117 46.9467 113.929 48.5446 114.233Z" fill="#9F616A"/>
<path d="M40.6107 99.8936L59.9471 93.5383L55.4365 80.5872C54.8376 78.8675 53.65 77.4149 52.0836 76.486C50.5173 75.5572 48.673 75.2119 46.8767 75.5113C45.0597 75.8141 43.4108 76.7568 42.2278 78.1689C41.0449 79.5811 40.4059 81.3697 40.4263 83.2117L40.6107 99.8936Z" fill="#2F2E41"/>
<path d="M163.271 220.805H1.07805C0.965144 220.805 0.856864 220.76 0.777029 220.68C0.697194 220.6 0.652344 220.492 0.652344 220.379C0.652344 220.266 0.697194 220.158 0.777029 220.078C0.856864 219.998 0.965144 219.953 1.07805 219.953H163.271C163.384 219.953 163.492 219.998 163.572 220.078C163.652 220.158 163.697 220.266 163.697 220.379C163.697 220.492 163.652 220.6 163.572 220.68C163.492 220.76 163.384 220.805 163.271 220.805Z" fill="#CBCBCB"/>
<path d="M226.363 207.392C234.142 211.419 237.601 220.184 237.601 220.184C237.601 220.184 228.447 222.423 220.668 218.397C212.888 214.371 209.43 205.605 209.43 205.605C209.43 205.605 218.584 203.366 226.363 207.392Z" fill="#F1F1F1"/>
<path d="M223.876 210.295C228.518 217.723 237.535 220.462 237.535 220.462C237.535 220.462 239.025 211.157 234.383 203.729C229.741 196.301 220.724 193.562 220.724 193.562C220.724 193.562 219.233 202.867 223.876 210.295Z" fill="#F1F1F1"/>
<path d="M251.819 220.64H203.289C203.176 220.64 203.068 220.596 202.988 220.516C202.908 220.436 202.863 220.328 202.863 220.215C202.863 220.102 202.908 219.994 202.988 219.914C203.068 219.834 203.176 219.789 203.289 219.789H251.819C251.932 219.789 252.04 219.834 252.12 219.914C252.2 219.994 252.245 220.102 252.245 220.215C252.245 220.328 252.2 220.436 252.12 220.516C252.04 220.596 251.932 220.64 251.819 220.64Z" fill="#CBCBCB"/>
</svg>
