<svg width="294" height="275" viewBox="0 0 294 275" fill="none" xmlns="http://www.w3.org/2000/svg">
<path d="M156.655 105.973C156.655 121.391 151.268 134.555 141.017 144.351C133.743 151.306 122.538 161.055 122.538 171.361V179.889H88.4216V171.361C88.4216 160.947 77.173 151.179 69.9426 144.351C59.923 134.898 54.3047 120.841 54.3047 105.973V105.658C54.3487 92.0864 59.7814 79.0885 69.408 69.5227C79.0345 59.9568 92.0665 54.6064 105.638 54.6482C119.209 54.69 132.207 60.1206 141.775 69.7456C151.342 79.3706 156.695 92.4017 156.655 105.973Z" fill="#2851EF"/>
<path d="M122.54 181.086C122.223 181.086 121.918 180.959 121.694 180.735C121.469 180.51 121.343 180.206 121.343 179.888V171.36C121.343 161.334 131.231 151.975 138.451 145.141C139.049 144.574 139.632 144.024 140.191 143.487C150.179 133.939 155.458 120.967 155.458 105.973C155.458 77.9497 133.506 55.9975 105.483 55.9975H105.342C92.1535 56.0123 79.5078 61.2482 70.1693 70.5605C60.8308 79.8727 55.5593 92.5037 55.5074 105.692V105.971C55.5074 120.655 61.0695 134.327 70.7683 143.482C71.2595 143.946 71.7698 144.424 72.2937 144.914C79.6067 151.761 89.6223 161.138 89.6223 171.36V179.888C89.6223 180.206 89.4962 180.51 89.2717 180.735C89.0472 180.959 88.7427 181.086 88.4252 181.086C88.1077 181.086 87.8033 180.959 87.5788 180.735C87.3543 180.51 87.2281 180.206 87.2281 179.888V171.36C87.2281 162.176 77.6515 153.209 70.6573 146.66C70.131 146.167 69.6201 145.688 69.1247 145.221C58.9495 135.616 53.1133 121.31 53.1133 105.971V105.684C53.1931 76.9361 76.61 53.6018 105.338 53.6018H105.486C119.303 53.5299 132.582 58.9496 142.402 68.6686C152.223 78.3875 157.78 91.6096 157.852 105.426C157.853 105.608 157.853 105.791 157.852 105.973C157.852 121.637 152.317 135.207 141.846 145.218C141.284 145.755 140.699 146.309 140.096 146.88C133.193 153.415 123.736 162.364 123.736 171.36V179.888C123.736 180.206 123.61 180.51 123.385 180.735C123.161 180.959 122.856 181.086 122.539 181.086H122.54Z" fill="#3F3D56"/>
<path d="M116.853 196.451H94.1084C93.5793 196.451 93.0718 196.241 92.6976 195.866C92.3235 195.492 92.1133 194.985 92.1133 194.456C92.1133 193.926 92.3235 193.419 92.6976 193.045C93.0718 192.671 93.5793 192.46 94.1084 192.46H116.853C117.382 192.46 117.89 192.671 118.264 193.045C118.638 193.419 118.848 193.926 118.848 194.456C118.848 194.985 118.638 195.492 118.264 195.866C117.89 196.241 117.382 196.451 116.853 196.451Z" fill="#2851EF"/>
<path d="M107.926 209.81H103.031C101.331 209.811 99.6626 209.349 98.2053 208.473C97.9893 208.347 97.8219 208.152 97.7301 207.919C97.6384 207.687 97.6275 207.43 97.6992 207.19C97.7649 206.944 97.9102 206.727 98.1125 206.572C98.3147 206.418 98.5625 206.334 98.8171 206.335H112.14C112.395 206.334 112.643 206.418 112.845 206.572C113.047 206.727 113.193 206.944 113.258 207.19C113.33 207.43 113.319 207.687 113.227 207.919C113.135 208.152 112.968 208.347 112.752 208.473C111.295 209.349 109.626 209.811 107.926 209.81Z" fill="#3F3D56"/>
<path d="M116.855 202.753L93.9752 202.751L93.9043 202.599C93.8368 202.319 93.834 202.028 93.8963 201.747C93.9585 201.467 94.0841 201.204 94.2634 200.979C94.4452 200.749 94.6769 200.563 94.9412 200.435C95.2054 200.307 95.4953 200.241 95.7888 200.242H115.165C115.458 200.241 115.748 200.307 116.012 200.435C116.277 200.563 116.509 200.749 116.69 200.98C116.868 201.201 116.993 201.46 117.056 201.737C117.119 202.014 117.118 202.302 117.054 202.579L117.018 202.733L116.855 202.753Z" fill="#3F3D56"/>
<path d="M52.5701 58.9323C52.0878 58.9329 51.6218 58.758 51.2589 58.4403L34.125 43.4844C33.7325 43.1347 33.4939 42.6443 33.461 42.1196C33.428 41.595 33.6035 41.0786 33.9492 40.6826C34.2949 40.2866 34.7829 40.043 35.3071 40.0048C35.8314 39.9666 36.3496 40.1368 36.749 40.4785L53.8829 55.4345C54.1889 55.7016 54.4062 56.0557 54.5055 56.4496C54.6049 56.8435 54.5816 57.2583 54.4389 57.6386C54.2962 58.0189 54.0408 58.3466 53.7068 58.5778C53.3729 58.8091 52.9763 58.9329 52.5701 58.9327V58.9323Z" fill="#E4E4E4"/>
<path d="M155.551 58.9339C155.144 58.9341 154.748 58.8103 154.414 58.579C154.08 58.3478 153.825 58.0201 153.682 57.6398C153.539 57.2595 153.516 56.8447 153.615 56.4508C153.715 56.0569 153.932 55.7028 154.238 55.4357L171.371 40.4785C171.771 40.1368 172.289 39.9666 172.813 40.0048C173.337 40.043 173.825 40.2866 174.171 40.6826C174.517 41.0786 174.692 41.595 174.659 42.1197C174.626 42.6443 174.388 43.1347 173.995 43.4844L156.861 58.4403C156.499 58.7585 156.033 58.9339 155.551 58.9339Z" fill="#E4E4E4"/>
<path d="M122.538 189.365H88.4209C87.8918 189.365 87.3843 189.155 87.0101 188.78C86.636 188.406 86.4258 187.899 86.4258 187.37C86.4258 186.841 86.636 186.333 87.0101 185.959C87.3843 185.585 87.8918 185.375 88.4209 185.375H122.538C123.067 185.375 123.574 185.585 123.949 185.959C124.323 186.333 124.533 186.841 124.533 187.37C124.533 187.899 124.323 188.406 123.949 188.78C123.574 189.155 123.067 189.365 122.538 189.365Z" fill="#2851EF"/>
<path d="M104.641 137.253L97.5462 179.897H93.4961L100.703 136.598C100.789 136.076 101.08 135.61 101.511 135.302C101.941 134.994 102.477 134.869 102.999 134.956C103.521 135.043 103.988 135.334 104.296 135.764C104.603 136.195 104.728 136.73 104.641 137.253Z" fill="#E6E6E6"/>
<path d="M118.277 179.897H114.227L107.132 137.253C107.046 136.73 107.17 136.195 107.478 135.764C107.786 135.334 108.252 135.043 108.774 134.956C109.297 134.869 109.832 134.994 110.263 135.302C110.693 135.61 110.984 136.076 111.071 136.598L118.277 179.897Z" fill="#E6E6E6"/>
<path d="M92.5117 135.823C92.5117 135.294 92.7219 134.786 93.0961 134.412C93.4702 134.038 93.9777 133.828 94.5069 133.828H116.451C116.98 133.828 117.487 134.038 117.861 134.412C118.236 134.786 118.446 135.294 118.446 135.823C118.446 136.352 118.236 136.859 117.861 137.234C117.487 137.608 116.98 137.818 116.451 137.818H94.5069C93.9777 137.818 93.4702 137.608 93.0961 137.234C92.7219 136.859 92.5117 136.352 92.5117 135.823Z" fill="#E6E6E6"/>
<path d="M105.48 39.0285C104.95 39.0285 104.443 38.8183 104.069 38.4442C103.695 38.07 103.484 37.5625 103.484 37.0334V2.91653C103.484 2.38738 103.695 1.87991 104.069 1.50575C104.443 1.13159 104.95 0.921387 105.48 0.921387C106.009 0.921387 106.516 1.13159 106.89 1.50575C107.265 1.87991 107.475 2.38738 107.475 2.91653V37.0334C107.475 37.5625 107.265 38.07 106.89 38.4442C106.516 38.8183 106.009 39.0285 105.48 39.0285Z" fill="#E4E4E4"/>
<path d="M223.894 269.423H219.003L216.676 250.554H223.895L223.894 269.423Z" fill="#FEB8B8"/>
<path d="M225.149 274.159H209.375V273.959C209.375 272.331 210.022 270.77 211.173 269.618C212.324 268.467 213.886 267.82 215.514 267.82H225.149L225.149 274.159Z" fill="#2F2E41"/>
<path d="M186.73 269.25L182.004 267.986L184.63 249.156L191.605 251.021L186.73 269.25Z" fill="#FEB8B8"/>
<path d="M186.711 274.157L171.473 270.082L171.524 269.889C171.945 268.316 172.973 266.975 174.383 266.16C175.793 265.345 177.468 265.123 179.041 265.544L188.349 268.033L186.711 274.157Z" fill="#2F2E41"/>
<path d="M226.712 163.679L230.809 168.44L225.51 265.181H214.19L208.484 190.742L190.788 267.177L179.02 264.291L189.72 167.208L226.712 163.679Z" fill="#2F2E41"/>
<path d="M192.452 101.225L203.723 95.5698L221.056 95.8747L235.971 103.507L227.485 145.891L231.151 167.989C216.982 171.602 202.148 171.724 187.922 168.345L187.809 168.318C187.809 168.318 196.234 138.424 192.647 129.301L192.452 101.225Z" fill="#E6E6E6"/>
<path d="M225.064 78.625C225.052 75.2432 223.698 72.0046 221.3 69.6199C218.902 67.2353 215.656 65.8995 212.274 65.9058C208.892 65.912 205.651 67.2598 203.262 69.6533C200.873 72.0468 199.531 75.2905 199.531 78.6722C199.531 82.054 200.873 85.2977 203.262 87.6912C205.651 90.0847 208.892 91.4325 212.274 91.4387C215.656 91.445 218.902 90.1092 221.3 87.7246C223.698 85.3399 225.052 82.1013 225.064 78.7195V78.625Z" fill="#FEB8B8"/>
<path d="M190.899 132.114C191.141 132.737 191.517 133.299 192.001 133.761C192.484 134.223 193.063 134.574 193.696 134.788C194.33 135.002 195.002 135.074 195.667 135C196.331 134.926 196.972 134.707 197.542 134.359L220.428 146.457L221.169 140.882L198.931 127.769C198.283 126.849 197.319 126.199 196.223 125.941C195.127 125.684 193.975 125.838 192.985 126.374C191.995 126.909 191.235 127.789 190.851 128.847C190.466 129.905 190.483 131.068 190.898 132.114H190.899Z" fill="#FEB8B8"/>
<path d="M221.399 133.07C221.026 133.625 220.536 134.092 219.963 134.437C219.39 134.782 218.749 134.997 218.084 135.067C217.419 135.137 216.747 135.061 216.114 134.843C215.482 134.626 214.905 134.272 214.424 133.808L189.445 140.605L189.663 133.527L214.511 127.074C215.345 126.318 216.427 125.894 217.553 125.883C218.679 125.871 219.77 126.273 220.619 127.013C221.468 127.752 222.016 128.777 222.16 129.894C222.303 131.01 222.032 132.141 221.398 133.071L221.399 133.07Z" fill="#FEB8B8"/>
<path d="M231.103 103.813L235.974 103.507C235.974 103.507 241.676 111.031 238.513 119.196C238.513 119.196 239.061 148.524 226.432 147.319C213.803 146.114 209.812 146.114 209.812 146.114L213.603 135.54L222.084 132.922C222.084 132.922 219.47 121.392 224.418 116.595L231.103 103.813Z" fill="#E6E6E6"/>
<path d="M195.939 103.544L195.25 100.015C195.25 100.015 185.099 99.7759 183.092 115.159C183.092 115.159 173.963 138.18 182.911 141.144C191.858 144.108 201.7 141.144 201.7 141.144L200.959 130.991L191.115 128.983C191.115 128.983 196.201 122.403 193.432 116.696L195.939 103.544Z" fill="#E6E6E6"/>
<path d="M216.717 84.9C215.779 84.5316 214.739 84.5507 213.746 84.3688C210.198 83.715 207.461 80.0966 207.798 76.5041C207.882 76.0386 207.89 75.5624 207.821 75.0944C207.575 74.0693 206.435 73.5191 205.389 73.3963C204.342 73.2735 203.261 73.4306 202.242 73.1581C200.67 72.7371 199.496 71.3033 199.098 69.7253C198.759 68.1206 198.936 66.4497 199.603 64.9516L200.092 65.97C200.6 65.4308 200.946 64.7599 201.092 64.0336C201.518 64.0566 201.932 64.1887 202.293 64.4174C202.654 64.646 202.95 64.9635 203.153 65.3394C203.784 65.6212 203.707 64.1798 204.336 63.8945C204.619 63.8263 204.918 63.8651 205.174 64.0036C206.56 64.4685 208.029 63.771 209.403 63.2711C211.781 62.4082 214.329 62.117 216.841 62.4211C218.51 62.6248 220.195 63.1182 221.494 64.1846C222.52 65.1144 223.355 66.236 223.95 67.4861C225.553 70.4822 226.761 73.7874 226.728 77.1863C226.695 79.9685 225.839 82.6787 224.268 84.975C223.449 86.1665 220.805 90.2992 219.047 89.8443C216.839 89.2741 219.361 85.9368 216.717 84.9Z" fill="#2F2E41"/>
<path d="M281.212 224.891C280.774 224.153 278.881 224.943 278.533 224.274C278.187 223.607 279.945 222.59 280.95 220.268C281.131 219.849 282.273 217.21 281.428 216.396C279.826 214.853 272.494 221.222 269.928 219.138C269.365 218.68 268.972 217.767 267.268 216.285C266.59 215.695 266.18 215.429 265.783 215.528C265.22 215.668 265.176 216.422 264.572 217.903C263.667 220.125 263.131 219.991 262.604 221.763C262.212 223.079 262.302 223.844 261.841 223.993C261.189 224.204 260.589 222.808 259.762 222.933C258.919 223.061 258.409 224.686 258.248 225.902C257.946 228.186 258.785 229.692 259.249 231.277C259.754 232.998 260.054 235.616 258.888 239.323L247.344 271.849C249.892 265.174 257.272 246.879 260.372 240.08C261.268 238.117 262.256 236.127 264.285 235.341C266.239 234.584 268.923 235.036 272.344 234.212C272.743 234.116 273.852 233.834 273.991 233.181C274.107 232.642 273.455 232.341 273.555 231.836C273.689 231.159 274.972 231.151 276.548 230.369C277.659 229.818 278.351 229.163 278.947 228.6C279.126 228.43 281.794 225.873 281.212 224.891Z" fill="#D9E5FD"/>
<path d="M235.793 242.019C235.304 242.021 235.146 243.177 234.717 243.155C234.289 243.133 234.298 241.976 233.448 240.813C233.295 240.603 232.329 239.282 231.686 239.462C230.466 239.803 231.476 245.239 229.713 245.897C229.326 246.041 228.765 245.971 227.545 246.379C227.06 246.542 226.811 246.666 226.745 246.889C226.652 247.206 227.009 247.446 227.562 248.169C228.391 249.255 228.171 249.479 228.888 250.249C229.421 250.821 229.822 250.998 229.763 251.267C229.678 251.648 228.82 251.54 228.643 251.981C228.462 252.432 229.113 253.151 229.663 253.581C230.697 254.388 231.678 254.411 232.59 254.64C233.58 254.889 234.952 255.498 236.435 257.139L249.068 272.19C246.527 269.013 239.677 260.113 237.235 256.629C236.53 255.624 235.838 254.564 236.038 253.341C236.23 252.164 237.226 250.977 237.809 249.061C237.877 248.837 238.058 248.211 237.778 247.954C237.547 247.742 237.211 247.976 236.992 247.781C236.699 247.519 237.064 246.887 237.136 245.888C237.186 245.184 237.064 244.655 236.959 244.2C236.928 244.063 236.443 242.016 235.793 242.019Z" fill="#D9E5FD"/>
<path d="M245.533 244.204L245.238 241.578L245.373 241.379C245.995 240.458 246.312 239.559 246.316 238.706C246.316 238.57 246.31 238.434 246.304 238.296C246.278 237.748 246.246 237.067 246.602 236.273C246.801 235.831 247.36 234.806 248.201 234.933C248.427 234.965 248.598 235.069 248.728 235.19C248.747 235.16 248.767 235.129 248.788 235.096C249.05 234.697 249.257 234.526 249.457 234.361C249.61 234.234 249.769 234.104 250.017 233.794C250.126 233.658 250.211 233.539 250.283 233.439C250.5 233.136 250.785 232.775 251.285 232.781C251.821 232.806 252.101 233.249 252.287 233.542C252.618 234.064 252.769 234.441 252.868 234.691C252.904 234.782 252.945 234.885 252.966 234.916C253.139 235.17 254.541 234.933 255.069 234.847C256.255 234.649 257.282 234.478 257.705 235.226C258.008 235.761 257.783 236.469 257.016 237.385C256.777 237.671 256.522 237.888 256.297 238.058C256.484 238.169 256.651 238.34 256.719 238.609C256.879 239.246 256.331 239.884 255.093 240.508C254.786 240.664 254.371 240.872 253.791 240.972C253.518 241.019 253.272 241.03 253.062 241.037C253.057 241.158 253.029 241.29 252.954 241.426C252.737 241.825 252.284 242.016 251.602 241.97C250.851 241.931 250.233 241.787 249.688 241.662C249.211 241.553 248.801 241.46 248.479 241.482C247.882 241.53 247.421 242.008 246.881 242.628L245.533 244.204Z" fill="#D9E5FD"/>
<path d="M246.901 228.565L244.435 229.516L244.209 229.436C243.16 229.068 242.21 228.989 241.384 229.202C241.252 229.236 241.123 229.276 240.99 229.318C240.467 229.481 239.816 229.684 238.958 229.542C238.48 229.462 237.347 229.181 237.256 228.336C237.229 228.109 237.287 227.917 237.371 227.76C237.337 227.749 237.303 227.738 237.265 227.726C236.813 227.574 236.594 227.417 236.384 227.266C236.223 227.149 236.056 227.029 235.694 226.867C235.535 226.796 235.398 226.744 235.283 226.7C234.935 226.567 234.513 226.384 234.392 225.897C234.281 225.373 234.638 224.99 234.874 224.736C235.295 224.283 235.622 224.042 235.838 223.882C235.917 223.824 236.006 223.758 236.031 223.73C236.233 223.499 235.648 222.203 235.431 221.714C234.938 220.616 234.512 219.667 235.129 219.068C235.57 218.639 236.311 218.677 237.393 219.187C237.729 219.346 238.004 219.537 238.225 219.712C238.286 219.503 238.409 219.297 238.652 219.163C239.227 218.847 239.983 219.215 240.9 220.255C241.129 220.512 241.435 220.86 241.68 221.396C241.794 221.648 241.868 221.883 241.927 222.086C242.046 222.059 242.181 222.053 242.331 222.09C242.773 222.199 243.071 222.589 243.2 223.261C243.353 223.997 243.371 224.631 243.388 225.19C243.403 225.679 243.418 226.099 243.52 226.405C243.718 226.971 244.297 227.295 245.034 227.66L246.901 228.565Z" fill="#D9E5FD"/>
<path d="M245.533 220.829L245.238 218.203L245.373 218.004C245.995 217.083 246.312 216.184 246.316 215.331C246.316 215.195 246.31 215.059 246.304 214.921C246.278 214.373 246.246 213.692 246.602 212.898C246.801 212.456 247.36 211.431 248.201 211.558C248.427 211.59 248.598 211.694 248.728 211.815C248.747 211.785 248.767 211.754 248.788 211.721C249.05 211.322 249.257 211.151 249.457 210.986C249.61 210.859 249.769 210.729 250.017 210.419C250.126 210.283 250.211 210.164 250.283 210.064C250.5 209.761 250.785 209.4 251.285 209.406C251.821 209.431 252.101 209.874 252.287 210.167C252.618 210.689 252.769 211.066 252.868 211.316C252.904 211.407 252.945 211.51 252.966 211.541C253.139 211.795 254.541 211.558 255.069 211.472C256.255 211.274 257.282 211.103 257.705 211.851C258.008 212.386 257.783 213.094 257.016 214.01C256.777 214.296 256.522 214.513 256.297 214.683C256.484 214.794 256.651 214.965 256.719 215.234C256.879 215.871 256.331 216.509 255.093 217.133C254.786 217.289 254.371 217.497 253.791 217.597C253.518 217.644 253.272 217.655 253.062 217.662C253.057 217.783 253.029 217.915 252.954 218.051C252.737 218.45 252.284 218.641 251.602 218.595C250.851 218.556 250.233 218.412 249.688 218.287C249.211 218.178 248.801 218.085 248.479 218.107C247.882 218.155 247.421 218.633 246.881 219.253L245.533 220.829Z" fill="#D9E5FD"/>
<path d="M248.22 271.811L247.67 271.466L247.028 271.539C247.018 271.48 246.983 271.343 246.93 271.129C246.643 269.954 245.768 266.381 245.037 260.753C244.527 256.824 244.239 252.785 244.179 248.746C244.12 244.7 244.311 241.638 244.465 239.176C244.581 237.32 244.721 235.552 244.86 233.83C245.227 229.229 245.574 224.883 245.316 220.072C245.259 218.997 245.139 216.762 243.833 214.383C243.075 213.003 242.032 211.778 240.73 210.743L241.54 209.726C242.976 210.87 244.13 212.227 244.972 213.759C246.42 216.397 246.551 218.833 246.613 220.003C246.876 224.899 246.525 229.287 246.154 233.932C246.017 235.648 245.876 237.408 245.761 239.257C245.608 241.696 245.419 244.732 245.478 248.725C245.536 252.716 245.821 256.706 246.324 260.585C247.046 266.142 247.909 269.663 248.192 270.819C248.343 271.437 248.375 271.566 248.22 271.811Z" fill="#D9E5FD"/>
<path d="M238.35 212.805C238.297 212.805 238.243 212.804 238.188 212.8C237.082 212.741 236.058 212.079 235.144 210.833C234.715 210.247 234.496 209.579 234.059 208.246C233.991 208.041 233.661 206.998 233.461 205.564C233.329 204.627 233.346 204.235 233.532 203.889C233.738 203.503 234.071 203.234 234.447 203.053C234.43 202.929 234.443 202.801 234.497 202.67C234.719 202.129 235.307 202.2 235.625 202.234C235.786 202.254 235.987 202.281 236.204 202.269C236.545 202.253 236.729 202.151 237.006 201.999C237.272 201.853 237.602 201.672 238.093 201.572C239.059 201.37 239.869 201.644 240.136 201.734C241.54 202.202 242.232 203.294 243.034 204.558C243.194 204.812 243.742 205.735 244.104 207.001C244.365 207.914 244.329 208.32 244.25 208.622C244.09 209.242 243.713 209.597 242.755 210.38C241.754 211.201 241.252 211.612 240.821 211.862C239.817 212.441 239.187 212.805 238.35 212.805Z" fill="#D9E5FD"/>
<path d="M0.46485 273.585C0.464315 273.66 0.499228 273.734 0.567669 273.803C0.63611 273.872 0.73674 273.935 0.863659 273.988C0.990578 274.041 1.1413 274.083 1.30722 274.112C1.47315 274.14 1.65101 274.155 1.83049 274.155H292.491C292.853 274.155 293.2 274.095 293.456 273.988C293.712 273.881 293.856 273.736 293.856 273.585C293.856 273.434 293.712 273.289 293.456 273.182C293.2 273.075 292.853 273.015 292.491 273.015H1.83049C1.65101 273.015 1.47315 273.029 1.30722 273.058C1.1413 273.087 0.990576 273.129 0.863659 273.181C0.736741 273.234 0.636182 273.297 0.567739 273.367C0.499295 273.436 0.464321 273.51 0.46485 273.585Z" fill="#D9E5FD"/>
<path d="M47.816 242.019C47.3276 242.021 47.1692 243.177 46.7402 243.155C46.3127 243.133 46.3213 241.976 45.4715 240.813C45.3183 240.603 44.3526 239.282 43.709 239.462C42.4893 239.803 43.4999 245.239 41.7367 245.897C41.3497 246.041 40.788 245.971 39.5687 246.379C39.0836 246.542 38.8346 246.666 38.7687 246.889C38.6753 247.206 39.0322 247.446 39.5851 248.169C40.4143 249.255 40.194 249.479 40.9118 250.249C41.4446 250.821 41.8459 250.998 41.7861 251.267C41.7015 251.648 40.8433 251.54 40.6662 251.981C40.4855 252.432 41.136 253.151 41.6867 253.581C42.7202 254.388 43.7016 254.411 44.6132 254.64C45.6039 254.889 46.9755 255.498 48.4581 257.139L61.091 272.19C58.5507 269.013 51.7002 260.113 49.258 256.629C48.553 255.624 47.8611 254.564 48.0611 253.341C48.2536 252.164 49.2495 250.977 49.832 249.061C49.9001 248.837 50.0815 248.211 49.8017 247.954C49.5704 247.742 49.2345 247.976 49.0156 247.781C48.722 247.519 49.0879 246.887 49.1591 245.888C49.2093 245.184 49.0874 244.655 48.9826 244.2C48.951 244.063 48.466 242.016 47.816 242.019Z" fill="#D9E5FD"/>
<path d="M57.5559 244.204L57.2617 241.578L57.3962 241.379C58.0182 240.458 58.3352 239.559 58.339 238.706C58.3397 238.57 58.3333 238.434 58.327 238.296C58.3016 237.748 58.2699 237.067 58.625 236.273C58.8241 235.831 59.3833 234.806 60.2241 234.933C60.4505 234.965 60.6217 235.069 60.7517 235.19C60.7707 235.16 60.7904 235.129 60.8113 235.096C61.0731 234.697 61.2805 234.526 61.4802 234.361C61.6337 234.234 61.7922 234.104 62.0407 233.794C62.1498 233.658 62.2348 233.539 62.3064 233.439C62.5239 233.136 62.808 232.775 63.3089 232.781C63.844 232.806 64.1243 233.249 64.3101 233.542C64.6417 234.064 64.792 234.441 64.8915 234.691C64.9277 234.782 64.9689 234.885 64.9898 234.916C65.1623 235.17 66.5642 234.933 67.0924 234.847C68.2788 234.649 69.3053 234.478 69.7283 235.226C70.0314 235.761 69.8063 236.469 69.039 237.385C68.8 237.671 68.5457 237.888 68.32 238.058C68.507 238.169 68.6744 238.34 68.7423 238.609C68.9021 239.246 68.3549 239.884 67.1165 240.508C66.809 240.664 66.3949 240.872 65.8148 240.972C65.5415 241.019 65.2954 241.03 65.0849 241.037C65.0805 241.158 65.052 241.29 64.9778 241.426C64.7603 241.825 64.3076 242.016 63.6253 241.97C62.8746 241.931 62.2563 241.787 61.711 241.662C61.2349 241.553 60.8246 241.46 60.5025 241.482C59.9052 241.53 59.4448 242.008 58.9046 242.628L57.5559 244.204Z" fill="#D9E5FD"/>
<path d="M58.9246 228.565L56.4588 229.516L56.2321 229.436C55.1837 229.068 54.2336 228.989 53.4071 229.202C53.2757 229.236 53.146 229.276 53.0139 229.318C52.4904 229.481 51.8397 229.684 50.9818 229.542C50.5032 229.462 49.3702 229.181 49.2796 228.336C49.2528 228.109 49.31 227.917 49.3948 227.76C49.3605 227.749 49.3261 227.738 49.2889 227.726C48.8361 227.574 48.6179 227.417 48.4077 227.266C48.2461 227.149 48.0796 227.029 47.7172 226.867C47.5583 226.796 47.4215 226.744 47.3064 226.7C46.958 226.567 46.5364 226.384 46.4155 225.897C46.3043 225.373 46.6613 224.99 46.8975 224.736C47.3188 224.283 47.645 224.042 47.8614 223.882C47.9405 223.824 48.0294 223.758 48.0548 223.73C48.2564 223.499 47.6714 222.203 47.454 221.714C46.9617 220.616 46.5358 219.667 47.1522 219.068C47.593 218.639 48.3346 218.677 49.4161 219.187C49.7527 219.346 50.027 219.537 50.2486 219.712C50.3091 219.503 50.4322 219.297 50.6751 219.163C51.2504 218.847 52.0062 219.215 52.9238 220.255C53.1527 220.512 53.4589 220.86 53.703 221.396C53.8177 221.648 53.8911 221.883 53.9507 222.086C54.0696 222.059 54.2043 222.053 54.3544 222.09C54.796 222.199 55.0948 222.589 55.2237 223.261C55.3761 223.997 55.3943 224.631 55.4112 225.19C55.4265 225.679 55.441 226.099 55.5436 226.405C55.7417 226.971 56.3209 227.295 57.0578 227.66L58.9246 228.565Z" fill="#D9E5FD"/>
<path d="M57.5559 220.829L57.2617 218.203L57.3962 218.004C58.0182 217.083 58.3352 216.184 58.339 215.331C58.3397 215.195 58.3333 215.059 58.327 214.921C58.3016 214.373 58.2699 213.692 58.625 212.898C58.8241 212.456 59.3833 211.431 60.2241 211.558C60.4505 211.59 60.6217 211.694 60.7517 211.815C60.7707 211.785 60.7904 211.754 60.8113 211.721C61.0731 211.322 61.2805 211.151 61.4802 210.986C61.6337 210.859 61.7922 210.729 62.0407 210.419C62.1498 210.283 62.2348 210.164 62.3064 210.064C62.5239 209.761 62.808 209.4 63.3089 209.406C63.844 209.431 64.1243 209.874 64.3101 210.167C64.6417 210.689 64.792 211.066 64.8915 211.316C64.9277 211.407 64.9689 211.51 64.9898 211.541C65.1623 211.795 66.5642 211.558 67.0924 211.472C68.2788 211.274 69.3053 211.103 69.7283 211.851C70.0314 212.386 69.8063 213.094 69.039 214.01C68.8 214.296 68.5457 214.513 68.32 214.683C68.507 214.794 68.6744 214.965 68.7423 215.234C68.9021 215.871 68.3549 216.509 67.1165 217.133C66.809 217.289 66.3949 217.497 65.8148 217.597C65.5415 217.644 65.2954 217.655 65.0849 217.662C65.0805 217.783 65.052 217.915 64.9778 218.051C64.7603 218.45 64.3076 218.641 63.6253 218.595C62.8746 218.556 62.2563 218.412 61.711 218.287C61.2349 218.178 60.8246 218.085 60.5025 218.107C59.9052 218.155 59.4448 218.633 58.9046 219.253L57.5559 220.829Z" fill="#D9E5FD"/>
<path d="M60.2436 271.811L59.6932 271.466L59.0515 271.539C59.0414 271.48 59.0065 271.343 58.9539 271.129C58.6667 269.954 57.791 266.381 57.0605 260.753C56.5507 256.824 56.2622 252.785 56.2026 248.746C56.143 244.7 56.3345 241.638 56.488 239.176C56.604 237.32 56.7448 235.552 56.883 233.83C57.2508 229.229 57.5976 224.883 57.3395 220.072C57.2825 218.997 57.1626 216.762 55.8564 214.383C55.0987 213.003 54.055 211.778 52.7539 210.743L53.563 209.726C54.9992 210.87 56.1538 212.227 56.9952 213.759C58.4435 216.397 58.5741 218.833 58.6368 220.003C58.8993 224.899 58.5487 229.287 58.1771 233.932C58.0402 235.648 57.8994 237.408 57.784 239.257C57.6318 241.696 57.4423 244.732 57.5012 248.725C57.5596 252.716 57.8449 256.706 58.3477 260.585C59.0693 266.142 59.9323 269.663 60.2157 270.819C60.3666 271.437 60.3983 271.566 60.2436 271.811Z" fill="#D9E5FD"/>
<path d="M50.3734 212.805C50.3202 212.805 50.2663 212.804 50.2118 212.8C49.1059 212.741 48.0819 212.079 47.1676 210.833C46.7389 210.247 46.5195 209.579 46.082 208.246C46.0142 208.041 45.6845 206.998 45.4841 205.564C45.3528 204.627 45.3693 204.235 45.5551 203.889C45.7612 203.503 46.0947 203.234 46.4701 203.053C46.4536 202.929 46.4669 202.801 46.5208 202.67C46.7421 202.129 47.3305 202.2 47.6488 202.234C47.8099 202.254 48.0109 202.281 48.2277 202.269C48.5689 202.253 48.7521 202.151 49.0298 201.999C49.2955 201.853 49.6259 201.672 50.116 201.572C51.0823 201.37 51.8921 201.644 52.159 201.734C53.5635 202.202 54.2559 203.294 55.0573 204.558C55.2171 204.812 55.7656 205.735 56.1276 207.001C56.3889 207.914 56.3521 208.32 56.2735 208.622C56.1137 209.242 55.7364 209.597 54.7783 210.38C53.7778 211.201 53.2756 211.612 52.8444 211.862C51.8407 212.441 51.2104 212.805 50.3734 212.805Z" fill="#D9E5FD"/>
</svg>
