<svg width="394" height="257" viewBox="0 0 394 257" fill="none" xmlns="http://www.w3.org/2000/svg">
<path d="M137.043 52.4409C134.28 42.3692 156.561 33.7325 162.412 41.8433C163.225 40.6902 166.232 39.9897 167.611 40.3435C168.991 40.6972 170.151 41.5815 171.283 42.4375C172.839 43.6331 174.452 44.8712 175.407 46.5903C176.37 48.3023 176.518 50.6369 175.224 52.1225C174.198 53.3039 171.17 54.068 169.628 54.3793C168.552 54.5986 167.647 54.7754 166.869 54.9028C166.175 53.8911 165.822 52.6389 165.949 51.4151C164.902 52.1083 164.194 53.2968 164.081 54.5561C164.06 54.8179 172.776 86.8865 172.776 86.8865C171.877 87.4171 170.767 87.9123 169.486 88.3651C167.314 85.0896 165.532 81.2269 164.357 77.1874C164.088 79.6847 164.131 82.3942 164.456 85.1462C164.626 86.6106 164.881 88.0821 165.206 89.5536C154.849 91.7891 139.271 91.0534 132.494 81.5453C132.492 81.506 132.491 81.4666 132.49 81.4272C132.442 79.6481 130.014 79.2059 129.365 80.863C129.2 81.2825 129.049 81.6456 128.914 81.9344C126.94 74.874 129.494 66.703 137.043 52.4409Z" fill="#2F2E41"/>
<path d="M277.824 132.312C275.373 135.219 271.031 135.588 268.124 133.138C267.843 132.901 267.581 132.641 267.341 132.362L234.633 142.721L229.543 134.379L268.481 122.359C271.535 120.105 275.839 120.754 278.093 123.809C279.979 126.365 279.868 129.881 277.824 132.312Z" fill="#FFB6B6"/>
<path d="M161.992 106.427C161.992 106.427 176.477 90.1356 182.786 97.0561C189.096 103.977 208.78 134.303 208.78 134.303L254.731 124.609L259.174 136.735L207 153.643C203.077 154.914 198.779 153.596 196.243 150.344L161.992 106.427Z" fill="#FDFDFD"/>
<path d="M193.45 254.934H121.608L121.542 254.373L121.5 253.999L120.883 248.764L120.009 241.309L119.673 238.444C119.649 238.299 119.626 238.159 119.607 238.014C119.313 236.149 119.145 234.275 119.084 232.406C118.995 229.835 119.112 227.269 119.388 224.736V224.722C119.537 223.352 119.729 221.997 119.967 220.655C120.266 218.931 120.626 217.234 121.042 215.575C121.519 213.649 122.061 211.775 122.655 209.966C123.337 207.849 124.085 205.821 124.856 203.904C124.94 203.699 125.024 203.493 125.104 203.292L125.109 203.287C129.175 193.374 133.793 186.602 133.793 186.602H186.131C186.131 186.602 188.552 197.225 189.753 205.998C189.945 207.386 190.103 208.723 190.22 209.966C190.431 212.261 190.491 214.234 190.309 215.575C190.197 216.407 189.991 216.996 189.673 217.267C186.794 219.725 190.089 224.941 190.089 224.941C190.089 224.941 192.557 228.713 190.407 230.835C189.982 231.256 189.739 231.798 189.622 232.406C189.435 233.41 189.599 234.579 189.856 235.612C190.113 236.649 190.468 237.551 190.664 238.014C190.753 238.22 190.809 238.337 190.809 238.337L191.174 241.22L191.529 243.997L192.132 248.764L192.314 249.605L193.254 253.999L193.333 254.373L193.45 254.934Z" fill="#2F2E41"/>
<path d="M157.163 84.1328L135.197 86.0892L131.148 98.6879L126.736 99.3267C119.197 100.418 114.71 108.326 117.639 115.358L121.521 124.677C121.521 124.677 115.819 142.278 122.822 149.673L125.803 182.245L119.08 203.717L197.663 206.254L184.277 179.32L183.881 162.597C183.881 162.597 192.434 132.371 184.504 122.756L181.41 95.4095L165.29 92.9915L157.163 84.1328Z" fill="#FDFDFD"/>
<path d="M172.036 67.9726C174.299 58.2096 168.22 48.4602 158.457 46.1966C148.694 43.9331 138.944 50.0126 136.681 59.7756C134.417 69.5386 140.497 79.2881 150.26 81.5516C160.023 83.8152 169.772 77.7357 172.036 67.9726Z" fill="#FFB6B6"/>
<path d="M127.14 53.8549C124.378 43.7832 146.658 35.1466 152.509 43.2573C153.323 42.1042 156.33 41.4038 157.709 41.7575C159.089 42.1113 160.249 42.9956 161.381 43.8516C162.937 45.0472 164.55 46.2852 165.505 48.0043C166.467 49.7163 166.616 52.0509 165.321 53.5366C164.295 54.718 161.268 55.482 159.725 55.7933C158.65 56.0126 157.744 56.1895 156.966 56.3168C156.273 55.3052 155.919 54.053 156.047 52.8291C155 53.5224 154.292 54.7109 154.179 55.9702C154.158 56.2319 162.873 88.3006 162.873 88.3006C161.975 88.8312 160.864 89.3264 159.584 89.7791C157.412 86.5036 155.629 82.641 154.455 78.6014C154.186 81.0988 154.228 83.8083 154.554 86.5602C154.724 88.0247 154.978 89.4962 155.304 90.9676C144.947 93.2032 129.369 92.4674 122.591 82.9593C122.59 82.92 122.589 82.8806 122.588 82.8413C122.539 81.0621 120.112 80.62 119.462 82.277C119.298 82.6965 119.147 83.0596 119.012 83.3484C117.038 76.2881 119.592 68.1171 127.14 53.8549Z" fill="#2F2E41"/>
<path d="M282.26 255.373H38.2842L0.425781 255.84L265.931 239.989C274.788 239.46 282.26 246.5 282.26 255.373Z" fill="#3F3D56"/>
<path d="M122.794 238.748C124.76 235.494 123.716 231.262 120.462 229.296C120.146 229.106 119.816 228.941 119.475 228.804L118.785 194.501L109.25 192.359L110.367 233.095C109.214 236.711 111.21 240.579 114.827 241.732C117.853 242.698 121.147 241.464 122.794 238.748Z" fill="#FFB6B6"/>
<path d="M129.426 103.41C129.426 103.41 117.741 100.606 114.002 108.551C110.263 116.497 109.944 151.072 109.944 151.072L107.926 221.191L122.747 220.538L134.567 134.257L129.426 103.41Z" fill="#FDFDFD"/>
<path d="M124.181 249.093C124.444 249.422 124.844 249.614 125.265 249.611H201.141C201.912 249.611 202.537 248.985 202.536 248.214C202.535 248.118 202.526 248.023 202.506 247.929L201.328 242.334C201.229 241.871 200.902 241.489 200.459 241.32C200.301 241.258 200.133 241.226 199.963 241.227H126.439C126.269 241.226 126.101 241.258 125.943 241.32C125.5 241.489 125.173 241.871 125.074 242.334L123.896 247.929C123.811 248.34 123.916 248.767 124.181 249.093Z" fill="#CCCCCC"/>
<path d="M95.1328 123.85V211.373C95.1347 213.696 97.0169 215.578 99.3393 215.58H229.039C231.362 215.578 233.244 213.696 233.246 211.373V123.85C233.24 121.53 231.359 119.651 229.039 119.648H99.3393C97.0192 119.651 95.1384 121.53 95.1328 123.85Z" fill="#E6E6E6"/>
<path d="M180.407 196.864C180.253 196.812 180.089 196.789 179.926 196.789H149.583C148.69 196.789 147.961 197.514 147.961 198.406V246.341H181.543V198.406C181.543 197.7 181.085 197.074 180.407 196.864ZM168.236 220.439C168.227 222.421 166.614 224.019 164.633 224.01C162.665 223.996 161.076 222.407 161.067 220.439V214.877C161.085 212.9 162.707 211.311 164.684 211.329C166.638 211.348 168.218 212.928 168.236 214.877V220.439Z" fill="#CCCCCC"/>
<path d="M48.1293 248.645C50.015 251.186 52.3527 253.359 55.0253 255.054C55.5937 255.414 56.1772 255.754 56.7709 256.069H70.7406C70.5734 255.734 70.4108 255.394 70.2535 255.054C65.9221 245.914 64.5638 235.646 66.3697 225.694C68.1755 215.742 73.0547 206.606 80.3213 199.57C71.8774 202.179 64.073 207.263 58.9682 214.474C56.4877 217.985 54.7237 221.951 53.777 226.145C52.9334 217.758 54.2742 209.295 57.6691 201.58C50.8137 207.157 45.4751 214.794 43.4404 223.39C41.4057 231.991 42.8822 241.536 48.1293 248.645Z" fill="#F0F0F0"/>
<path d="M379.882 164.825H293.283C292.749 164.824 292.237 164.612 291.86 164.234C291.482 163.857 291.27 163.345 291.269 162.811V109.24C291.27 108.707 291.482 108.195 291.86 107.817C292.237 107.44 292.749 107.227 293.283 107.227H379.882C380.416 107.227 380.928 107.44 381.305 107.817C381.683 108.195 381.895 108.707 381.896 109.24V162.811C381.895 163.345 381.683 163.857 381.305 164.234C380.928 164.612 380.416 164.824 379.882 164.825Z" fill="white"/>
<path d="M379.882 164.825H293.283C292.749 164.824 292.237 164.612 291.86 164.234C291.482 163.857 291.27 163.345 291.269 162.811V109.24C291.27 108.707 291.482 108.195 291.86 107.817C292.237 107.44 292.749 107.227 293.283 107.227H379.882C380.416 107.227 380.928 107.44 381.305 107.817C381.683 108.195 381.895 108.707 381.896 109.24V162.811C381.895 163.345 381.683 163.857 381.305 164.234C380.928 164.612 380.416 164.824 379.882 164.825ZM293.283 108.032C292.963 108.032 292.656 108.16 292.429 108.386C292.203 108.613 292.075 108.92 292.075 109.24V162.811C292.075 163.131 292.203 163.438 292.429 163.665C292.656 163.891 292.963 164.019 293.283 164.019H379.882C380.202 164.019 380.509 163.891 380.736 163.665C380.963 163.438 381.09 163.131 381.09 162.811V109.24C381.09 108.92 380.963 108.613 380.736 108.386C380.509 108.16 380.202 108.032 379.882 108.032H293.283Z" fill="#3F3D56"/>
<path d="M362.764 125.117H310.402C309.921 125.117 309.46 124.926 309.121 124.586C308.781 124.246 308.59 123.785 308.59 123.305C308.59 122.824 308.781 122.363 309.121 122.023C309.46 121.683 309.921 121.492 310.402 121.492H362.764C363.245 121.492 363.706 121.683 364.046 122.023C364.386 122.363 364.577 122.824 364.577 123.305C364.577 123.785 364.386 124.246 364.046 124.586C363.706 124.926 363.245 125.117 362.764 125.117Z" fill="#CCCCCC"/>
<path d="M362.764 137.602H310.402C309.921 137.602 309.46 137.411 309.121 137.071C308.781 136.731 308.59 136.27 308.59 135.789C308.59 135.308 308.781 134.847 309.121 134.507C309.46 134.168 309.921 133.977 310.402 133.977H362.764C363.245 133.977 363.706 134.168 364.046 134.507C364.386 134.847 364.577 135.308 364.577 135.789C364.577 136.27 364.386 136.731 364.046 137.071C363.706 137.411 363.245 137.602 362.764 137.602Z" fill="#CCCCCC"/>
<path d="M391.085 88.6529H304.487C303.953 88.6523 303.441 88.4399 303.063 88.0623C302.686 87.6848 302.473 87.1729 302.473 86.639V33.0686C302.473 32.5347 302.686 32.0228 303.063 31.6452C303.441 31.2677 303.953 31.0553 304.487 31.0547H391.085C391.619 31.0553 392.131 31.2677 392.509 31.6452C392.886 32.0228 393.099 32.5347 393.099 33.0686V86.639C393.099 87.1729 392.886 87.6848 392.509 88.0623C392.131 88.4399 391.619 88.6523 391.085 88.6529Z" fill="white"/>
<path d="M391.085 88.6529H304.487C303.953 88.6523 303.441 88.4399 303.063 88.0623C302.686 87.6848 302.473 87.1729 302.473 86.639V33.0686C302.473 32.5347 302.686 32.0228 303.063 31.6452C303.441 31.2677 303.953 31.0553 304.487 31.0547H391.085C391.619 31.0553 392.131 31.2677 392.509 31.6452C392.886 32.0228 393.099 32.5347 393.099 33.0686V86.639C393.099 87.1729 392.886 87.6848 392.509 88.0623C392.131 88.4399 391.619 88.6523 391.085 88.6529ZM304.487 31.8603C304.166 31.8606 303.859 31.988 303.633 32.2146C303.406 32.4411 303.279 32.7482 303.278 33.0686V86.639C303.279 86.9593 303.406 87.2665 303.633 87.493C303.859 87.7195 304.166 87.847 304.487 87.8473H391.085C391.406 87.847 391.713 87.7195 391.939 87.493C392.166 87.2665 392.293 86.9593 392.294 86.639V33.0686C392.293 32.7482 392.166 32.4411 391.939 32.2146C391.713 31.988 391.406 31.8606 391.085 31.8603H304.487Z" fill="#3F3D56"/>
<path d="M373.968 48.9454H321.605C321.125 48.9454 320.664 48.7544 320.324 48.4145C319.984 48.0746 319.793 47.6136 319.793 47.1329C319.793 46.6521 319.984 46.1911 320.324 45.8512C320.664 45.5113 321.125 45.3203 321.605 45.3203H373.968C374.448 45.3203 374.909 45.5113 375.249 45.8512C375.589 46.1911 375.78 46.6521 375.78 47.1329C375.78 47.6136 375.589 48.0746 375.249 48.4145C374.909 48.7544 374.448 48.9454 373.968 48.9454Z" fill="#CCCCCC"/>
<path d="M373.968 61.4298H321.605C321.125 61.4298 320.664 61.2388 320.324 60.8989C319.984 60.559 319.793 60.0979 319.793 59.6172C319.793 59.1365 319.984 58.6755 320.324 58.3356C320.664 57.9957 321.125 57.8047 321.605 57.8047H373.968C374.448 57.8047 374.909 57.9957 375.249 58.3356C375.589 58.6755 375.78 59.1365 375.78 59.6172C375.78 60.0979 375.589 60.559 375.249 60.8989C374.909 61.2388 374.448 61.4298 373.968 61.4298Z" fill="#CCCCCC"/>
<path d="M369.298 81.2284C372.875 81.2284 375.775 78.3283 375.775 74.7509C375.775 71.1735 372.875 68.2734 369.298 68.2734C365.72 68.2734 362.82 71.1735 362.82 74.7509C362.82 78.3283 365.72 81.2284 369.298 81.2284Z" fill="#FDFDFD"/>
<path d="M282.062 57.6216H195.463C194.929 57.621 194.417 57.4086 194.04 57.0311C193.662 56.6535 193.45 56.1416 193.449 55.6077V2.03736C193.45 1.50343 193.662 0.991528 194.04 0.613977C194.417 0.236425 194.929 0.0240486 195.463 0.0234375H282.062C282.596 0.0240486 283.107 0.236425 283.485 0.613977C283.863 0.991528 284.075 1.50343 284.076 2.03736V55.6077C284.075 56.1416 283.863 56.6535 283.485 57.0311C283.107 57.4086 282.596 57.621 282.062 57.6216Z" fill="white"/>
<path d="M282.062 57.6216H195.463C194.929 57.621 194.417 57.4086 194.04 57.0311C193.662 56.6535 193.45 56.1416 193.449 55.6077V2.03736C193.45 1.50343 193.662 0.991528 194.04 0.613977C194.417 0.236425 194.929 0.0240486 195.463 0.0234375H282.062C282.596 0.0240486 283.107 0.236425 283.485 0.613977C283.863 0.991528 284.075 1.50343 284.076 2.03736V55.6077C284.075 56.1416 283.863 56.6535 283.485 57.0311C283.107 57.4086 282.596 57.621 282.062 57.6216ZM195.463 0.829007C195.143 0.829357 194.835 0.95678 194.609 1.18331C194.382 1.40985 194.255 1.717 194.255 2.03736V55.6077C194.255 55.9281 194.382 56.2352 194.609 56.4618C194.835 56.6883 195.143 56.8157 195.463 56.816H282.062C282.382 56.8157 282.689 56.6883 282.916 56.4618C283.142 56.2352 283.27 55.9281 283.27 55.6077V2.03736C283.27 1.717 283.142 1.40985 282.916 1.18331C282.689 0.95678 282.382 0.829357 282.062 0.829007H195.463Z" fill="#3F3D56"/>
<path d="M264.944 17.9141H212.582C212.101 17.9141 211.64 17.7232 211.3 17.3833C210.96 17.0433 210.769 16.5823 210.769 16.1016C210.769 15.6209 210.96 15.1599 211.3 14.8199C211.64 14.48 212.101 14.2891 212.582 14.2891H264.944C265.425 14.2891 265.886 14.48 266.226 14.8199C266.565 15.1599 266.756 15.6209 266.756 16.1016C266.756 16.5823 266.565 17.0433 266.226 17.3833C265.886 17.7232 265.425 17.9141 264.944 17.9141Z" fill="#CCCCCC"/>
<path d="M264.944 30.3985H212.582C212.101 30.3985 211.64 30.2076 211.3 29.8676C210.96 29.5277 210.769 29.0667 210.769 28.586C210.769 28.1053 210.96 27.6442 211.3 27.3043C211.64 26.9644 212.101 26.7734 212.582 26.7734H264.944C265.425 26.7734 265.886 26.9644 266.226 27.3043C266.565 27.6442 266.756 28.1053 266.756 28.586C266.756 29.0667 266.565 29.5277 266.226 29.8676C265.886 30.2076 265.425 30.3985 264.944 30.3985Z" fill="#CCCCCC"/>
</svg>
