<svg width="343" height="227" viewBox="0 0 343 227" fill="none" xmlns="http://www.w3.org/2000/svg">
<path d="M333.277 225.79L333.784 225.78C333.588 220.14 332.986 214.521 331.984 208.968C329.79 197.077 326.143 189.268 321.143 185.758L320.852 186.173C332.532 194.374 333.271 225.477 333.277 225.79Z" fill="#F1F1F1"/>
<path d="M326.933 225.673L327.441 225.663C327.43 225.102 327.113 211.862 321.901 208.203L321.609 208.618C326.611 212.13 326.931 225.538 326.933 225.673Z" fill="#F1F1F1"/>
<path d="M317.966 186.221C319.367 186.221 320.502 185.085 320.502 183.685C320.502 182.284 319.367 181.148 317.966 181.148C316.565 181.148 315.43 182.284 315.43 183.685C315.43 185.085 316.565 186.221 317.966 186.221Z" fill="#F1F1F1"/>
<path d="M319.22 208.033C320.621 208.033 321.756 206.898 321.756 205.497C321.756 204.096 320.621 202.961 319.22 202.961C317.819 202.961 316.684 204.096 316.684 205.497C316.684 206.898 317.819 208.033 319.22 208.033Z" fill="#F1F1F1"/>
<path d="M328.119 187.734C327.865 189.691 328.129 191.68 328.885 193.502C330.205 192.026 331.071 190.2 331.377 188.244C331.683 186.288 331.417 184.285 330.611 182.477C329.334 183.981 328.475 185.794 328.119 187.734Z" fill="#F1F1F1"/>
<path d="M319.827 195.135C321.709 195.726 323.714 195.813 325.64 195.386C324.417 193.829 322.77 192.659 320.897 192.016C319.024 191.374 317.005 191.287 315.084 191.765C316.343 193.285 317.978 194.447 319.827 195.135Z" fill="#F1F1F1"/>
<path d="M319.735 214.458C321.054 214.873 322.459 214.933 323.809 214.634C322.952 213.543 321.797 212.722 320.484 212.272C319.172 211.822 317.757 211.761 316.41 212.096C317.292 213.161 318.439 213.975 319.735 214.458Z" fill="#F1F1F1"/>
<path d="M117.269 225.785L116.533 225.77C116.818 217.584 117.691 209.429 119.147 201.368C122.331 184.11 127.625 172.775 134.882 167.68L135.305 168.282C118.352 180.185 117.278 225.33 117.269 225.785Z" fill="#F1F1F1"/>
<path d="M126.477 225.607L125.74 225.593C125.756 224.777 126.216 205.561 133.781 200.25L134.204 200.853C126.944 205.95 126.48 225.411 126.477 225.607Z" fill="#F1F1F1"/>
<path d="M139.496 168.355C141.529 168.355 143.177 166.707 143.177 164.674C143.177 162.64 141.529 160.992 139.496 160.992C137.463 160.992 135.814 162.64 135.814 164.674C135.814 166.707 137.463 168.355 139.496 168.355Z" fill="#F1F1F1"/>
<path d="M137.672 200.011C139.705 200.011 141.353 198.363 141.353 196.33C141.353 194.297 139.705 192.648 137.672 192.648C135.638 192.648 133.99 194.297 133.99 196.33C133.99 198.363 135.638 200.011 137.672 200.011Z" fill="#F1F1F1"/>
<path d="M124.757 170.561C125.126 173.401 124.743 176.287 123.646 178.933C121.73 176.791 120.473 174.141 120.029 171.301C119.584 168.462 119.97 165.555 121.14 162.93C122.993 165.113 124.24 167.744 124.757 170.561Z" fill="#F1F1F1"/>
<path d="M136.791 181.294C134.059 182.152 131.149 182.278 128.354 181.658C130.129 179.398 132.519 177.7 135.238 176.767C137.956 175.835 140.886 175.708 143.675 176.403C141.848 178.608 139.474 180.294 136.791 181.294Z" fill="#F1F1F1"/>
<path d="M136.927 209.332C135.013 209.933 132.973 210.021 131.014 209.587C132.258 208.003 133.934 206.812 135.839 206.159C137.744 205.505 139.798 205.417 141.753 205.903C140.472 207.449 138.808 208.631 136.927 209.332Z" fill="#F1F1F1"/>
<path d="M60.3954 69.0134L58.624 58.1768L53.6226 56.9264C53.6226 56.9264 49.6531 55.7038 48.7253 63.6993C47.7975 71.6948 48.5168 86.6229 48.5168 86.6229L37.5359 121.396C36.6927 121.797 35.9829 122.432 35.4913 123.226C34.9998 124.02 34.7475 124.938 34.7645 125.871C34.7815 126.805 35.0671 127.714 35.5872 128.489C36.1073 129.264 36.8398 129.873 37.697 130.243C38.5542 130.613 39.4998 130.727 40.4206 130.574C41.3414 130.42 42.1984 130.004 42.889 129.376C43.5795 128.748 44.0744 127.934 44.3144 127.031C44.5543 126.129 44.5292 125.177 44.242 124.289L58.5199 91.6245L60.3954 69.0134Z" fill="#FFB7B7"/>
<path d="M90.8054 60.4926L88.1797 49.8308L92.2885 46.717C92.2885 46.717 95.4592 44.034 99.4518 51.0231C103.444 58.0123 108.644 72.024 108.644 72.024L132.397 99.6932C133.329 99.7307 134.232 100.036 134.995 100.573C135.759 101.11 136.352 101.856 136.703 102.721C137.053 103.586 137.148 104.534 136.974 105.451C136.8 106.368 136.365 107.216 135.722 107.893C135.079 108.569 134.254 109.046 133.347 109.266C132.44 109.486 131.488 109.44 130.607 109.134C129.725 108.827 128.95 108.273 128.375 107.537C127.8 106.802 127.449 105.916 127.365 104.987L101.408 80.5514L90.8054 60.4926Z" fill="#FFB7B7"/>
<path d="M111.331 220.115L117.287 220.115L120.121 197.141L111.33 197.141L111.331 220.115Z" fill="#FFB7B7"/>
<path d="M109.814 218.165L121.545 218.164H121.545C123.528 218.164 125.429 218.952 126.831 220.354C128.233 221.755 129.02 223.657 129.02 225.639V225.882L109.815 225.883L109.814 218.165Z" fill="#CACACA"/>
<path d="M36.5149 220.115L42.4711 220.115L45.3049 197.141L36.5137 197.141L36.5149 220.115Z" fill="#FFB7B7"/>
<path d="M34.998 218.165L46.7281 218.164H46.7286C48.7111 218.164 50.6124 218.952 52.0143 220.354C53.4161 221.755 54.2038 223.657 54.2039 225.639V225.882L34.9984 225.883L34.998 218.165Z" fill="#CACACA"/>
<path d="M73.0452 40.071C81.9424 40.071 89.1549 32.8584 89.1549 23.9613C89.1549 15.0641 81.9424 7.85156 73.0452 7.85156C64.1481 7.85156 56.9355 15.0641 56.9355 23.9613C56.9355 32.8584 64.1481 40.071 73.0452 40.071Z" fill="#2F2E41"/>
<path d="M60.4716 15.2787C63.0749 12.6754 63.6024 8.98229 61.65 7.02984C59.6975 5.07739 56.0044 5.60497 53.4011 8.20824C50.7979 10.8115 50.2703 14.5046 52.2227 16.4571C54.1752 18.4095 57.8683 17.882 60.4716 15.2787Z" fill="#2F2E41"/>
<path d="M89.8377 10.1552C90.9223 7.61596 89.057 4.38512 85.6714 2.93891C82.2858 1.49269 78.6619 2.37874 77.5772 4.91796C76.4926 7.45718 78.3579 10.688 81.7435 12.1342C85.1291 13.5805 88.753 12.6944 89.8377 10.1552Z" fill="#2F2E41"/>
<path d="M85.5513 34.3693C89.1732 27.7437 86.7382 19.4365 80.1126 15.8146C73.487 12.1928 65.1798 14.6277 61.558 21.2533C57.9361 27.8789 60.3711 36.1861 66.9967 39.808C73.6223 43.4298 81.9294 40.9948 85.5513 34.3693Z" fill="#FFB7B7"/>
<path d="M59.1895 19.212C62.3137 21.3654 66.022 22.5114 69.8165 22.4962C68.4629 23.4347 66.922 24.0686 65.2999 24.3543C70.345 25.4365 75.559 25.4658 80.6159 24.4404C81.7399 24.2602 82.8245 23.8876 83.8221 23.3392C84.3192 23.0616 84.7523 22.6824 85.0933 22.2264C85.4343 21.7704 85.6754 21.2478 85.8011 20.6924C86.1372 18.7728 84.6413 17.0287 83.0869 15.8533C80.7068 14.0812 77.9627 12.8602 75.0529 12.2788C72.1431 11.6973 69.1404 11.7699 66.2621 12.4913C64.3827 12.9771 62.4999 13.7979 61.2792 15.3073C60.0585 16.8166 59.6968 19.1435 60.8599 20.6977L59.1895 19.212Z" fill="#2F2E41"/>
<path d="M66.705 45.5863L53.1727 56.6377L64.9965 84.8301L65.222 89.3408C65.222 89.3408 52.9478 100.658 45.3533 132.271C37.7588 163.885 22.4199 205.891 22.4199 205.891L53.1059 213.398L74.4413 141.885L101.639 197.989L105.508 214.583L129.228 207.998L120.074 163.466L97.6204 94.3416L99.4642 75.2452C99.4642 75.2452 103.573 65.7134 96.4351 55.6219L94.1962 46.1396L82.6066 44.1641L66.705 45.5863Z" fill="#061758"/>
<path d="M294.259 145.924H200.308C199.558 145.923 198.839 145.625 198.308 145.094C197.778 144.564 197.479 143.844 197.479 143.094V111.4C197.479 110.65 197.778 109.931 198.308 109.4C198.839 108.87 199.558 108.571 200.308 108.57H294.259C295.009 108.571 295.728 108.87 296.259 109.4C296.789 109.931 297.088 110.65 297.088 111.4V143.094C297.088 143.844 296.789 144.564 296.259 145.094C295.728 145.625 295.009 145.923 294.259 145.924Z" fill="#E5E5E5"/>
<path d="M237.094 117.047H212.191V119.877H237.094V117.047Z" fill="white"/>
<path d="M269.922 120.443C270.86 120.443 271.62 119.682 271.62 118.745C271.62 117.807 270.86 117.047 269.922 117.047C268.985 117.047 268.225 117.807 268.225 118.745C268.225 119.682 268.985 120.443 269.922 120.443Z" fill="#FDFDFD"/>
<path d="M275.581 120.443C276.518 120.443 277.279 119.682 277.279 118.745C277.279 117.807 276.518 117.047 275.581 117.047C274.643 117.047 273.883 117.807 273.883 118.745C273.883 119.682 274.643 120.443 275.581 120.443Z" fill="#FDFDFD"/>
<path d="M281.239 120.443C282.177 120.443 282.937 119.682 282.937 118.745C282.937 117.807 282.177 117.047 281.239 117.047C280.301 117.047 279.541 117.807 279.541 118.745C279.541 119.682 280.301 120.443 281.239 120.443Z" fill="#FDFDFD"/>
<path d="M294.259 186.104H200.308C199.558 186.103 198.839 185.804 198.308 185.274C197.778 184.743 197.479 184.024 197.479 183.274V151.58C197.479 150.83 197.778 150.11 198.308 149.58C198.839 149.049 199.558 148.751 200.308 148.75H294.259C295.009 148.751 295.728 149.049 296.259 149.58C296.789 150.11 297.088 150.83 297.088 151.58V183.274C297.088 184.024 296.789 184.743 296.259 185.274C295.728 185.804 295.009 186.103 294.259 186.104Z" fill="#E5E5E5"/>
<path d="M237.094 157.234H212.191V160.064H237.094V157.234Z" fill="white"/>
<path d="M269.922 160.63C270.86 160.63 271.62 159.87 271.62 158.932C271.62 157.995 270.86 157.234 269.922 157.234C268.985 157.234 268.225 157.995 268.225 158.932C268.225 159.87 268.985 160.63 269.922 160.63Z" fill="#FDFDFD"/>
<path d="M275.581 160.63C276.518 160.63 277.279 159.87 277.279 158.932C277.279 157.995 276.518 157.234 275.581 157.234C274.643 157.234 273.883 157.995 273.883 158.932C273.883 159.87 274.643 160.63 275.581 160.63Z" fill="#FDFDFD"/>
<path d="M281.239 160.63C282.177 160.63 282.937 159.87 282.937 158.932C282.937 157.995 282.177 157.234 281.239 157.234C280.301 157.234 279.541 157.995 279.541 158.932C279.541 159.87 280.301 160.63 281.239 160.63Z" fill="#FDFDFD"/>
<path d="M294.259 226.283H200.308C199.558 226.283 198.839 225.984 198.308 225.454C197.778 224.923 197.479 224.204 197.479 223.454V191.76C197.479 191.009 197.778 190.29 198.308 189.759C198.839 189.229 199.558 188.931 200.308 188.93H294.259C295.009 188.931 295.728 189.229 296.259 189.759C296.789 190.29 297.088 191.009 297.088 191.76V223.454C297.088 224.204 296.789 224.923 296.259 225.454C295.728 225.984 295.009 226.283 294.259 226.283Z" fill="#E5E5E5"/>
<path d="M237.094 197.422H212.191V200.252H237.094V197.422Z" fill="white"/>
<path d="M269.922 200.818C270.86 200.818 271.62 200.057 271.62 199.12C271.62 198.182 270.86 197.422 269.922 197.422C268.985 197.422 268.225 198.182 268.225 199.12C268.225 200.057 268.985 200.818 269.922 200.818Z" fill="#FDFDFD"/>
<path d="M275.581 200.818C276.518 200.818 277.279 200.057 277.279 199.12C277.279 198.182 276.518 197.422 275.581 197.422C274.643 197.422 273.883 198.182 273.883 199.12C273.883 200.057 274.643 200.818 275.581 200.818Z" fill="#FDFDFD"/>
<path d="M281.239 200.818C282.177 200.818 282.937 200.057 282.937 199.12C282.937 198.182 282.177 197.422 281.239 197.422C280.301 197.422 279.541 198.182 279.541 199.12C279.541 200.057 280.301 200.818 281.239 200.818Z" fill="#FDFDFD"/>
<path d="M181.518 157.948C179.729 157.942 177.947 157.711 176.215 157.262L175.874 157.167L175.557 157.009C164.108 151.268 154.449 143.686 146.848 134.473C140.557 126.801 135.651 118.091 132.353 108.733C128.409 97.53 126.511 85.7089 126.751 73.8342C126.755 73.5849 126.76 73.3925 126.76 73.2599C126.76 67.4875 129.964 62.4226 134.922 60.3564C138.718 58.7751 173.176 44.6217 175.666 43.5991C180.354 41.2497 185.357 43.2106 186.157 43.5535C187.953 44.2876 219.807 57.3165 226.691 60.5944C233.785 63.9727 235.678 70.0417 235.678 73.0951C235.678 86.9188 233.284 99.8381 228.562 111.494C224.749 120.929 219.344 129.639 212.584 137.245C199.54 151.924 186.493 157.128 186.367 157.174C184.808 157.71 183.167 157.972 181.518 157.948ZM178.45 150.348C179.581 150.601 182.185 150.982 183.883 150.362C186.039 149.576 196.959 143.913 207.164 132.429C221.264 116.563 228.418 96.6169 228.428 73.1461C228.403 72.6706 228.065 69.2791 223.574 67.1405C216.824 63.9261 183.713 50.3874 183.38 50.2509L183.288 50.2121C182.594 49.9213 180.386 49.3089 178.864 50.1065L178.559 50.2486C178.19 50.4002 141.612 65.4236 137.711 67.049C134.982 68.186 134.01 71.0029 134.01 73.2599C134.01 73.4248 134.006 73.6647 134 73.9748C133.688 90.0345 137.404 129.552 178.45 150.348Z" fill="#3F3D56"/>
<path d="M177.18 46.8915C177.18 46.8915 140.27 62.0512 136.315 63.6989C132.361 65.3467 130.383 69.3014 130.383 73.2561C130.383 77.2108 127.417 128.814 177.18 153.764C177.18 153.764 181.697 155.014 185.123 153.764C188.55 152.515 232.052 131.423 232.052 73.0913C232.052 73.0913 232.052 67.1593 225.131 63.8637C218.21 60.5681 184.75 46.8915 184.75 46.8915C184.75 46.8915 180.641 45.079 177.18 46.8915Z" fill="#FDFDFD"/>
<path opacity="0.2" d="M181.137 58.7578V139.629C181.137 139.629 218.377 121.703 218.047 74.5766L181.137 58.7578Z" fill="black"/>
<path d="M342.123 226.289H0.894581C0.784752 226.289 0.67942 226.246 0.601759 226.168C0.524098 226.09 0.480469 225.985 0.480469 225.875C0.480469 225.765 0.524098 225.66 0.601759 225.582C0.67942 225.505 0.784752 225.461 0.894581 225.461H342.123C342.233 225.461 342.338 225.505 342.416 225.582C342.494 225.66 342.537 225.765 342.537 225.875C342.537 225.985 342.494 226.09 342.416 226.168C342.338 226.246 342.233 226.289 342.123 226.289Z" fill="#CBCBCB"/>
</svg>
