<svg width="2109" height="341" viewBox="0 0 2109 341" fill="none" xmlns="http://www.w3.org/2000/svg">
<path fill-rule="evenodd" clip-rule="evenodd" d="M2108.14 341H-0.00292969C0.81513 270.63 58.3379 213.836 129.178 213.836C139.365 213.836 147.615 205.618 147.634 195.471V195.452C147.634 104.141 222.065 30 313.735 30C375.247 30 428.99 63.3847 457.707 112.928C460.254 117.34 464.536 120.502 469.5 121.642C474.483 122.8 479.725 121.844 483.951 119.013C498.623 109.233 516.249 103.534 535.202 103.534C555.927 103.534 575.062 110.351 590.472 121.854C609.7 51.6647 674.212 0 750.735 0C812.247 0 865.99 33.3847 894.707 82.9281C897.254 87.3405 901.536 90.5024 906.5 91.6418C911.483 92.8003 916.725 91.8444 920.951 89.0135C935.623 79.2331 953.249 73.5343 972.202 73.5343C975.889 73.5343 979.526 73.75 983.1 74.1694C1008.96 57.6092 1039.73 48 1072.73 48C1119.96 48 1162.61 67.6789 1192.87 99.2408C1207.14 93.3944 1223.15 91.5315 1239.3 94.7432C1255.83 98.0286 1270.19 106.161 1281.25 117.418C1283.28 119.49 1285.8 120.956 1288.53 121.705C1290.41 121.592 1292.3 121.534 1294.2 121.534C1295.3 121.534 1296.39 121.553 1297.47 121.591C1300.44 120.699 1303.13 118.961 1305.21 116.546C1339.02 77.3821 1391.8 56.9532 1445.43 67.6157C1485.53 75.5875 1518.54 99.4333 1539.44 131.492C1555.44 121.879 1573.35 114.813 1592.71 110.964C1653.04 98.97 1712.27 121.235 1750.09 164.228C1753.45 168.059 1758.27 170.325 1763.36 170.475C1768.47 170.639 1773.43 168.68 1777.02 165.079C1789.5 152.626 1805.68 143.599 1824.27 139.904C1874.23 129.971 1922.8 162.299 1932.7 212.064L1932.7 212.082C1934.7 222.032 1944.39 228.483 1954.38 226.496C2024.36 212.584 2092.33 257.814 2106.19 327.521C2107.08 332.027 2107.73 336.524 2108.14 341Z" fill="white"/>
</svg>
