<?xml version="1.0" standalone="no"?>
<!DOCTYPE svg PUBLIC "-//W3C//DTD SVG 20010904//EN"
 "http://www.w3.org/TR/2001/REC-SVG-20010904/DTD/svg10.dtd">
<svg version="1.0" xmlns="http://www.w3.org/2000/svg"
 width="83.000000pt" height="83.000000pt" viewBox="0 0 83.000000 83.000000"
 preserveAspectRatio="xMidYMid meet">
<metadata>
Created by potrace 1.14, written by Peter Selinger 2001-2017
</metadata>
<g transform="translate(0.000000,83.000000) scale(0.100000,-0.100000)"
fill="#000000" stroke="none">
<path d="M588 756 c-10 -7 -25 -30 -33 -50 -15 -36 -26 -60 -112 -246 -22 -47
-57 -122 -78 -167 -45 -97 -53 -102 -180 -100 -123 1 -140 -5 -166 -54 -35
-69 -34 -69 183 -69 299 0 310 6 421 232 41 84 94 196 117 248 23 52 51 114
62 137 34 73 28 78 -92 80 -76 2 -110 -1 -122 -11z"/>
</g>
</svg>
