<svg width="35" height="76" viewBox="0 0 35 76" fill="none" xmlns="http://www.w3.org/2000/svg">
<rect x="0.40625" y="0.335938" width="2" height="2" fill="#ACC9E8"/>
<rect x="8.31641" y="0.335938" width="2" height="2" fill="#ACC9E8"/>
<rect x="16.2266" y="0.335938" width="2" height="2" fill="#ACC9E8"/>
<rect x="24.1367" y="0.335938" width="2" height="2" fill="#ACC9E8"/>
<rect x="32.0469" y="0.335938" width="2" height="2" fill="#ACC9E8"/>
<rect x="0.40625" y="7.67188" width="2" height="2" fill="#ACC9E8"/>
<rect x="8.31641" y="7.67188" width="2" height="2" fill="#ACC9E8"/>
<rect x="16.2266" y="7.67188" width="2" height="2" fill="#ACC9E8"/>
<rect x="24.1367" y="7.67188" width="2" height="2" fill="#ACC9E8"/>
<rect x="32.0469" y="7.67188" width="2" height="2" fill="#ACC9E8"/>
<rect x="0.40625" y="15.0078" width="2" height="2" fill="#ACC9E8"/>
<rect x="8.31641" y="15.0078" width="2" height="2" fill="#ACC9E8"/>
<rect x="16.2266" y="15.0078" width="2" height="2" fill="#ACC9E8"/>
<rect x="24.1367" y="15.0078" width="2" height="2" fill="#ACC9E8"/>
<rect x="32.0469" y="15.0078" width="2" height="2" fill="#ACC9E8"/>
<rect x="0.40625" y="22.3438" width="2" height="2" fill="#ACC9E8"/>
<rect x="8.31641" y="22.3438" width="2" height="2" fill="#ACC9E8"/>
<rect x="16.2266" y="22.3438" width="2" height="2" fill="#ACC9E8"/>
<rect x="24.1367" y="22.3438" width="2" height="2" fill="#ACC9E8"/>
<rect x="32.0469" y="22.3438" width="2" height="2" fill="#ACC9E8"/>
<rect x="0.40625" y="29.6797" width="2" height="2" fill="#ACC9E8"/>
<rect x="8.31641" y="29.6797" width="2" height="2" fill="#ACC9E8"/>
<rect x="16.2266" y="29.6797" width="2" height="2" fill="#ACC9E8"/>
<rect x="24.1367" y="29.6797" width="2" height="2" fill="#ACC9E8"/>
<rect x="32.0469" y="29.6797" width="2" height="2" fill="#ACC9E8"/>
<rect x="0.40625" y="37.0156" width="2" height="2" fill="#ACC9E8"/>
<rect x="8.31641" y="37.0156" width="2" height="2" fill="#ACC9E8"/>
<rect x="16.2266" y="37.0156" width="2" height="2" fill="#ACC9E8"/>
<rect x="24.1367" y="37.0156" width="2" height="2" fill="#ACC9E8"/>
<rect x="32.0469" y="37.0156" width="2" height="2" fill="#ACC9E8"/>
<rect x="0.40625" y="44.3516" width="2" height="2" fill="#ACC9E8"/>
<rect x="8.31641" y="44.3516" width="2" height="2" fill="#ACC9E8"/>
<rect x="16.2266" y="44.3516" width="2" height="2" fill="#ACC9E8"/>
<rect x="24.1367" y="44.3516" width="2" height="2" fill="#ACC9E8"/>
<rect x="32.0469" y="44.3516" width="2" height="2" fill="#ACC9E8"/>
<rect x="0.40625" y="51.6875" width="2" height="2" fill="#ACC9E8"/>
<rect x="8.31641" y="51.6875" width="2" height="2" fill="#ACC9E8"/>
<rect x="16.2266" y="51.6875" width="2" height="2" fill="#ACC9E8"/>
<rect x="24.1367" y="51.6875" width="2" height="2" fill="#ACC9E8"/>
<rect x="32.0469" y="51.6875" width="2" height="2" fill="#ACC9E8"/>
<rect x="0.40625" y="59.0234" width="2" height="2" fill="#ACC9E8"/>
<rect x="8.31641" y="59.0234" width="2" height="2" fill="#ACC9E8"/>
<rect x="16.2266" y="59.0234" width="2" height="2" fill="#ACC9E8"/>
<rect x="24.1367" y="59.0234" width="2" height="2" fill="#ACC9E8"/>
<rect x="32.0469" y="59.0234" width="2" height="2" fill="#ACC9E8"/>
<rect x="0.40625" y="66.3594" width="2" height="2" fill="#ACC9E8"/>
<rect x="8.31641" y="66.3594" width="2" height="2" fill="#ACC9E8"/>
<rect x="16.2266" y="66.3594" width="2" height="2" fill="#ACC9E8"/>
<rect x="24.1367" y="66.3594" width="2" height="2" fill="#ACC9E8"/>
<rect x="32.0469" y="66.3594" width="2" height="2" fill="#ACC9E8"/>
<rect x="0.40625" y="73.6953" width="2" height="2" fill="#ACC9E8"/>
<rect x="8.31641" y="73.6953" width="2" height="2" fill="#ACC9E8"/>
<rect x="16.2266" y="73.6953" width="2" height="2" fill="#ACC9E8"/>
<rect x="24.1367" y="73.6953" width="2" height="2" fill="#ACC9E8"/>
<rect x="32.0469" y="73.6953" width="2" height="2" fill="#ACC9E8"/>
</svg>
