<svg width="213" height="36" viewBox="0 0 213 36" fill="none" xmlns="http://www.w3.org/2000/svg">
<path d="M17.9088 35.7259V28.8491C25.2844 28.8491 30.9737 21.6608 28.1301 14.0541C27.6127 12.6422 26.7877 11.36 25.7135 10.2982C24.6394 9.23638 23.3423 8.42087 21.914 7.90939C20.2563 7.29322 18.4725 7.08222 16.7146 7.29436C14.9566 7.5065 13.2765 8.13549 11.8175 9.12776C10.3584 10.12 9.16357 11.4462 8.33471 12.9933C7.50585 14.5404 7.06752 16.2626 7.05707 18.0132H0.102539C0.102539 6.55203 11.3775 -2.51237 23.7039 1.23971C26.3529 2.06221 28.7615 3.5054 30.7247 5.44635C32.6878 7.38731 34.1473 9.76853 34.9789 12.3872C38.7724 24.5784 29.6048 35.7259 17.9088 35.7259Z" fill="#5F6368"/>
<path d="M18.0147 28.8496H11.0602V22.0774H18.0147M11.0602 34.164H5.79191V28.8496H11.0602V34.164ZM5.79191 28.8496H1.37207V24.4742H5.79191M63.6391 10.6162C61.6376 9.26092 59.0035 8.52472 56.052 8.52472H49.6264V28.8412H56.0541C59.0049 28.8412 61.5339 28.112 63.6413 26.6535C64.7922 25.8258 65.7011 24.7117 66.2754 23.4243C66.9101 22.069 67.2232 20.4021 67.2232 18.6307C67.2232 16.8592 66.908 15.1923 66.2754 13.9416C65.6407 12.3877 64.7986 11.3461 63.6391 10.6162ZM53.42 11.9715H55.4215C57.6346 11.9715 59.5303 12.3897 61.005 13.3267C62.5855 14.2637 63.3324 16.0456 63.3324 18.6411C63.3324 21.2366 62.486 23.121 61.005 24.1626C59.6361 24.9992 57.8441 25.5179 55.5252 25.5179H53.42V11.9715ZM71.7531 8.22146C71.4603 8.21372 71.169 8.26541 70.8971 8.37333C70.6253 8.48124 70.3787 8.6431 70.1726 8.8489C69.9325 9.03231 69.7402 9.2698 69.6118 9.54156C69.4834 9.81332 69.4225 10.1115 69.4342 10.4112C69.4342 10.9914 69.6674 11.5479 70.0824 11.9581C70.4975 12.3684 71.0604 12.5989 71.6473 12.5989C72.2343 12.5989 72.7972 12.3684 73.2122 11.9581C73.6273 11.5479 73.8604 10.9914 73.8604 10.4112C73.8681 10.1218 73.8158 9.83382 73.7066 9.56513C73.5974 9.29643 73.4338 9.05268 73.2257 8.8489C72.9104 8.43061 72.3794 8.22146 71.7446 8.22146M69.8405 14.4728H73.5282V28.7471H69.8553V14.4728M86.7137 15.7277C85.6558 14.7907 84.3864 14.1654 83.0259 14.1654C82.0973 14.1452 81.175 14.3213 80.3208 14.682C79.4666 15.0427 78.7002 15.5796 78.0729 16.2569C76.7568 17.6349 76.0385 19.4673 76.0714 21.3621C76.0714 23.3427 76.7061 25.1121 77.9756 26.4674C79.245 27.8227 80.925 28.448 82.9286 28.448C84.218 28.468 85.4776 28.0649 86.5106 27.3019V27.6135C86.5106 28.7596 86.1954 29.705 85.5627 30.3324C84.9301 30.9599 84.0817 31.2694 82.9286 31.2694C81.236 31.2694 80.1887 30.6419 78.9256 28.8726L76.3866 31.2694L76.4924 31.374C77.0193 32.1039 77.8613 32.838 78.915 33.5616C79.9686 34.2853 81.3375 34.6074 82.918 34.6074C85.1311 34.6074 86.8174 33.9799 88.0805 32.6267C89.3436 31.2736 90.082 29.6046 90.082 27.4169V14.4728H86.5042V15.7277H86.7158M85.768 24.1668C85.1332 24.8967 84.2869 25.2125 83.229 25.2125C82.1712 25.2125 81.3249 24.9009 80.6901 24.1668C80.0554 23.4327 79.7422 22.4936 79.7422 21.3538C79.7422 20.2139 80.0787 19.2644 80.7134 18.5345C81.3481 17.8045 82.1944 17.4887 83.2523 17.4887C84.3102 17.4887 85.1565 17.8004 85.7912 18.5345C86.426 19.2686 86.7391 20.2076 86.7391 21.3475C86.7391 22.4873 86.4239 23.4389 85.7912 24.1605M93.4821 14.4708H97.1698V28.745H93.4588V14.4728M95.2508 8.22146C94.9582 8.21429 94.6672 8.26597 94.3954 8.37337C94.1236 8.48077 93.8768 8.64165 93.6698 8.84624C93.4628 9.05083 93.3001 9.29487 93.1914 9.56353C93.0828 9.83219 93.0305 10.1199 93.0377 10.4091C93.0377 10.9893 93.2709 11.5458 93.6859 11.956C94.101 12.3663 94.6639 12.5968 95.2508 12.5968C95.8378 12.5968 96.4007 12.3663 96.8157 11.956C97.2308 11.5458 97.4639 10.9893 97.4639 10.4091C97.4712 10.1197 97.4189 9.83184 97.3101 9.56303C97.2013 9.29422 97.0384 9.05009 96.8312 8.84547C96.624 8.64085 96.3768 8.48001 96.1048 8.37274C95.8328 8.26547 95.5415 8.214 95.2487 8.22146M105.045 10.6162H101.467V14.4728H99.3512V17.7021H101.467V23.6418C101.467 25.5241 101.89 26.871 102.626 27.601C103.363 28.3309 104.742 28.7471 106.526 28.7471C107.125 28.7643 107.725 28.7293 108.318 28.6425H108.529V25.4112L107.26 25.5158C106.414 25.5158 105.779 25.4112 105.567 25.0975C105.252 24.7858 105.144 24.1605 105.144 23.2152V17.8066H108.517V14.5753H105.155L105.045 10.6162ZM125.485 8.52472H129.173V28.8412H125.489V8.53727M165.951 23.7485C165.413 24.3645 164.812 24.9251 164.159 25.4217C163.585 25.7656 162.926 25.9458 162.255 25.9424C161.761 25.9382 161.273 25.8333 160.821 25.6343C160.37 25.4353 159.965 25.1465 159.632 24.7859C158.893 23.9493 158.574 23.0144 158.574 21.7637C158.574 20.513 158.889 19.576 159.632 18.7415C159.952 18.3627 160.356 18.0622 160.813 17.8634C161.27 17.6646 161.767 17.5729 162.266 17.5954C163.425 17.5954 164.688 18.3253 165.742 19.576L168.164 17.2754C166.584 15.2948 164.582 14.3578 162.158 14.3578C160.156 14.3578 158.47 15.0877 156.995 16.5455C155.615 17.976 154.856 19.8833 154.88 21.8599C154.88 23.9514 155.618 25.819 156.995 27.1743C157.651 27.8787 158.45 28.4379 159.339 28.815C160.229 29.1921 161.19 29.3785 162.158 29.362C164.792 29.362 166.899 28.2158 168.374 26.1328L165.951 23.7359M180.808 16.5476C180.254 15.8256 179.527 15.2507 178.693 14.8744C177.736 14.4366 176.691 14.2219 175.637 14.247C173.636 14.247 171.95 14.9769 170.684 16.4346C169.487 17.9499 168.854 19.8266 168.892 21.749C168.892 23.9367 169.527 25.7082 170.894 27.0635C172.261 28.4187 173.949 29.1549 176.162 29.1549C178.585 29.1549 180.588 28.2179 182.169 26.2373L182.275 26.1328L179.852 23.8321C179.64 24.1438 179.325 24.3529 179.006 24.6687C178.707 24.9803 178.347 25.2286 177.948 25.3986C177.4 25.6955 176.78 25.84 176.156 25.8169C175.238 25.8301 174.343 25.5351 173.617 24.9804C172.982 24.4596 172.669 23.7255 172.559 22.7927H182.253V21.4374C182.277 20.5135 182.134 19.5927 181.83 18.7185C181.676 17.9107 181.311 17.1567 180.772 16.5308M172.906 19.8897C173.067 19.2592 173.394 18.6819 173.854 18.2166C174.103 17.9712 174.401 17.7796 174.728 17.654C175.056 17.5283 175.407 17.4714 175.758 17.4866C176.604 17.4866 177.338 17.6958 177.759 18.2166C178.183 18.6349 178.394 19.2623 178.498 19.8897H172.906ZM194.823 15.6169C193.765 14.6799 192.189 14.2616 190.293 14.2616C189.134 14.2941 187.991 14.5424 186.925 14.9936C185.977 15.5144 185.021 16.2485 184.502 17.2942L186.83 19.4819C187.778 17.9196 188.831 17.3904 190.306 17.3904C190.995 17.3724 191.669 17.5945 192.21 18.0179C192.45 18.2013 192.643 18.4388 192.771 18.7105C192.899 18.9823 192.96 19.2805 192.949 19.5802V20.3101C192.1 20.0271 191.21 19.8858 190.314 19.8918C188.523 19.8918 187.048 20.3101 185.888 21.1467C184.729 21.9833 184.196 23.2382 184.196 24.6896C184.196 26.0449 184.619 27.0865 185.565 27.9189C186.51 28.7513 187.68 29.065 189.041 29.065C190.401 29.065 191.675 28.5442 192.94 27.601V28.7471H196.522V19.5781C196.522 17.9049 195.995 16.5559 194.829 15.619M188.402 23.3281C188.825 23.0165 189.35 22.9098 190.094 22.9098C191.03 22.941 191.954 23.1167 192.834 23.4306V24.7859C191.962 25.5444 190.835 25.9532 189.673 25.932C189.039 25.932 188.514 25.8274 188.192 25.5137C187.871 25.2 187.665 24.8862 187.665 24.4679C187.703 24.2371 187.787 24.0163 187.914 23.8192C188.041 23.6221 188.208 23.4528 188.404 23.3218M210.522 15.826C209.464 14.6799 208.1 14.1528 206.308 14.1528C204.832 14.1528 203.673 14.5711 202.831 15.4077V14.5711H199.247V28.8454H202.935V20.9313C202.935 19.8856 203.147 18.9507 203.673 18.3274C203.931 18.0231 204.256 17.7807 204.622 17.6184C204.989 17.4561 205.388 17.3781 205.789 17.3904C206.151 17.373 206.511 17.4396 206.842 17.5849C207.173 17.7302 207.464 17.9501 207.693 18.227C208.188 18.893 208.448 19.7014 208.432 20.5276V28.8621H212.103V20.5151C211.997 18.5352 211.47 16.9721 210.522 15.826ZM120.96 15.6169C119.902 14.6799 118.325 14.2616 116.43 14.2616C115.269 14.2929 114.125 14.5405 113.057 14.9915C112.109 15.5123 111.153 16.2464 110.635 17.2921L112.962 19.4798C113.91 17.9175 114.963 17.3883 116.438 17.3883C117.128 17.3703 117.802 17.5924 118.342 18.0158C118.582 18.1992 118.775 18.4367 118.903 18.7084C119.032 18.9802 119.092 19.2784 119.081 19.5781V20.308C118.232 20.0251 117.342 19.8837 116.447 19.8897C114.655 19.8897 113.18 20.308 112.02 21.1446C110.861 21.9812 110.328 23.2361 110.328 24.6876C110.328 26.0428 110.751 27.0844 111.697 27.9168C112.642 28.7492 113.812 29.0629 115.173 29.0629C116.533 29.0629 117.807 28.5421 119.072 27.5989V28.745H122.654V19.5781C122.654 17.9049 122.02 16.5559 120.962 15.619M114.428 23.3281C114.851 23.0165 115.376 22.9098 116.121 22.9098C117.056 22.941 117.98 23.1167 118.861 23.4306V24.7859C117.989 25.5444 116.861 25.9532 115.7 25.932C115.065 25.932 114.54 25.8274 114.219 25.5137C113.897 25.2 113.692 24.8862 113.692 24.4679C113.849 24.0367 114.102 23.6453 114.43 23.3218M142.358 29.157C140.273 29.1578 138.235 28.5474 136.501 27.403C134.767 26.2586 133.415 24.6315 132.617 22.7277C131.819 20.8238 131.609 18.7286 132.015 16.7071C132.422 14.6856 133.425 12.8286 134.899 11.371C136.373 9.91336 138.251 8.92057 140.296 8.51818C142.341 8.1158 144.461 8.3219 146.387 9.11042C148.313 9.89893 149.96 11.2344 151.118 12.948C152.277 14.6616 152.895 16.6763 152.895 18.7373C152.885 21.497 151.772 24.1409 149.798 26.0927C147.824 28.0445 145.15 29.146 142.358 29.157ZM142.358 11.8627C141.003 11.8606 139.678 12.2559 138.55 12.9986C137.422 13.7413 136.542 14.798 136.022 16.035C135.502 17.2721 135.364 18.6338 135.627 19.9481C135.89 21.2623 136.541 22.47 137.498 23.4183C138.456 24.3666 139.676 25.013 141.005 25.2756C142.334 25.5382 143.712 25.4053 144.964 24.8937C146.217 24.3821 147.288 23.5147 148.041 22.4014C148.795 21.288 149.198 19.9787 149.199 18.639C149.201 17.7493 149.025 16.868 148.681 16.0456C148.338 15.2233 147.834 14.476 147.197 13.8468C146.561 13.2176 145.805 12.7188 144.973 12.3791C144.141 12.0393 143.25 11.8652 142.35 11.8669" fill="#5F6368"/>
</svg>
