<svg width="110" height="38" viewBox="0 0 110 38" fill="none" xmlns="http://www.w3.org/2000/svg">
<path d="M18.7189 37.904C15.5345 37.6808 12.7605 36.423 10.5437 34.1972C8.82385 32.4705 7.65983 30.2896 7.16211 27.8616C7.0569 27.3483 7.04956 27.0802 7.12487 26.4997C7.40249 24.3599 8.24334 22.3306 9.54721 20.6538C10.0759 19.9739 11.0285 18.9792 10.9393 19.2001C10.8608 19.3947 10.6577 20.1371 10.5491 20.6263C9.86815 23.6939 10.256 26.8966 11.6451 29.677C11.9684 30.3241 12.1182 30.5838 12.4935 31.1482C14.1714 33.6718 16.6743 35.5893 19.5131 36.5261C20.7387 36.9305 21.9649 37.1557 23.3429 37.2295C23.4947 37.2375 23.4838 37.2436 23.0958 37.3673C22.3957 37.5903 21.6843 37.741 20.8735 37.8381C20.44 37.89 19.1032 37.9309 18.7189 37.904ZM23.4488 36.0654C21.331 35.9938 19.2541 35.3821 17.4482 34.2981C16.5654 33.7681 16.3801 33.6076 15.8699 32.9308C14.2229 30.746 13.3801 28.1038 13.4549 25.3595L13.4609 25.1301L13.6467 25.483C14.5672 27.2319 15.9556 28.8643 17.5392 30.0597C19.4826 31.5267 21.6744 32.408 24.1721 32.7265C24.8712 32.8157 26.613 32.8151 27.3136 32.7258C30.157 32.362 32.6084 31.2598 34.7775 29.37L35.1468 29.0484L34.9331 29.4556C34.0519 31.1345 32.7292 32.6387 31.1407 33.7685C28.9219 35.3466 26.2026 36.1585 23.4488 36.0654ZM9.32986 34.7266C9.2425 34.6786 9.03602 34.5665 8.871 34.4774C7.98699 34 6.97868 33.2405 6.18534 32.4543C4.16761 30.4546 2.92226 27.8964 2.5631 25.0134C2.4869 24.4018 2.47831 22.8583 2.54757 22.218C2.7673 20.1863 3.46311 18.2737 4.60868 16.5528C4.86833 16.1628 4.95596 16.0682 5.36029 15.7418C6.78748 14.5895 8.5304 13.7643 10.3559 13.3764C11.1277 13.2124 11.7277 13.1455 12.6125 13.1246L13.442 13.105L12.9478 13.3774C12.1551 13.8145 11.4948 14.256 10.7947 14.8169C10.3386 15.1823 9.14279 16.3806 8.77862 16.8373C6.94 19.1428 5.91567 21.8155 5.76612 24.6976C5.59341 28.0259 6.65009 31.3012 8.73785 33.9088C9.03847 34.2842 9.16387 34.4315 9.4305 34.7221C9.53701 34.8381 9.53315 34.8389 9.32986 34.7266ZM27.3844 31.3718C24.9989 31.0799 22.9511 30.2365 21.1616 28.8089C20.7689 28.4956 19.7598 27.5542 19.7873 27.5267C19.7925 27.5214 19.9755 27.5707 20.1931 27.6367C21.0905 27.9091 22.0479 28.0995 22.9723 28.1892C23.5624 28.2464 24.924 28.2464 25.5137 28.1891C27.7738 27.9695 29.9612 27.1996 31.7789 25.9837C32.6084 25.4289 33.1612 24.9712 33.9152 24.2149C36.294 21.8286 37.6265 18.8198 37.8713 15.2821L37.8933 14.9644L37.9607 15.1762C38.177 15.8558 38.3349 16.5471 38.4564 17.347C38.5245 17.7952 38.5342 18.0035 38.5347 19.0236C38.5354 20.2595 38.5028 20.6189 38.3047 21.565C37.5213 25.3058 35.0937 28.4703 31.6806 30.2002C31.1928 30.4474 30.2588 30.8393 29.9435 30.929C29.8756 30.9483 29.6504 31.0138 29.4432 31.0745C28.5725 31.3295 27.8689 31.4311 27.3844 31.3718ZM21.2422 30.7995C18.4243 29.7061 16.0936 27.6362 14.6604 24.9544C14.4509 24.5624 14.4586 24.5619 14.8776 24.9399C15.3934 25.4052 16.254 26.0253 16.9551 26.4367C17.1351 26.5423 17.2202 26.6229 17.3433 26.804C18.4048 28.3662 19.7776 29.7059 21.2885 30.6541C21.5205 30.7997 21.7401 30.9377 21.7765 30.9609C21.9104 31.0458 21.7597 31.0003 21.2422 30.7995ZM12.527 28.817C11.4013 26.4239 11.0914 23.5354 11.6722 20.85C11.7912 20.2996 12.0233 19.5314 12.0553 19.5817C12.0699 19.6048 12.0822 19.7382 12.0825 19.8782C12.0832 20.4031 12.2778 21.6429 12.4865 22.4578L12.5705 22.7858L12.4854 23.2465C12.3183 24.1513 12.2798 24.6062 12.2798 25.6772C12.2798 26.9386 12.3578 27.6314 12.6315 28.8002C12.6769 28.994 12.7095 29.1569 12.7041 29.1624C12.6989 29.1678 12.6189 29.0125 12.527 28.817ZM23.1936 27.05C22.6684 27.0096 21.7822 26.867 21.2598 26.7388C20.7135 26.6048 20.1664 26.4428 20.1662 26.4151C20.1662 26.4031 20.2733 26.3917 20.4044 26.3885C21.121 26.3713 22.2959 26.1915 23.1129 25.974L23.43 25.8896L23.8718 25.9751C24.7248 26.1402 25.2635 26.1867 26.3255 26.1867C27.6008 26.1867 28.5003 26.078 29.6258 25.7879C29.7714 25.7503 29.8948 25.7236 29.9 25.7284C29.9203 25.7474 28.8421 26.2079 28.4194 26.3608C26.8193 26.9399 24.9568 27.1856 23.1936 27.05ZM26.0608 25.0394C28.1291 23.9226 29.8336 22.3792 31.0865 20.4885C32.2945 18.6657 33.0064 16.7296 33.2865 14.5056C33.3751 13.8018 33.3739 12.0928 33.2842 11.3994C33.1557 10.4052 32.9457 9.47374 32.6554 8.61094C32.0675 6.86315 30.9629 5.00055 29.7696 3.74454C29.6613 3.63067 29.5886 3.54341 29.608 3.55077C29.8773 3.65264 30.6839 4.12039 31.1964 4.47182C32.1069 5.09618 33.319 6.22784 33.9474 7.04021C35.1412 8.5837 35.9491 10.2998 36.3484 12.1407C36.5618 13.1248 36.5963 13.4957 36.5963 14.8056C36.5963 15.9036 36.5883 16.0755 36.5145 16.5528C36.2062 18.546 35.5933 20.1582 34.5353 21.7588C34.2177 22.2392 34.0971 22.3616 33.4891 22.8195C31.7424 24.1351 29.7679 24.9182 27.5255 25.1845C27.3508 25.2052 26.8584 25.2304 26.4313 25.2404L25.6548 25.2585L26.0608 25.0394ZM25.4254 23.7769C26.0223 23.0991 26.5398 22.3991 26.9693 21.6886C27.1851 21.3315 27.2418 21.2639 27.4407 21.127C28.7499 20.2257 29.7466 19.2893 30.6376 18.1236C30.9475 17.718 31.3478 17.1269 31.528 16.8087C31.5912 16.6971 31.649 16.6058 31.6564 16.6058C31.6639 16.6058 31.6147 16.7583 31.5473 16.9448C30.4812 19.8898 28.368 22.3305 25.6196 23.791L25.2313 23.9974L25.4254 23.7769ZM1.20454 22.8502C0.782902 21.5355 0.554936 19.7834 0.641094 18.5198C0.787764 16.3687 1.30083 14.6177 2.28766 12.9003C3.56185 10.6827 5.36572 8.9915 7.65324 7.86971C8.62469 7.3933 9.41993 7.10943 10.4064 6.88689C11.1206 6.72578 11.2688 6.71144 11.7409 6.75769C14.047 6.98366 16.2585 7.89179 18.0931 9.36613C18.5674 9.74733 19.4192 10.5521 19.3848 10.5865C19.3728 10.5985 19.2698 10.5772 19.1557 10.5389C18.4538 10.3042 17.4385 10.0824 16.6364 9.98863C15.9337 9.90649 14.994 9.85849 14.5539 9.8821C12.3704 9.9997 10.698 10.4159 8.93799 11.2798C5.87696 12.7823 3.49439 15.3725 2.25336 18.5471C2.15184 18.8068 2.01016 19.2295 1.82745 19.8178C1.61743 20.4941 1.42375 21.6583 1.32593 22.8326L1.29977 23.1471L1.20454 22.8502ZM50.2394 16.9058V11.17H50.663H51.0865V16.9058V22.6416H50.663H50.2394V16.9058ZM55.2693 22.6044C54.2613 22.506 53.6228 22.1008 53.2425 21.3179C52.8489 20.5077 52.6928 19.4107 52.7756 18.037C52.9 15.9729 53.5201 14.9682 54.8363 14.6981C55.7233 14.5161 56.681 14.6069 57.299 14.9317C58.0362 15.3191 58.4766 16.12 58.6466 17.3823C58.7188 17.9188 58.7058 19.5723 58.626 20.012C58.4011 21.2494 57.9754 21.9687 57.2606 22.3192C56.9073 22.4923 56.6655 22.556 56.1745 22.6051C55.7733 22.6451 55.6861 22.6451 55.2693 22.6044ZM56.4102 21.8467C57.0825 21.6882 57.5227 21.2063 57.6993 20.4355C57.8162 19.925 57.8352 19.7447 57.8533 18.9707C57.8837 17.672 57.7907 16.953 57.5127 16.34C57.2253 15.706 56.8172 15.4189 56.0878 15.3376C55.6535 15.289 55.1894 15.3349 54.8338 15.4633C54.2068 15.6884 53.7966 16.3816 53.6566 17.4529C53.5868 17.9865 53.5981 19.4679 53.6757 19.9561C53.8588 21.1084 54.2377 21.6329 55.0398 21.8445C55.3055 21.9147 56.1168 21.9154 56.4102 21.8467ZM62.8127 22.6058C62.1753 22.5396 61.7255 22.3902 61.3321 22.1139C60.9332 21.8338 60.6717 21.4524 60.5038 20.906C60.4244 20.6478 60.4243 20.642 60.4135 17.7088L60.4027 14.7703H60.8082H61.2137L61.2261 17.5852C61.2372 20.0899 61.2451 20.4246 61.298 20.6215C61.4782 21.2913 61.9079 21.6921 62.6141 21.8492C62.8328 21.8979 63 21.9053 63.5231 21.8901C64.172 21.8712 64.6063 21.8048 65.0025 21.6637L65.1701 21.604V18.1871V14.7703H65.5937H66.0173V18.4355V22.1008L65.9202 22.1459C65.2135 22.4749 63.7036 22.6984 62.8127 22.6058ZM70.1824 22.6204C69.1256 22.4989 68.6476 22.2673 68.2217 21.6705C67.9505 21.2904 67.7998 20.8962 67.6348 20.1355C67.5602 19.7916 67.5545 19.6824 67.5558 18.6178C67.5573 17.5107 67.5602 17.4549 67.652 17.0216C67.9124 15.7883 68.3742 15.1244 69.1842 14.8189C69.6787 14.6324 70.305 14.5672 71.0346 14.6263C71.4755 14.6621 72.2135 14.7746 72.3498 14.8269C72.4009 14.8465 72.4061 14.6779 72.4061 13.0093V11.17H72.8297H73.2532V16.5505V21.9309L73.1478 22.006C72.8204 22.239 72.1175 22.4727 71.506 22.5517C71.0824 22.6063 70.3785 22.6429 70.1824 22.6204ZM71.7004 21.8016C71.8849 21.7617 72.1152 21.6996 72.2122 21.6636L72.3884 21.5981V18.6167V15.6351L72.1061 15.5406C71.548 15.3538 70.4319 15.2641 69.9189 15.3648C69.1434 15.517 68.7076 16.0583 68.4653 17.1706C68.409 17.4288 68.3999 17.6327 68.4 18.6354C68.4 19.7654 68.4029 19.8132 68.4945 20.2364C68.698 21.1773 69.0697 21.643 69.7679 21.8316C70.122 21.9272 71.1962 21.9105 71.7004 21.8016ZM74.9359 22.6184C74.9229 22.605 74.9122 20.0241 74.9122 16.8823V11.17H75.7239H76.5356L76.5449 16.2087L76.5543 21.2474L78.3721 21.2567L80.1899 21.2661L80.1819 21.9452L80.1739 22.6244L77.5664 22.6337C76.1323 22.6391 74.949 22.6317 74.9359 22.6184ZM81.7246 18.7067V14.7703H82.5189H83.3132L83.3039 18.6972L83.2946 22.624L82.5092 22.6333L81.7238 22.6427L81.7246 18.7067ZM84.9719 18.9762V15.3108L85.3514 15.1818C86.228 14.8839 87.1688 14.7504 88.1663 14.7825C88.5158 14.7932 88.9155 14.8264 89.0546 14.8549C90.2341 15.0973 90.8823 15.6282 91.1707 16.5882C91.2293 16.7834 91.2352 17.0285 91.2457 19.7208L91.2577 22.6417H90.4632H89.6687L89.6593 19.8796L89.65 17.1176L89.5692 16.9178C89.4629 16.6549 89.3181 16.4764 89.0801 16.3152C88.8008 16.1259 88.5897 16.0702 88.0757 16.0503C87.6125 16.0323 87.1226 16.0875 86.7468 16.2001L86.5615 16.2557V19.4487V22.6418H85.7673H84.9731L84.9719 18.9762ZM95.5351 22.6024C94.0465 22.4647 93.1848 21.7502 92.9858 20.4885C92.9634 20.3464 92.9496 19.2153 92.9494 17.5147L92.9492 14.7703H93.7257H94.5022L94.5026 17.3735C94.5026 18.9712 94.5168 20.0623 94.5389 20.1983C94.6421 20.8341 95.0608 21.2163 95.7512 21.305C96.236 21.3673 97.0738 21.2861 97.4144 21.1438L97.538 21.0922V17.9313V14.7704H98.3145H99.0911V18.4228V22.0751L98.9925 22.126C98.8419 22.2039 98.3694 22.3488 98.0033 22.4293C97.3052 22.583 96.1783 22.662 95.5351 22.6024ZM100.243 22.5971C100.315 22.4783 101.082 21.3136 101.933 20.0293C102.454 19.243 102.881 18.5753 102.882 18.5454C102.883 18.4914 102.759 18.2984 101.237 15.987L100.435 14.7699H101.328H102.221L103.047 16.1457C103.682 17.2033 103.882 17.5115 103.913 17.4782C103.936 17.4545 104.307 16.8472 104.738 16.1289C105.169 15.4106 105.533 14.8107 105.547 14.7958C105.561 14.7809 105.966 14.773 106.446 14.7782L107.32 14.7875L107.03 15.2287C106.871 15.4714 106.322 16.3071 105.81 17.0858C105.298 17.8645 104.88 18.5189 104.88 18.54C104.88 18.5611 105.271 19.1709 105.75 19.895C107.093 21.9267 107.497 22.5449 107.517 22.5957C107.532 22.6338 107.371 22.6406 106.64 22.633L105.745 22.6237L104.827 21.1321C104.323 20.3118 103.896 19.6453 103.878 19.6512C103.861 19.6565 103.435 20.3322 102.931 21.1516L102.016 22.6413H101.116C100.405 22.6413 100.222 22.6319 100.243 22.5971ZM45.5964 22.5574C44.6968 22.4097 43.8721 21.9275 43.2984 21.2137C42.5493 20.2819 42.1613 19.057 42.0995 17.4287C42.0227 15.4062 42.5071 13.7638 43.4876 12.7215C44.3227 11.8338 45.3778 11.4555 46.732 11.5583C47.2742 11.5995 47.7326 11.7091 48.1934 11.9077C48.3711 11.9844 48.5228 12.0533 48.5304 12.061C48.5404 12.0703 48.2979 12.6828 48.2435 12.7848C48.2406 12.7901 48.1186 12.7384 47.9718 12.6707C47.0211 12.2314 45.8333 12.2056 45.0339 12.6069C44.6292 12.8101 44.1226 13.2569 43.8619 13.6405C43.4742 14.211 43.1782 15.0789 43.0673 15.9702C43.0085 16.4424 43.0093 17.7562 43.0688 18.1939C43.3583 20.3297 44.3894 21.5961 45.9982 21.7917C46.6551 21.8715 47.6216 21.6953 48.1118 21.406C48.1744 21.3692 48.2324 21.35 48.2406 21.3636C48.2489 21.3772 48.3194 21.5417 48.3974 21.7291L48.539 22.07L48.3215 22.1768C48.0428 22.3136 47.6502 22.4438 47.2922 22.5182C46.9128 22.597 45.9702 22.6188 45.5964 22.5574ZM7.5297 21.5353C7.5297 21.5233 7.61072 21.2943 7.70973 21.027C8.0651 20.0678 8.67586 18.9284 9.29594 18.0678C9.87462 17.2647 10.8224 16.2687 11.6065 15.6396C12.1208 15.227 12.9855 14.6539 13.5225 14.3698C14.0139 14.1098 14.0172 14.0749 13.4924 14.6875C13.0123 15.2479 12.5556 15.8876 12.1712 16.5381C12.0012 16.8258 11.9593 16.8707 11.6899 17.0533C10.9453 17.5577 10.3632 18.0398 9.71748 18.6866C8.95467 19.4506 8.29388 20.2898 7.76793 21.1624C7.63688 21.3798 7.5297 21.5476 7.5297 21.5353ZM28.2497 18.9847C28.2494 18.9635 28.2818 18.8523 28.3216 18.7377C28.5561 18.0627 28.8407 16.6733 28.921 15.8113C29.0616 14.3047 28.9363 12.6681 28.5685 11.205C28.1673 9.6092 27.7476 8.75029 26.7524 7.48814C26.5564 7.23963 26.2708 6.86635 26.1175 6.65865C25.2205 5.44261 24.1573 4.37673 23.0309 3.56424C22.0494 2.85628 20.9033 2.2497 19.7042 1.80373C18.5788 1.38514 17.0188 1.06448 15.8656 1.01468L15.3498 0.992423L15.596 0.90746C16.0867 0.738175 17.4811 0.406574 18.0004 0.335665C19.0615 0.190794 19.7752 0.161224 20.5721 0.229013C22.3858 0.383378 23.8665 0.78751 25.3592 1.53565C26.5817 2.14838 27.5958 2.8857 28.6048 3.89542C30.3562 5.64822 31.4469 7.64285 32.013 10.1284C32.1437 10.7024 32.1435 11.2443 32.0123 12.0328C31.6473 14.2225 30.7649 16.1522 29.3528 17.8488C29.0326 18.2335 28.2504 19.0389 28.2497 18.9847ZM27.1091 18.1678C27.0774 17.4483 26.9012 16.3601 26.6929 15.5972L26.6248 15.3478L26.7106 14.8913C26.8761 14.0111 26.9227 13.4781 26.9237 12.458C26.9244 11.4589 26.8784 10.8994 26.7283 10.0931C26.6644 9.74951 26.5168 9.09509 26.464 8.92072C26.4231 8.78581 26.6099 9.16013 26.776 9.54603C27.8659 12.0776 28.1091 14.8551 27.4729 17.5055C27.3801 17.8921 27.1699 18.6142 27.1421 18.642C27.1354 18.6487 27.1209 18.435 27.1091 18.1678ZM107.986 14.2935V13.8523H107.866C107.767 13.8523 107.744 13.8375 107.73 13.764L107.713 13.6757H108.097C108.479 13.6757 108.48 13.6759 108.48 13.7619C108.48 13.8359 108.461 13.8495 108.347 13.8589L108.215 13.8696L108.206 14.302L108.196 14.7344H108.092H107.987L107.986 14.2935ZM108.563 14.62C108.574 14.5569 108.601 14.3544 108.622 14.1699C108.681 13.6554 108.673 13.6758 108.827 13.6758H108.96L109.064 14.0287C109.121 14.2229 109.177 14.3817 109.189 14.3817C109.201 14.3817 109.257 14.2268 109.315 14.0376L109.421 13.6934L109.551 13.6827C109.634 13.6761 109.686 13.6881 109.697 13.7181C109.713 13.7632 109.821 14.6179 109.821 14.6991C109.821 14.7227 109.78 14.735 109.724 14.7285C109.635 14.7178 109.625 14.7017 109.603 14.5232C109.589 14.4164 109.574 14.2617 109.57 14.1793C109.566 14.0969 109.55 14.0123 109.537 13.9912C109.517 13.958 109.379 14.3454 109.307 14.6398C109.287 14.7212 109.267 14.7369 109.19 14.7281C109.105 14.7188 109.089 14.6872 108.99 14.3563C108.93 14.1577 108.873 13.9865 108.862 13.9757C108.843 13.9565 108.762 14.5074 108.762 14.658C108.762 14.7206 108.742 14.735 108.652 14.735C108.548 14.735 108.544 14.7293 108.563 14.62ZM24.3665 13.2294C23.7907 12.7143 22.9768 12.1242 22.2587 11.7013C22.0292 11.5662 21.9804 11.5164 21.7663 11.1989C21.2186 10.3866 20.2962 9.34781 19.5303 8.68085C19.0481 8.26086 18.3467 7.74261 17.7992 7.40171C17.542 7.24156 17.3392 7.11049 17.3485 7.11049C17.3578 7.11049 17.5548 7.18051 17.7863 7.26593C20.4742 8.25854 22.7828 10.1826 24.236 12.6413C24.4453 12.9955 24.735 13.5387 24.7111 13.532C24.7059 13.5307 24.5509 13.3945 24.3665 13.2294ZM82.2519 13.2764C81.696 13.1206 81.4235 12.528 81.6754 12.0225C81.9597 11.4519 82.7782 11.3508 83.2133 11.8324C83.6324 12.2963 83.4702 12.9868 82.8846 13.2315C82.6999 13.3087 82.4343 13.3276 82.2519 13.2764ZM25.4431 12.6406C25.1183 12.0359 24.5361 11.1622 24.063 10.5697C23.3375 9.66106 22.1879 8.58762 21.2078 7.90368C20.4222 7.35543 19.2797 6.73614 18.5071 6.43965C18.0522 6.26504 17.2429 5.99652 17.0247 5.94773C16.9179 5.92386 16.6437 5.85853 16.4152 5.80242C15.9178 5.68042 15.1402 5.54144 14.6068 5.47937C14.0929 5.41964 12.2264 5.41964 11.7124 5.47937C8.85742 5.81158 6.34144 6.91954 4.16583 8.80264L3.74928 9.1632L3.87087 8.92223C5.0222 6.64065 7.03598 4.64374 9.36327 3.47586C11.2842 2.51185 13.5193 2.04763 15.6601 2.16796C18.1275 2.30664 20.2781 3.00609 22.2597 4.31442C22.6705 4.58559 22.7409 4.64844 23.0265 4.99816C24.447 6.7375 25.3196 8.773 25.6351 11.083C25.6873 11.4656 25.7355 12.618 25.7104 12.8853L25.6902 13.1007L25.4431 12.6406ZM9.4887 12.3098C10.061 12.0114 11.1374 11.6188 11.9242 11.4214C12.462 11.2866 13.2457 11.1514 13.8126 11.0957C14.3794 11.0399 15.6107 11.0399 16.1775 11.0957C17.0347 11.1799 18.0278 11.3822 18.7719 11.6241L19.0896 11.7272L18.9015 11.7312C18.2343 11.7446 17.1239 11.9048 16.2743 12.1118L15.7534 12.2388L15.3742 12.1646C13.9828 11.8924 12.4674 11.8536 11.041 12.0538C10.5087 12.1286 9.84653 12.2599 9.52641 12.3542C9.28911 12.4242 9.28325 12.4169 9.4887 12.3098Z" fill="#5F6368"/>
</svg>
