<svg width="246" height="44" viewBox="0 0 246 44" fill="none" xmlns="http://www.w3.org/2000/svg">
<g clip-path="url(#clip0_118_81)">
<path d="M29.2856 12.9303H30.6703L34.6167 8.98388L34.8106 7.30839C32.5498 5.31297 29.8177 3.92683 26.8723 3.28089C23.9269 2.63495 20.8654 2.75055 17.9771 3.61677C15.0888 4.48299 12.469 6.07122 10.3651 8.23145C8.2613 10.3917 6.7429 13.0526 5.95337 15.9628C6.39302 15.7826 6.88003 15.7534 7.33807 15.8797L15.2309 14.5781C15.2309 14.5781 15.6324 13.9134 15.8401 13.955C17.5313 12.0976 19.8685 10.9569 22.3732 10.7664C24.8779 10.576 27.3607 11.3501 29.3133 12.9303H29.2856Z" fill="#5F6368"/>
<path d="M40.239 15.9628C39.3319 12.6224 37.4695 9.61941 34.8802 7.32227L29.3414 12.8611C30.4958 13.8043 31.4209 14.9973 32.0469 16.3502C32.673 17.703 32.9836 19.1804 32.9555 20.6708V21.6539C33.6029 21.6539 34.2439 21.7814 34.842 22.0292C35.44 22.2769 35.9835 22.64 36.4412 23.0978C36.899 23.5555 37.2621 24.0989 37.5098 24.697C37.7575 25.2951 37.885 25.9361 37.885 26.5835C37.885 27.2308 37.7575 27.8718 37.5098 28.4699C37.2621 29.068 36.899 29.6114 36.4412 30.0692C35.9835 30.5269 35.44 30.89 34.842 31.1378C34.2439 31.3855 33.6029 31.513 32.9555 31.513H23.0964L22.1133 32.51V38.4227L23.0964 39.4058H32.9555C35.7086 39.4272 38.3955 38.562 40.6187 36.938C42.842 35.314 44.4834 33.0175 45.3003 30.3883C46.1172 27.759 46.0661 24.9367 45.1546 22.3388C44.2431 19.7408 42.5196 17.5053 40.239 15.9628Z" fill="#5F6368"/>
<path d="M13.2241 39.3506H23.0832V31.4578H13.2241C12.5217 31.4576 11.8275 31.3065 11.1886 31.0146L9.80391 31.4439L5.82982 35.3903L5.48364 36.775C7.71223 38.4578 10.4316 39.3627 13.2241 39.3506Z" fill="#5F6368"/>
<path d="M13.2235 13.7472C10.5522 13.7631 7.95254 14.613 5.78767 16.1781C3.6228 17.7433 2.00083 19.9455 1.14829 22.4772C0.295745 25.0089 0.255216 27.7436 1.03236 30.2995C1.8095 32.8553 3.36551 35.1046 5.48305 36.7332L11.2019 31.0144C10.4751 30.686 9.83889 30.1863 9.34775 29.558C8.85661 28.9297 8.52524 28.1917 8.38205 27.4071C8.23887 26.6226 8.28816 25.8151 8.52568 25.0538C8.7632 24.2925 9.18188 23.6002 9.74578 23.0363C10.3097 22.4725 11.002 22.0538 11.7632 21.8163C12.5245 21.5787 13.3321 21.5294 14.1166 21.6726C14.9011 21.8158 15.6391 22.1472 16.2674 22.6383C16.8957 23.1295 17.3955 23.7657 17.7238 24.4924L23.4426 18.7736C22.2423 17.2044 20.6953 15.9342 18.9225 15.0622C17.1497 14.1902 15.1992 13.7401 13.2235 13.7472Z" fill="#5F6368"/>
<path d="M72.1292 33.839C70.4317 33.8606 68.7474 33.5394 67.177 32.8946C65.6067 32.2498 64.1826 31.2947 62.9901 30.0864C61.7601 28.9294 60.784 27.5295 60.1237 25.9753C59.4635 24.4211 59.1334 22.7466 59.1545 21.0582C59.1342 19.3698 59.4647 17.6956 60.1249 16.1415C60.7852 14.5875 61.7608 13.1874 62.9901 12.0299C64.1768 10.8091 65.5982 9.84121 67.1688 9.1844C68.7395 8.52759 70.4268 8.19549 72.1292 8.20812C73.7513 8.1865 75.3615 8.48753 76.8662 9.0937C78.371 9.69987 79.7402 10.5991 80.8943 11.7391L78.4296 14.2454C76.7416 12.6142 74.4763 11.718 72.1292 11.753C70.9116 11.738 69.7043 11.9765 68.5839 12.4533C67.4635 12.93 66.4545 13.6347 65.6211 14.5224C64.7549 15.3817 64.0716 16.4074 63.6123 17.5378C63.153 18.6681 62.9273 19.8798 62.9486 21.0997C62.9384 22.3057 63.1697 23.5016 63.6286 24.6169C64.0876 25.7322 64.765 26.7444 65.6211 27.5939C67.3358 29.3028 69.6498 30.2749 72.0705 30.3034C74.4912 30.3318 76.8275 29.4144 78.5819 27.7463C79.6681 26.5568 80.3344 25.0441 80.4789 23.4398H72.1707V19.895H83.9268C84.0424 20.6089 84.0887 21.3323 84.0653 22.0551C84.1384 23.5512 83.9074 25.0465 83.3862 26.4507C82.8649 27.8549 82.0644 29.1389 81.0328 30.2249C79.8859 31.419 78.5002 32.358 76.9661 32.9807C75.432 33.6034 73.7839 33.8959 72.1292 33.839ZM99.4632 31.485C97.8855 32.9973 95.7845 33.8417 93.599 33.8417C91.4135 33.8417 89.3125 32.9973 87.7348 31.485C86.9495 30.7236 86.3311 29.8073 85.9187 28.7942C85.5063 27.7811 85.309 26.6934 85.3392 25.6C85.3098 24.5067 85.5075 23.4192 85.9198 22.4063C86.3322 21.3933 86.9502 20.4769 87.7348 19.715C89.3141 18.2058 91.4145 17.3636 93.599 17.3636C95.7835 17.3636 97.8839 18.2058 99.4632 19.715C100.248 20.4769 100.866 21.3933 101.278 22.4063C101.69 23.4192 101.888 24.5067 101.859 25.6C101.887 26.6944 101.688 27.7827 101.273 28.7959C100.858 29.809 100.237 30.7248 99.4494 31.485H99.4632ZM90.3242 29.1725C90.7438 29.6207 91.251 29.9779 91.8143 30.2222C92.3776 30.4664 92.985 30.5924 93.599 30.5924C94.213 30.5924 94.8204 30.4664 95.3837 30.2222C95.947 29.9779 96.4542 29.6207 96.8738 29.1725C97.3314 28.6996 97.6896 28.1398 97.9275 27.5263C98.1653 26.9127 98.2778 26.2577 98.2585 25.6C98.2789 24.94 98.1669 24.2826 97.9291 23.6667C97.6913 23.0507 97.3324 22.4886 96.8738 22.0136C96.4486 21.57 95.938 21.2171 95.3729 20.9759C94.8077 20.7348 94.1996 20.6105 93.5851 20.6105C92.9707 20.6105 92.3626 20.7348 91.7974 20.9759C91.2322 21.2171 90.7217 21.57 90.2965 22.0136C89.8379 22.4886 89.479 23.0507 89.2412 23.6667C89.0034 24.2826 88.8914 24.94 88.9118 25.6C88.8943 26.2587 89.009 26.9143 89.2492 27.5279C89.4895 28.1415 89.8503 28.7007 90.3103 29.1725H90.3242ZM117.492 31.485C115.914 32.9973 113.813 33.8417 111.628 33.8417C109.442 33.8417 107.341 32.9973 105.764 31.485C104.978 30.7236 104.36 29.8073 103.947 28.7942C103.535 27.7811 103.338 26.6934 103.368 25.6C103.339 24.5067 103.536 23.4192 103.949 22.4063C104.361 21.3933 104.979 20.4769 105.764 19.715C107.341 18.2026 109.442 17.3583 111.628 17.3583C113.813 17.3583 115.914 18.2026 117.492 19.715C118.277 20.4769 118.895 21.3933 119.307 22.4063C119.719 23.4192 119.917 24.5067 119.888 25.6C119.918 26.6934 119.721 27.7811 119.308 28.7942C118.896 29.8073 118.277 30.7236 117.492 31.485ZM108.353 29.1725C108.773 29.6207 109.28 29.9779 109.843 30.2222C110.406 30.4664 111.014 30.5924 111.628 30.5924C112.242 30.5924 112.849 30.4664 113.413 30.2222C113.976 29.9779 114.483 29.6207 114.903 29.1725C115.36 28.6996 115.718 28.1398 115.956 27.5263C116.194 26.9127 116.307 26.2577 116.287 25.6C116.308 24.94 116.196 24.2826 115.958 23.6667C115.72 23.0507 115.361 22.4886 114.903 22.0136C114.477 21.57 113.967 21.2171 113.402 20.9759C112.837 20.7348 112.228 20.6105 111.614 20.6105C111 20.6105 110.391 20.7348 109.826 20.9759C109.261 21.2171 108.751 21.57 108.325 22.0136C107.867 22.4886 107.508 23.0507 107.27 23.6667C107.032 24.2826 106.92 24.94 106.941 25.6C106.923 26.2587 107.038 26.9143 107.278 27.5279C107.518 28.1415 107.879 28.7007 108.339 29.1725H108.353ZM129.345 41.2333C127.685 41.286 126.058 40.768 124.734 39.7655C123.559 38.8819 122.633 37.7081 122.048 36.3591L125.205 35.0436C125.548 35.8498 126.086 36.5586 126.77 37.1069C127.501 37.6967 128.419 38.006 129.359 37.9792C129.955 38.0155 130.551 37.9229 131.108 37.7078C131.665 37.4928 132.169 37.1603 132.585 36.733C133.42 35.7267 133.831 34.4363 133.735 33.1328V31.9419H133.61C133.082 32.5686 132.416 33.0639 131.664 33.3883C130.911 33.7128 130.094 33.8576 129.276 33.8113C128.236 33.8144 127.207 33.6019 126.254 33.1872C125.301 32.7725 124.444 32.1646 123.737 31.4019C122.97 30.6452 122.365 29.7409 121.958 28.7437C121.551 27.7464 121.351 26.6769 121.369 25.6C121.35 24.5167 121.55 23.4408 121.957 22.4366C122.364 21.4325 122.969 20.5209 123.737 19.7565C124.442 18.9906 125.298 18.3797 126.252 17.9625C127.205 17.5454 128.235 17.3311 129.276 17.3333C130.157 17.3318 131.027 17.5257 131.824 17.901C132.513 18.2021 133.128 18.6512 133.624 19.2165H133.748V17.901H137.182V32.6481C137.273 33.8147 137.124 34.9875 136.746 36.0946C136.367 37.2017 135.767 38.22 134.981 39.087C134.232 39.803 133.348 40.3618 132.38 40.7304C131.412 41.0991 130.38 41.27 129.345 41.2333ZM129.594 30.5988C130.186 30.6117 130.772 30.4944 131.313 30.2551C131.854 30.0158 132.336 29.6604 132.724 29.2141C133.578 28.235 134.029 26.9679 133.984 25.6692C134.035 24.3486 133.585 23.0576 132.724 22.0551C132.336 21.6081 131.855 21.2521 131.314 21.0127C130.773 20.7734 130.186 20.6565 129.594 20.6704C128.987 20.658 128.384 20.775 127.825 21.0138C127.266 21.2525 126.765 21.6075 126.354 22.0551C125.438 23.0215 124.941 24.3103 124.969 25.6415C124.955 26.2945 125.07 26.9438 125.308 27.5521C125.546 28.1604 125.901 28.7158 126.354 29.1864C126.763 29.6383 127.263 29.998 127.822 30.2415C128.381 30.4851 128.985 30.6068 129.594 30.5988ZM143.289 9.13587V33.3405H139.675V9.13587H143.289ZM153.203 33.839C152.121 33.8668 151.045 33.6708 150.042 33.2634C149.038 32.856 148.13 32.2458 147.374 31.4711C146.606 30.7021 146.003 29.7851 145.601 28.7759C145.199 27.7666 145.006 26.6861 145.034 25.6C144.993 24.5112 145.172 23.4253 145.559 22.4071C145.947 21.3889 146.536 20.4592 147.291 19.6735C148.002 18.9236 148.862 18.3306 149.816 17.9324C150.77 17.5341 151.796 17.3395 152.83 17.361C153.78 17.351 154.722 17.5347 155.599 17.901C156.389 18.2198 157.109 18.6903 157.718 19.2857C158.241 19.7905 158.705 20.3526 159.102 20.9612C159.424 21.4751 159.697 22.0174 159.919 22.5813L160.293 23.5229L149.216 28.0786C149.551 28.8484 150.111 29.4985 150.823 29.9435C151.535 30.3884 152.365 30.6072 153.203 30.5711C154.02 30.5733 154.822 30.364 155.533 29.9636C156.244 29.5631 156.839 28.9853 157.261 28.2863L160.03 30.1556C159.323 31.1668 158.419 32.0241 157.371 32.6758C156.126 33.4628 154.677 33.8672 153.203 33.839ZM148.579 25.3507L155.945 22.2905C155.718 21.751 155.312 21.306 154.796 21.0305C154.218 20.7039 153.563 20.5366 152.899 20.5458C151.772 20.575 150.702 21.0477 149.922 21.8613C149.455 22.3082 149.092 22.8526 148.86 23.4558C148.628 24.059 148.532 24.7061 148.579 25.3507Z" fill="#5F6368"/>
<path d="M179.221 33.8394C177.684 33.8659 176.158 33.5816 174.733 33.0035C173.309 32.4254 172.016 31.5654 170.932 30.4752C169.849 29.385 168.996 28.087 168.427 26.6592C167.857 25.2314 167.582 23.7032 167.618 22.1664C167.582 20.6295 167.857 19.1014 168.427 17.6736C168.996 16.2458 169.849 14.9478 170.932 13.8576C172.016 12.7673 173.309 11.9074 174.733 11.3292C176.158 10.7511 177.684 10.4668 179.221 10.4933C180.777 10.4447 182.324 10.7482 183.745 11.3812C185.167 12.0142 186.428 12.9604 187.433 14.1489L185.439 16.0875C184.701 15.1596 183.755 14.4189 182.677 13.9257C181.599 13.4324 180.42 13.2005 179.235 13.2489C178.095 13.2232 176.961 13.4283 175.903 13.8519C174.844 14.2754 173.881 14.9087 173.073 15.7137C172.233 16.5583 171.577 17.5676 171.146 18.6781C170.714 19.7885 170.517 20.9761 170.567 22.1664C170.517 23.3566 170.714 24.5442 171.146 25.6547C171.577 26.7651 172.233 27.7744 173.073 28.6191C173.881 29.424 174.844 30.0573 175.903 30.4809C176.961 30.9044 178.095 31.1095 179.235 31.0839C180.559 31.0987 181.868 30.8151 183.067 30.2541C184.266 29.6931 185.322 28.8692 186.159 27.8436L188.153 29.8376C187.109 31.086 185.798 32.0844 184.317 32.7593C182.721 33.4963 180.979 33.8654 179.221 33.8394Z" fill="#5F6368"/>
<path d="M193.512 33.3405H190.646V10.9775H193.512V33.3405Z" fill="#5F6368"/>
<path d="M198.192 19.8815C199.694 18.3898 201.725 17.5527 203.842 17.5527C205.958 17.5527 207.989 18.3898 209.491 19.8815C210.226 20.6569 210.8 21.57 211.18 22.5681C211.56 23.5662 211.739 24.6296 211.707 25.6972C211.739 26.7648 211.56 27.8282 211.18 28.8263C210.8 29.8244 210.226 30.7375 209.491 31.513C207.989 33.0046 205.958 33.8417 203.842 33.8417C201.725 33.8417 199.694 33.0046 198.192 31.513C197.458 30.7375 196.884 29.8244 196.503 28.8263C196.123 27.8282 195.944 26.7648 195.976 25.6972C195.944 24.6296 196.123 23.5662 196.503 22.5681C196.884 21.57 197.458 20.6569 198.192 19.8815ZM200.324 29.7128C200.776 30.1901 201.32 30.5703 201.924 30.8301C202.527 31.0899 203.178 31.2239 203.835 31.2239C204.492 31.2239 205.142 31.0899 205.746 30.8301C206.349 30.5703 206.893 30.1901 207.345 29.7128C207.846 29.1753 208.235 28.5433 208.489 27.8539C208.744 27.1645 208.858 26.4314 208.827 25.6972C208.858 24.963 208.744 24.2299 208.489 23.5405C208.235 22.8511 207.846 22.2192 207.345 21.6816C206.893 21.2043 206.349 20.8241 205.746 20.5643C205.142 20.3045 204.492 20.1705 203.835 20.1705C203.178 20.1705 202.527 20.3045 201.924 20.5643C201.32 20.8241 200.776 21.2043 200.324 21.6816C199.823 22.2192 199.434 22.8511 199.18 23.5405C198.926 24.2299 198.811 24.963 198.843 25.6972C198.815 26.43 198.933 27.1611 199.189 27.8481C199.446 28.535 199.837 29.1642 200.338 29.699L200.324 29.7128Z" fill="#5F6368"/>
<path d="M227.589 33.3408H224.82V31.2222H224.737C224.244 32.0269 223.546 32.6863 222.715 33.1331C221.853 33.633 220.873 33.8957 219.877 33.8947C219.067 33.9501 218.256 33.8219 217.503 33.5198C216.75 33.2177 216.075 32.7494 215.529 32.15C214.48 30.8232 213.953 29.1584 214.047 27.4697V18.0537H216.913V26.9435C216.913 29.796 218.173 31.2222 220.694 31.2222C221.253 31.2397 221.809 31.1231 222.315 30.8823C222.821 30.6414 223.262 30.2832 223.601 29.8375C224.344 28.896 224.74 27.7273 224.723 26.5281V18.0537H227.589V33.3408Z" fill="#5F6368"/>
<path d="M237.324 33.839C236.351 33.8422 235.39 33.6347 234.505 33.2307C233.621 32.8267 232.835 32.2359 232.2 31.4988C230.765 29.9132 229.996 27.8351 230.054 25.6969C229.996 23.5588 230.765 21.4806 232.2 19.895C232.835 19.158 233.621 18.5671 234.505 18.1632C235.39 17.7592 236.351 17.5516 237.324 17.5549C238.413 17.5377 239.489 17.7948 240.453 18.3026C241.3 18.7288 242.017 19.3744 242.53 20.172H242.655L242.53 18.0534V10.9775H245.397V33.3405H242.627V31.2219H242.503C241.99 32.0195 241.273 32.665 240.426 33.0912C239.47 33.5945 238.404 33.8515 237.324 33.839ZM237.795 31.2219C238.442 31.2313 239.085 31.1029 239.679 30.845C240.274 30.5872 240.807 30.2059 241.242 29.7264C242.216 28.6177 242.714 27.1699 242.627 25.6969C242.714 24.2239 242.216 22.7761 241.242 21.6674C240.804 21.1854 240.269 20.8002 239.673 20.5367C239.077 20.2731 238.433 20.137 237.781 20.137C237.129 20.137 236.484 20.2731 235.888 20.5367C235.292 20.8002 234.758 21.1854 234.319 21.6674C233.835 22.2127 233.464 22.8482 233.226 23.5372C232.989 24.2263 232.89 24.9555 232.934 25.6831C232.89 26.4106 232.989 27.1398 233.226 27.8289C233.464 28.518 233.835 29.1534 234.319 29.6987C234.755 30.1868 235.292 30.5753 235.891 30.8381C236.491 31.1009 237.14 31.2318 237.795 31.2219Z" fill="#5F6368"/>
</g>
<defs>
<clipPath id="clip0_118_81">
<rect width="245.874" height="43.5008" fill="white" transform="translate(0 0.302734)"/>
</clipPath>
</defs>
</svg>
