<svg width="57" height="34" viewBox="0 0 57 34" fill="none" xmlns="http://www.w3.org/2000/svg">
<path d="M16.1621 12.4596C16.1621 13.1504 16.2367 13.7105 16.3674 14.1213C16.5168 14.532 16.7035 14.9801 16.9649 15.4656C17.0582 15.6149 17.0956 15.7643 17.0956 15.895C17.0956 16.0817 16.9836 16.2684 16.7408 16.4551L15.5646 17.2393C15.3966 17.3513 15.2285 17.4073 15.0791 17.4073C14.8924 17.4073 14.7057 17.314 14.519 17.146C14.2576 16.8659 14.0336 16.5672 13.8469 16.2684C13.6602 15.951 13.4735 15.5963 13.2681 15.1669C11.8118 16.8846 9.98203 17.7434 7.77888 17.7434C6.21053 17.7434 4.95959 17.2953 4.04472 16.3991C3.12986 15.5029 2.66309 14.308 2.66309 12.8143C2.66309 11.2273 3.22321 9.93904 4.36213 8.96816C5.50104 7.99728 7.01337 7.51184 8.93646 7.51184C9.57127 7.51184 10.2247 7.56785 10.9156 7.6612C11.6064 7.75456 12.3159 7.90392 13.0627 8.07196V6.70899C13.0627 5.29001 12.764 4.30046 12.1852 3.72167C11.5877 3.14288 10.5795 2.86281 9.14184 2.86281C8.48837 2.86281 7.81622 2.9375 7.1254 3.10553C6.43458 3.27357 5.76243 3.47895 5.10896 3.74034C4.81022 3.87104 4.58618 3.94572 4.45548 3.98306C4.32478 4.0204 4.23143 4.03907 4.15675 4.03907C3.89536 4.03907 3.76466 3.85237 3.76466 3.46028V2.54541C3.76466 2.24668 3.802 2.02263 3.89536 1.89193C3.98871 1.76124 4.15675 1.63054 4.41814 1.49985C5.07161 1.16377 5.85579 0.883713 6.77065 0.659664C7.68552 0.416944 8.6564 0.30492 9.68329 0.30492C11.9051 0.30492 13.5295 0.80903 14.575 1.81725C15.6019 2.82547 16.1247 4.35648 16.1247 6.41026V12.4596H16.1621ZM8.58172 15.2975C9.19785 15.2975 9.83266 15.1855 10.5048 14.9615C11.177 14.7374 11.7744 14.3267 12.2785 13.7665C12.5773 13.4118 12.8013 13.0197 12.9133 12.5716C13.0254 12.1235 13.1 11.5821 13.1 10.9473V10.1631C12.5586 10.0324 11.9798 9.92037 11.3823 9.84568C10.7849 9.771 10.2061 9.73366 9.62728 9.73366C8.37634 9.73366 7.46147 9.97638 6.84534 10.4805C6.2292 10.9846 5.93047 11.6941 5.93047 12.6276C5.93047 13.5052 6.15452 14.1586 6.62129 14.6067C7.06939 15.0735 7.72286 15.2975 8.58172 15.2975ZM23.5743 17.314C23.2383 17.314 23.0142 17.258 22.8649 17.1273C22.7155 17.0153 22.5848 16.7539 22.4728 16.3991L18.0851 1.96662C17.9731 1.5932 17.9171 1.35048 17.9171 1.21979C17.9171 0.921055 18.0665 0.753018 18.3652 0.753018H20.1949C20.5497 0.753018 20.7924 0.80903 20.9231 0.939726C21.0725 1.05175 21.1845 1.31314 21.2965 1.66789L24.4332 14.0279L27.3458 1.66789C27.4392 1.29447 27.5512 1.05175 27.7006 0.939726C27.85 0.827701 28.1113 0.753018 28.4474 0.753018H29.9411C30.2958 0.753018 30.5385 0.80903 30.6879 0.939726C30.8373 1.05175 30.968 1.31314 31.0427 1.66789L33.9926 14.1773L37.2227 1.66789C37.3347 1.29447 37.4654 1.05175 37.5961 0.939726C37.7455 0.827701 37.9882 0.753018 38.3243 0.753018H40.0606C40.3594 0.753018 40.5274 0.902384 40.5274 1.21979C40.5274 1.31314 40.5087 1.40649 40.4901 1.51852C40.4714 1.63054 40.4341 1.77991 40.3594 1.98529L35.8597 16.4178C35.7477 16.7912 35.617 17.0339 35.4676 17.146C35.3183 17.258 35.0755 17.3327 34.7581 17.3327H33.1524C32.7977 17.3327 32.555 17.2766 32.4056 17.146C32.2563 17.0153 32.1256 16.7725 32.0509 16.3991L29.1569 4.35648L26.2816 16.3805C26.1883 16.7539 26.0762 16.9966 25.9269 17.1273C25.7775 17.258 25.5161 17.314 25.18 17.314H23.5743ZM47.5663 17.8181C46.5954 17.8181 45.6245 17.7061 44.691 17.482C43.7574 17.258 43.0293 17.0153 42.5438 16.7352C42.2451 16.5672 42.0397 16.3805 41.9651 16.2124C41.8904 16.0444 41.853 15.8577 41.853 15.6896V14.7374C41.853 14.3453 42.0024 14.1586 42.2825 14.1586C42.3945 14.1586 42.5065 14.1773 42.6185 14.2146C42.7306 14.252 42.8986 14.3267 43.0853 14.4014C43.7201 14.6814 44.4109 14.9055 45.1391 15.0548C45.8859 15.2042 46.6141 15.2789 47.3609 15.2789C48.5372 15.2789 49.452 15.0735 50.0868 14.6627C50.7216 14.252 51.0577 13.6545 51.0577 12.889C51.0577 12.3662 50.8897 11.9368 50.5536 11.5821C50.2175 11.2273 49.5827 10.9099 48.6679 10.6112L45.9606 9.771C44.5976 9.34157 43.5894 8.70677 42.9733 7.86658C42.3571 7.04507 42.0397 6.1302 42.0397 5.15932C42.0397 4.37515 42.2078 3.68433 42.5438 3.08686C42.8799 2.4894 43.328 1.96662 43.8881 1.55586C44.4483 1.12643 45.0831 0.80903 45.8299 0.584981C46.5767 0.360932 47.3609 0.267578 48.1824 0.267578C48.5932 0.267578 49.0226 0.286249 49.4334 0.342261C49.8628 0.398273 50.2549 0.472957 50.647 0.54764C51.0204 0.640993 51.3751 0.734347 51.7112 0.846372C52.0473 0.958396 52.3087 1.07042 52.4954 1.18245C52.7568 1.33181 52.9435 1.48118 53.0555 1.64921C53.1675 1.79858 53.2235 2.00396 53.2235 2.26535V3.14288C53.2235 3.53496 53.0742 3.74034 52.7941 3.74034C52.6447 3.74034 52.402 3.66566 52.0846 3.51629C51.0204 3.03085 49.8254 2.78813 48.4998 2.78813C47.4356 2.78813 46.5954 2.95617 46.0166 3.31091C45.4378 3.66566 45.1391 4.20711 45.1391 4.97261C45.1391 5.49539 45.3258 5.94349 45.6992 6.29824C46.0726 6.65298 46.7634 7.00773 47.753 7.32513L50.4042 8.16531C51.7485 8.59474 52.7194 9.19221 53.2982 9.95771C53.877 10.7232 54.1571 11.6007 54.1571 12.5716C54.1571 13.3745 53.989 14.1026 53.6716 14.7374C53.3355 15.3722 52.8875 15.9324 52.3087 16.3805C51.7299 16.8472 51.039 17.1833 50.2362 17.426C49.396 17.6874 48.5185 17.8181 47.5663 17.8181Z" fill="#5F6368"/>
<path fill-rule="evenodd" clip-rule="evenodd" d="M51.0949 26.8916C44.9522 31.4286 36.0276 33.8372 28.3539 33.8372C17.5996 33.8372 7.90944 29.8603 0.590495 23.2508C0.0117008 22.728 0.534482 22.0186 1.2253 22.4293C9.14171 27.0223 18.9065 29.8043 29.0074 29.8043C35.8222 29.8043 43.3092 28.3853 50.1987 25.4727C51.2256 25.0059 52.1032 26.1448 51.0949 26.8916Z" fill="#5F6368"/>
<path fill-rule="evenodd" clip-rule="evenodd" d="M53.6527 23.9787C52.8686 22.9705 48.4623 23.4933 46.4645 23.736C45.867 23.8107 45.7737 23.2879 46.3151 22.8958C49.8252 20.4313 55.5945 21.1407 56.2666 21.9623C56.9388 22.8024 56.0799 28.5717 52.7939 31.335C52.2898 31.7644 51.8043 31.5404 52.0284 30.9802C52.7752 29.1318 54.4369 24.9683 53.6527 23.9787Z" fill="#5F6368"/>
</svg>
