<svg width="107" height="46" viewBox="0 0 107 46" fill="none" xmlns="http://www.w3.org/2000/svg">
<path d="M49.47 23.0523C49.47 28.997 47.1222 34.6983 42.9431 38.9018C38.7639 43.1054 33.0959 45.4669 27.1857 45.4669C21.2755 45.4669 15.6074 43.1054 11.4283 38.9018C7.24917 34.6983 4.90137 28.997 4.90137 23.0523C4.90137 17.1076 7.24917 11.4063 11.4283 7.20278C15.6074 2.99923 21.2755 0.637695 27.1857 0.637695C33.0959 0.637695 38.7639 2.99923 42.9431 7.20278C47.1222 11.4063 49.47 17.1076 49.47 23.0523Z" stroke="#B0B0B0" stroke-linejoin="round"/>
<path d="M9.7435 10.048C9.76135 10.0413 20.6081 23.4808 20.6071 23.4833C20.643 23.5089 0.750351 39.095 0.722672 39.0932C0.704347 39.1023 16.2854 39.1034 16.2942 39.0932C16.3061 39.101 26.6234 30.8805 26.6388 30.89C26.6544 30.8859 32.1381 39.0907 32.1348 39.0932C32.1398 39.1066 45.9076 39.1197 45.9125 39.0932C45.9256 39.067 34.9356 24.9588 34.9418 24.9582C35.0003 24.9371 54.2504 10.0445 54.2369 10.048C54.2294 10.05 38.5375 10.0504 38.5416 10.048C38.548 10.0444 28.9868 17.6828 28.985 17.6377C29 17.6525 23.3176 10.048 23.3176 10.048C23.3105 10.048 9.74592 10.0476 9.7435 10.048ZM57.6372 16.2631C56.3638 16.2633 55.2232 16.3145 54.0762 16.4319C53.1808 16.5155 52.3261 16.6398 51.5157 16.8087C50.6931 17.0934 49.7531 17.1746 48.7944 17.5838C45.5354 18.6372 42.6076 21.3124 41.7985 24.6783C41.5806 25.5854 41.3522 26.7291 41.5306 27.8541C41.7297 29.9794 43.6444 31.7738 45.6982 32.4832C46.4111 32.7604 47.5922 33.0771 48.3659 33.1938C49.445 33.3563 50.5729 33.4795 51.7835 33.5706C52.9106 33.6554 54.2845 33.7017 55.4904 33.6244C56.6297 33.5514 57.9554 33.4582 59.0688 33.2476C59.9443 33.082 60.9689 32.9143 61.8436 32.6555C64.0124 32.0134 66.9867 30.8383 67.7467 28.2847C64.3827 28.2847 61.0186 28.2847 57.6546 28.2847C57.2164 29.3531 55.923 29.9816 54.9333 30.0826C53.6938 30.2089 51.8797 30.1704 51.5157 28.6077C51.319 27.7635 51.3753 27.2351 51.5425 26.3248C51.5477 26.3297 68.5218 26.3248 68.5182 26.3248C68.8831 25.0831 69.0146 23.9887 69.0003 22.8152C68.9983 21.2312 67.9998 19.3882 66.5147 18.3368C65.0872 17.417 63.4204 16.9393 62.0043 16.6466C60.916 16.4546 59.7517 16.3388 58.5412 16.2698C58.2314 16.2645 57.931 16.2624 57.6372 16.2624L57.6372 16.2631ZM90.7119 16.2659C89.7424 16.271 88.7488 16.3594 87.9431 16.4933C86.1293 16.7948 83.7689 17.9397 82.0286 19.698C82.0209 19.6662 82.536 16.7975 82.5362 16.7994C82.5386 16.8242 72.3613 16.8018 72.3643 16.7994C72.3836 16.7819 68.8695 32.9995 68.8408 32.9799C68.8408 32.9799 79.1715 32.9799 79.1674 32.9799C79.5713 31.0781 80.0215 29.1848 80.4745 27.2944C80.9866 25.5024 80.9688 23.3312 82.6386 22.0086C83.545 21.2905 84.7436 21.2677 85.6813 21.2873C87.0723 21.3164 87.5583 22.8343 87.3097 23.8602C86.5816 26.8647 85.2482 32.9859 85.2527 32.9799C85.2598 32.9799 95.5639 32.9799 95.5633 32.9799C95.5682 32.9896 97.2577 26.1124 97.959 22.6545C98.2691 21.126 98.0606 19.2251 96.7497 18.022C95.4422 16.8219 93.7914 16.4989 92.1857 16.3318C91.7214 16.2835 91.22 16.2632 90.7119 16.2659ZM99.3323 16.3567V16.7766H100.635V20.0452H101.134V16.7766H102.437V16.3567H99.3323ZM102.919 16.3567V20.0452H103.401V16.8062L104.348 19.336H104.847L105.793 16.8062V20.0452H106.277V16.3567H105.538L104.596 18.8664L103.659 16.3567H102.919ZM56.4767 19.7249C57.2427 19.7233 58.0248 19.9211 58.6402 20.3722C59.3758 21.2279 59.2822 22.152 59.0688 23.0959C59.0636 23.0959 52.3409 23.1642 52.3406 23.1605C52.6055 21.8938 53.3983 20.6715 54.6119 20.1569C55.1373 19.8828 55.8009 19.7263 56.4767 19.7249Z" fill="#5F6368"/>
</svg>
