<svg width="171" height="43" viewBox="0 0 171 43" fill="none" xmlns="http://www.w3.org/2000/svg">
<path d="M45.0813 9.69121V28.9425C45.0813 29.1229 45.2202 29.2761 45.3974 29.2919C46.403 29.3761 47.5202 29.3761 48.694 29.2919C49.6519 29.2171 50.8207 29.0789 52.264 28.8682C52.2113 29.1625 52.1854 29.4803 52.1854 29.8235C52.1854 30.1156 52.2151 30.4706 52.2712 30.8551H40.9131V9.69501C41.1295 9.71418 41.4087 9.74871 41.7539 9.79618C42.2579 9.88335 42.7751 9.88548 43.0834 9.80242L44.1051 9.79785C44.4939 9.7443 44.8156 9.70703 45.0813 9.69121ZM58.6963 10.7439C58.0904 10.8293 57.6868 10.831 57.3957 10.7485H56.374C56.013 10.6988 55.7373 10.667 55.5298 10.6467V30.8549H59.4839V10.6422C59.2563 10.6598 58.9973 10.693 58.6963 10.7439ZM62.6127 10.6274C62.6509 10.9142 62.67 11.2009 62.67 11.4813C62.67 11.8501 62.6519 12.1756 62.6183 12.4539H63.2787C65.1498 12.2152 66.7209 12.0932 67.9256 12.0932C68.1185 12.0932 68.2737 12.2499 68.2737 12.4425V30.8551H72.1095V12.4425C72.1095 12.2497 72.2653 12.0932 72.457 12.0932C73.3337 12.0932 74.5881 12.1746 76.1879 12.334C76.5927 12.3929 77.022 12.4302 77.4698 12.4472C77.4244 12.1679 77.4244 11.8478 77.4715 11.4898C77.4221 11.2043 77.4244 10.9143 77.4805 10.6276H62.6127V10.6274ZM80.6273 10.6274V30.8551H91.4602C91.4074 30.4907 91.3793 30.1577 91.3793 29.8825C91.3793 29.5676 91.4035 29.2728 91.447 29.0027C90.7097 29.1159 89.8884 29.2063 89.0072 29.2671C87.9825 29.3503 86.571 29.3907 84.8096 29.3907C84.6182 29.3907 84.4632 29.2334 84.4632 29.0392V21.2216C84.4632 21.0293 84.6182 20.8721 84.8096 20.8721H87.7085C88.6744 20.929 89.4506 20.9864 90.2282 21.0428L90.802 21.083C90.7853 21.0057 90.7664 20.9184 90.7455 20.8259L90.7349 19.419C90.7349 19.3794 90.7405 19.341 90.7541 19.307C90.7615 19.28 90.7698 19.2517 90.7782 19.2256C89.7572 19.3534 88.824 19.4071 87.7086 19.4071H84.8097C84.6184 19.4071 84.4633 19.2498 84.4633 19.0571V12.4425C84.4633 12.2497 84.6184 12.0932 84.8097 12.0932C86.9479 12.0932 89.1933 12.2335 91.4878 12.5115C91.4155 12.1925 91.3793 11.8861 91.3793 11.6012C91.3793 11.2621 91.4154 10.9352 91.489 10.6274H80.6273ZM107.769 24.6403C107.686 22.1405 105.782 19.9222 102.098 18.0637C99.3686 16.6451 98.0439 15.2665 98.0439 13.8539C98.0439 11.5758 99.3665 10.325 101.87 10.234C103.573 10.234 104.884 11.1545 105.771 12.9742C105.864 12.6541 105.994 12.2449 106.162 11.7302C106.367 11.1851 106.541 10.7278 106.686 10.3501C105.377 9.56357 103.799 9.12468 101.993 9.04785C97.4484 9.29035 95.1562 11.4019 94.9989 15.5018C94.9989 18.264 96.7341 20.4824 100.158 22.0877C103.02 23.3995 104.47 24.9031 104.47 26.5516C104.288 28.8684 102.919 30.0819 100.398 30.1732C97.9035 30.0857 96.3429 28.9013 95.7506 26.6517H95.7062C95.5465 27.8741 95.2924 29.0812 94.951 30.2423C96.4686 30.8217 98.0441 31.1554 99.6372 31.233C104.67 31.2323 107.448 28.8275 107.769 24.6403ZM114.394 21.7289C114.334 21.733 114.247 21.7486 114.174 21.821C114.11 21.8849 114.073 21.9717 114.073 22.061V30.8549H110.092V10.6241H117.264C121.37 10.6241 123.405 12.2073 123.48 15.4603C123.51 17.2306 123.027 18.6396 122.048 19.6463C120.699 21.0328 118.337 21.7356 115.03 21.7356C114.826 21.7356 114.623 21.7326 114.394 21.7289ZM114.358 20.7092C114.511 20.7317 114.676 20.7437 114.844 20.7437C115.333 20.7437 115.897 20.6484 116.519 20.4612C118.326 19.9399 119.329 18.4578 119.498 16.0343C119.329 13.302 118.264 11.7821 116.309 11.5169H114.406C114.223 11.5169 114.073 11.6678 114.073 11.8522V20.3797C114.073 20.5452 114.194 20.6867 114.358 20.7092ZM139.404 10.6241V30.8549H150.255C150.204 30.4874 150.176 30.1486 150.176 29.8667C150.176 29.5461 150.198 29.2451 150.246 28.9714C149.5 29.0867 148.673 29.179 147.79 29.2401C146.756 29.322 145.387 29.3613 143.601 29.3613C143.417 29.3613 143.268 29.2102 143.268 29.028V21.2195C143.268 21.0361 143.417 20.8852 143.601 20.8852H146.815C148.022 20.9587 149.121 21.0284 150.128 21.0978C150.11 21.0147 150.091 20.9214 150.065 20.8195L150.055 19.419C150.055 19.3807 150.059 19.3443 150.073 19.3122C150.084 19.2766 150.095 19.2415 150.106 19.2098C149.102 19.3297 147.997 19.3919 146.815 19.3919H143.601C143.417 19.3919 143.268 19.2415 143.268 19.0583V12.4522C143.268 12.2678 143.417 12.118 143.601 12.118C145.743 12.118 147.992 12.2605 150.288 12.5394C150.212 12.2131 150.176 11.9021 150.176 11.6126C150.176 11.2648 150.212 10.9352 150.291 10.6242L139.404 10.6241ZM159.65 30.8551H153.043V10.6241L161.541 10.6224C167.271 11.016 170.209 14.1287 170.521 20.1202C170.135 26.8536 166.477 30.4655 159.65 30.8551ZM166.064 20.1387C166.064 14.5782 163.587 11.7561 158.708 11.7561H157.234C157.054 11.7561 156.904 11.9076 156.904 12.092V29.3884C156.904 29.5709 157.054 29.7226 157.234 29.7226H158.537C161.031 29.7226 162.934 28.9008 164.194 27.2843C165.432 25.6886 166.064 23.2851 166.064 20.1387ZM125.702 10.6241V30.8549H136.552C136.5 30.4874 136.471 30.1486 136.471 29.8667C136.471 29.5461 136.494 29.2451 136.541 28.9714C135.792 29.0867 134.968 29.179 134.086 29.2401C133.053 29.322 131.682 29.3613 129.894 29.3613C129.713 29.3613 129.563 29.2102 129.563 29.028V21.2195C129.563 21.0361 129.713 20.8852 129.894 20.8852H133.11C134.32 20.9587 135.416 21.0284 136.423 21.0978C136.406 21.0147 136.385 20.9214 136.361 20.8195L136.35 19.419C136.35 19.3807 136.357 19.3443 136.369 19.3122C136.379 19.2766 136.39 19.2415 136.398 19.2098C135.398 19.3297 134.294 19.3919 133.11 19.3919H129.894C129.713 19.3919 129.563 19.2415 129.563 19.0583V12.4522C129.563 12.2678 129.713 12.118 129.894 12.118C132.037 12.118 134.287 12.2605 136.582 12.5394C136.508 12.2131 136.471 11.9021 136.471 11.6126C136.471 11.2648 136.51 10.9352 136.584 10.6242L125.702 10.6241Z" fill="#5F6368"/>
<path d="M33.3622 20.4271L23.4731 10.4531L19.2614 15.8463L23.8025 20.4269C24.2214 20.85 24.2214 21.541 23.8025 21.9637L22.4891 23.2882C22.4891 23.2882 23.3748 24.6255 23.4155 24.706C23.6197 25.1195 23.6691 26.0904 23.0891 26.5333L12.7606 34.5322C12.7582 37.2166 12.7546 42.7357 12.7588 42.7381C12.7606 42.7387 33.3625 21.9636 33.3625 21.9636C33.7811 21.5405 33.7811 20.8501 33.3622 20.4271Z" fill="#5F6368"/>
<path d="M10.3935 21.6818C9.97605 21.261 9.97605 20.5706 10.3935 20.1474L11.7087 18.8206L10.8096 17.5173C10.3808 16.9049 10.5158 16.0341 11.107 15.5781L21.4375 7.57855L21.4446 -0.622163L21.4387 -0.62551L21.4334 -0.632812L0.834834 20.1474C0.415582 20.5706 0.415582 21.261 0.835739 21.6837L10.7227 31.6578L14.9356 26.2647L10.3935 21.6818Z" fill="#5F6368"/>
<path d="M26.6439 4.22553C26.8386 4.22553 27.028 4.34526 27.1152 4.5231C27.2724 4.85003 27.0455 5.14151 26.9207 5.302L17.8689 16.8917C17.777 17.0086 17.7694 17.2602 17.8538 17.381C17.9027 17.4525 22.7407 24.5323 22.907 24.7728C23.1448 25.1183 23.1224 26.0079 22.6484 26.3703L8.09458 37.641C7.89023 37.7991 7.73866 37.885 7.52662 37.887C7.34399 37.8747 7.16091 37.7533 7.08143 37.592C6.92203 37.2654 7.16091 36.9551 7.27553 36.8063L16.3249 25.2216C16.4176 25.0962 16.4268 24.8572 16.3433 24.7296L11.2919 17.4018C10.9257 16.8765 11.0394 16.1314 11.5454 15.741L26.1019 4.46879C26.3207 4.29597 26.4779 4.22553 26.6439 4.22553ZM26.6439 4.1875C26.4693 4.1875 26.3052 4.26007 26.0787 4.43851L11.5223 15.7106C10.9995 16.114 10.8826 16.8808 11.261 17.4236L16.3122 24.7512C16.3866 24.865 16.3772 25.0871 16.2946 25.1988L7.24582 36.7829C7.12637 36.938 6.87814 37.2618 7.04765 37.6089C7.13286 37.7822 7.32816 37.9118 7.52406 37.925C7.75088 37.9231 7.91315 37.8292 8.11735 37.6713L22.6713 26.4006C23.1745 26.016 23.1764 25.0978 22.9381 24.7512C22.7699 24.5078 17.8849 17.3594 17.8849 17.3594C17.8099 17.2521 17.817 17.0189 17.8984 16.9153L26.9502 5.32543C27.0688 5.173 27.3179 4.85763 27.1491 4.50636C27.0556 4.31605 26.854 4.1875 26.6439 4.1875Z" fill="#5F6368"/>
<path d="M22.4159 24.8858C22.5332 25.065 22.6389 25.7435 22.3438 25.9677L7.78789 37.24C7.66528 37.3346 7.58686 37.3804 7.55187 37.3775C7.50165 37.3804 7.538 37.2905 7.67161 37.1166L16.7196 25.5351C16.9486 25.2363 16.9639 24.7466 16.7539 24.4417L11.7031 17.1094C11.7031 17.1095 22.299 24.7058 22.4159 24.8858Z" fill="#5F6368"/>
<path d="M22.4155 24.8854L17.4415 17.668C17.2304 17.3621 17.2473 16.8712 17.4733 16.58L26.5228 4.99135C26.6574 4.81868 26.6922 4.73242 26.6438 4.73242C26.6079 4.73242 26.5281 4.77471 26.4078 4.87116L11.8514 16.142C11.5593 16.3687 11.4902 16.805 11.7027 17.1091L22.4155 24.8854Z" fill="#5F6368"/>
</svg>
