<svg width="116" height="42" viewBox="0 0 116 42" fill="none" xmlns="http://www.w3.org/2000/svg">
<mask id="mask0_118_27" style="mask-type:luminance" maskUnits="userSpaceOnUse" x="-18" y="-20" width="151" height="82">
<path d="M-17.1465 -19.2218H132.229V61.3271H-17.1465V-19.2218Z" fill="white"/>
</mask>
<g mask="url(#mask0_118_27)">
<path d="M9.11608 14.8587H15.976L14.9136 18.9472C14.7513 19.5169 14.4478 19.9746 14.003 20.3202C13.5577 20.6664 13.0416 20.839 12.455 20.839H9.26785C8.53925 20.839 7.89655 21.0525 7.34026 21.4797C6.78337 21.9069 6.39413 22.4865 6.17153 23.2187C6.02988 23.768 6.0147 24.2867 6.1261 24.7748C6.2372 25.2631 6.4344 25.6955 6.718 26.0715C7.00121 26.4481 7.36536 26.748 7.81085 26.9718C8.25564 27.1958 8.74141 27.3072 9.26785 27.3072H11.2104C11.5747 27.3072 11.873 27.4551 12.1059 27.7496C12.3383 28.0448 12.4042 28.3751 12.3033 28.7412L11.0891 33.2568H8.96431C7.50731 33.2568 6.16647 32.9365 4.94239 32.2958C3.71771 31.655 2.70084 30.8061 1.89181 29.7481C1.08216 28.6908 0.530527 27.4856 0.237509 26.1327C-0.0561166 24.7802 -0.020602 23.3918 0.343647 21.9678L0.465164 21.5101C0.727828 20.5339 1.13761 19.6337 1.6943 18.81C2.25079 17.9861 2.90847 17.2845 3.66732 16.7046C4.42617 16.1249 5.27103 15.6726 6.20198 15.347C7.13254 15.0219 8.10387 14.8587 9.11608 14.8587Z" fill="#5F6368"/>
<path d="M12.5762 33.2568L18.5559 10.7397C18.7175 10.1705 19.0211 9.71285 19.4665 9.36676C19.9113 9.02107 20.4274 8.84807 21.0146 8.84807H27.3586C28.8156 8.84807 30.1558 9.16844 31.3805 9.80917C32.6045 10.4499 33.6215 11.2995 34.4311 12.3568C35.2402 13.4146 35.797 14.6199 36.1006 15.9724C36.4041 17.3254 36.3633 18.7136 35.9791 20.1371L35.8578 20.5948C35.5945 21.5711 35.19 22.4712 34.6436 23.295C34.0971 24.1188 33.4446 24.8258 32.6858 25.4155C31.9269 26.0057 31.0816 26.4634 30.1511 26.7885C29.2201 27.1142 28.2488 27.2768 27.2372 27.2768H21.7431L22.8359 23.1577C22.9975 22.6085 23.3011 22.1613 23.7465 21.8152C24.1914 21.4696 24.7073 21.2965 25.2944 21.2965H27.0551C27.7835 21.2965 28.4362 21.0729 29.0128 20.6253C29.5896 20.1781 29.9691 19.5984 30.1511 18.8862C30.2924 18.378 30.3076 17.8793 30.1967 17.3911C30.0853 16.903 29.8879 16.471 29.6047 16.0944C29.3211 15.7183 28.9569 15.4132 28.5121 15.1791C28.0667 14.9455 27.5811 14.8282 27.0551 14.8282H23.6554L19.2236 31.3958C19.0614 31.9449 18.7579 32.3926 18.313 32.7381C17.8678 33.0842 17.3617 33.2568 16.7953 33.2568H12.5762Z" fill="#5F6368"/>
<path d="M50.4269 21.2357L50.518 20.9C50.5583 20.7375 50.5332 20.6002 50.4421 20.4881C50.351 20.3767 50.2245 20.3203 50.0627 20.3203H40.1976C39.7727 20.3203 39.3879 20.2289 39.0441 20.0457C38.6999 19.8627 38.4167 19.6238 38.1944 19.3287C37.9714 19.0342 37.8196 18.6933 37.7391 18.3066C37.6579 17.9204 37.6679 17.5238 37.7693 17.1167L38.3763 14.7978H51.7321C52.5618 14.7978 53.3207 14.9809 54.0087 15.3471C54.6964 15.7132 55.2686 16.1913 55.7239 16.7811C56.1792 17.3712 56.4926 18.0473 56.6647 18.81C56.8365 19.5728 56.8212 20.3613 56.6192 21.1746L54.2212 30.145C53.9785 31.0603 53.4876 31.8029 52.7491 32.3723C52.0102 32.942 51.1654 33.2266 50.2144 33.2266L40.3494 33.1961C39.4791 33.1961 38.6799 33.0081 37.9515 32.6315C37.2229 32.2555 36.6259 31.7573 36.1605 31.1366C35.6949 30.5164 35.3714 29.8045 35.1892 29.0008C35.0072 28.1974 35.0276 27.3788 35.2499 26.5446L35.3714 26.0869C35.5127 25.5178 35.7508 24.9886 36.0846 24.5004C36.4186 24.0122 36.8078 23.5955 37.2533 23.2494C37.6981 22.9037 38.1944 22.6344 38.7406 22.4409C39.287 22.2478 39.8639 22.151 40.471 22.151H48.7574L48.1504 24.4394C47.9883 24.9886 47.6847 25.4362 47.2397 25.7818C46.7945 26.128 46.2884 26.3005 45.722 26.3005H42.0188C41.6746 26.3005 41.4521 26.4737 41.3511 26.8193C41.2904 27.0433 41.3308 27.2416 41.4725 27.4142C41.6139 27.5872 41.7959 27.6735 42.0188 27.6735H47.9986C48.2211 27.6735 48.4132 27.6124 48.5754 27.4905C48.7371 27.3684 48.8381 27.2058 48.879 27.0022L48.9397 26.7581L50.4269 21.2357Z" fill="#5F6368"/>
<path d="M68.0935 14.8587C69.5701 14.8587 70.921 15.1791 72.1455 15.8198C73.3698 16.4606 74.3864 17.3102 75.1962 18.3675C76.0053 19.4254 76.557 20.6359 76.8503 21.9983C77.1436 23.3613 77.0981 24.755 76.7139 26.1784L75.1962 31.9145C75.0947 32.3215 74.8773 32.6466 74.5437 32.8908C74.2097 33.1349 73.8402 33.2568 73.4355 33.2568H70.1574C69.7729 33.2568 69.4693 33.1097 69.2467 32.8145C69.0238 32.5199 68.963 32.189 69.0646 31.8229L70.8859 24.8969C71.0273 24.3886 71.0424 23.8901 70.9313 23.4018C70.8198 22.9136 70.6226 22.4817 70.3396 22.1051C70.0559 21.729 69.6918 21.4239 69.2467 21.1898C68.8013 20.9561 68.3156 20.839 67.7899 20.839H64.3901L61.4456 31.9145C61.3445 32.3215 61.127 32.6466 60.7931 32.8908C60.4591 33.1349 60.0797 33.2568 59.6548 33.2568H56.407C56.0427 33.2568 55.7439 33.1097 55.5115 32.8145C55.2792 32.5199 55.2131 32.189 55.3141 31.8229L59.8066 14.8587H68.0935Z" fill="#5F6368"/>
<path d="M85.9716 20.6711C85.729 20.8646 85.5566 21.1135 85.4556 21.4186L84.0897 26.6054C84.0087 26.8906 84.0595 27.1546 84.2415 27.3987C84.4237 27.6429 84.6666 27.7649 84.9702 27.7649H97.5367L96.5653 31.3958C96.4031 31.9449 96.0996 32.3926 95.6547 32.7381C95.2093 33.0842 94.7032 33.2568 94.137 33.2568H82.6936C81.8635 33.2568 81.1047 33.0791 80.417 32.7229C79.7287 32.3673 79.1571 31.8892 78.7018 31.2889C78.2465 30.6892 77.9326 30.0075 77.7611 29.2447C77.5893 28.482 77.6144 27.7038 77.8369 26.9106L79.6883 19.9846C79.8905 19.2324 80.2044 18.5406 80.6294 17.9098C81.0543 17.2796 81.5553 16.7404 82.132 16.2927C82.7086 15.8456 83.3559 15.4948 84.0745 15.2401C84.7927 14.9861 85.5363 14.8587 86.3056 14.8587H94.4101C95.2398 14.8587 95.9986 15.0418 96.6866 15.4079C97.3744 15.7741 97.9465 16.2523 98.4018 16.8419C98.8572 17.4321 99.1654 18.1134 99.3274 18.8862C99.4893 19.6594 99.4689 20.4422 99.2667 21.2355L98.7204 23.3103C98.4777 24.2257 97.9868 24.963 97.2483 25.5224C96.5094 26.082 95.6746 26.3615 94.7441 26.3615H85.5772L86.1843 24.1035C86.3256 23.5544 86.619 23.1072 87.0645 22.7611C87.5093 22.4154 88.0253 22.2424 88.6127 22.2424H92.3157C92.6597 22.2424 92.882 22.0698 92.9835 21.7237L93.1049 21.266C93.1658 21.0424 93.1248 20.8389 92.9835 20.6558C92.8416 20.4727 92.6597 20.3812 92.4371 20.3812H86.7914C86.4879 20.3812 86.2145 20.478 85.9716 20.6711Z" fill="#5F6368"/>
<path d="M97.5059 33.2568L103.607 10.2211C103.708 9.81446 103.926 9.48402 104.26 9.22946C104.593 8.9754 104.973 8.84807 105.398 8.84807H108.646C109.03 8.84807 109.339 8.99585 109.572 9.29048C109.804 9.58562 109.87 9.91595 109.769 10.2821L105.216 27.2768C104.993 28.1721 104.634 28.9853 104.138 29.7177C103.642 30.4498 103.055 31.0754 102.377 31.594C101.699 32.1127 100.946 32.5199 100.116 32.8144C99.2862 33.1097 98.4165 33.2568 97.5059 33.2568Z" fill="#5F6368"/>
<path d="M112.603 10.8536H112.902C113.05 10.8536 113.168 10.8152 113.258 10.7382C113.347 10.6613 113.392 10.5634 113.392 10.4448C113.392 10.3057 113.352 10.2062 113.273 10.1458C113.194 10.0856 113.068 10.0554 112.897 10.0554H112.603V10.8536ZM113.804 10.4337C113.804 10.5821 113.765 10.7131 113.687 10.8272C113.608 10.9412 113.498 11.026 113.356 11.0816L114.014 12.1801H113.55L112.977 11.1956H112.603V12.1801H112.194V9.70232H112.916C113.222 9.70232 113.447 9.76253 113.59 9.88305C113.733 10.0037 113.804 10.1871 113.804 10.4337ZM111.17 10.9398C111.17 11.2606 111.251 11.5604 111.411 11.8394C111.572 12.1186 111.791 12.3383 112.068 12.4985C112.346 12.6589 112.643 12.7391 112.96 12.7391C113.281 12.7391 113.579 12.6584 113.854 12.4971C114.129 12.3358 114.347 12.1176 114.508 11.8423C114.67 11.5669 114.75 11.2662 114.75 10.9398C114.75 10.6172 114.67 10.3178 114.51 10.0416C114.349 9.76538 114.132 9.54621 113.858 9.38389C113.584 9.22167 113.285 9.14051 112.96 9.14051C112.639 9.14051 112.342 9.22116 112.067 9.38246C111.792 9.54377 111.574 9.76212 111.412 10.0374C111.251 10.3127 111.17 10.6136 111.17 10.9398ZM110.88 10.9398C110.88 10.569 110.972 10.2214 111.157 9.89698C111.341 9.57255 111.595 9.31676 111.917 9.12943C112.24 8.94219 112.588 8.84852 112.96 8.84852C113.329 8.84852 113.675 8.94128 113.998 9.12668C114.321 9.31209 114.575 9.56706 114.761 9.89139C114.948 10.2158 115.041 10.5654 115.041 10.9398C115.041 11.3051 114.951 11.6481 114.772 11.9688C114.594 12.2895 114.343 12.5463 114.02 12.7391C113.697 12.932 113.344 13.0283 112.96 13.0283C112.579 13.0283 112.226 12.9323 111.904 12.7405C111.581 12.5486 111.329 12.2923 111.15 11.9715C110.97 11.6509 110.88 11.3069 110.88 10.9398Z" fill="#5F6368"/>
</g>
<path fill-rule="evenodd" clip-rule="evenodd" d="M13.0816 31.7343C13.2887 30.9778 14.6102 26.0036 16.0182 20.6804C17.4263 15.3572 18.677 10.7474 18.7976 10.4363C18.9182 10.1252 19.3012 9.66673 19.6489 9.41748C20.225 9.0044 20.5625 8.95793 23.4648 8.89221C28.9845 8.76722 31.0482 9.29474 33.3236 11.4122C35.742 13.6628 36.6878 16.8267 35.8834 19.9754C34.9384 23.6748 32.4075 26.2229 28.9368 26.9696C28.346 27.0967 26.5116 27.2006 24.8605 27.2006H21.8584L22.4417 25.0435C23.3103 21.8316 23.5534 21.6082 26.3872 21.4186C28.3417 21.2878 29.22 20.8514 29.8706 19.6878C30.7638 18.0903 30.2964 16.3098 28.6999 15.2284C28.0642 14.7977 27.8212 14.7635 25.7707 14.816L23.5348 14.8733L21.2921 23.2273C20.0587 27.8221 18.9361 31.7868 18.7976 32.0378C18.3297 32.8857 17.5435 33.1096 15.0334 33.1096H12.7051L13.0816 31.7343Z" fill="#5F6368"/>
<path fill-rule="evenodd" clip-rule="evenodd" d="M39.0304 32.9228C37.6203 32.4796 36.3781 31.4203 35.6644 30.0525C35.1137 28.9969 35.1569 26.7862 35.7541 25.4679C36.3571 24.1365 37.0777 23.3867 38.3223 22.7953C39.2951 22.333 39.5216 22.3135 43.9636 22.3116L48.5914 22.3099L48.4533 22.9721C48.2046 24.1657 47.6076 25.2941 46.9918 25.7349C46.4715 26.1073 46.0526 26.1759 43.9979 26.2255C41.9824 26.2742 41.574 26.3389 41.3856 26.6398C41.223 26.8994 41.223 27.0932 41.3858 27.3529C41.5803 27.6633 42.0167 27.7167 44.7537 27.7655C46.4832 27.7962 48.1193 27.737 48.3895 27.6337C48.8229 27.4681 48.9835 27.0585 49.7527 24.1583C50.2323 22.3501 50.5733 20.736 50.5105 20.5715C50.414 20.3189 49.5637 20.2723 45.048 20.2723C39.8166 20.2723 39.6849 20.2622 39.014 19.8077C37.7919 18.9799 37.5909 17.945 38.2236 15.7387L38.4427 14.9746H45.6316C52.5332 14.9746 52.857 14.9919 53.7346 15.4065C55.4375 16.2111 56.6675 18.0941 56.6675 19.8962C56.6675 20.8103 54.1094 30.384 53.6549 31.1705C53.4616 31.5052 52.9124 32.0553 52.4346 32.3931L51.5657 33.0072L45.5521 33.0449C42.2446 33.0657 39.3099 33.0106 39.0304 32.9228Z" fill="#5F6368"/>
<path fill-rule="evenodd" clip-rule="evenodd" d="M55.6942 32.8648C55.5604 32.7303 55.4537 32.3865 55.4571 32.1007C55.4605 31.8149 56.4514 27.8676 57.6591 23.3289L59.8549 15.0767L64.4743 15.0219C69.6776 14.9601 70.7777 15.1261 72.6529 16.256C75.3777 17.8976 77.1378 21.2477 76.8915 24.3233C76.7381 26.2381 75.1019 32.1211 74.5755 32.6501C74.1578 33.0701 73.9309 33.1093 71.9202 33.1093C69.5706 33.1093 69.2353 32.9866 69.2353 32.1267C69.2353 31.8552 69.6553 30.0191 70.1687 28.0466C71.1912 24.1179 71.236 23.2138 70.4625 22.1219C69.6875 21.0279 68.9939 20.7935 66.5125 20.7874L64.2965 20.7822L63.1304 25.163C62.489 27.5724 61.806 30.1365 61.6126 30.861C61.4192 31.5854 61.0525 32.3877 60.7977 32.6439C60.3721 33.0717 60.1557 33.1095 58.1359 33.1095C56.6963 33.1095 55.8535 33.0249 55.6942 32.8648Z" fill="#5F6368"/>
<path fill-rule="evenodd" clip-rule="evenodd" d="M81.0201 32.8298C79.3523 32.2231 77.7555 30.0645 77.751 28.4105C77.7487 27.4738 79.6573 20.2786 80.264 18.9383C80.9424 17.4394 81.8641 16.4963 83.3873 15.7426L84.734 15.0762H90.2114C96.2771 15.0762 96.4912 15.1154 97.8393 16.4734C99.2715 17.9162 99.572 19.7755 98.8162 22.5174C98.3273 24.2908 97.7022 25.2088 96.5974 25.7753C95.8712 26.1477 95.3986 26.181 90.8319 26.181C86.8496 26.181 85.8574 26.1274 85.8574 25.9123C85.8574 25.1329 86.5262 23.5499 87.0816 23.0145C87.6947 22.4236 87.757 22.4101 90.1777 22.3426C91.5365 22.3048 92.7622 22.1789 92.9016 22.063C93.2722 21.7547 93.2234 20.5457 92.8343 20.3957C92.658 20.3277 91.1174 20.272 89.4107 20.272C86.7515 20.272 86.2473 20.323 85.8854 20.6286C85.5944 20.8742 85.2405 21.8183 84.748 23.6625C83.9767 26.5507 83.8997 27.188 84.2763 27.5665C84.4553 27.7465 86.2253 27.811 90.9794 27.811C97.037 27.811 97.4326 27.8332 97.3329 28.1676C97.2744 28.3637 97.0488 29.1788 96.8315 29.9789C96.3526 31.7429 96.1524 32.138 95.4601 32.6854C94.9419 33.0951 94.7121 33.1083 88.3133 33.0932C83.6637 33.0824 81.4996 33.0042 81.0201 32.8298Z" fill="#5F6368"/>
<path fill-rule="evenodd" clip-rule="evenodd" d="M97.7056 32.8837C97.7606 32.7277 99.1338 27.5687 100.757 21.4193C102.381 15.2699 103.805 10.0587 103.922 9.83881C104.255 9.21199 105.367 8.8623 107.025 8.8623C108.588 8.8623 109.472 9.11267 109.661 9.60898C109.807 9.99021 105.007 27.8462 104.48 28.8851C103.814 30.1962 102.388 31.5726 100.965 32.2766C99.5022 33.0005 97.5355 33.3668 97.7056 32.8837Z" fill="#5F6368"/>
<path fill-rule="evenodd" clip-rule="evenodd" d="M9.63867 17.8272V14.9746H12.6793C14.977 14.9746 15.7199 15.0368 15.7195 15.2293C15.7192 15.3694 15.4901 16.3551 15.2103 17.4197C14.7878 19.0275 14.5823 19.4676 13.9975 20.0176C13.3109 20.6634 13.2481 20.6798 11.466 20.6798H9.63867V17.8272Z" fill="#5F6368"/>
<path fill-rule="evenodd" clip-rule="evenodd" d="M112.198 10.941V9.70508H112.596C112.829 9.70508 113.019 9.70682 113.056 9.70974C113.242 9.72366 113.384 9.76067 113.5 9.82539C113.648 9.90798 113.746 10.0511 113.784 10.2386C113.797 10.3045 113.803 10.3964 113.801 10.4661C113.789 10.7298 113.647 10.9424 113.406 11.0561C113.377 11.0695 113.355 11.0825 113.356 11.085C113.357 11.0874 113.504 11.3337 113.683 11.6321L114.008 12.1746L113.783 12.1758C113.659 12.1764 113.556 12.1762 113.553 12.1752C113.551 12.1741 113.421 11.9534 113.264 11.6845L112.98 11.1954L112.791 11.1954L112.601 11.1953V11.6861V12.1769H112.4H112.198L112.198 10.941ZM112.952 10.8532C113.08 10.8439 113.17 10.8119 113.25 10.7467C113.352 10.664 113.4 10.5532 113.393 10.4146C113.383 10.2257 113.303 10.1236 113.129 10.079C113.052 10.0594 113.006 10.0558 112.8 10.0531L112.601 10.0508V10.4543V10.8579L112.746 10.8579C112.825 10.8579 112.918 10.8561 112.952 10.8532Z" fill="#5F6368"/>
<path fill-rule="evenodd" clip-rule="evenodd" d="M112.85 13.0234C112.397 13.0004 111.985 12.8367 111.621 12.5357C111.249 12.2273 110.986 11.7609 110.909 11.272C110.884 11.1129 110.878 10.89 110.893 10.7385C110.931 10.3632 111.061 10.0181 111.281 9.71005C111.39 9.55693 111.547 9.39383 111.693 9.28284L111.718 9.26385L112.008 9.26501L112.297 9.26618L112.238 9.2928C111.877 9.45602 111.58 9.73091 111.388 10.0788C111.27 10.2931 111.201 10.5198 111.177 10.7677C111.17 10.8443 111.17 11.0352 111.177 11.1122C111.198 11.3312 111.256 11.532 111.355 11.7335C111.525 12.0806 111.778 12.3441 112.118 12.5278C112.379 12.6692 112.658 12.7395 112.959 12.7397C113.384 12.74 113.766 12.6021 114.103 12.326C114.166 12.2746 114.289 12.1511 114.341 12.0869C114.614 11.7521 114.752 11.3661 114.752 10.9409C114.752 10.6562 114.693 10.4004 114.568 10.1482C114.4 9.80759 114.144 9.53997 113.81 9.35448C113.765 9.32949 113.653 9.27552 113.628 9.26694C113.625 9.26578 113.752 9.26461 113.912 9.26403L114.202 9.26367L114.225 9.28058C114.314 9.3457 114.441 9.4653 114.525 9.56191C114.677 9.73824 114.812 9.96159 114.9 10.1839C114.962 10.3397 115.008 10.5361 115.028 10.7225C115.039 10.8235 115.039 11.055 115.029 11.1539C114.983 11.5763 114.82 11.962 114.551 12.2871C114.497 12.3521 114.384 12.4661 114.313 12.5254C113.893 12.8807 113.393 13.0509 112.85 13.0234Z" fill="#5F6368"/>
</svg>
