<svg width="122" height="26" viewBox="0 0 122 26" fill="none" xmlns="http://www.w3.org/2000/svg">
<path d="M3.19043 23.0502V3.00488L23.2335 23.0502V3.00488" stroke="#5F6368" stroke-width="5.25719" stroke-linecap="round" stroke-linejoin="round"/>
<path d="M35.4065 0.402344L34.6836 1.7495L29.0979 11.9024L28.375 13.1839L29.0979 14.4653L34.6836 24.2897L35.4394 25.6369H36.9837H48.418H50.0609L50.7838 24.1583L54.9567 15.7468L56.8295 11.9353H52.5909L41.9123 11.9682C40.5235 11.9485 39.2462 13.2079 39.2462 14.5968C39.2462 15.9856 40.5235 17.245 41.9123 17.2254L48.3523 17.1925L46.7752 20.3797H38.4951L34.3879 13.151L38.528 5.65953H47.3361L49.3897 9.8735H54.6797L51.3447 1.88093L50.6218 0.402344H48.979H36.9837H35.4065Z" fill="#5F6368"/>
<path d="M62.0354 0.369317C60.659 0.38655 59.4225 1.65445 59.4396 3.03077V9.88037H64.6968V3.03077C64.7143 1.63255 63.4336 0.35187 62.0354 0.369317Z" fill="#5F6368"/>
<path d="M90.5049 23.101V3.05566L70.4618 23.101V3.05566" stroke="#5F6368" stroke-width="5.25719" stroke-linecap="round" stroke-linejoin="round"/>
<path d="M98.8367 3.04883L118.903 23.0449" stroke="#5F6368" stroke-width="5.25719" stroke-linecap="round" stroke-linejoin="round"/>
<path d="M118.926 3.04883L98.8598 23.0449" stroke="#5F6368" stroke-width="5.25719" stroke-linecap="round" stroke-linejoin="round"/>
<path d="M62.0354 25.6543C60.659 25.6371 59.4225 24.3692 59.4396 22.9929V11.9902H64.6968V22.9929C64.7143 24.3911 63.4336 25.6718 62.0354 25.6543Z" fill="#5F6368"/>
</svg>
