<svg width="206" height="25" viewBox="0 0 206 25" fill="none" xmlns="http://www.w3.org/2000/svg">
<path d="M66.5035 24.8621C61.9224 24.8621 57.3413 24.871 52.7559 24.8577C49.7771 24.8533 48.852 23.5343 49.9939 20.7325C51.1757 17.8334 52.4682 14.9785 53.7606 12.1237C54.2608 11.0171 54.4909 10.3001 52.778 10.3355C51.189 10.3665 51.1403 10.0744 51.7423 8.54292C52.331 7.04688 53.1763 6.12182 54.9379 6.38739C56.1861 6.57771 56.7748 5.76331 57.0537 4.74529C57.5627 2.89074 58.709 2.22682 60.6123 2.41272C62.033 2.54993 63.4715 2.53222 64.9056 2.64288C66.1494 2.73582 66.4282 3.08549 65.9502 4.26285C65.1092 6.33428 65.1668 6.35641 67.4285 6.36526C67.5923 6.36526 67.7605 6.34756 67.9243 6.36969C70.2303 6.67952 71.8857 6.19707 73.0453 3.7804C74.3466 1.07602 76.8119 -0.119042 80.0076 0.00931593C84.5267 0.190788 89.0591 0.053579 93.587 0.0801358C95.3265 0.0889881 95.3486 0.274889 94.7688 1.89486C94.0872 3.79367 93.0337 4.67447 90.8561 4.493C88.1694 4.26727 85.4518 4.43547 82.743 4.44432C82.141 4.44432 81.4682 4.32924 81.0124 4.81611C80.4104 5.46233 79.7686 6.27231 80.0475 7.13984C80.313 7.96753 81.2956 7.61344 81.9728 7.62672C84.0133 7.66655 86.0582 7.60458 88.0986 7.65327C90.9977 7.72409 92.1264 9.33078 91.0287 11.9997C89.8381 14.8944 88.5899 17.7758 87.1514 20.5555C85.6775 23.4103 83.2166 24.9152 79.9102 24.9064C75.4398 24.8975 70.965 24.9019 66.4946 24.9019C66.5035 24.8887 66.5035 24.8754 66.5035 24.8621ZM68.3492 21.1973C68.3492 21.2105 68.3492 21.2283 68.3492 21.2415C70.279 21.2415 72.2132 21.2504 74.143 21.2371C75.1344 21.2327 76.1348 21.2637 77.1174 21.1619C78.4231 21.0247 80.3927 18.7363 79.9988 17.6121C79.5385 16.2887 78.1973 16.988 77.2546 16.9393C75.2185 16.8287 73.1692 16.9791 71.1332 16.8508C68.7431 16.7003 67.9552 15.3813 68.7519 13.1328C68.9334 12.615 69.168 12.1148 69.3893 11.6147C69.7655 10.7781 69.4955 10.3399 68.5837 10.3355C67.1497 10.3222 65.7156 10.3355 64.2815 10.3355C63.5645 10.3355 63.2016 10.7737 62.936 11.3668C61.7232 14.0756 60.5149 16.7844 59.2888 19.4843C58.7577 20.6573 59.0233 21.2282 60.3998 21.2105C63.0511 21.1707 65.7023 21.1973 68.3492 21.1973Z" fill="#376AE8"/>
<path d="M33.7902 24.8532C31.1921 24.8532 28.5984 24.8931 26.0002 24.84C23.2737 24.7824 22.2645 23.5431 23.2162 21.0158C24.6635 17.1606 26.2923 13.3585 28.3593 9.78222C29.7226 7.42309 31.7896 6.2413 34.6666 6.32983C38.9157 6.46261 43.1736 6.34754 47.4227 6.36967C50.5918 6.38738 51.6187 7.92767 50.4015 10.8578C49.6225 12.7345 48.6974 14.5536 47.945 16.4436C47.5068 17.5501 46.7942 17.913 45.6656 17.9042C42.076 17.8688 38.4863 17.8909 34.8967 17.8998C34.3479 17.8998 33.7415 17.7847 33.2945 18.1609C32.6748 18.6743 32.3119 19.3914 32.4402 20.2014C32.5907 21.1353 33.4007 21.1441 34.1266 21.1486C37.1629 21.1618 40.2037 21.1928 43.24 21.1441C44.5192 21.1264 44.7316 21.454 44.2448 22.6711C43.5808 24.3442 42.5849 25.0214 40.7481 24.8975C38.4376 24.7382 36.1095 24.8577 33.7902 24.8577C33.7902 24.8532 33.7902 24.8532 33.7902 24.8532ZM37.8092 13.9339V13.9384C38.1367 13.9384 38.4686 13.9428 38.7962 13.9384C40.4471 13.9251 41.921 12.6769 41.682 11.1632C41.4342 9.6096 39.9868 10.5789 39.0971 10.3709C38.5837 10.2514 37.9995 10.3311 37.4639 10.424C36.592 10.5745 34.9853 12.6991 35.2995 13.4072C35.7333 14.3766 36.7425 13.7613 37.4772 13.9339C37.5834 13.9561 37.6985 13.9339 37.8092 13.9339Z" fill="#376AE8"/>
<path d="M99.9164 24.8533C97.3227 24.8533 94.7289 24.8843 92.1352 24.84C89.63 24.7958 88.5943 23.5343 89.4131 21.2194C90.7852 17.3377 92.5159 13.5799 94.4766 9.96376C95.8133 7.4984 97.9866 6.20596 101.014 6.32104C105.148 6.47595 109.291 6.34317 113.429 6.3653C116.78 6.38301 117.745 7.79051 116.501 10.8667C115.762 12.6991 114.872 14.474 114.142 16.3064C113.691 17.4395 112.965 17.9087 111.752 17.8954C108.167 17.86 104.577 17.8821 100.992 17.891C100.226 17.891 99.3941 17.8025 98.9736 18.67C98.6903 19.2498 98.2477 19.8429 98.6195 20.5245C98.9603 21.1486 99.6154 21.1442 100.226 21.1442C103.263 21.1486 106.294 21.1752 109.331 21.1398C110.663 21.122 110.951 21.516 110.446 22.804C109.831 24.3664 108.915 24.9861 107.197 24.8843C104.781 24.7471 102.346 24.8577 99.9164 24.8533ZM103.895 13.9429C104.223 13.9429 104.551 13.9429 104.883 13.9429C106.56 13.934 108.016 12.6593 107.729 11.1986C107.428 9.66277 106.024 10.5834 105.13 10.3621C104.772 10.2736 104.365 10.3356 103.984 10.3665C102.855 10.4639 101.16 12.1768 101.408 13.3011C101.691 14.5802 102.957 13.6552 103.732 13.934C103.78 13.9517 103.842 13.9384 103.895 13.9429Z" fill="#376AE8"/>
<path d="M167.708 24.8576C165.22 24.8576 162.737 24.8797 160.25 24.8532C157.266 24.8222 156.151 23.4457 157.28 20.7723C158.939 16.833 160.351 12.7565 162.768 9.17134C164.096 7.20171 165.981 6.30763 168.411 6.34746C172.607 6.41828 176.808 6.35189 181.004 6.37402C184.54 6.39172 185.487 7.82137 184.124 11.0746C183.358 12.8981 182.482 14.6775 181.752 16.5187C181.34 17.5544 180.681 17.9174 179.605 17.9085C175.962 17.8776 172.315 17.8997 168.668 17.8997C167.889 17.8997 167.141 17.8909 166.667 18.7274C165.857 20.1526 166.305 21.1087 167.951 21.1352C170.987 21.1839 174.028 21.1927 177.064 21.1396C178.379 21.1175 178.667 21.3875 178.18 22.733C177.565 24.4327 176.578 24.9815 174.834 24.8841C172.466 24.7602 170.084 24.8576 167.708 24.8576ZM171.7 13.9427C172.085 13.9427 172.47 13.9472 172.851 13.9427C174.369 13.9206 175.781 12.6591 175.591 11.1808C175.396 9.68478 174.019 10.5744 173.187 10.3708C172.722 10.2602 172.2 10.331 171.713 10.3797C170.593 10.4948 169.027 12.1103 169.243 13.2345C169.496 14.5624 170.766 13.6727 171.541 13.9339C171.585 13.9516 171.647 13.9383 171.7 13.9427Z" fill="#376AE8"/>
<path d="M7.36139 24.8844C5.43159 24.8844 3.49738 24.9021 1.56759 24.8799C-0.202871 24.8622 -0.242705 24.6675 0.323841 23.0962C1.01875 21.1576 2.20936 20.3254 4.3162 20.529C5.95387 20.6884 7.62697 20.4892 9.27792 20.5423C10.7474 20.591 11.6415 19.9581 12.2346 18.6479C14.8062 12.9957 17.4574 7.38342 19.9803 1.70911C20.5469 0.434377 21.2905 -0.0126726 22.6227 0.0537196C24.3843 0.142242 26.1548 0.0935629 27.9208 0.0758584C29.1292 0.0625799 29.5718 0.51847 29.0362 1.6914C26.0441 8.23766 23.2512 14.8857 19.8343 21.2239C18.5507 23.6052 16.072 24.725 13.319 24.8578C11.3361 24.9552 9.3443 24.8755 7.35696 24.8755C7.36139 24.8755 7.36139 24.8799 7.36139 24.8844Z" fill="#376AE8"/>
<path d="M147.152 19.1609C150.264 15.3854 153.428 11.6542 156.447 7.81229C157.403 6.59953 158.47 6.22773 159.877 6.3738C160.245 6.41363 160.714 6.28085 160.913 6.70576C161.117 7.13952 160.709 7.40509 160.479 7.68836C157.996 10.707 155.504 13.7168 153.012 16.731C151.083 19.0636 149.122 21.374 147.227 23.7287C146.586 24.5298 145.864 24.9193 144.828 24.8928C142.841 24.8441 140.849 24.8485 138.862 24.8884C137.72 24.9105 137.269 24.4236 137.326 23.2994C137.583 18.0898 137.813 12.8802 138.043 7.67065C138.083 6.78985 138.508 6.3738 139.389 6.37823C141.597 6.38265 143.806 6.3915 146.019 6.3738C147.139 6.36494 147.444 6.97576 147.378 7.95836C147.201 10.6981 147.033 13.4379 146.864 16.1777C146.807 17.1382 146.754 18.1031 146.701 19.068C146.847 19.0945 146.997 19.1299 147.152 19.1609Z" fill="#376AE8"/>
<path d="M117.484 24.8841C116.988 24.8841 116.488 24.8841 115.993 24.8841C112.965 24.8841 112.969 24.8841 114.182 22.2063C116.294 17.55 118.454 12.9158 120.485 8.22408C121.114 6.77674 121.99 6.23232 123.526 6.34297C125.009 6.4492 126.509 6.33413 127.996 6.38282C128.647 6.40495 129.475 6.09954 129.762 7.13526C129.904 7.65312 130.307 7.29017 130.559 7.17509C132.515 6.27216 134.587 6.75461 136.61 6.66609C137.375 6.63068 137.605 7.06444 137.309 7.72836C136.769 8.93227 136.216 10.1318 135.623 11.3091C135.299 11.9553 134.635 11.9376 134.029 11.9509C132.759 11.9775 131.489 11.9642 130.218 12.0129C128.514 12.0748 127.35 12.8804 126.633 14.4694C125.367 17.2756 123.902 19.9932 122.707 22.8304C122.017 24.4636 121.025 25.1408 119.294 24.8974C118.71 24.8133 118.091 24.8841 117.484 24.8841Z" fill="#376AE8"/>
<path d="M185.195 24.8844C180.742 24.8844 180.76 24.8932 182.596 20.8743C184.562 16.5721 186.522 12.2699 188.421 7.93669C188.939 6.75048 189.678 6.28131 190.966 6.34328C192.675 6.42737 194.392 6.34328 196.101 6.37426C196.654 6.38311 197.353 6.15739 197.57 7.04704C197.694 7.5649 198.11 7.29048 198.371 7.16655C200.27 6.26361 202.288 6.75049 204.253 6.66639C205.223 6.62655 205.382 7.17097 205.019 7.94997C204.528 8.99454 204.01 10.0303 203.514 11.0704C203.178 11.7742 202.558 11.9291 201.863 11.9379C200.593 11.9601 199.323 11.9689 198.052 11.991C196.273 12.022 195.052 12.8187 194.317 14.4785C193.091 17.2449 191.692 19.9315 190.537 22.7244C189.842 24.4019 188.828 25.1588 187.018 24.8888C186.421 24.8091 185.801 24.8844 185.195 24.8844Z" fill="#376AE8"/>
</svg>
