<svg width="206" height="26" viewBox="0 0 206 26" fill="none" xmlns="http://www.w3.org/2000/svg">
<path d="M66.9043 25.0315C62.3233 25.0315 57.7422 25.0404 53.1567 25.0271C50.1779 25.0227 49.2529 23.7037 50.3948 20.9019C51.5766 18.0028 52.869 15.148 54.1615 12.2931C54.6616 11.1866 54.8918 10.4695 53.1789 10.5049C51.5899 10.5359 51.5412 10.2438 52.1432 8.71235C52.7318 7.21631 53.5772 6.29125 55.3388 6.55682C56.587 6.74715 57.1757 5.93274 57.4545 4.91473C57.9635 3.06017 59.1099 2.39626 61.0131 2.58215C62.4339 2.71936 63.8724 2.70166 65.3065 2.81231C66.5502 2.90526 66.8291 3.25492 66.3511 4.43228C65.5101 6.50371 65.5676 6.52584 67.8294 6.5347C67.9932 6.5347 68.1614 6.517 68.3251 6.53913C70.6311 6.84896 72.2865 6.3665 73.4462 3.94983C74.7475 1.24546 77.2128 0.0503914 80.4085 0.17875C84.9276 0.360221 89.4599 0.223013 93.9879 0.249569C95.7274 0.258422 95.7495 0.444322 95.1697 2.06429C94.4881 3.9631 93.4346 4.8439 91.257 4.66243C88.5703 4.4367 85.8526 4.6049 83.1438 4.61375C82.5419 4.61375 81.8691 4.49867 81.4132 4.98555C80.8113 5.63176 80.1695 6.44175 80.4483 7.30927C80.7139 8.13696 81.6965 7.78287 82.3737 7.79615C84.4142 7.83598 86.459 7.77402 88.4995 7.8227C91.3986 7.89352 92.5273 9.50022 91.4296 12.1692C90.239 15.0639 88.9908 17.9453 87.5523 20.7249C86.0784 23.5798 83.6175 25.0846 80.3111 25.0758C75.8407 25.0669 71.3659 25.0714 66.8955 25.0714C66.9043 25.0581 66.9043 25.0448 66.9043 25.0315ZM68.75 21.3667C68.75 21.38 68.75 21.3977 68.75 21.411C70.6798 21.411 72.6141 21.4198 74.5439 21.4065C75.5353 21.4021 76.5356 21.4331 77.5182 21.3313C78.8239 21.1941 80.7936 18.9058 80.3997 17.7815C79.9393 16.4581 78.5982 17.1574 77.6554 17.1087C75.6194 16.9981 73.5701 17.1486 71.5341 17.0202C69.144 16.8697 68.3561 15.5507 69.1528 13.3023C69.3343 12.7844 69.5689 12.2842 69.7902 11.7841C70.1664 10.9476 69.8964 10.5094 68.9846 10.5049C67.5506 10.4917 66.1165 10.5049 64.6824 10.5049C63.9654 10.5049 63.6024 10.9431 63.3369 11.5362C62.1241 14.245 60.9158 16.9538 59.6897 19.6538C59.1586 20.8267 59.4242 21.3977 60.8007 21.38C63.452 21.3401 66.1032 21.3667 68.75 21.3667Z" fill="#376AE8"/>
<path d="M34.1906 25.0227C31.5925 25.0227 28.9987 25.0625 26.4006 25.0094C23.6741 24.9519 22.6649 23.7125 23.6165 21.1852C25.0639 17.33 26.6927 13.528 28.7597 9.95166C30.123 7.59252 32.19 6.41074 35.067 6.49926C39.3161 6.63204 43.574 6.51698 47.8231 6.53911C50.9922 6.55681 52.0191 8.0971 50.8019 11.0272C50.0229 12.9039 49.0978 14.723 48.3454 16.613C47.9072 17.7195 47.1946 18.0825 46.0659 18.0736C42.4763 18.0382 38.8867 18.0603 35.2971 18.0692C34.7483 18.0692 34.1419 17.9541 33.6949 18.3303C33.0752 18.8438 32.7123 19.5608 32.8406 20.3708C32.9911 21.3047 33.8011 21.3136 34.527 21.318C37.5633 21.3313 40.6041 21.3622 43.6404 21.3136C44.9196 21.2958 45.132 21.6234 44.6451 22.8406C43.9812 24.5137 42.9853 25.1909 41.1485 25.0669C38.838 24.9076 36.5099 25.0271 34.1906 25.0271C34.1906 25.0227 34.1906 25.0227 34.1906 25.0227ZM38.2095 14.1034V14.1078C38.5371 14.1078 38.869 14.1122 39.1966 14.1078C40.8475 14.0945 42.3214 12.8464 42.0824 11.3326C41.8346 9.77904 40.3872 10.7484 39.4975 10.5403C38.9841 10.4208 38.3999 10.5005 37.8643 10.5934C36.9923 10.7439 35.3856 12.8685 35.6999 13.5767C36.1337 14.546 37.1428 13.9308 37.8776 14.1034C37.9838 14.1255 38.0989 14.1034 38.2095 14.1034Z" fill="#376AE8"/>
<path d="M100.317 25.0227C97.7236 25.0227 95.1298 25.0537 92.5361 25.0095C90.0309 24.9652 88.9952 23.7037 89.814 21.3889C91.1861 17.5071 92.9167 13.7493 94.8775 10.1332C96.2142 7.66783 98.3875 6.37539 101.415 6.49047C105.549 6.64539 109.692 6.5126 113.83 6.53474C117.181 6.55244 118.146 7.95995 116.902 11.0361C116.163 12.8685 115.273 14.6434 114.543 16.4758C114.091 17.6089 113.366 18.0781 112.153 18.0648C108.568 18.0294 104.978 18.0516 101.393 18.0604C100.627 18.0604 99.795 17.9719 99.3745 18.8394C99.0912 19.4192 98.6486 20.0123 99.0204 20.694C99.3612 21.3181 100.016 21.3136 100.627 21.3136C103.663 21.318 106.695 21.3446 109.732 21.3092C111.064 21.2915 111.352 21.6854 110.847 22.9734C110.232 24.5358 109.316 25.1555 107.598 25.0537C105.182 24.9165 102.747 25.0271 100.317 25.0227ZM104.296 14.1123C104.624 14.1123 104.951 14.1123 105.283 14.1123C106.961 14.1034 108.417 12.8287 108.129 11.3681C107.828 9.8322 106.425 10.7528 105.531 10.5315C105.173 10.443 104.766 10.505 104.385 10.536C103.256 10.6333 101.561 12.3463 101.809 13.4705C102.092 14.7496 103.358 13.8246 104.133 14.1034C104.181 14.1211 104.243 14.1079 104.296 14.1123Z" fill="#376AE8"/>
<path d="M168.108 25.027C165.62 25.027 163.137 25.0492 160.65 25.0226C157.667 24.9916 156.551 23.6151 157.68 20.9417C159.34 17.0024 160.752 12.926 163.168 9.34078C164.496 7.37115 166.382 6.47706 168.812 6.5169C173.008 6.58772 177.208 6.52132 181.404 6.54345C184.941 6.56116 185.888 7.9908 184.525 11.244C183.759 13.0676 182.882 14.8469 182.152 16.6882C181.74 17.7239 181.081 18.0868 180.005 18.078C176.363 18.047 172.716 18.0691 169.068 18.0691C168.289 18.0691 167.541 18.0603 167.068 18.8968C166.258 20.322 166.705 21.2781 168.351 21.3047C171.388 21.3533 174.429 21.3622 177.465 21.3091C178.779 21.2869 179.067 21.5569 178.58 22.9025C177.965 24.6021 176.978 25.151 175.234 25.0536C172.866 24.9296 170.485 25.027 168.108 25.027ZM172.1 14.1122C172.485 14.1122 172.871 14.1166 173.251 14.1122C174.769 14.09 176.181 12.8286 175.991 11.3503C175.796 9.85421 174.42 10.7439 173.588 10.5403C173.123 10.4296 172.601 10.5004 172.114 10.5491C170.994 10.6642 169.427 12.2797 169.644 13.404C169.896 14.7318 171.166 13.8422 171.941 14.1033C171.985 14.121 172.047 14.1077 172.1 14.1122Z" fill="#376AE8"/>
<path d="M7.76227 25.0538C5.83247 25.0538 3.89826 25.0715 1.96846 25.0494C0.198008 25.0317 0.158174 24.8369 0.72472 23.2657C1.41962 21.327 2.61024 20.4949 4.71708 20.6985C6.35475 20.8578 8.02784 20.6587 9.67879 20.7118C11.1483 20.7605 12.0424 20.1275 12.6355 18.8174C15.207 13.1652 17.8583 7.55285 20.3812 1.87854C20.9477 0.60381 21.6914 0.156761 23.0236 0.223153C24.7852 0.311676 26.5557 0.262997 28.3217 0.245292C29.53 0.232014 29.9727 0.687903 29.4371 1.86083C26.445 8.40709 23.6521 15.0551 20.2351 21.3934C18.9516 23.7746 16.4729 24.8945 13.7199 25.0273C11.737 25.1246 9.74518 25.0449 7.75784 25.0449C7.76226 25.0449 7.76227 25.0494 7.76227 25.0538Z" fill="#376AE8"/>
<path d="M147.553 19.3304C150.665 15.5549 153.829 11.8236 156.848 7.98173C157.804 6.76896 158.871 6.39717 160.278 6.54323C160.646 6.58307 161.115 6.45028 161.314 6.87519C161.518 7.30895 161.11 7.57452 160.88 7.85779C158.397 10.8764 155.905 13.8862 153.413 16.9004C151.483 19.233 149.523 21.5434 147.628 23.8981C146.986 24.6993 146.265 25.0888 145.229 25.0622C143.242 25.0135 141.25 25.018 139.263 25.0578C138.121 25.0799 137.669 24.593 137.727 23.4688C137.984 18.2592 138.214 13.0497 138.444 7.84009C138.484 6.95928 138.909 6.54323 139.79 6.54766C141.998 6.55209 144.207 6.56093 146.42 6.54323C147.54 6.53438 147.845 7.14519 147.779 8.1278C147.602 10.8676 147.434 13.6074 147.265 16.3471C147.208 17.3076 147.155 18.2725 147.102 19.2374C147.248 19.264 147.398 19.2994 147.553 19.3304Z" fill="#376AE8"/>
<path d="M117.885 25.0535C117.389 25.0535 116.889 25.0535 116.393 25.0535C113.365 25.0535 113.37 25.0535 114.583 22.3757C116.694 17.7194 118.854 13.0852 120.886 8.39352C121.514 6.94617 122.39 6.40175 123.926 6.51241C125.409 6.61864 126.909 6.50357 128.397 6.55226C129.047 6.57439 129.875 6.26897 130.163 7.30469C130.304 7.82255 130.707 7.4596 130.959 7.34452C132.916 6.44159 134.987 6.92404 137.01 6.83552C137.776 6.80011 138.006 7.23387 137.709 7.89779C137.169 9.1017 136.616 10.3012 136.023 11.4785C135.7 12.1248 135.036 12.1071 134.43 12.1203C133.159 12.1469 131.889 12.1336 130.619 12.1823C128.915 12.2443 127.75 13.0498 127.033 14.6388C125.768 17.445 124.302 20.1626 123.107 22.9998C122.417 24.633 121.425 25.3102 119.695 25.0668C119.111 24.9827 118.491 25.0535 117.885 25.0535Z" fill="#376AE8"/>
<path d="M185.596 25.0538C181.143 25.0538 181.161 25.0627 182.998 21.0437C184.963 16.7415 186.924 12.4393 188.823 8.10612C189.34 6.91992 190.08 6.45074 191.368 6.51271C193.076 6.59681 194.793 6.51271 196.502 6.5437C197.055 6.55255 197.754 6.32682 197.971 7.21648C198.095 7.73434 198.511 7.45991 198.773 7.33598C200.671 6.43305 202.69 6.91992 204.655 6.83582C205.624 6.79599 205.784 7.3404 205.421 8.1194C204.929 9.16397 204.411 10.1997 203.916 11.2398C203.579 11.9436 202.96 12.0985 202.265 12.1074C200.994 12.1295 199.724 12.1383 198.454 12.1605C196.675 12.1915 195.453 12.9882 194.718 14.648C193.492 17.4143 192.093 20.101 190.938 22.8939C190.243 24.5714 189.23 25.3282 187.419 25.0583C186.822 24.9786 186.202 25.0538 185.596 25.0538Z" fill="#376AE8"/>
</svg>
