<svg width="1920" height="1156" viewBox="0 0 1920 1156" fill="none" xmlns="http://www.w3.org/2000/svg">
<mask id="mask0_118_1442" style="mask-type:luminance" maskUnits="userSpaceOnUse" x="-59" y="0" width="1998" height="1156">
<path d="M1938.25 0.160156H-58.8389V1155.76H1938.25V0.160156Z" fill="white"/>
<path d="M-58.3389 1155.26V0.660156H1937.75V1155.26H-58.3389Z" stroke="white"/>
</mask>
<g mask="url(#mask0_118_1442)">
<path d="M-80.2168 144.763C16.9217 128.2 120.451 72.8144 220.271 82.5708C308.148 91.161 375.866 161.4 462.635 173.75C566.098 188.478 675.187 104.249 766.425 66.8151C861.151 27.9517 910.101 37.9718 981.333 108.211C1042.47 168.494 1081 196.538 1169.56 182.393C1239.86 171.167 1306.77 154.256 1377.67 146.315C1469.95 135.978 1541.7 69.0838 1631.25 50.4895C1737.89 28.3485 1827.38 123.426 1926.79 145.65" stroke="#DBEDFF" stroke-opacity="0.8" stroke-width="2" stroke-miterlimit="10" stroke-linecap="round"/>
<path d="M-91.6616 150.469C5.22125 134.282 107.166 81.7208 206.528 89.0328C295.127 95.554 363.971 164.499 450.109 179.853C551.828 197.986 658.171 118.531 747.026 80.211C786.358 63.2464 835.705 39.5316 880.085 47.717C926.154 56.214 957.655 94.8803 989.8 125.17C1051.65 183.447 1095.08 201.357 1180.15 187.346C1249.61 175.904 1319.15 162.699 1388.48 150.975C1478.55 135.746 1554.25 76.4139 1643.78 59.6783C1746.55 40.4663 1842.01 128.996 1938.88 151.015" stroke="#DBEDFF" stroke-opacity="0.8" stroke-width="2" stroke-miterlimit="10" stroke-linecap="round"/>
<path d="M-102.775 155.04C-6.61147 139.612 93.094 90.537 191.465 95.7295C281.076 100.459 351.656 168.168 437.576 186.336C537.572 207.479 639.527 133.416 726.254 94.1744C765.73 76.3124 817.67 49.0535 862.837 53.5696C909.27 58.2108 942.624 92.1108 975.513 121.439C1037.26 176.5 1078 206.099 1163.57 195.342C1240.37 185.689 1320.78 169.973 1396.5 154.316C1485.23 135.967 1565.33 85.8985 1655.22 72.3768C1755.83 57.2416 1854.59 134.92 1950.71 155.389" stroke="#DBEDFF" stroke-opacity="0.8" stroke-width="2" stroke-miterlimit="10" stroke-linecap="round"/>
<path d="M-113.697 158.743C-18.721 144.369 78.3643 99.2535 175.226 102.659C276.436 106.219 354.533 189.482 454.198 198.576C553.648 207.648 654.608 129.103 741.75 91.6992C780.496 75.0674 825.481 55.0619 868.653 63.8624C912.815 72.8653 946.886 109.481 979.91 137.094C1042.76 189.642 1087.3 209.661 1169.95 199.002C1246.82 189.088 1326.87 173.777 1402.44 157.055C1490.61 137.544 1575.65 97.97 1665.89 88.1949C1765.54 77.4 1865.82 141.171 1962.38 159.02" stroke="#DBEDFF" stroke-opacity="0.8" stroke-width="2" stroke-miterlimit="10" stroke-linecap="round"/>
<path d="M-124.562 161.824C-30.3015 148.582 65.8278 106.289 161.744 109.87C265.683 113.75 346.531 198.477 448.952 207.616C547.401 216.398 645.881 138.207 731.692 100.556C770.532 83.5138 814.526 64.0062 857.885 72.3567C902.228 80.8963 938.096 116.5 972.339 143.035C1036.89 193.058 1083.12 212.997 1165.54 203.494C1243.43 194.509 1322.76 177.406 1399.44 161.363C1489.48 142.527 1579.77 114.775 1671.75 107.133C1772.62 98.753 1875.03 147.594 1974.03 162.127" stroke="#DBEDFF" stroke-opacity="0.8" stroke-width="2" stroke-miterlimit="10" stroke-linecap="round"/>
<path d="M-135.498 164.545C-43.1073 152.757 49.9705 114.945 143.682 117.206C249.68 119.762 332.974 202.141 436.16 216.091C531.333 228.955 626.251 154.427 707.815 116.034C745.358 98.3615 791.706 75.134 834.739 79.5809C879.165 84.1742 917.435 116.061 952.28 140.852C1017.01 186.907 1063.8 215.663 1145.5 209.056C1222 202.871 1297.6 184.141 1372.91 170.044C1474.48 151.031 1578.3 132.179 1681.75 127.655C1782.97 123.227 1885.38 154.778 1985.78 164.955" stroke="#DBEDFF" stroke-opacity="0.8" stroke-width="2" stroke-miterlimit="10" stroke-linecap="round"/>
<path d="M-146.656 167.163C-56.3744 156.916 33.7103 123.565 125.004 124.785C232.948 126.228 319.108 206.274 423.023 224.57C527.178 242.909 627.011 156.424 716.753 116.655C814.685 73.257 869.544 101.475 953.869 155.883C1019.85 198.456 1069.74 218.616 1149.11 212.284C1225.78 206.167 1300.1 186.319 1375.58 172.811C1582.41 135.795 1790.05 156.783 1997.77 167.733" stroke="#DBEDFF" stroke-opacity="0.8" stroke-width="2" stroke-miterlimit="10" stroke-linecap="round"/>
<path d="M-158.172 169.929C-69.083 161.064 19.8328 130.871 109.734 132.549C220.769 134.62 310.01 215.66 417.041 234.517C520.032 252.664 615.187 168.03 703.389 128.115C799.662 84.5492 858.031 113.768 943.735 163.2C1011.59 202.335 1064.46 221.619 1143.5 216.445C1221.01 211.372 1294.5 190.131 1370.71 177.273C1478.12 159.153 1589.5 172.565 1697.72 173.185C1801.87 173.782 1905.97 170.323 2010.11 170.688" stroke="#DBEDFF" stroke-opacity="0.8" stroke-width="2" stroke-miterlimit="10" stroke-linecap="round"/>
<path d="M-170.175 173.102C-83.2481 165.686 3.1061 139.601 90.6159 140.56C203.449 141.793 295.31 220.646 403.086 243.069C504.711 264.214 592.546 187.76 678.381 145.989C771.637 100.607 832.943 119.992 921.025 164.783C998.73 204.299 1059.07 225.772 1147.12 220.507C1225.05 215.85 1297.72 191.382 1374.45 180.96C1485.37 165.896 1597.66 194.921 1708.53 196.918C1813.66 198.811 1918.06 178.6 2022.95 174.079" stroke="#DBEDFF" stroke-opacity="0.8" stroke-width="2" stroke-miterlimit="10" stroke-linecap="round"/>
<path d="M-182.8 176.946C-88.3265 170.119 10.0954 139.004 105.077 150.422C216.523 163.821 308.81 247.196 420.743 257.301C516.978 265.99 599.578 187.629 682.433 151.133C771.82 111.761 839.943 143.805 923.642 180.642C1001.28 214.811 1066.27 229.789 1151.25 225.348C1229.6 221.252 1302.46 192.571 1379.63 185.568C1494.3 175.162 1606.03 218.39 1720.01 220.555C1826.28 222.573 1930.86 187.06 2036.4 178.11" stroke="#DBEDFF" stroke-opacity="0.8" stroke-width="2" stroke-miterlimit="10" stroke-linecap="round"/>
<path d="M-196.194 181.711C-103.249 176.002 -7.14946 148.842 86.16 158.529C199.72 170.32 293.804 251.17 406.453 266.527C500.607 279.361 577.777 208.188 657.701 171.004C744.934 130.421 815.407 154.074 900.989 185.988C980.878 215.779 1049.44 233.689 1135.16 231.743C1212.18 229.993 1279.78 207.73 1354.74 194.479C1468.37 174.394 1585.25 227.493 1696.89 240.516C1816.47 254.467 1933.1 196.996 2050.59 183.035" stroke="#DBEDFF" stroke-opacity="0.8" stroke-width="2" stroke-miterlimit="10" stroke-linecap="round"/>
<path d="M-210.486 187.655C-118.7 182.742 -24.3494 158.956 67.7085 167.013C182.68 177.076 278.862 256.163 391.658 275.402C485.122 291.344 554.991 229.046 634.158 191.945C729.688 147.173 810.44 173.737 906.33 203.182C986.248 227.722 1058.94 239.612 1142.56 238.528C1220.5 237.519 1287.61 211.205 1363.41 199.971C1480.04 182.681 1596.76 247.528 1710.57 261.928C1831.37 277.213 1947.9 205.967 2065.66 189.072" stroke="#DBEDFF" stroke-opacity="0.8" stroke-width="2" stroke-miterlimit="10" stroke-linecap="round"/>
<path d="M-225.818 195.034C-134.67 190.531 -41.4009 169.442 49.97 175.913C165.785 184.114 263.861 261.686 376.369 283.91C468.454 302.1 533.474 250.955 611.959 213.802C704.491 169.996 789.498 189.315 885.089 213.194C968.03 233.916 1045.66 245.491 1131.12 246.423C1218.15 247.374 1290.65 216.254 1375.05 206.604C1494.72 192.92 1609.14 267.526 1725.65 281.681C1848.09 296.556 1963.1 215.018 2081.73 196.472" stroke="#DBEDFF" stroke-opacity="0.8" stroke-width="2" stroke-miterlimit="10" stroke-linecap="round"/>
<path d="M-242.432 204.158C-151.167 199.676 -58.1241 180.376 33.348 185.417C160.773 192.439 266.334 284.944 392.454 297.499C478.486 306.063 541.235 253.025 616.397 222.768C708.895 185.531 804.273 212.663 897.617 233.581C980.826 252.232 1060.36 261.815 1145.61 260.944C1179.8 260.595 1213.29 258.705 1246.92 252.154C1295.06 242.781 1341.25 218.316 1390.15 214.75C1511.62 205.888 1622.69 285.256 1741.3 297.869C1864.88 311.01 1979.31 224.97 2098.84 205.721" stroke="#DBEDFF" stroke-opacity="0.8" stroke-width="2" stroke-miterlimit="10" stroke-linecap="round"/>
<path d="M-259.55 215.31C-167.484 210.946 -74.0014 193.119 18.2535 197.065C144.068 202.447 248.846 289.687 372.197 306.253C458.897 317.897 525.903 267.956 601.953 236.621C698.167 196.975 788.097 222.455 884.805 248.606C970.456 271.77 1052.61 292.478 1141.97 285.906C1226.14 279.715 1296.78 243.432 1377.81 226.83C1505.84 200.593 1631.73 298.368 1756.88 309.158C1880.11 319.785 1997.43 236.924 2116.99 217.241" stroke="#DBEDFF" stroke-opacity="0.8" stroke-width="2" stroke-miterlimit="10" stroke-linecap="round"/>
<path d="M-276.538 228.203C-183.298 224.116 -89.0672 208.115 4.33009 211.004C126.832 214.794 229.061 296.171 348.12 315.287C445.764 330.963 522.817 272.315 610.548 241.855C709.905 207.356 804.205 241.765 900.64 271.295C985.65 297.324 1067.31 320.341 1156.68 307.275C1241.4 294.888 1316.5 246.755 1399.63 233.731C1527.61 213.68 1648.84 310.382 1774.44 318.6C1897.47 326.649 2016.36 249.317 2136.26 230.262" stroke="#DBEDFF" stroke-opacity="0.8" stroke-width="2" stroke-miterlimit="10" stroke-linecap="round"/>
<path d="M-293.561 242.578C-198.773 238.863 -103.392 224.934 -8.47714 226.918C109.554 229.386 207.467 304.219 321.304 324.733C420.639 342.635 503.665 288.479 593.971 257.631C696.312 222.668 784.421 250.593 883.698 283.883C978.754 315.756 1069.08 346.698 1169.84 325.457C1255.93 307.305 1337.55 248.897 1424.24 240.418C1552.02 227.919 1667.72 320.709 1793.75 326.538C1916.6 332.221 2036.21 262.136 2156.57 244.548" stroke="#DBEDFF" stroke-opacity="0.8" stroke-width="2" stroke-miterlimit="10" stroke-linecap="round"/>
<path d="M-310.777 258.157C-205.56 254.666 -95.9862 235.978 9.10868 245.429C117.21 255.148 208.429 325.568 315.787 338.44C413.355 350.137 502.861 295.633 593.306 268.635C696.388 237.861 783.2 265.7 881.571 301.046C976.401 335.119 1066.34 368.282 1167.59 344.796C1258.13 323.794 1338.96 267.239 1429.51 249.306C1547.17 226.001 1669.86 313.785 1783.93 330.265C1915.05 349.208 2049.1 276.32 2177.85 259.893" stroke="#DBEDFF" stroke-opacity="0.8" stroke-width="2" stroke-miterlimit="10" stroke-linecap="round"/>
<path d="M-328.356 274.687C-221.003 271.769 -110.532 255.861 -3.25885 263.522C98.883 270.816 184.686 335.572 285.262 349.131C385.34 362.626 481.779 312.946 575.477 285.826C691.929 252.12 783.528 281.866 893.739 323.672C990.398 360.336 1077.3 387.422 1179.81 359.162C1273.16 333.428 1361.79 267.708 1457.72 254.842C1576.12 238.961 1690.89 322.535 1806.19 336.983C1936.77 353.346 2071.05 289.759 2200.02 276.075" stroke="#DBEDFF" stroke-opacity="0.8" stroke-width="2" stroke-miterlimit="10" stroke-linecap="round"/>
<path d="M-346.457 291.901C-236.83 289.59 -125.193 276.55 -15.619 282.52C80.5077 287.758 160.359 346.903 254.289 360.3C357.28 374.988 459.225 329.763 556.763 303.513C675.231 271.629 763.888 290.197 876.292 334.892C972.736 373.241 1061.15 406.598 1165.25 380.028C1273.63 352.367 1375.53 271.581 1486.98 260.581C1603.95 249.035 1714.71 331.217 1829.39 343.325C1959.82 357.094 2093.56 303.604 2223 292.875" stroke="#DBEDFF" stroke-opacity="0.8" stroke-width="2" stroke-miterlimit="10" stroke-linecap="round"/>
<path d="M-365.244 309.53C-254.448 307.84 -142.885 298.522 -32.0975 302.011C66.1994 305.108 147.191 365.846 243.834 374.505C349.587 383.979 456.561 340.126 557.942 316.563C675.996 289.126 763.932 306.09 874.672 352.015C969.476 391.329 1057.19 424.96 1160.32 398.14C1275.04 368.309 1379.99 286.021 1497.12 268.707C1620.28 250.502 1736.43 340.938 1857.69 350.037C1986.96 359.737 2117.97 317.726 2246.71 310.082" stroke="#DBEDFF" stroke-opacity="0.8" stroke-width="2" stroke-miterlimit="10" stroke-linecap="round"/>
<path d="M-384.88 327.315C-271.84 326.175 -158.482 319.481 -45.4415 321.827C47.1756 323.749 122.551 377.285 212.939 386.711C333.076 399.242 456.678 350.281 573.153 328.02C692.153 305.277 778.313 329.061 887.887 375.279C985.3 416.369 1069.99 442.312 1174.83 411.254C1292.05 376.526 1404.7 288.257 1526.87 274.354C1648.22 260.545 1761.69 349.088 1881.89 356.653C2011.24 364.796 2141.94 332.347 2271.06 327.469" stroke="#DBEDFF" stroke-opacity="0.8" stroke-width="2" stroke-miterlimit="10" stroke-linecap="round"/>
<path d="M-405.525 344.988C-290.402 344.331 -175.186 339.924 -60.0601 341.38C27.8358 342.491 98.2559 389.433 183.478 399.325C307.032 413.667 436.672 367.971 557.07 346.567C677.599 325.145 764.363 338.254 875.715 387.122C985.047 435.097 1074.46 463.03 1192.29 423.884C1310.57 384.592 1430.27 290.785 1556.09 280.717C1675.91 271.128 1786.87 357.631 1906.32 364.059C2035.85 371.031 2166.48 347.3 2295.99 344.823" stroke="#DBEDFF" stroke-opacity="0.8" stroke-width="2" stroke-miterlimit="10" stroke-linecap="round"/>
<path d="M-427.352 362.285C-301.729 361.974 -174.546 354.254 -49.0599 360.488C29.4684 364.389 96.2404 408.298 174.319 413.927C303.97 423.279 437.514 380.962 564.635 361.412C684.432 342.988 770.205 355.455 879.88 405.553C987.119 454.54 1075.23 482.869 1191.76 443.958C1315.49 402.64 1435.55 305.938 1566.16 289.578C1680.82 275.217 1789.7 356.928 1901.72 370.433C2039.05 386.99 2183.45 362.637 2321.41 361.928" stroke="#DBEDFF" stroke-opacity="0.8" stroke-width="2" stroke-miterlimit="10" stroke-linecap="round"/>
<path d="M-450.512 378.938C-323.933 378.893 -196.548 373.701 -70.0446 378.147C5.38685 380.8 68.8145 419.426 142.8 426.858C272.763 439.911 409.585 400.994 537.292 381.998C600.469 372.601 668.333 359.915 732.32 368.41C787.498 375.735 837.553 401.095 887.14 424.725C991.926 474.663 1078.83 504.593 1193.76 465.617C1268.18 440.379 1337.76 402.427 1408.12 367.949C1466.11 339.532 1532.87 300.751 1598.8 296.496C1712.41 289.165 1817.98 370.694 1930.29 381.479C2067.43 394.649 2209.6 378.177 2347.23 378.552" stroke="#DBEDFF" stroke-opacity="0.8" stroke-width="2" stroke-miterlimit="10" stroke-linecap="round"/>
<path d="M-475.173 394.684C-346.888 394.722 -217.977 390.717 -89.7534 394.607C-7.58779 397.099 63.1758 437.917 144.74 442.149C284.062 449.378 426.723 412.488 564.238 394.991C627.082 386.994 694.094 376.119 757.09 388.168C811.859 398.647 861.155 426.611 910.477 451.138C1017.71 504.463 1104.66 526.538 1220.39 481.387C1295.75 451.99 1366.1 411.076 1437.91 374.237C1494.14 345.385 1558.48 307.206 1623.43 305.513C1737.09 302.552 1840.72 383.953 1953.9 393.944C2091.87 406.126 2234.92 394.083 2373.38 394.487" stroke="#DBEDFF" stroke-opacity="0.8" stroke-width="2" stroke-miterlimit="10" stroke-linecap="round"/>
<path d="M-501.192 409.297C-372.99 409.103 -244.281 407.188 -116.121 410.069C-33.4098 411.928 38.7065 448.938 120.071 455.555C270.894 467.817 428.754 426.512 577.993 409.102C641.184 401.729 707.452 391.131 770.441 404.767C824.256 416.417 873.131 443.546 922.081 467.569C1027.92 519.52 1112.14 544.282 1226.54 499.991C1300.93 471.188 1370.57 431.161 1441.1 394.273C1497.83 364.597 1563.87 322.53 1629.34 318.315C1749.54 310.577 1862.13 398.491 1981.69 407.926C2118.95 418.755 2262.14 411.43 2399.86 410.381" stroke="#DBEDFF" stroke-opacity="0.8" stroke-width="2" stroke-miterlimit="10" stroke-linecap="round"/>
<path d="M-528.12 424.265C-391.101 424.489 -251.227 421.73 -114.504 429.828C-32.9108 434.661 43.4153 466.22 125.126 470.041C279.304 477.249 438.472 439.539 591.34 423.027C654.914 416.16 719.46 406.065 782.515 420.689C834.745 432.802 883.307 456.735 932.025 478.352C980.086 499.675 1029.71 523.702 1082.16 531.991C1145.77 542.04 1206.05 521.249 1264.73 497.912C1337.11 469.128 1406.16 432.73 1476.45 399.341C1532.86 372.546 1593.7 338.185 1657.58 338.667C1778.36 339.58 1889.92 411.399 2010.57 419.192C2147.63 428.049 2289.73 430.829 2427.13 429.537" stroke="#DBEDFF" stroke-opacity="0.8" stroke-width="2" stroke-miterlimit="10" stroke-linecap="round"/>
<path d="M-556.142 440.09C-417.874 441.642 -278.455 446.028 -140.337 451.846C-54.6188 455.454 28.3883 479.489 114.042 483.145C268.529 489.74 427.676 456.479 581.079 440.788C646.792 434.067 714.948 422.398 780.493 434.551C832.071 444.114 881.359 464.731 930.08 483.454C979.041 502.266 1028 522.557 1079.48 533.565C1141.23 546.772 1196.69 532.782 1255.97 513.391C1327.14 490.113 1395.57 459.18 1464.38 429.873C1523.66 404.627 1589.3 369.374 1654.4 364.6C1769.98 356.122 1890.87 408.491 2004.49 423.775C2070.68 432.68 2138.84 427.66 2205.63 433.891C2289.02 441.669 2371.55 451.572 2455.43 451.854" stroke="#DBEDFF" stroke-opacity="0.8" stroke-width="2" stroke-miterlimit="10" stroke-linecap="round"/>
<path d="M-585.323 456.761C-356.89 462.637 -129.142 487.985 99.0084 496.231C250.598 501.711 405.274 475.099 556.004 461.064C624.853 454.652 698.514 441.404 767.48 448.826C826.28 455.152 884.331 476.409 940.428 494.005C989.389 509.361 1038.31 525.676 1088.72 535.731C1148.47 547.652 1202.02 537.821 1260.55 522.473C1397.28 486.613 1537.55 402.032 1679.47 395.748C1797.85 390.508 1918.49 420.203 2035.93 431.153C2103.13 437.418 2169.41 436.26 2236.55 446.634C2319.45 459.445 2400.75 474.585 2484.84 476.851" stroke="#DBEDFF" stroke-opacity="0.8" stroke-width="2" stroke-miterlimit="10" stroke-linecap="round"/>
<path d="M-615.737 474.272C-477.919 480.293 -341.949 503.283 -203.796 503.984C-98.7885 504.514 6.17592 510.84 111.175 510.673C263.955 510.425 417.768 490.723 570.042 479.036C638.271 473.801 709.623 462.604 777.735 469.45C835.682 475.276 893.449 491.639 950.001 504.913C1059.2 530.548 1153.52 551.664 1265.56 530.401C1403.66 504.194 1539.17 444.415 1679.06 431.356C1807.49 419.366 1940.03 431.018 2068.48 436.895C2220.88 443.869 2363.9 495.276 2515.45 504.05" stroke="#DBEDFF" stroke-opacity="0.8" stroke-width="2" stroke-miterlimit="10" stroke-linecap="round"/>
<path d="M-647.451 492.605C-510.363 501.307 -375.594 533.431 -237.89 533.388C-125.83 533.354 -13.7901 527.623 98.2387 525.434C259.51 522.282 420.937 508.715 581.969 499.259C649.26 495.308 717.933 486.59 785.113 492.195C842.962 497.023 900.816 508.044 958.186 516.701C1075.8 534.448 1182.89 549.117 1301.83 533.702C1436.24 516.285 1568.35 482.292 1703.15 468.773C1835.75 455.472 1968.75 439.61 2102.21 441.57C2256.97 443.841 2394.57 518.796 2547.33 532.97" stroke="#DBEDFF" stroke-opacity="0.8" stroke-width="2" stroke-miterlimit="10" stroke-linecap="round"/>
<path d="M-680.538 511.76C-534.814 523.966 -392.438 567.537 -245.415 563.657C-128.023 560.561 -11.273 546.107 106.025 541.002C263.053 534.17 420.107 528.599 577.171 522.581C712.657 517.392 842.1 521.886 977.226 530.753C1223.14 546.89 1462.73 540.744 1707.89 509.547C1842.08 492.47 1973.01 451.999 2108.73 446.481C2276.71 439.657 2417.44 542.121 2580.6 563.138" stroke="#DBEDFF" stroke-opacity="0.8" stroke-width="2" stroke-miterlimit="10" stroke-linecap="round"/>
<path d="M-715.066 531.723C-570.075 546.647 -428.209 599.586 -281.45 595.214C-146.588 591.196 -13.3603 564.651 121.307 557.075C407.602 540.962 694.779 549.726 981.167 544.837C1095.32 542.89 1208.8 547.848 1322.84 552.359C1457.51 557.687 1599.57 571.278 1733.13 548.37C1872.06 524.538 2002.74 461.582 2144.51 451.903C2312.68 440.424 2453.44 567.654 2615.3 594.069" stroke="#DBEDFF" stroke-opacity="0.8" stroke-width="2" stroke-miterlimit="10" stroke-linecap="round"/>
<path d="M-751.106 552.477C-606.618 569.833 -465.483 630.497 -318.795 627.184C-175.766 623.951 -35.2904 586.715 107.187 576.138C398.483 554.516 690.479 588.733 982.014 561.429C1099.08 550.466 1210.93 548.712 1327.89 562.561C1458.37 578.01 1600.03 613.535 1731.27 591.873C1886.01 566.331 2023.22 469.547 2181.42 458.307C2349.78 446.349 2490.69 594.235 2651.58 625.275" stroke="#DBEDFF" stroke-opacity="0.8" stroke-width="2" stroke-miterlimit="10" stroke-linecap="round"/>
<path d="M-788.722 574.015C-634.9 594.553 -485.113 667.924 -327.966 657.259C-179.311 647.172 -34.5749 606.924 113.942 595.522C263.801 584.019 413.639 601.865 563.29 607.851C699.489 613.299 830.549 605.127 964.932 583.412C1095.08 562.384 1213.06 550.521 1343.61 575.559C1467.91 599.399 1609.72 655.688 1737.29 633.337C1896.47 605.449 2030.25 496.909 2190.26 470.443C2370.52 440.628 2520.64 619.953 2689.47 656.282" stroke="#DBEDFF" stroke-opacity="0.8" stroke-width="2" stroke-miterlimit="10" stroke-linecap="round"/>
<path d="M-827.997 596.329C-673.691 618.329 -524.799 696.78 -366.792 688.317C-210.76 679.962 -59.4502 633.307 95.9182 618.816C238.375 605.531 379.018 628.77 520.582 640.763C671.331 653.533 809.66 640.126 956.936 607.686C1091.34 578.083 1212.72 555.287 1348.62 588.506C1479.56 620.512 1629.46 699.978 1766.65 668.24C1929.56 630.554 2062.47 507.844 2228.95 481.459C2311.39 468.393 2389.02 510.028 2457.54 551.104C2546 604.125 2626.94 663.322 2729.1 686.619" stroke="#DBEDFF" stroke-opacity="0.8" stroke-width="2" stroke-miterlimit="10" stroke-linecap="round"/>
<path d="M-868.993 619.404C-714.831 641.907 -568.348 722.113 -410.541 718.172C-238.663 713.88 -72.2737 656.316 98.7225 642.347C241.176 630.713 377.466 664.903 517.813 681.151C672.798 699.093 810.611 671.256 959.988 631.81C1097.86 595.402 1223.49 565.959 1363.73 606.34C1493.14 643.604 1636.98 733.041 1775.91 704.837C1953.1 668.865 2090.95 513.894 2272.85 495.449C2355.62 487.055 2433.05 532.829 2500.09 575.561C2587.49 631.264 2667.76 692.29 2770.54 715.797" stroke="#DBEDFF" stroke-opacity="0.8" stroke-width="2" stroke-miterlimit="10" stroke-linecap="round"/>
<path d="M-911.785 643.244C-745.494 666.906 -591.968 753.374 -421.007 744.587C-245.697 735.574 -76.5032 679.13 98.6496 668.594C230.506 660.661 350.225 700.553 478.169 722.688C634.789 749.785 775.514 713.462 925.395 669.081C1077.01 624.186 1222.2 578.655 1378.43 627.155C1509.55 667.862 1644.49 758.955 1787.41 737.003C1969.36 709.057 2102.95 549.738 2284.01 518.511C2483.15 484.166 2629.77 703.522 2813.86 743.352" stroke="#DBEDFF" stroke-opacity="0.8" stroke-width="2" stroke-miterlimit="10" stroke-linecap="round"/>
<path d="M-956.638 668.614C-790.08 691.708 -635.793 772.362 -465.38 770.234C-277.566 767.888 -95.7077 707.299 91.899 702.269C217.066 698.911 328.554 731.885 450.315 752.375C617.115 780.446 772.351 735.996 931.689 690.039C1085.3 645.733 1234.58 603.197 1392.14 652.118C1534.15 696.211 1677.17 792.325 1831.91 757.57C2008.97 717.804 2146.13 565.625 2328.2 543.056C2524.07 518.774 2676.05 728.071 2859.43 767.569" stroke="#DBEDFF" stroke-opacity="0.8" stroke-width="2" stroke-miterlimit="10" stroke-linecap="round"/>
<path d="M-1003.45 695.111C-836.59 717.076 -679.863 790.007 -510.129 792.651C-322.134 795.58 -139.216 739.702 48.1163 732.864C181.17 728.007 299.909 755.777 430.008 774.84C594.057 798.874 750.789 759.75 908.298 716.959C1073.88 671.971 1236.06 625.684 1405.34 677.563C1547.79 721.222 1691.78 813.522 1846.43 782.985C2031.38 746.465 2179.88 588.498 2370.44 574.923C2463.85 568.269 2553.91 620.513 2631.98 665.114C2720.83 715.87 2805.67 768.135 2906.99 789.347" stroke="#DBEDFF" stroke-opacity="0.8" stroke-width="2" stroke-miterlimit="10" stroke-linecap="round"/>
<path d="M-1052.4 722.586C-873.176 744.019 -703.775 813.48 -521.611 813.645C-335.301 813.813 -153.648 759.987 32.417 756.198C163.354 753.533 281.18 778.584 409.569 796.819C584.04 821.599 752.573 778.417 920.473 735.112C1087.13 692.129 1249.27 651.836 1418.54 702.839C1561.95 746.048 1706.74 834.138 1861.8 808.442C2045.1 778.068 2193.62 642.716 2377.98 616.303C2470.4 603.064 2561.43 643.895 2642.8 683.049C2745.69 732.561 2843.31 788.423 2956.71 809.957" stroke="#DBEDFF" stroke-opacity="0.8" stroke-width="2" stroke-miterlimit="10" stroke-linecap="round"/>
<path d="M-1103.83 751.264C-923.682 770.079 -750.697 831.257 -568.517 833.371C-372.698 835.642 -182.056 777.247 13.4619 775.104C143.909 773.677 261.498 799.375 389.346 818.608C562.294 844.624 730.883 804.967 898.093 763.449C1065 722.005 1234.14 675.984 1405 720.764C1560.14 761.42 1712.51 855.89 1878.22 834.178C2068.16 809.289 2227.15 675.532 2418.69 658.415C2510.88 650.176 2604.01 687.461 2687.76 721.481C2793.42 764.405 2895.45 811.818 3008.91 830.085" stroke="#DBEDFF" stroke-opacity="0.8" stroke-width="2" stroke-miterlimit="10" stroke-linecap="round"/>
<path d="M-1158.08 781.404C-966.478 798.039 -780.613 854.602 -587.204 853.081C-395.063 851.572 -208.122 794.082 -16.0733 791.156C122.916 789.039 247.812 822.089 383.694 842.864C556.855 869.335 726.789 828.799 894.504 788.474C1071.97 745.808 1248.2 701.143 1428.89 749.96C1584.94 792.122 1737.15 878.162 1903.69 859.712C2087.38 839.36 2247.24 728.388 2430.9 707.888C2646.31 683.845 2853.36 823.793 3063.97 850.424" stroke="#DBEDFF" stroke-opacity="0.8" stroke-width="2" stroke-miterlimit="10" stroke-linecap="round"/>
<path d="M-1215.49 813.235C-1021.99 826.572 -832.254 874.295 -637.622 873.427C-436.377 872.529 -241.33 808.639 -40.2579 805.691C100.806 803.624 228.066 841.95 365.402 865.806C549.864 897.845 730.26 852.772 909.436 810.952C1087.55 769.381 1262.37 729.836 1443.1 777.606C1612.51 822.384 1772.57 906.469 1952.77 884.326C2130.93 862.432 2293.08 769.424 2473.15 757.825C2692.88 743.672 2905.09 852.015 3122.2 871.68" stroke="#DBEDFF" stroke-opacity="0.8" stroke-width="2" stroke-miterlimit="10" stroke-linecap="round"/>
<path d="M-1276.39 846.999C-1070.94 857.522 -867.398 901.11 -661.083 894.868C-463.256 888.882 -271.879 825.407 -73.9538 820.55C77.8997 816.824 215.864 866.035 363.215 892.586C547.805 925.847 728.893 880.241 908.562 839.317C1097.02 796.393 1278.06 758.837 1468.54 809.752C1639.62 855.483 1799.5 930.126 1980.91 913.795C2164.54 897.265 2336.11 815.165 2521.63 811.161C2744.99 806.338 2961.72 882.199 3183.99 894.53" stroke="#DBEDFF" stroke-opacity="0.8" stroke-width="2" stroke-miterlimit="10" stroke-linecap="round"/>
<path d="M-1341.1 882.919C-1134.06 890.154 -928.016 924.299 -720.526 919.314C-514.019 914.354 -315.247 844.439 -108.953 837.271C46.3225 831.876 190.062 885.952 339.948 916.63C533.49 956.244 720.152 911.64 909.601 869.563C1096.27 828.106 1278.12 790.324 1467.31 836.808C1650.25 881.753 1818.31 957.195 2010.87 945.466C2189.55 934.58 2360.77 871.238 2540.3 867.406C2778.24 862.328 3012.22 914.01 3249.63 919.671" stroke="#DBEDFF" stroke-opacity="0.8" stroke-width="2" stroke-miterlimit="10" stroke-linecap="round"/>
<path d="M-1409.99 921.241C-1191.67 925.861 -972.717 955.876 -754.232 946.01C-550.896 936.829 -355.453 867.969 -152.229 857.843C15.3587 849.489 172.519 911.74 334.012 945.576C525.517 985.699 708.397 946.125 896.611 905.458C1090.86 863.485 1280.48 823.28 1477.59 869.412C1660.64 912.259 1829.92 983.854 2021.26 980.254C2204.74 976.803 2383.66 926.841 2567.2 924.426C2818.47 921.118 3068.41 948.42 3319.51 947.791" stroke="#DBEDFF" stroke-opacity="0.8" stroke-width="2" stroke-miterlimit="10" stroke-linecap="round"/>
<path d="M-1483.36 962.211C-1263.72 964.429 -1043.69 985.084 -824.019 977.902C-611.361 970.95 -407.719 897.191 -195.801 883.696C-14.9605 872.182 156.883 941.023 331.311 977.034C531.606 1018.38 721.585 977.641 918.682 936.642C1109.76 896.895 1295.63 862.1 1489.13 905.251C1683.16 948.516 1861.03 1018.09 2062.85 1016.95C2252.77 1015.87 2440.43 980.581 2630.53 981.774C2884.61 983.369 3139.89 985.081 3393.94 979.596" stroke="#DBEDFF" stroke-opacity="0.8" stroke-width="2" stroke-miterlimit="10" stroke-linecap="round"/>
<path d="M-1561.56 1006.06C-1329.92 1006.65 -1096.77 1024.08 -865.27 1013.29C-653.517 1003.43 -450.45 931.68 -239.339 916.355C-53.058 902.834 126.185 968.33 306.067 1005.96C514.102 1049.48 706.204 1017.89 912.131 976.947C1109.67 937.674 1302.12 902.216 1502.12 944.783C1707.05 988.402 1894.39 1056.65 2106.72 1057.18C2293.82 1057.65 2480.2 1036 2667.36 1038.65C2935.31 1042.45 3205.44 1024.53 3473.29 1015.77" stroke="#DBEDFF" stroke-opacity="0.8" stroke-width="2" stroke-miterlimit="10" stroke-linecap="round"/>
<path d="M-1644.93 1053.02C-1400.98 1052.72 -1154.31 1067.77 -910.674 1054.11C-688.493 1041.66 -474.967 966.321 -252.629 955.449C-52.3 945.653 142.435 1014.95 337.628 1048.73C542.889 1084.26 736.703 1051.5 939.2 1013.95C1144.09 975.947 1339 948.978 1545.02 994.539C1750.96 1040.08 1940.03 1100.04 2153.19 1101.18C2622.41 1103.68 3089.28 1073.21 3557.89 1056.99" stroke="#DBEDFF" stroke-opacity="0.8" stroke-width="2" stroke-miterlimit="10" stroke-linecap="round"/>
<path d="M-1733.8 1103.35C-1488.65 1103.21 -1242.63 1109.72 -997.583 1103.03C-762.619 1096.6 -536.473 1019.64 -302.169 1006.73C-85.3199 994.775 124.407 1056.76 337.006 1088.03C547.164 1118.93 746.868 1092.23 954.52 1056.98C1152.68 1023.33 1344.76 998.876 1543.97 1038.96C1759.45 1082.32 1958.96 1148.78 2181.19 1149.12C2386.27 1149.44 2591.35 1148.53 2796.44 1148.84C3080.93 1149.28 3363.84 1111.37 3648.09 1103.98" stroke="#DBEDFF" stroke-opacity="0.8" stroke-width="2" stroke-miterlimit="10" stroke-linecap="round"/>
</g>
</svg>
